<?xml version="1.0" encoding="UTF-8"?>
<svg id="Layer_1" xmlns="http://www.w3.org/2000/svg" version="1.1" viewBox="0 0 600 600">
  <!-- Generator: Adobe Illustrator 30.1.0, SVG Export Plug-In . SVG Version: 2.1.1 Build 136)  -->
  <path id="Shape" d="M600,299.99c0,165.69-134.31,300.01-300.01,300.01S0,465.68,0,299.99,134.31,0,299.99,0s300.01,134.31,300.01,299.99Z" fill="#a3c095"/>
  <path d="M463.84,293.56c.35-32.06-9.83-64.43-29.8-89.57-9.64-10.62-17.59-22.72-27.8-32.77-22.53-22.35-56.25-23.84-83.38-37.92-1.58-14.14-6.75-28.29-3.62-42.56.95-4.75,2.36-9.55-.17-14.09-7.12-16.39-1-34.19-2.26-51.28-.95-8.93-.35-19.85-8.86-25.37-1.98,18.59-8.81,35.88-14.35,53.51-2.56,13.75-2.56,28.06-8.48,41.02,3.76,13.13-3.68,24.19-11.73,33.88-17.81,9.12-38.98,11.29-54.47,24.65-11.04,9.38-22.97,17.59-35.32,25.22-9.27,11.6-19.54,22.78-23.67,37.44-16.57,20-18.53,46.87-27.92,70.3-.17,34.79,6.88,72.26,29.1,100.15,15.9,13.13,27.01,30.79,42.89,43.91,15.25,9.11,31.51,16.58,47.25,24.76,10.25,2.4,20.85,3.58,31.06,6.37,8.27,42.65,13.93,86.33,30.55,126.8,5.51-16.61,4.84-34.42,9.6-51.2,6.71-24.81-7.06-50.63.7-75,11.63-10.39,31.02-3.64,43.92-12.56,24.55-15.14,50.53-29.88,68.35-53.04,6.63-13.31,20.56-23.26,20.56-39.23.11-21.5,12.65-41.65,7.86-63.4ZM281.6,425.15c-17.79-4.33-34.36-12.83-49.28-23.23-16.06-10.7-22.04-30.65-37.88-41.6-14.84-17.69-11.63-41.88-17.71-62.85,2.44-14.63,5.31-29.14,6.83-43.96,7.23-11.73,18.4-21.08,21.49-35.21,10.61-15.2,26.75-25.71,39.71-38.88,9.43-10.88,24.44-6.28,36.83-6.71-1.22,12-2.2,24.42.8,36.25,1.46,7.28,4.75,14.45,3.62,22.06-2.48,16.19,3.59,32.45-.7,48.46-8.66,33.46.79,67.25,1.61,100.99-1.24,14.93-1.94,29.99-5.34,44.69ZM416.47,361.73c-11.78,8.39-21.82,18.67-32.1,28.71-17.87,12.37-35.54,25.44-56.81,31.62,1.91-15.17,3.79-30.79-1.04-45.64-11.87-33.56,2.66-68.67,5.12-102.61-2.17-20.18-.1-41.71-9.36-60.29-1.21-13.96,4.84-27.44,8.92-40.58,14.05,5.62,27.28,13.18,38.98,22.92,14.12,10.6,35.77,17.45,38.93,37.19,1.61,12.96,15.8,20.8,15.38,34.07-.88,31.54,3.47,64.51-8.01,94.62Z" fill="#111212"/>
</svg>