<?xml version="1.0" encoding="UTF-8"?>
<svg id="svg3156" xmlns="http://www.w3.org/2000/svg" xmlns:svg="http://www.w3.org/2000/svg" xmlns:rdf="http://www.w3.org/1999/02/22-rdf-syntax-ns#" xmlns:inkscape="http://www.inkscape.org/namespaces/inkscape" xmlns:dc="http://purl.org/dc/elements/1.1/" xmlns:cc="http://creativecommons.org/ns#" version="1.1" viewBox="0 0 570 570">
  <!-- Generator: Adobe Illustrator 30.1.0, SVG Export Plug-In . SVG Version: 2.1.1 Build 136)  -->
  <circle cx="285" cy="285" r="285" isolation="isolate" opacity=".2"/>
  <path d="M444.1,444.1c-71.88,71.88-180.32,84.96-265.5,39.22L483.32,178.6c45.74,85.18,32.66,193.61-39.22,265.5Z" fill="#aae0fa"/>
  <path d="M483.32,178.6L178.6,483.32c-18.94-10.17-36.72-23.24-52.7-39.22-15.98-15.98-29.05-33.76-39.22-52.7L391.4,86.68c18.94,10.17,36.72,23.24,52.7,39.22,15.98,15.98,29.05,33.76,39.22,52.7Z" fill="#fffa70"/>
  <path d="M391.4,86.68L86.68,391.4c-45.74-85.18-32.66-193.61,39.22-265.5s180.32-84.96,265.5-39.22Z" fill="#f19dc4"/>
  <path d="M285,60c-124.26,0-225,100.74-225,225s100.74,225,225,225,225-100.74,225-225S409.26,60,285,60ZM285,480c-107.7,0-195-87.3-195-195s87.3-195,195-195,195,87.3,195,195-87.3,195-195,195Z" fill="#333"/>
  <line x1="90" y1="510" x2="90" y2="60" fill="none"/>
</svg>