<?xml version="1.0" encoding="UTF-8"?>
<svg id="svg3156" xmlns="http://www.w3.org/2000/svg" xmlns:svg="http://www.w3.org/2000/svg" xmlns:rdf="http://www.w3.org/1999/02/22-rdf-syntax-ns#" xmlns:inkscape="http://www.inkscape.org/namespaces/inkscape" xmlns:dc="http://purl.org/dc/elements/1.1/" xmlns:cc="http://creativecommons.org/ns#" version="1.1" viewBox="0 0 570 570">
  <!-- Generator: Adobe Illustrator 30.1.0, SVG Export Plug-In . SVG Version: 2.1.1 Build 136)  -->
  <circle cx="285" cy="285" r="285" isolation="isolate" opacity=".2"/>
  <path d="M285,285H60c0-39.49,10.4-78.3,30.14-112.5s48.15-62.61,82.36-82.36l112.5,194.86Z" fill="#38614c"/>
  <path d="M285,285l-112.5,194.86c-34.2-19.75-62.61-48.15-82.36-82.36s-30.14-73.01-30.14-112.5h225Z" fill="#da3946"/>
  <path d="M285,285l112.5,194.86c-34.2,19.75-73.01,30.14-112.5,30.14s-78.3-10.4-112.5-30.14l112.5-194.86h0Z" fill="#393736"/>
  <path d="M285,285h225c0,39.49-10.4,78.3-30.14,112.5-19.75,34.2-48.15,62.61-82.36,82.36l-112.5-194.86h0Z" fill="#ccafcd"/>
  <path d="M285,285l112.5-194.86c34.2,19.75,62.61,48.15,82.36,82.36,19.75,34.2,30.14,73.01,30.14,112.5h-225Z" fill="#3277a7"/>
  <path d="M285,285l-112.5-194.86c34.2-19.75,73.01-30.14,112.5-30.14s78.3,10.4,112.5,30.14l-112.5,194.86Z" fill="#fafde8"/>
  <path d="M285,60c-124.26,0-225,100.74-225,225s100.74,225,225,225,225-100.74,225-225S409.26,60,285,60ZM285,480c-107.7,0-195-87.3-195-195s87.3-195,195-195,195,87.3,195,195-87.3,195-195,195Z" fill="#333"/>
</svg>