<?xml version="1.0" encoding="UTF-8"?>
<svg id="Layer_1" xmlns="http://www.w3.org/2000/svg" version="1.1" viewBox="0 0 600 600">
  <!-- Generator: Adobe Illustrator 30.1.0, SVG Export Plug-In . SVG Version: 2.1.1 Build 136)  -->
  <circle cx="300" cy="300" r="300" fill="#aae0fa"/>
  <path d="M404.92,502.32c-28.72,29.23-64.1,43.84-106.13,43.84-47.17,0-84.59-16.14-112.27-48.44-26.15-30.76-39.22-69.97-39.22-117.64,0-51.26,22.3-109.72,66.9-175.34,36.38-53.81,79.19-100.98,128.41-141.48-7.18,32.81-10.76,56.13-10.76,69.97,0,31.79,9.98,62.8,29.98,93.05,24.61,35.88,43.31,62.56,56.14,79.97,19.99,30.26,29.99,59.73,29.99,88.42,0,42.56-14.35,78.44-43.04,107.65M404.14,338.15c-7.69-17.17-16.66-28.57-26.92-34.22,1.54,3.08,2.31,7.44,2.31,13.08,0,10.77-3.07,26.14-9.23,46.13l-9.98,30.76c0,17.94,8.95,26.92,26.9,26.92,18.96,0,28.45-12.57,28.45-37.69,0-12.8-3.84-27.79-11.53-44.99" fill="#94a9b9"/>
  <path d="M446.13,479.99H123.57v-16.27L379.38,120.41h-113.87c-18.71.38-33.1,2.35-43.2,5.89-10.1,3.56-19.45,10.38-28.05,20.48-.75.76-1.4,1.5-1.96,2.24-.56.76-1.22,1.5-1.96,2.24-1.5,2.25-2.9,4.21-4.21,5.89s-2.52,3.46-3.64,5.33c-.38,1.13-.94,2.24-1.68,3.37l-2.24,3.37c-.76,2.24-1.69,4.59-2.8,7.01-1.13,2.44-2.44,5.33-3.92,8.69l-20.2-.56v-86.95h306.29v15.14L199.88,456.99h111.63c16.83.38,30.2,0,40.11-1.13,9.9-1.12,19.16-3.54,27.77-7.28l3.08-1.13,2.53-1.13c5.24-2.62,10.28-5.61,15.14-8.98,4.85-3.37,9.72-7.29,14.59-11.78,3.37-3.37,6.73-7.01,10.1-10.93,3.37-3.93,6.92-8.33,10.66-13.18l14.59-20.77h21.31l-25.25,99.3h0Z" fill="#0d0f0f"/>
</svg>