<?xml version="1.0" encoding="UTF-8"?>
<svg id="Vrstva_1" xmlns="http://www.w3.org/2000/svg" version="1.1" viewBox="0 0 1461.01 1445.26">
  <!-- Generator: Adobe Illustrator 30.1.0, SVG Export Plug-In . SVG Version: 2.1.1 Build 136)  -->
  <path d="M-34.17,396.07c1.23-1.24,2.62-2.32,4.17-3.21-1.55.9-2.94,1.98-4.17,3.21Z" fill="#1d1d1b"/>
  <polygon points="710.61 855.01 710.61 1445.26 365.41 1245.94 0 1035.08 0 444.81 345.42 644.14 710.61 855.01" fill="#1d1d1b"/>
  <path d="M855.91,624.63v-18.29c-.49.36-.99.71-1.48,1.05-.49.34-.98.68-1.47,1.02-.5.35-1,.69-1.51,1.02-.51.33-1.02.67-1.54,1-.51.34-1.03.67-1.56,1-.52.33-1.05.66-1.58.98-1.06.66-2.14,1.3-3.23,1.93-.03.01-.06.03-.09.05-30.55,17.48-70.63,27.12-112.84,27.12s-82.29-9.64-112.85-27.12c-.06-.04-.12-.07-.17-.11-1.46-.86-2.9-1.73-4.3-2.61-.47-.3-.93-.6-1.4-.89-.46-.3-.92-.6-1.37-.9-.46-.31-.91-.61-1.36-.91-.45-.31-.9-.61-1.34-.92-.85-.58-1.69-1.18-2.52-1.78v17.89c0,1.39-.12,2.58-.21,3.37.38,14.53,12.22,29.57,32.62,41.36,24.38,13.99,57.41,21.83,92.96,22.05,35.42-.01,68.38-7.83,92.79-22.02,20.33-11.76,32.16-26.7,32.66-41.16-.1-.79-.21-1.87-.21-3.13ZM855.91,624.63v-18.29c-.49.36-.99.71-1.48,1.05-.49.34-.98.68-1.47,1.02-.5.35-1,.69-1.51,1.02-.51.33-1.02.67-1.54,1-.51.34-1.03.67-1.56,1-.52.33-1.05.66-1.58.98-1.06.66-2.14,1.3-3.23,1.93-.03.01-.06.03-.09.05-30.55,17.48-70.63,27.12-112.84,27.12s-82.29-9.64-112.85-27.12c-.06-.04-.12-.07-.17-.11-1.46-.86-2.9-1.73-4.3-2.61-.47-.3-.93-.6-1.4-.89-.46-.3-.92-.6-1.37-.9-.46-.31-.91-.61-1.36-.91-.45-.31-.9-.61-1.34-.92-.85-.58-1.69-1.18-2.52-1.78v17.89c0,1.39-.12,2.58-.21,3.37.38,14.53,12.22,29.57,32.62,41.36,24.38,13.99,57.41,21.83,92.96,22.05,35.42-.01,68.38-7.83,92.79-22.02,20.33-11.76,32.16-26.7,32.66-41.16-.1-.79-.21-1.87-.21-3.13ZM855.91,624.63v-18.29c-.49.36-.99.71-1.48,1.05-.49.34-.98.68-1.47,1.02-.5.35-1,.69-1.51,1.02-.51.33-1.02.67-1.54,1-.51.34-1.03.67-1.56,1-.52.33-1.05.66-1.58.98-1.06.66-2.14,1.3-3.23,1.93-.03.01-.06.03-.09.05-30.55,17.48-70.63,27.12-112.84,27.12s-82.29-9.64-112.85-27.12c-.06-.04-.12-.07-.17-.11-1.46-.86-2.9-1.73-4.3-2.61-.47-.3-.93-.6-1.4-.89-.46-.3-.92-.6-1.37-.9-.46-.31-.91-.61-1.36-.91-.45-.31-.9-.61-1.34-.92-.85-.58-1.69-1.18-2.52-1.78v17.89c0,1.39-.12,2.58-.21,3.37.38,14.53,12.22,29.57,32.62,41.36,24.38,13.99,57.41,21.83,92.96,22.05,35.42-.01,68.38-7.83,92.79-22.02,20.33-11.76,32.16-26.7,32.66-41.16-.1-.79-.21-1.87-.21-3.13ZM823.34,495.53c-24.05-13.9-57.91-21.86-92.96-21.86s-68.68,7.96-92.67,21.83c-21.07,12.08-32.63,27.02-32.63,42.09,0,.8.04,1.62.12,2.42,0,.07.01.13.02.19,1.25,13.92,12.8,27.95,32.5,39.52,24.24,13.85,58.09,21.79,92.89,21.79s68.32-7.75,92.92-21.81c19.38-11.23,31.21-25.63,32.47-39.5,0-.06.01-.12.01-.19.08-.77.12-1.55.13-2.32-.22-14.96-12.16-30.32-32.8-42.16ZM823.34,495.53c-24.05-13.9-57.91-21.86-92.96-21.86s-68.68,7.96-92.67,21.83c-21.07,12.08-32.63,27.02-32.63,42.09,0,.8.04,1.62.12,2.42,0,.07.01.13.02.19,1.25,13.92,12.8,27.95,32.5,39.52,24.24,13.85,58.09,21.79,92.89,21.79s68.32-7.75,92.92-21.81c19.38-11.23,31.21-25.63,32.47-39.5,0-.06.01-.12.01-.19.08-.77.12-1.55.13-2.32-.22-14.96-12.16-30.32-32.8-42.16ZM855.91,624.63v-18.29c-.49.36-.99.71-1.48,1.05-.49.34-.98.68-1.47,1.02-.5.35-1,.69-1.51,1.02-.51.33-1.02.67-1.54,1-.51.34-1.03.67-1.56,1-.52.33-1.05.66-1.58.98-1.06.66-2.14,1.3-3.23,1.93-.03.01-.06.03-.09.05-30.55,17.48-70.63,27.12-112.84,27.12s-82.29-9.64-112.85-27.12c-.06-.04-.12-.07-.17-.11-1.46-.86-2.9-1.73-4.3-2.61-.47-.3-.93-.6-1.4-.89-.46-.3-.92-.6-1.37-.9-.46-.31-.91-.61-1.36-.91-.45-.31-.9-.61-1.34-.92-.85-.58-1.69-1.18-2.52-1.78v17.89c0,1.39-.12,2.58-.21,3.37.38,14.53,12.22,29.57,32.62,41.36,24.38,13.99,57.41,21.83,92.96,22.05,35.42-.01,68.38-7.83,92.79-22.02,20.33-11.76,32.16-26.7,32.66-41.16-.1-.79-.21-1.87-.21-3.13ZM855.91,624.63v-18.29c-.49.36-.99.71-1.48,1.05-.49.34-.98.68-1.47,1.02-.5.35-1,.69-1.51,1.02-.51.33-1.02.67-1.54,1-.51.34-1.03.67-1.56,1-.52.33-1.05.66-1.58.98-1.06.66-2.14,1.3-3.23,1.93-.03.01-.06.03-.09.05-30.55,17.48-70.63,27.12-112.84,27.12s-82.29-9.64-112.85-27.12c-.06-.04-.12-.07-.17-.11-1.46-.86-2.9-1.73-4.3-2.61-.47-.3-.93-.6-1.4-.89-.46-.3-.92-.6-1.37-.9-.46-.31-.91-.61-1.36-.91-.45-.31-.9-.61-1.34-.92-.85-.58-1.69-1.18-2.52-1.78v17.89c0,1.39-.12,2.58-.21,3.37.38,14.53,12.22,29.57,32.62,41.36,24.38,13.99,57.41,21.83,92.96,22.05,35.42-.01,68.38-7.83,92.79-22.02,20.33-11.76,32.16-26.7,32.66-41.16-.1-.79-.21-1.87-.21-3.13ZM823.34,495.53c-24.05-13.9-57.91-21.86-92.96-21.86s-68.68,7.96-92.67,21.83c-21.07,12.08-32.63,27.02-32.63,42.09,0,.8.04,1.62.12,2.42,0,.07.01.13.02.19,1.25,13.92,12.8,27.95,32.5,39.52,24.24,13.85,58.09,21.79,92.89,21.79s68.32-7.75,92.92-21.81c19.38-11.23,31.21-25.63,32.47-39.5,0-.06.01-.12.01-.19.08-.77.12-1.55.13-2.32-.22-14.96-12.16-30.32-32.8-42.16ZM823.34,495.53c-24.05-13.9-57.91-21.86-92.96-21.86s-68.68,7.96-92.67,21.83c-21.07,12.08-32.63,27.02-32.63,42.09,0,.8.04,1.62.12,2.42,0,.07.01.13.02.19,1.25,13.92,12.8,27.95,32.5,39.52,24.24,13.85,58.09,21.79,92.89,21.79s68.32-7.75,92.92-21.81c19.38-11.23,31.21-25.63,32.47-39.5,0-.06.01-.12.01-.19.08-.77.12-1.55.13-2.32-.22-14.96-12.16-30.32-32.8-42.16ZM855.91,624.63v-18.29c-.49.36-.99.71-1.48,1.05-.49.34-.98.68-1.47,1.02-.5.35-1,.69-1.51,1.02-.51.33-1.02.67-1.54,1-.51.34-1.03.67-1.56,1-.52.33-1.05.66-1.58.98-1.06.66-2.14,1.3-3.23,1.93-.03.01-.06.03-.09.05-30.55,17.48-70.63,27.12-112.84,27.12s-82.29-9.64-112.85-27.12c-.06-.04-.12-.07-.17-.11-1.46-.86-2.9-1.73-4.3-2.61-.47-.3-.93-.6-1.4-.89-.46-.3-.92-.6-1.37-.9-.46-.31-.91-.61-1.36-.91-.45-.31-.9-.61-1.34-.92-.85-.58-1.69-1.18-2.52-1.78v17.89c0,1.39-.12,2.58-.21,3.37.38,14.53,12.22,29.57,32.62,41.36,24.38,13.99,57.41,21.83,92.96,22.05,35.42-.01,68.38-7.83,92.79-22.02,20.33-11.76,32.16-26.7,32.66-41.16-.1-.79-.21-1.87-.21-3.13ZM480.67,319.62l-.03-.39c-.82-14.26-12.66-28.96-32.5-40.34-24.44-14.02-57.47-21.86-93.01-22.08-34.64.01-68.4,8.05-92.62,22.05-20.19,11.58-31.73,25.9-32.55,40.36-.01.13-.02.26-.03.4-.03.43-.05.92-.05,1.37,0,14.87,11.58,29.8,32.62,42.04,24.57,14.08,57.56,21.84,92.91,21.84s68.74-7.97,92.96-21.86c20.53-11.88,32.35-27.21,32.35-42.02,0-.46-.02-.95-.05-1.37ZM855.91,624.63v-18.29c-.49.36-.99.71-1.48,1.05-.49.34-.98.68-1.47,1.02-.5.35-1,.69-1.51,1.02-.51.33-1.02.67-1.54,1-.51.34-1.03.67-1.56,1-.52.33-1.05.66-1.58.98-1.06.66-2.14,1.3-3.23,1.93-.03.01-.06.03-.09.05-30.55,17.48-70.63,27.12-112.84,27.12s-82.29-9.64-112.85-27.12c-.06-.04-.12-.07-.17-.11-1.46-.86-2.9-1.73-4.3-2.61-.47-.3-.93-.6-1.4-.89-.46-.3-.92-.6-1.37-.9-.46-.31-.91-.61-1.36-.91-.45-.31-.9-.61-1.34-.92-.85-.58-1.69-1.18-2.52-1.78v17.89c0,1.39-.12,2.58-.21,3.37.38,14.53,12.22,29.57,32.62,41.36,24.38,13.99,57.41,21.83,92.96,22.05,35.42-.01,68.38-7.83,92.79-22.02,20.33-11.76,32.16-26.7,32.66-41.16-.1-.79-.21-1.87-.21-3.13ZM823.34,495.53c-24.05-13.9-57.91-21.86-92.96-21.86s-68.68,7.96-92.67,21.83c-21.07,12.08-32.63,27.02-32.63,42.09,0,.8.04,1.62.12,2.42,0,.07.01.13.02.19,1.25,13.92,12.8,27.95,32.5,39.52,24.24,13.85,58.09,21.79,92.89,21.79s68.32-7.75,92.92-21.81c19.38-11.23,31.21-25.63,32.47-39.5,0-.06.01-.12.01-.19.08-.77.12-1.55.13-2.32-.22-14.96-12.16-30.32-32.8-42.16ZM823.34,495.53c-24.05-13.9-57.91-21.86-92.96-21.86s-68.68,7.96-92.67,21.83c-21.07,12.08-32.63,27.02-32.63,42.09,0,.8.04,1.62.12,2.42,0,.07.01.13.02.19,1.25,13.92,12.8,27.95,32.5,39.52,24.24,13.85,58.09,21.79,92.89,21.79s68.32-7.75,92.92-21.81c19.38-11.23,31.21-25.63,32.47-39.5,0-.06.01-.12.01-.19.08-.77.12-1.55.13-2.32-.22-14.96-12.16-30.32-32.8-42.16ZM855.91,624.63v-18.29c-.49.36-.99.71-1.48,1.05-.49.34-.98.68-1.47,1.02-.5.35-1,.69-1.51,1.02-.51.33-1.02.67-1.54,1-.51.34-1.03.67-1.56,1-.52.33-1.05.66-1.58.98-1.06.66-2.14,1.3-3.23,1.93-.03.01-.06.03-.09.05-30.55,17.48-70.63,27.12-112.84,27.12s-82.29-9.64-112.85-27.12c-.06-.04-.12-.07-.17-.11-1.46-.86-2.9-1.73-4.3-2.61-.47-.3-.93-.6-1.4-.89-.46-.3-.92-.6-1.37-.9-.46-.31-.91-.61-1.36-.91-.45-.31-.9-.61-1.34-.92-.85-.58-1.69-1.18-2.52-1.78v17.89c0,1.39-.12,2.58-.21,3.37.38,14.53,12.22,29.57,32.62,41.36,24.38,13.99,57.41,21.83,92.96,22.05,35.42-.01,68.38-7.83,92.79-22.02,20.33-11.76,32.16-26.7,32.66-41.16-.1-.79-.21-1.87-.21-3.13ZM480.14,390.05c-3.71,2.67-7.65,5.21-11.81,7.62-30.6,17.55-70.68,27.2-112.92,27.2s-82.33-9.65-112.86-27.17c-.04-.02-.07-.04-.1-.06-2.65-1.54-5.2-3.12-7.66-4.75-.39-.26-.77-.51-1.15-.77-.6-.4-1.18-.8-1.76-1.21-.48-.33-.95-.66-1.42-1-.2-.14-.39-.28-.58-.41v20.67c0,14.85,11.87,30.18,32.57,42.05,24.58,14.1,57.59,21.86,92.96,21.86h.12c34.41.21,68.26-7.76,92.84-21.86,20.84-12.05,32.35-26.99,32.35-42.05v-20.53c-.19.14-.38.28-.58.41ZM855.91,624.63v-18.29c-.49.36-.99.71-1.48,1.05-.49.34-.98.68-1.47,1.02-.5.35-1,.69-1.51,1.02-.51.33-1.02.67-1.54,1-.51.34-1.03.67-1.56,1-.52.33-1.05.66-1.58.98-1.06.66-2.14,1.3-3.23,1.93-.03.01-.06.03-.09.05-30.55,17.48-70.63,27.12-112.84,27.12s-82.29-9.64-112.85-27.12c-.06-.04-.12-.07-.17-.11-1.46-.86-2.9-1.73-4.3-2.61-.47-.3-.93-.6-1.4-.89-.46-.3-.92-.6-1.37-.9-.46-.31-.91-.61-1.36-.91-.45-.31-.9-.61-1.34-.92-.85-.58-1.69-1.18-2.52-1.78v17.89c0,1.39-.12,2.58-.21,3.37.38,14.53,12.22,29.57,32.62,41.36,24.38,13.99,57.41,21.83,92.96,22.05,35.42-.01,68.38-7.83,92.79-22.02,20.33-11.76,32.16-26.7,32.66-41.16-.1-.79-.21-1.87-.21-3.13ZM823.34,495.53c-24.05-13.9-57.91-21.86-92.96-21.86s-68.68,7.96-92.67,21.83c-21.07,12.08-32.63,27.02-32.63,42.09,0,.8.04,1.62.12,2.42,0,.07.01.13.02.19,1.25,13.92,12.8,27.95,32.5,39.52,24.24,13.85,58.09,21.79,92.89,21.79s68.32-7.75,92.92-21.81c19.38-11.23,31.21-25.63,32.47-39.5,0-.06.01-.12.01-.19.08-.77.12-1.55.13-2.32-.22-14.96-12.16-30.32-32.8-42.16ZM823.34,495.53c-24.05-13.9-57.91-21.86-92.96-21.86s-68.68,7.96-92.67,21.83c-21.07,12.08-32.63,27.02-32.63,42.09,0,.8.04,1.62.12,2.42,0,.07.01.13.02.19,1.25,13.92,12.8,27.95,32.5,39.52,24.24,13.85,58.09,21.79,92.89,21.79s68.32-7.75,92.92-21.81c19.38-11.23,31.21-25.63,32.47-39.5,0-.06.01-.12.01-.19.08-.77.12-1.55.13-2.32-.22-14.96-12.16-30.32-32.8-42.16ZM855.91,624.63v-18.29c-.49.36-.99.71-1.48,1.05-.49.34-.98.68-1.47,1.02-.5.35-1,.69-1.51,1.02-.51.33-1.02.67-1.54,1-.51.34-1.03.67-1.56,1-.52.33-1.05.66-1.58.98-1.06.66-2.14,1.3-3.23,1.93-.03.01-.06.03-.09.05-30.55,17.48-70.63,27.12-112.84,27.12s-82.29-9.64-112.85-27.12c-.06-.04-.12-.07-.17-.11-1.46-.86-2.9-1.73-4.3-2.61-.47-.3-.93-.6-1.4-.89-.46-.3-.92-.6-1.37-.9-.46-.31-.91-.61-1.36-.91-.45-.31-.9-.61-1.34-.92-.85-.58-1.69-1.18-2.52-1.78v17.89c0,1.39-.12,2.58-.21,3.37.38,14.53,12.22,29.57,32.62,41.36,24.38,13.99,57.41,21.83,92.96,22.05,35.42-.01,68.38-7.83,92.79-22.02,20.33-11.76,32.16-26.7,32.66-41.16-.1-.79-.21-1.87-.21-3.13ZM480.14,390.05c-3.71,2.67-7.65,5.21-11.81,7.62-30.6,17.55-70.68,27.2-112.92,27.2s-82.33-9.65-112.86-27.17c-.04-.02-.07-.04-.1-.06-2.65-1.54-5.2-3.12-7.66-4.75-.39-.26-.77-.51-1.15-.77-.6-.4-1.18-.8-1.76-1.21-.48-.33-.95-.66-1.42-1-.2-.14-.39-.28-.58-.41v20.67c0,14.85,11.87,30.18,32.57,42.05,24.58,14.1,57.59,21.86,92.96,21.86h.12c34.41.21,68.26-7.76,92.84-21.86,20.84-12.05,32.35-26.99,32.35-42.05v-20.53c-.19.14-.38.28-.58.41ZM480.67,319.62l-.03-.39c-.82-14.26-12.66-28.96-32.5-40.34-24.44-14.02-57.47-21.86-93.01-22.08-34.64.01-68.4,8.05-92.62,22.05-20.19,11.58-31.73,25.9-32.55,40.36-.01.13-.02.26-.03.4-.03.43-.05.92-.05,1.37,0,14.87,11.58,29.8,32.62,42.04,24.57,14.08,57.56,21.84,92.91,21.84s68.74-7.97,92.96-21.86c20.53-11.88,32.35-27.21,32.35-42.02,0-.46-.02-.95-.05-1.37ZM855.91,624.63v-18.29c-.49.36-.99.71-1.48,1.05-.49.34-.98.68-1.47,1.02-.5.35-1,.69-1.51,1.02-.51.33-1.02.67-1.54,1-.51.34-1.03.67-1.56,1-.52.33-1.05.66-1.58.98-1.06.66-2.14,1.3-3.23,1.93-.03.01-.06.03-.09.05-30.55,17.48-70.63,27.12-112.84,27.12s-82.29-9.64-112.85-27.12c-.06-.04-.12-.07-.17-.11-1.46-.86-2.9-1.73-4.3-2.61-.47-.3-.93-.6-1.4-.89-.46-.3-.92-.6-1.37-.9-.46-.31-.91-.61-1.36-.91-.45-.31-.9-.61-1.34-.92-.85-.58-1.69-1.18-2.52-1.78v17.89c0,1.39-.12,2.58-.21,3.37.38,14.53,12.22,29.57,32.62,41.36,24.38,13.99,57.41,21.83,92.96,22.05,35.42-.01,68.38-7.83,92.79-22.02,20.33-11.76,32.16-26.7,32.66-41.16-.1-.79-.21-1.87-.21-3.13ZM823.34,495.53c-24.05-13.9-57.91-21.86-92.96-21.86s-68.68,7.96-92.67,21.83c-21.07,12.08-32.63,27.02-32.63,42.09,0,.8.04,1.62.12,2.42,0,.07.01.13.02.19,1.25,13.92,12.8,27.95,32.5,39.52,24.24,13.85,58.09,21.79,92.89,21.79s68.32-7.75,92.92-21.81c19.38-11.23,31.21-25.63,32.47-39.5,0-.06.01-.12.01-.19.08-.77.12-1.55.13-2.32-.22-14.96-12.16-30.32-32.8-42.16ZM823.34,495.53c-24.05-13.9-57.91-21.86-92.96-21.86s-68.68,7.96-92.67,21.83c-21.07,12.08-32.63,27.02-32.63,42.09,0,.8.04,1.62.12,2.42,0,.07.01.13.02.19,1.25,13.92,12.8,27.95,32.5,39.52,24.24,13.85,58.09,21.79,92.89,21.79s68.32-7.75,92.92-21.81c19.38-11.23,31.21-25.63,32.47-39.5,0-.06.01-.12.01-.19.08-.77.12-1.55.13-2.32-.22-14.96-12.16-30.32-32.8-42.16ZM855.91,624.63v-18.29c-.49.36-.99.71-1.48,1.05-.49.34-.98.68-1.47,1.02-.5.35-1,.69-1.51,1.02-.51.33-1.02.67-1.54,1-.51.34-1.03.67-1.56,1-.52.33-1.05.66-1.58.98-1.06.66-2.14,1.3-3.23,1.93-.03.01-.06.03-.09.05-30.55,17.48-70.63,27.12-112.84,27.12s-82.29-9.64-112.85-27.12c-.06-.04-.12-.07-.17-.11-1.46-.86-2.9-1.73-4.3-2.61-.47-.3-.93-.6-1.4-.89-.46-.3-.92-.6-1.37-.9-.46-.31-.91-.61-1.36-.91-.45-.31-.9-.61-1.34-.92-.85-.58-1.69-1.18-2.52-1.78v17.89c0,1.39-.12,2.58-.21,3.37.38,14.53,12.22,29.57,32.62,41.36,24.38,13.99,57.41,21.83,92.96,22.05,35.42-.01,68.38-7.83,92.79-22.02,20.33-11.76,32.16-26.7,32.66-41.16-.1-.79-.21-1.87-.21-3.13ZM730.61,0l-.3.17h.6l-.3-.17ZM855.91,624.63v-18.29c-.49.36-.99.71-1.48,1.05-.49.34-.98.68-1.47,1.02-.5.35-1,.69-1.51,1.02-.51.33-1.02.67-1.54,1-.51.34-1.03.67-1.56,1-.52.33-1.05.66-1.58.98-1.06.66-2.14,1.3-3.23,1.93-.03.01-.06.03-.09.05-30.55,17.48-70.63,27.12-112.84,27.12s-82.29-9.64-112.85-27.12c-.06-.04-.12-.07-.17-.11-1.46-.86-2.9-1.73-4.3-2.61-.47-.3-.93-.6-1.4-.89-.46-.3-.92-.6-1.37-.9-.46-.31-.91-.61-1.36-.91-.45-.31-.9-.61-1.34-.92-.85-.58-1.69-1.18-2.52-1.78v17.89c0,1.39-.12,2.58-.21,3.37.38,14.53,12.22,29.57,32.62,41.36,24.38,13.99,57.41,21.83,92.96,22.05,35.42-.01,68.38-7.83,92.79-22.02,20.33-11.76,32.16-26.7,32.66-41.16-.1-.79-.21-1.87-.21-3.13ZM855.91,191.1v-18.06c-3.87,2.79-8.01,5.46-12.39,7.99-30.59,17.55-70.67,27.2-112.91,27.2s-82.53-9.75-112.96-27.45c-.97-.56-1.94-1.13-2.89-1.71-.47-.29-.94-.58-1.41-.87-.47-.29-.94-.58-1.4-.88-.97-.61-1.92-1.24-2.86-1.86-.41-.28-.82-.55-1.22-.83-.47-.33-.94-.65-1.41-.98-.39-.28-.78-.55-1.16-.83v18.06c0,1.4-.12,2.58-.21,3.37.38,14.54,12.22,29.57,32.62,41.37,24.16,13.86,58.04,21.83,92.9,21.83s68.38-7.77,92.95-21.87c20.27-11.71,32.09-26.67,32.56-41.16-.1-.82-.21-1.97-.21-3.32ZM823.34,495.53c-24.05-13.9-57.91-21.86-92.96-21.86s-68.68,7.96-92.67,21.83c-21.07,12.08-32.63,27.02-32.63,42.09,0,.8.04,1.62.12,2.42,0,.07.01.13.02.19,1.25,13.92,12.8,27.95,32.5,39.52,24.24,13.85,58.09,21.79,92.89,21.79s68.32-7.75,92.92-21.81c19.38-11.23,31.21-25.63,32.47-39.5,0-.06.01-.12.01-.19.08-.77.12-1.55.13-2.32-.22-14.96-12.16-30.32-32.8-42.16ZM823.36,62.3s-.06-.03-.09-.05c-24.22-14.03-58.07-22.08-92.89-22.08s-68.68,8.03-92.57,22.03c-.06.03-.12.07-.18.1-20.99,12.02-32.55,26.94-32.55,42.01,0,.8.04,1.62.12,2.42,0,.07.01.13.02.19,1.24,13.74,13.08,28.05,32.48,39.26,24.12,14.02,57.97,22.05,92.91,22.05s68.38-7.77,92.95-21.86c19.34-11.17,31.18-25.56,32.44-39.44,0-.07.01-.13.01-.2.08-.77.12-1.55.13-2.32-.22-14.96-12.15-30.3-32.78-42.11ZM605.22,540.2c1.25,13.92,12.8,27.95,32.5,39.52,24.24,13.85,58.09,21.79,92.89,21.79s68.32-7.75,92.92-21.81c19.38-11.23,31.21-25.63,32.47-39.5,0-.06.01-.12.01-.19.08-.77.12-1.55.13-2.32-.22-14.96-12.16-30.32-32.8-42.16-24.05-13.9-57.91-21.86-92.96-21.86s-68.68,7.96-92.67,21.83c-21.07,12.08-32.63,27.02-32.63,42.09,0,.8.04,1.62.12,2.42,0,.07.01.13.02.19ZM855.91,606.34c-.49.36-.99.71-1.48,1.05-.49.34-.98.68-1.47,1.02-.5.35-1,.69-1.51,1.02-.51.33-1.02.67-1.54,1-.51.34-1.03.67-1.56,1-.52.33-1.05.66-1.58.98-1.06.66-2.14,1.3-3.23,1.93-.03.01-.06.03-.09.05-30.55,17.48-70.63,27.12-112.84,27.12s-82.29-9.64-112.85-27.12c-.06-.04-.12-.07-.17-.11-1.46-.86-2.9-1.73-4.3-2.61-.47-.3-.93-.6-1.4-.89-.46-.3-.92-.6-1.37-.9-.46-.31-.91-.61-1.36-.91-.45-.31-.9-.61-1.34-.92-.85-.58-1.69-1.18-2.52-1.78v17.89c0,1.39-.12,2.58-.21,3.37.38,14.53,12.22,29.57,32.62,41.36,24.38,13.99,57.41,21.83,92.96,22.05,35.42-.01,68.38-7.83,92.79-22.02,20.33-11.76,32.16-26.7,32.66-41.16-.1-.79-.21-1.87-.21-3.13v-18.29ZM1270.71,311.85c.41,3.02.62,6.07.62,9.14,0,1.75-.07,3.53-.22,5.29v80.61c.11.8.22,1.94.22,3.28,0,30.01-18.7,57.27-52.67,76.75-30.28,17.5-70.38,27.16-112.86,27.16s-82.36-9.66-112.69-27.19c-33.56-19.25-52.84-47.23-52.84-76.72,0-1.44.13-2.66.22-3.44v-80.89c-.15-1.61-.22-3.24-.22-4.85,0-29.89,18.69-57.15,52.61-76.76,30.4-17.67,70.52-27.42,112.92-27.42h.31l-210.65-121.63c.41,2.95.64,5.93.67,8.92.01.07.01.14.01.21,0,1.75-.08,3.54-.23,5.3v80.63c.1.77.23,1.92.23,3.29,0,29.86-18.69,57.1-52.62,76.72-30.59,17.55-70.67,27.2-112.91,27.2s-82.33-9.65-112.86-27.17c-33.5-19.36-52.67-47.33-52.67-76.75,0-1.45.12-2.67.22-3.45v-80.47c-.15-1.76-.22-3.54-.22-5.3,0-3.05.19-6.07.58-9.06l-200.24,115.62-10.3,5.94h.19c42.35.25,82.39,9.98,112.74,27.39,31.29,17.94,49.78,42.8,52.33,70.22v.03c.08.76.13,1.53.18,2.29.11,1.4.16,2.83.16,4.25v89.18c0,29.94-18.61,57.18-52.39,76.72-30.64,17.57-70.15,27.2-111.46,27.2-.5,0-1,0-1.51-.01-42.23,0-82.29-9.65-112.81-27.16-33.47-19.2-52.67-47.18-52.67-76.75v-89.18c0-.28,0-.55.02-.83.14-3.57,1.23-6.91,3.01-9.75l-1.92,1.11h0l-.48.28L20.01,410.18l345.4,199.32,365.2,210.87,710.4-410.19-170.3-98.33ZM896.14,626.8c0,29.86-18.69,57.11-52.62,76.72-30.39,17.68-70.51,27.42-112.91,27.42h-.12c-42.36-.25-82.4-9.98-112.74-27.38-33.5-19.37-52.67-47.33-52.67-76.76,0-1.44.12-2.66.22-3.45v-80.47c-.15-1.76-.22-3.54-.22-5.29,0-30.01,18.7-57.27,52.67-76.75,30.27-17.51,70.3-27.17,112.63-27.17s82.58,9.66,112.92,27.2c33.25,19.07,52.53,46.97,52.83,76.51.01.07.01.14.01.21,0,1.75-.08,3.53-.23,5.29v80.65c.11.81.23,1.95.23,3.27ZM1012.95,278.84c-21.09,12.19-32.68,27.15-32.68,42.15,0,.6.04,1.22.1,1.8.02.12.03.25.04.38,1.31,14.21,12.94,28.37,32.76,39.89,23.95,13.85,57.73,21.81,92.63,21.81s68.91-7.96,92.9-21.83c19.7-11.28,31.21-25.27,32.49-39.44.01-.06.01-.13.02-.19.08-.81.12-1.62.12-2.42,0-14.79-11.89-30.14-32.63-42.13-24.38-13.99-57.42-21.83-92.96-22.05-35.43.01-68.38,7.83-92.79,22.03ZM1218.65,397.71c-30.27,17.5-70.37,27.16-112.85,27.16s-82.36-9.66-112.69-27.2c-.56-.32-1.11-.65-1.66-.98-.55-.33-1.1-.66-1.64-.99-1.63-1-3.22-2.02-4.77-3.06-.44-.29-.87-.58-1.3-.88-.6-.4-1.18-.81-1.77-1.22-.5-.35-.99-.7-1.48-1.06v18.04c0,1.39-.11,2.58-.21,3.37.39,14.55,12.29,29.57,32.79,41.33,24.05,13.91,57.83,21.86,92.73,21.86s68.91-7.95,92.9-21.82c20.62-11.83,32.14-26.4,32.62-41.14-.1-.8-.21-1.89-.21-3.16v-18.24c-3.89,2.8-8.05,5.46-12.46,7.99ZM823.34,495.53c-24.05-13.9-57.91-21.86-92.96-21.86s-68.68,7.96-92.67,21.83c-21.07,12.08-32.63,27.02-32.63,42.09,0,.8.04,1.62.12,2.42,0,.07.01.13.02.19,1.25,13.92,12.8,27.95,32.5,39.52,24.24,13.85,58.09,21.79,92.89,21.79s68.32-7.75,92.92-21.81c19.38-11.23,31.21-25.63,32.47-39.5,0-.06.01-.12.01-.19.08-.77.12-1.55.13-2.32-.22-14.96-12.16-30.32-32.8-42.16ZM855.91,606.34c-.49.36-.99.71-1.48,1.05-.49.34-.98.68-1.47,1.02-.5.35-1,.69-1.51,1.02-.51.33-1.02.67-1.54,1-.51.34-1.03.67-1.56,1-.52.33-1.05.66-1.58.98-1.06.66-2.14,1.3-3.23,1.93-.03.01-.06.03-.09.05-30.55,17.48-70.63,27.12-112.84,27.12s-82.29-9.64-112.85-27.12c-.06-.04-.12-.07-.17-.11-1.46-.86-2.9-1.73-4.3-2.61-.47-.3-.93-.6-1.4-.89-.46-.3-.92-.6-1.37-.9-.46-.31-.91-.61-1.36-.91-.45-.31-.9-.61-1.34-.92-.85-.58-1.69-1.18-2.52-1.78v17.89c0,1.39-.12,2.58-.21,3.37.38,14.53,12.22,29.57,32.62,41.36,24.38,13.99,57.41,21.83,92.96,22.05,35.42-.01,68.38-7.83,92.79-22.02,20.33-11.76,32.16-26.7,32.66-41.16-.1-.79-.21-1.87-.21-3.13v-18.29ZM855.91,624.63v-18.29c-.49.36-.99.71-1.48,1.05-.49.34-.98.68-1.47,1.02-.5.35-1,.69-1.51,1.02-.51.33-1.02.67-1.54,1-.51.34-1.03.67-1.56,1-.52.33-1.05.66-1.58.98-1.06.66-2.14,1.3-3.23,1.93-.03.01-.06.03-.09.05-30.55,17.48-70.63,27.12-112.84,27.12s-82.29-9.64-112.85-27.12c-.06-.04-.12-.07-.17-.11-1.46-.86-2.9-1.73-4.3-2.61-.47-.3-.93-.6-1.4-.89-.46-.3-.92-.6-1.37-.9-.46-.31-.91-.61-1.36-.91-.45-.31-.9-.61-1.34-.92-.85-.58-1.69-1.18-2.52-1.78v17.89c0,1.39-.12,2.58-.21,3.37.38,14.53,12.22,29.57,32.62,41.36,24.38,13.99,57.41,21.83,92.96,22.05,35.42-.01,68.38-7.83,92.79-22.02,20.33-11.76,32.16-26.7,32.66-41.16-.1-.79-.21-1.87-.21-3.13ZM823.34,495.53c-24.05-13.9-57.91-21.86-92.96-21.86s-68.68,7.96-92.67,21.83c-21.07,12.08-32.63,27.02-32.63,42.09,0,.8.04,1.62.12,2.42,0,.07.01.13.02.19,1.25,13.92,12.8,27.95,32.5,39.52,24.24,13.85,58.09,21.79,92.89,21.79s68.32-7.75,92.92-21.81c19.38-11.23,31.21-25.63,32.47-39.5,0-.06.01-.12.01-.19.08-.77.12-1.55.13-2.32-.22-14.96-12.16-30.32-32.8-42.16ZM823.34,495.53c-24.05-13.9-57.91-21.86-92.96-21.86s-68.68,7.96-92.67,21.83c-21.07,12.08-32.63,27.02-32.63,42.09,0,.8.04,1.62.12,2.42,0,.07.01.13.02.19,1.25,13.92,12.8,27.95,32.5,39.52,24.24,13.85,58.09,21.79,92.89,21.79s68.32-7.75,92.92-21.81c19.38-11.23,31.21-25.63,32.47-39.5,0-.06.01-.12.01-.19.08-.77.12-1.55.13-2.32-.22-14.96-12.16-30.32-32.8-42.16ZM855.91,624.63v-18.29c-.49.36-.99.71-1.48,1.05-.49.34-.98.68-1.47,1.02-.5.35-1,.69-1.51,1.02-.51.33-1.02.67-1.54,1-.51.34-1.03.67-1.56,1-.52.33-1.05.66-1.58.98-1.06.66-2.14,1.3-3.23,1.93-.03.01-.06.03-.09.05-30.55,17.48-70.63,27.12-112.84,27.12s-82.29-9.64-112.85-27.12c-.06-.04-.12-.07-.17-.11-1.46-.86-2.9-1.73-4.3-2.61-.47-.3-.93-.6-1.4-.89-.46-.3-.92-.6-1.37-.9-.46-.31-.91-.61-1.36-.91-.45-.31-.9-.61-1.34-.92-.85-.58-1.69-1.18-2.52-1.78v17.89c0,1.39-.12,2.58-.21,3.37.38,14.53,12.22,29.57,32.62,41.36,24.38,13.99,57.41,21.83,92.96,22.05,35.42-.01,68.38-7.83,92.79-22.02,20.33-11.76,32.16-26.7,32.66-41.16-.1-.79-.21-1.87-.21-3.13ZM855.91,624.63v-18.29c-.49.36-.99.71-1.48,1.05-.49.34-.98.68-1.47,1.02-.5.35-1,.69-1.51,1.02-.51.33-1.02.67-1.54,1-.51.34-1.03.67-1.56,1-.52.33-1.05.66-1.58.98-1.06.66-2.14,1.3-3.23,1.93-.03.01-.06.03-.09.05-30.55,17.48-70.63,27.12-112.84,27.12s-82.29-9.64-112.85-27.12c-.06-.04-.12-.07-.17-.11-1.46-.86-2.9-1.73-4.3-2.61-.47-.3-.93-.6-1.4-.89-.46-.3-.92-.6-1.37-.9-.46-.31-.91-.61-1.36-.91-.45-.31-.9-.61-1.34-.92-.85-.58-1.69-1.18-2.52-1.78v17.89c0,1.39-.12,2.58-.21,3.37.38,14.53,12.22,29.57,32.62,41.36,24.38,13.99,57.41,21.83,92.96,22.05,35.42-.01,68.38-7.83,92.79-22.02,20.33-11.76,32.16-26.7,32.66-41.16-.1-.79-.21-1.87-.21-3.13ZM823.34,495.53c-24.05-13.9-57.91-21.86-92.96-21.86s-68.68,7.96-92.67,21.83c-21.07,12.08-32.63,27.02-32.63,42.09,0,.8.04,1.62.12,2.42,0,.07.01.13.02.19,1.25,13.92,12.8,27.95,32.5,39.52,24.24,13.85,58.09,21.79,92.89,21.79s68.32-7.75,92.92-21.81c19.38-11.23,31.21-25.63,32.47-39.5,0-.06.01-.12.01-.19.08-.77.12-1.55.13-2.32-.22-14.96-12.16-30.32-32.8-42.16ZM823.34,495.53c-24.05-13.9-57.91-21.86-92.96-21.86s-68.68,7.96-92.67,21.83c-21.07,12.08-32.63,27.02-32.63,42.09,0,.8.04,1.62.12,2.42,0,.07.01.13.02.19,1.25,13.92,12.8,27.95,32.5,39.52,24.24,13.85,58.09,21.79,92.89,21.79s68.32-7.75,92.92-21.81c19.38-11.23,31.21-25.63,32.47-39.5,0-.06.01-.12.01-.19.08-.77.12-1.55.13-2.32-.22-14.96-12.16-30.32-32.8-42.16ZM855.91,624.63v-18.29c-.49.36-.99.71-1.48,1.05-.49.34-.98.68-1.47,1.02-.5.35-1,.69-1.51,1.02-.51.33-1.02.67-1.54,1-.51.34-1.03.67-1.56,1-.52.33-1.05.66-1.58.98-1.06.66-2.14,1.3-3.23,1.93-.03.01-.06.03-.09.05-30.55,17.48-70.63,27.12-112.84,27.12s-82.29-9.64-112.85-27.12c-.06-.04-.12-.07-.17-.11-1.46-.86-2.9-1.73-4.3-2.61-.47-.3-.93-.6-1.4-.89-.46-.3-.92-.6-1.37-.9-.46-.31-.91-.61-1.36-.91-.45-.31-.9-.61-1.34-.92-.85-.58-1.69-1.18-2.52-1.78v17.89c0,1.39-.12,2.58-.21,3.37.38,14.53,12.22,29.57,32.62,41.36,24.38,13.99,57.41,21.83,92.96,22.05,35.42-.01,68.38-7.83,92.79-22.02,20.33-11.76,32.16-26.7,32.66-41.16-.1-.79-.21-1.87-.21-3.13ZM480.14,390.05c-3.71,2.67-7.65,5.21-11.81,7.62-30.6,17.55-70.68,27.2-112.92,27.2s-82.33-9.65-112.86-27.17c-.04-.02-.07-.04-.1-.06-2.65-1.54-5.2-3.12-7.66-4.75-.39-.26-.77-.51-1.15-.77-.6-.4-1.18-.8-1.76-1.21-.48-.33-.95-.66-1.42-1-.2-.14-.39-.28-.58-.41v20.67c0,14.85,11.87,30.18,32.57,42.05,24.58,14.1,57.59,21.86,92.96,21.86h.12c34.41.21,68.26-7.76,92.84-21.86,20.84-12.05,32.35-26.99,32.35-42.05v-20.53c-.19.14-.38.28-.58.41ZM480.14,390.05c-3.71,2.67-7.65,5.21-11.81,7.62-30.6,17.55-70.68,27.2-112.92,27.2s-82.33-9.65-112.86-27.17c-.04-.02-.07-.04-.1-.06-2.65-1.54-5.2-3.12-7.66-4.75-.39-.26-.77-.51-1.15-.77-.6-.4-1.18-.8-1.76-1.21-.48-.33-.95-.66-1.42-1-.2-.14-.39-.28-.58-.41v20.67c0,14.85,11.87,30.18,32.57,42.05,24.58,14.1,57.59,21.86,92.96,21.86h.12c34.41.21,68.26-7.76,92.84-21.86,20.84-12.05,32.35-26.99,32.35-42.05v-20.53c-.19.14-.38.28-.58.41ZM855.91,624.63v-18.29c-.49.36-.99.71-1.48,1.05-.49.34-.98.68-1.47,1.02-.5.35-1,.69-1.51,1.02-.51.33-1.02.67-1.54,1-.51.34-1.03.67-1.56,1-.52.33-1.05.66-1.58.98-1.06.66-2.14,1.3-3.23,1.93-.03.01-.06.03-.09.05-30.55,17.48-70.63,27.12-112.84,27.12s-82.29-9.64-112.85-27.12c-.06-.04-.12-.07-.17-.11-1.46-.86-2.9-1.73-4.3-2.61-.47-.3-.93-.6-1.4-.89-.46-.3-.92-.6-1.37-.9-.46-.31-.91-.61-1.36-.91-.45-.31-.9-.61-1.34-.92-.85-.58-1.69-1.18-2.52-1.78v17.89c0,1.39-.12,2.58-.21,3.37.38,14.53,12.22,29.57,32.62,41.36,24.38,13.99,57.41,21.83,92.96,22.05,35.42-.01,68.38-7.83,92.79-22.02,20.33-11.76,32.16-26.7,32.66-41.16-.1-.79-.21-1.87-.21-3.13ZM823.34,495.53c-24.05-13.9-57.91-21.86-92.96-21.86s-68.68,7.96-92.67,21.83c-21.07,12.08-32.63,27.02-32.63,42.09,0,.8.04,1.62.12,2.42,0,.07.01.13.02.19,1.25,13.92,12.8,27.95,32.5,39.52,24.24,13.85,58.09,21.79,92.89,21.79s68.32-7.75,92.92-21.81c19.38-11.23,31.21-25.63,32.47-39.5,0-.06.01-.12.01-.19.08-.77.12-1.55.13-2.32-.22-14.96-12.16-30.32-32.8-42.16ZM823.34,495.53c-24.05-13.9-57.91-21.86-92.96-21.86s-68.68,7.96-92.67,21.83c-21.07,12.08-32.63,27.02-32.63,42.09,0,.8.04,1.62.12,2.42,0,.07.01.13.02.19,1.25,13.92,12.8,27.95,32.5,39.52,24.24,13.85,58.09,21.79,92.89,21.79s68.32-7.75,92.92-21.81c19.38-11.23,31.21-25.63,32.47-39.5,0-.06.01-.12.01-.19.08-.77.12-1.55.13-2.32-.22-14.96-12.16-30.32-32.8-42.16ZM855.91,624.63v-18.29c-.49.36-.99.71-1.48,1.05-.49.34-.98.68-1.47,1.02-.5.35-1,.69-1.51,1.02-.51.33-1.02.67-1.54,1-.51.34-1.03.67-1.56,1-.52.33-1.05.66-1.58.98-1.06.66-2.14,1.3-3.23,1.93-.03.01-.06.03-.09.05-30.55,17.48-70.63,27.12-112.84,27.12s-82.29-9.64-112.85-27.12c-.06-.04-.12-.07-.17-.11-1.46-.86-2.9-1.73-4.3-2.61-.47-.3-.93-.6-1.4-.89-.46-.3-.92-.6-1.37-.9-.46-.31-.91-.61-1.36-.91-.45-.31-.9-.61-1.34-.92-.85-.58-1.69-1.18-2.52-1.78v17.89c0,1.39-.12,2.58-.21,3.37.38,14.53,12.22,29.57,32.62,41.36,24.38,13.99,57.41,21.83,92.96,22.05,35.42-.01,68.38-7.83,92.79-22.02,20.33-11.76,32.16-26.7,32.66-41.16-.1-.79-.21-1.87-.21-3.13ZM480.14,390.05c-3.71,2.67-7.65,5.21-11.81,7.62-30.6,17.55-70.68,27.2-112.92,27.2s-82.33-9.65-112.86-27.17c-.04-.02-.07-.04-.1-.06-2.65-1.54-5.2-3.12-7.66-4.75-.39-.26-.77-.51-1.15-.77-.6-.4-1.18-.8-1.76-1.21-.48-.33-.95-.66-1.42-1-.2-.14-.39-.28-.58-.41v20.67c0,14.85,11.87,30.18,32.57,42.05,24.58,14.1,57.59,21.86,92.96,21.86h.12c34.41.21,68.26-7.76,92.84-21.86,20.84-12.05,32.35-26.99,32.35-42.05v-20.53c-.19.14-.38.28-.58.41ZM480.67,319.62l-.03-.39c-.82-14.26-12.66-28.96-32.5-40.34-24.44-14.02-57.47-21.86-93.01-22.08-34.64.01-68.4,8.05-92.62,22.05-20.19,11.58-31.73,25.9-32.55,40.36-.01.13-.02.26-.03.4-.03.43-.05.92-.05,1.37,0,14.87,11.58,29.8,32.62,42.04,24.57,14.08,57.56,21.84,92.91,21.84s68.74-7.97,92.96-21.86c20.53-11.88,32.35-27.21,32.35-42.02,0-.46-.02-.95-.05-1.37ZM855.91,624.63v-18.29c-.49.36-.99.71-1.48,1.05-.49.34-.98.68-1.47,1.02-.5.35-1,.69-1.51,1.02-.51.33-1.02.67-1.54,1-.51.34-1.03.67-1.56,1-.52.33-1.05.66-1.58.98-1.06.66-2.14,1.3-3.23,1.93-.03.01-.06.03-.09.05-30.55,17.48-70.63,27.12-112.84,27.12s-82.29-9.64-112.85-27.12c-.06-.04-.12-.07-.17-.11-1.46-.86-2.9-1.73-4.3-2.61-.47-.3-.93-.6-1.4-.89-.46-.3-.92-.6-1.37-.9-.46-.31-.91-.61-1.36-.91-.45-.31-.9-.61-1.34-.92-.85-.58-1.69-1.18-2.52-1.78v17.89c0,1.39-.12,2.58-.21,3.37.38,14.53,12.22,29.57,32.62,41.36,24.38,13.99,57.41,21.83,92.96,22.05,35.42-.01,68.38-7.83,92.79-22.02,20.33-11.76,32.16-26.7,32.66-41.16-.1-.79-.21-1.87-.21-3.13ZM823.34,495.53c-24.05-13.9-57.91-21.86-92.96-21.86s-68.68,7.96-92.67,21.83c-21.07,12.08-32.63,27.02-32.63,42.09,0,.8.04,1.62.12,2.42,0,.07.01.13.02.19,1.25,13.92,12.8,27.95,32.5,39.52,24.24,13.85,58.09,21.79,92.89,21.79s68.32-7.75,92.92-21.81c19.38-11.23,31.21-25.63,32.47-39.5,0-.06.01-.12.01-.19.08-.77.12-1.55.13-2.32-.22-14.96-12.16-30.32-32.8-42.16ZM823.34,495.53c-24.05-13.9-57.91-21.86-92.96-21.86s-68.68,7.96-92.67,21.83c-21.07,12.08-32.63,27.02-32.63,42.09,0,.8.04,1.62.12,2.42,0,.07.01.13.02.19,1.25,13.92,12.8,27.95,32.5,39.52,24.24,13.85,58.09,21.79,92.89,21.79s68.32-7.75,92.92-21.81c19.38-11.23,31.21-25.63,32.47-39.5,0-.06.01-.12.01-.19.08-.77.12-1.55.13-2.32-.22-14.96-12.16-30.32-32.8-42.16ZM855.91,624.63v-18.29c-.49.36-.99.71-1.48,1.05-.49.34-.98.68-1.47,1.02-.5.35-1,.69-1.51,1.02-.51.33-1.02.67-1.54,1-.51.34-1.03.67-1.56,1-.52.33-1.05.66-1.58.98-1.06.66-2.14,1.3-3.23,1.93-.03.01-.06.03-.09.05-30.55,17.48-70.63,27.12-112.84,27.12s-82.29-9.64-112.85-27.12c-.06-.04-.12-.07-.17-.11-1.46-.86-2.9-1.73-4.3-2.61-.47-.3-.93-.6-1.4-.89-.46-.3-.92-.6-1.37-.9-.46-.31-.91-.61-1.36-.91-.45-.31-.9-.61-1.34-.92-.85-.58-1.69-1.18-2.52-1.78v17.89c0,1.39-.12,2.58-.21,3.37.38,14.53,12.22,29.57,32.62,41.36,24.38,13.99,57.41,21.83,92.96,22.05,35.42-.01,68.38-7.83,92.79-22.02,20.33-11.76,32.16-26.7,32.66-41.16-.1-.79-.21-1.87-.21-3.13ZM480.67,319.62l-.03-.39c-.82-14.26-12.66-28.96-32.5-40.34-24.44-14.02-57.47-21.86-93.01-22.08-34.64.01-68.4,8.05-92.62,22.05-20.19,11.58-31.73,25.9-32.55,40.36-.01.13-.02.26-.03.4-.03.43-.05.92-.05,1.37,0,14.87,11.58,29.8,32.62,42.04,24.57,14.08,57.56,21.84,92.91,21.84s68.74-7.97,92.96-21.86c20.53-11.88,32.35-27.21,32.35-42.02,0-.46-.02-.95-.05-1.37ZM855.91,624.63v-18.29c-.49.36-.99.71-1.48,1.05-.49.34-.98.68-1.47,1.02-.5.35-1,.69-1.51,1.02-.51.33-1.02.67-1.54,1-.51.34-1.03.67-1.56,1-.52.33-1.05.66-1.58.98-1.06.66-2.14,1.3-3.23,1.93-.03.01-.06.03-.09.05-30.55,17.48-70.63,27.12-112.84,27.12s-82.29-9.64-112.85-27.12c-.06-.04-.12-.07-.17-.11-1.46-.86-2.9-1.73-4.3-2.61-.47-.3-.93-.6-1.4-.89-.46-.3-.92-.6-1.37-.9-.46-.31-.91-.61-1.36-.91-.45-.31-.9-.61-1.34-.92-.85-.58-1.69-1.18-2.52-1.78v17.89c0,1.39-.12,2.58-.21,3.37.38,14.53,12.22,29.57,32.62,41.36,24.38,13.99,57.41,21.83,92.96,22.05,35.42-.01,68.38-7.83,92.79-22.02,20.33-11.76,32.16-26.7,32.66-41.16-.1-.79-.21-1.87-.21-3.13ZM823.34,495.53c-24.05-13.9-57.91-21.86-92.96-21.86s-68.68,7.96-92.67,21.83c-21.07,12.08-32.63,27.02-32.63,42.09,0,.8.04,1.62.12,2.42,0,.07.01.13.02.19,1.25,13.92,12.8,27.95,32.5,39.52,24.24,13.85,58.09,21.79,92.89,21.79s68.32-7.75,92.92-21.81c19.38-11.23,31.21-25.63,32.47-39.5,0-.06.01-.12.01-.19.08-.77.12-1.55.13-2.32-.22-14.96-12.16-30.32-32.8-42.16ZM823.34,495.53c-24.05-13.9-57.91-21.86-92.96-21.86s-68.68,7.96-92.67,21.83c-21.07,12.08-32.63,27.02-32.63,42.09,0,.8.04,1.62.12,2.42,0,.07.01.13.02.19,1.25,13.92,12.8,27.95,32.5,39.52,24.24,13.85,58.09,21.79,92.89,21.79s68.32-7.75,92.92-21.81c19.38-11.23,31.21-25.63,32.47-39.5,0-.06.01-.12.01-.19.08-.77.12-1.55.13-2.32-.22-14.96-12.16-30.32-32.8-42.16ZM855.91,624.63v-18.29c-.49.36-.99.71-1.48,1.05-.49.34-.98.68-1.47,1.02-.5.35-1,.69-1.51,1.02-.51.33-1.02.67-1.54,1-.51.34-1.03.67-1.56,1-.52.33-1.05.66-1.58.98-1.06.66-2.14,1.3-3.23,1.93-.03.01-.06.03-.09.05-30.55,17.48-70.63,27.12-112.84,27.12s-82.29-9.64-112.85-27.12c-.06-.04-.12-.07-.17-.11-1.46-.86-2.9-1.73-4.3-2.61-.47-.3-.93-.6-1.4-.89-.46-.3-.92-.6-1.37-.9-.46-.31-.91-.61-1.36-.91-.45-.31-.9-.61-1.34-.92-.85-.58-1.69-1.18-2.52-1.78v17.89c0,1.39-.12,2.58-.21,3.37.38,14.53,12.22,29.57,32.62,41.36,24.38,13.99,57.41,21.83,92.96,22.05,35.42-.01,68.38-7.83,92.79-22.02,20.33-11.76,32.16-26.7,32.66-41.16-.1-.79-.21-1.87-.21-3.13ZM855.91,624.63v-18.29c-.49.36-.99.71-1.48,1.05-.49.34-.98.68-1.47,1.02-.5.35-1,.69-1.51,1.02-.51.33-1.02.67-1.54,1-.51.34-1.03.67-1.56,1-.52.33-1.05.66-1.58.98-1.06.66-2.14,1.3-3.23,1.93-.03.01-.06.03-.09.05-30.55,17.48-70.63,27.12-112.84,27.12s-82.29-9.64-112.85-27.12c-.06-.04-.12-.07-.17-.11-1.46-.86-2.9-1.73-4.3-2.61-.47-.3-.93-.6-1.4-.89-.46-.3-.92-.6-1.37-.9-.46-.31-.91-.61-1.36-.91-.45-.31-.9-.61-1.34-.92-.85-.58-1.69-1.18-2.52-1.78v17.89c0,1.39-.12,2.58-.21,3.37.38,14.53,12.22,29.57,32.62,41.36,24.38,13.99,57.41,21.83,92.96,22.05,35.42-.01,68.38-7.83,92.79-22.02,20.33-11.76,32.16-26.7,32.66-41.16-.1-.79-.21-1.87-.21-3.13ZM823.34,495.53c-24.05-13.9-57.91-21.86-92.96-21.86s-68.68,7.96-92.67,21.83c-21.07,12.08-32.63,27.02-32.63,42.09,0,.8.04,1.62.12,2.42,0,.07.01.13.02.19,1.25,13.92,12.8,27.95,32.5,39.52,24.24,13.85,58.09,21.79,92.89,21.79s68.32-7.75,92.92-21.81c19.38-11.23,31.21-25.63,32.47-39.5,0-.06.01-.12.01-.19.08-.77.12-1.55.13-2.32-.22-14.96-12.16-30.32-32.8-42.16ZM823.34,495.53c-24.05-13.9-57.91-21.86-92.96-21.86s-68.68,7.96-92.67,21.83c-21.07,12.08-32.63,27.02-32.63,42.09,0,.8.04,1.62.12,2.42,0,.07.01.13.02.19,1.25,13.92,12.8,27.95,32.5,39.52,24.24,13.85,58.09,21.79,92.89,21.79s68.32-7.75,92.92-21.81c19.38-11.23,31.21-25.63,32.47-39.5,0-.06.01-.12.01-.19.08-.77.12-1.55.13-2.32-.22-14.96-12.16-30.32-32.8-42.16ZM855.91,624.63v-18.29c-.49.36-.99.71-1.48,1.05-.49.34-.98.68-1.47,1.02-.5.35-1,.69-1.51,1.02-.51.33-1.02.67-1.54,1-.51.34-1.03.67-1.56,1-.52.33-1.05.66-1.58.98-1.06.66-2.14,1.3-3.23,1.93-.03.01-.06.03-.09.05-30.55,17.48-70.63,27.12-112.84,27.12s-82.29-9.64-112.85-27.12c-.06-.04-.12-.07-.17-.11-1.46-.86-2.9-1.73-4.3-2.61-.47-.3-.93-.6-1.4-.89-.46-.3-.92-.6-1.37-.9-.46-.31-.91-.61-1.36-.91-.45-.31-.9-.61-1.34-.92-.85-.58-1.69-1.18-2.52-1.78v17.89c0,1.39-.12,2.58-.21,3.37.38,14.53,12.22,29.57,32.62,41.36,24.38,13.99,57.41,21.83,92.96,22.05,35.42-.01,68.38-7.83,92.79-22.02,20.33-11.76,32.16-26.7,32.66-41.16-.1-.79-.21-1.87-.21-3.13ZM855.91,624.63v-18.29c-.49.36-.99.71-1.48,1.05-.49.34-.98.68-1.47,1.02-.5.35-1,.69-1.51,1.02-.51.33-1.02.67-1.54,1-.51.34-1.03.67-1.56,1-.52.33-1.05.66-1.58.98-1.06.66-2.14,1.3-3.23,1.93-.03.01-.06.03-.09.05-30.55,17.48-70.63,27.12-112.84,27.12s-82.29-9.64-112.85-27.12c-.06-.04-.12-.07-.17-.11-1.46-.86-2.9-1.73-4.3-2.61-.47-.3-.93-.6-1.4-.89-.46-.3-.92-.6-1.37-.9-.46-.31-.91-.61-1.36-.91-.45-.31-.9-.61-1.34-.92-.85-.58-1.69-1.18-2.52-1.78v17.89c0,1.39-.12,2.58-.21,3.37.38,14.53,12.22,29.57,32.62,41.36,24.38,13.99,57.41,21.83,92.96,22.05,35.42-.01,68.38-7.83,92.79-22.02,20.33-11.76,32.16-26.7,32.66-41.16-.1-.79-.21-1.87-.21-3.13Z" fill="#1d1d1b"/>
  <polygon points="1461.01 444.82 1461.01 1035.08 750.61 1445.26 750.61 855.01 1461.01 444.82" fill="#1d1d1b"/>
  <path d="M190.99,311.52l1.92-1.11c-1.78,2.84-2.87,6.18-3.01,9.75-.02.28-.02.55-.02.83v-2.91c0-1.21.11-2.39.32-3.53h0c.18-1.05.44-2.06.78-3.03h0Z" fill="#683c11"/>
  <path d="M520.72,318.08v2.91c0-1.42-.05-2.85-.16-4.25-.05-.76-.1-1.53-.18-2.29.23,1.18.34,2.39.34,3.63Z" fill="#683c11"/>
  <path d="M190.99,311.52h0l-.48.28c-.12.91-.22,1.82-.3,2.74h0c-.07.74-.13,1.48-.17,2.21-.08,1.13-.13,2.27-.13,3.41.14-3.57,1.23-6.91,3.01-9.75l-1.92,1.11Z" fill="#683c11"/>
  <path d="M605.3,172.82h0c.38.28.77.55,1.16.83-.39-.28-.78-.55-1.16-.83Z" fill="#683c11"/>
</svg>