<?xml version="1.0" encoding="UTF-8"?>
<svg id="Layer_1" xmlns="http://www.w3.org/2000/svg" version="1.1" viewBox="0 0 600 600">
  <!-- Generator: Adobe Illustrator 30.1.0, SVG Export Plug-In . SVG Version: 2.1.1 Build 136)  -->
  <path d="M300,300l212.13-212.13c56.24,56.24,87.87,132.6,87.87,212.13,0,164.58-135.42,300-300,300-79.53,0-155.89-31.63-212.13-87.87l212.13-212.13Z"/>
  <path d="M300,300l-212.13,212.13C31.63,455.89,0,379.53,0,300,0,135.42,135.42,0,300,0,379.53,0,455.89,31.63,512.13,87.87l-212.13,212.13Z" fill="#cbc2bf"/>
  <path d="M242.9,546.6l62.3-63.1c-36.45-40.17-60.76-78.75-72.96-115.74l-65.27,65.27c17.96,35.96,43.26,73.81,75.93,113.57Z" fill="#fff"/>
  <path d="M271.7,173.9c-41.5,0-74.9,12.3-100,36.9-25.1,24.6-37.6,57.7-37.6,99.3,0,38.12,10.98,79.11,32.87,122.93l65.27-65.27c-6.15-18.62-9.24-36.85-9.24-54.66,0-19.2,3.6-32.5,10.7-39.9,7-7.3,20.2-11,39.5-11s38.15,3.06,55.45,9.15l64.91-64.91c-43.21-21.68-83.83-32.54-121.86-32.54Z"/>
  <path d="M296,353.5h216l.2-.1-28.2-200.8-46.4,79.1c-14.97-9.62-29.65-18.04-44.04-25.26l-64.91,64.91c16.58,5.83,32.06,14.45,46.45,25.85l-79.1,56.3Z" fill="#fff"/>
</svg>