<?xml version="1.0" encoding="UTF-8"?>
<svg id="Layer_1" xmlns="http://www.w3.org/2000/svg" xmlns:serif="http://www.serif.com/" version="1.1" viewBox="0 0 263.64 263.73">
  <!-- Generator: Adobe Illustrator 30.1.0, SVG Export Plug-In . SVG Version: 2.1.1 Build 136)  -->
  <path d="M131.78,263.73C58.96,263.73-.08,204.69-.08,131.86S58.96,0,131.78,0c72.83,0,131.86,59.04,131.86,131.86,0,72.82-59.04,131.86-131.86,131.86h0Z" fill="#fff"/>
  <path d="M133.9,244.62l20.98-1.62-.67-2.9c-31.85-3.82-65.56-8.63-93.11-26.06-6.88-4.34,1.45-11.12,6.62-10.75,14.37-2.33,34.9-3.05,39.76-20.06-4.65-14.94-17.89-23.63-33.24-24.04-2.38-16.75,8.01-33.04,2.43-49.84-5.33-21.35,9.77-42.03,29.88-48.24,1.96-18.2,22.7-18.2,36.71-16.54,5.17,1.71,9.36-1.03,11.84-5.53-21.71-3.57-37.69-25.7-61.32-18.82-27.25,7.5-46.53,30.76-63.33,52.27-17.68,26.11-26.52,59.82-16.7,90.63,3.72,10.13,6.25,24.2,17.52,28.49,12.72-3.98,17.78-19.03,30.09-24.04,6.05,3.88,12.41,9.62,10.34,17.63-11.68,6.05-30.25,7.65-34.23,22.13,6.67,13.86,19.7,26.16,33.5,33.29,34.78,4.38,13.86,2.4,62.93,4Z"/>
  <path d="M205.23,82.43c7.46-.84,12.19-4.19,15.87-10.46,9.05-15.3-7.91-32.05-22.85-33.24-19.23,3.62-18.92,33.66-5.07,42.81,6.58,1.21,2.59.69,12.05.89Z"/>
  <path d="M146.3,109.03c12.91-2.09,21.31-7.77,16.48-21.85-2.48-13.96-26.88-25.64-33.29-8.48-3.83,10.86,3.41,23.06,12.2,29.21l4.61,1.12Z"/>
  <path d="M214.99,182.74c11.8-2.29,7.23-.07,14.44-4.84,10.24-13.03,20.28-25.58,23.94-42.86,1.61-7.62-.77-16.74-2.17-16.01-9.72-9.77-15.88-18.88-29.06-24.47-22.33-5.43-48.86,16.49-45.08,39.76,5.79,11.58,12.56,22.7,17.37,34.74,4.38,10.05,10.93,11.21,20.56,13.68Z"/>
  <path d="M133.61,145.39c3.94,0,7.14-3.2,7.14-7.14s-3.2-7.14-7.14-7.14c-3.94,0-7.14,3.2-7.14,7.14s3.2,7.14,7.14,7.14Z"/>
  <path d="M156.08,165.65c2.9,0,5.25-2.35,5.25-5.25s-2.35-5.25-5.25-5.25-5.25,2.35-5.25,5.25,2.35,5.25,5.25,5.25Z"/>
  <path d="M174.07,215.94c13.79-2.91,23.6-10.19,19.79-25.52-14.84-9.88-33.81,9.51-24.76,24.3l4.97,1.22Z"/>
</svg>