<?xml version="1.0" encoding="UTF-8"?>
<svg id="Layer_1" xmlns="http://www.w3.org/2000/svg" version="1.1" viewBox="0 0 600 600">
  <!-- Generator: Adobe Illustrator 30.1.0, SVG Export Plug-In . SVG Version: 2.1.1 Build 136)  -->
  <circle cx="300" cy="300" r="300" fill="#cbc2bf"/>
  <path d="M318.39,307.99h205.59l.19-.1-26.84-191.12-44.16,75.29c-57.02-36.65-109.65-55.02-157.91-55.02-1.42,0-2.82.02-4.22.05.1-1.65.19-4.28-.07-7.49-.77-9.69-4-16.48-5.18-19.31-6.38-15.32.36-23.16-2.02-45.7-.84-7.96-.31-17.69-7.89-22.61-1.77,16.57-7.86,31.98-12.79,47.69-2.28,12.25-2.28,25.01-7.56,36.56.16,1.8.41,7.39-3.16,12.99-3.07,4.82-7.28,7-9,7.78-20.67,9.46-36.54,19.56-47.58,27.42-11.29,8.03-21.15,14.44-30.73,26.45-8.26,10.34-17.42,20.3-21.1,33.37-14.76,17.82-16.51,41.77-24.89,62.65-.15,31.01,6.13,64.4,25.94,89.25,14.17,11.7,24.08,27.43,38.23,39.13,13.58,8.12,28.08,14.78,42.11,22.07,9.13,2.14,18.58,3.19,27.68,5.67,7.37,38.02,12.41,76.94,27.22,113,4.91-14.8,4.32-30.67,8.56-45.63,5.98-22.11-6.29-45.13.62-66.84,10.37-9.26,27.65-3.24,39.14-11.19,21.88-13.49,45.03-26.63,60.91-47.27,3.83-4.62,4.53-11.02,1.79-16.08-3.69-6.82-11.5-7.37-11.94-7.39-11.79,6.12-23.57,12.23-35.35,18.35-15.93,11.01-31.67,22.67-50.64,28.18,1.71-13.53,3.38-27.44-.92-40.68-10.59-29.91,2.37-61.2,4.56-91.45.38-3.97.85-9.62,1.17-16.43.61-12.88.96-20.21-.39-29.23-.71-4.73-2.09-11.39-5.08-19.19,1.31-.04,2.64-.06,4.01-.06,20.59,0,39.83,3.51,57.7,10.53,13.93,5.46,27.03,13.06,39.29,22.78l-18.3,13.03-56.99,40.56ZM257.1,280.55c-.71,11.83-2.42,20.06-3.17,24.25-4.77,26.85,2.83,39.95,3.04,77.74.05,9.32-.33,22.93-2.52,39.54-12.72-3.45-22.52-8.15-29.21-11.9-12.27-6.9-19.73-11.09-25.36-19.95-5.74-9.06-2.81-12.35-10.04-23.38-6.21-9.49-9.54-8.84-12.67-16.64-.82-2.03-1.2-3.6-2.89-22.12-.9-9.94-1.35-14.95-1.2-16.46.65-6.43,2.24-7.65,7.33-23.68,3.18-10,2.51-9.38,3.85-12.25,3.98-8.58,7.8-9.57,15.03-18.82,9.76-12.48,6.92-15.95,14.4-21.35,5.76-4.17,6.67-1.54,17.56-7.67,6.2-3.48,9.21-6.19,14.98-6.99,4.23-.58,7.85.15,10.26.86.02,14.09.27,25.48.48,33.29.33,11.64.65,16.96.13,25.53Z"/>
</svg>