<?xml version="1.0" encoding="UTF-8"?>
<svg id="Layer_1" xmlns="http://www.w3.org/2000/svg" version="1.1" viewBox="0 0 600 600">
  <!-- Generator: Adobe Illustrator 30.1.0, SVG Export Plug-In . SVG Version: 2.1.1 Build 136)  -->
  <circle cx="300" cy="300" r="300" fill="#9bd3ae"/>
  <path d="M298.71,580l-23.25-98.82c-15.93-.86-31.65-3.44-47.15-7.75-15.5-4.31-30.79-10.55-45.86-18.73l7.75-94.95h2.58c3.88,11.63,8.5,23.14,13.89,34.56,5.38,11.41,11.84,21.64,19.38,30.68,7.54,9.04,16.15,16.36,25.84,21.96,9.69,5.6,20.78,8.4,33.26,8.4,14.21,0,26.05-4.09,35.52-12.27,9.47-8.18,14.21-20.02,14.21-35.52,0-12.92-3.88-24.01-11.63-33.26-7.75-9.26-17.44-17.98-29.07-26.16-11.63-8.18-24.22-16.26-37.79-24.22-13.56-7.97-26.16-16.9-37.79-26.81s-21.31-21.21-29.07-33.91c-7.75-12.7-11.63-28.1-11.63-46.18,0-28.42,9.04-50.7,27.13-66.85,18.09-16.15,41.55-25.94,70.4-29.39l23.25-100.76h3.23l23.9,102.05c13.78,2.15,26.59,5.17,38.43,9.04,11.84,3.88,22.07,8.18,30.68,12.92l-8.4,93.66h-2.58c-7.32-26.7-17.55-48.77-30.68-66.21-13.13-17.44-30.25-26.16-51.35-26.16-13.78,0-24.44,3.77-31.97,11.3-7.54,7.54-11.3,17.55-11.3,30.03,0,11.63,3.98,21.85,11.95,30.68s18.09,17.22,30.36,25.19c12.27,7.97,25.41,16.04,39.4,24.22,13.99,8.18,27.13,17.55,39.4,28.1,12.27,10.55,22.39,22.82,30.36,36.82,7.97,13.99,11.95,30.9,11.95,50.7,0,26.27-9.04,47.58-27.13,63.94-18.09,16.36-41.12,26.91-69.11,31.65l-23.9,102.05h-3.23Z"/>
</svg>