<?xml version="1.0" encoding="UTF-8"?>
<svg id="Layer_3" xmlns="http://www.w3.org/2000/svg" version="1.1" viewBox="0 0 600 600">
  <!-- Generator: Adobe Illustrator 30.1.0, SVG Export Plug-In . SVG Version: 2.1.1 Build 136)  -->
  <path d="M296.67,46.55c69.94,1.03,76.88,16.92,97.36,17.48,29.62.84,74.91-56.11,136.27-4.64,60.47,50.72,11.2,130.31,11.2,130.31,0,0,33.66,59.63,37.59,150.47,2.86,65.77-22.45,147.61-135.94,194.02-104.48,42.75-260.39,34.22-355.69-38.95C13.59,438.56,18.8,355.87,20.81,327.7c5.3-73.92,37.59-133.31,37.59-133.31,0,0-47.77-94.45,10.55-139.22,64.03-49.17,109.59,8.72,135.94,6.61,19.17-1.59,25.45-16.22,91.78-15.23Z" fill="#855b52"/>
  <path d="M168.66,97.36c-.89-5.2-34.83-38.86-69.94-4.64-27.05,26.39,0,72.28,4.64,68.63,3.56-2.81,16.69-19.73,32.02-34.31,15.7-14.95,33.61-27.66,33.28-29.67Z" fill="#b99277"/>
  <path d="M433.59,97.69c-.23,2.91,17.86,13.83,34.31,29.34,16.64,15.7,31.64,35.95,34.31,35.63,5.3-.66,28.03-45.19-1.64-70.27s-66.33-3.28-66.98,5.3Z" fill="#b99277"/>
  <path d="M302.39,283.03c68.62,0,109.78,77.44,107.34,125.81-2.2,44.02-27.28,80.53-111.75,80.06-84.47-.42-105.89-39.19-107.34-80.53-1.31-36.94,25.08-125.34,111.75-125.34Z" fill="#f2a258"/>
  <path d="M435.56,279.84c1.55,19.5-8.91,37.27-28.92,35.77-19.31-1.5-33.42-17.16-33.42-36.75s10.41-33.47,26.06-35.62c19.13-2.67,34.08,8.91,36.28,36.61Z" fill="#171716"/>
  <path d="M349.45,360.89c-1.59,19.5-14.53,40.36-52.12,39.05-31.55-1.12-46.41-22.13-46.88-41.67-.66-27.61,14.06-37.78,49.73-38.3,40.69-.52,51.47,14.11,49.27,40.92Z" fill="#2f3030"/>
  <path d="M226.73,287.11c-2.02,19.45-20.3,33.09-37.41,28.92-18.8-4.59-27.23-24.38-23.3-43.55,3.52-17.16,18.56-30.52,35.62-28.59,17.81,1.97,27.61,18.7,25.08,43.22Z" fill="#171716"/>
  <path d="M299.95,445.5c25.73,0,39.8-14.2,43.78-18.14s9.33-10.69,17.58-3.94c7.03,5.72.09,14.63-3.09,18.05-5.72,6.14-22.97,24.89-60.61,23.2-36.94-1.64-51.14-18.37-55.13-22.31-3.94-3.94-10.55-14.06-3.09-19.78,8.95-6.84,11.86.89,21.09,8.34s15.05,14.58,39.47,14.58Z" fill="#2f3030"/>
</svg>