<?xml version="1.0" encoding="UTF-8"?>
<svg id="Layer_1" xmlns="http://www.w3.org/2000/svg" version="1.1" viewBox="0 0 600 600">
  <!-- Generator: Adobe Illustrator 30.1.0, SVG Export Plug-In . SVG Version: 2.1.1 Build 136)  -->
  <circle cx="300" cy="300" r="300" fill="#fffbd5"/>
  <path d="M415.29,180.66c-.76-4.02-2.72-7.71-5.65-10.57-6.91-6.76-15.32-14.01-25.38-21.04-16.76-11.71-32.85-19.13-45.85-23.91-1.86-.69-3.14-2.4-3.26-4.39-.18-3.12-.37-6.24-.56-9.35-.16-2.64-2.35-4.7-4.99-4.7h-65.76c-2.61,0-4.78,2-4.99,4.6-.29,3.66-.59,7.33-.88,10.99-.18,2.2-1.77,4.03-3.93,4.49-10.17,2.14-23.53,6.17-37.77,14.11-9.64,5.37-17.42,11.28-23.48,16.62-2.35,2.08-4.17,4.7-5.31,7.63-17.68,45.51-27.2,84.8-32.64,113.23-11.44,59.84-21.46,116.18,4.44,173.82,4.41,9.83,9.03,17.82,12.7,23.61,1.48,2.34,3.85,3.96,6.57,4.47,14.63,2.74,32.79,4.84,53.6,4.32,18.02-.44,33.84-2.73,46.91-5.51,1.73-.36,3.33-1.17,4.64-2.35,3.76-3.38,7.52-6.76,11.28-10.15,3.67-3.3,9.2-3.43,13.02-.3,4.71,3.86,9.42,7.71,14.14,11.57,1.29,1.06,2.83,1.77,4.47,2.09,12.83,2.47,29.04,4.38,47.73,3.74,14.18-.49,26.72-2.34,37.25-4.59,2.39-.52,4.5-1.89,5.94-3.87,3.8-5.21,8.33-12.07,12.74-20.47,0,0,5.8-11.07,10.12-23.61,6.38-18.57-.05-117.12-25.1-250.48ZM243.34,194.67c-1.58,23.37-3.42,36.57-5.19,50.44-3.43,26.83-3.7,33.54-9.9,37.36-6.35,3.92-16.26,3.16-21.72-1.79-5.04-4.57-4.28-10.9-3.64-36.44.71-28.58-.1-26.25.79-32.17,2.05-13.59,4.85-32.24,18.89-41.45,1.53-1.01,11.53-7.37,17.49-3.65,4.4,2.75,4.49,9.68,3.28,27.7Z"/>
  <rect x="259.08" y="61.83" width="74.25" height="31.49" rx="3.55" ry="3.55"/>
</svg>