<?xml version="1.0" encoding="UTF-8"?>
<svg id="Layer_1" xmlns="http://www.w3.org/2000/svg" version="1.1" viewBox="0 0 600 600">
  <!-- Generator: Adobe Illustrator 30.1.0, SVG Export Plug-In . SVG Version: 2.1.1 Build 136)  -->
  <circle cx="300" cy="300" r="300" fill="#f9aa8f"/>
  <g>
    <path d="M359.57,29.72c.5-4.5-5.68-6.23-7.6-2.13-7.85,16.84-18.05,37.2-30.84,59.64-27.73,48.64-36.96,54.85-68.09,106.43-28.45,47.13-39.89,78.36-54.49,118.2-18.03,49.19-16.9,61.21-11.98,70.46,15.2,28.55,69.68,29.13,101.26,21.9,10.12-2.32,32.87-7.82,53-27.2,20.74-19.97,27.09-43.48,30.03-54.96,11.97-46.69-8.22-66.15-14.52-154.05-1.67-23.27-1.64-41.26-1.6-53.59.12-32.54,2.21-61.16,4.83-84.7Z"/>
    <path d="M287.84,404.22c-1.94,19.1-3.27,46.33.14,78.69,3.16,29.99,8.82,83.69,30.08,87.99,12.95,2.62,25.9-14.26,26.94-15.65,11.84-15.81,9.64-35.57,5.82-57.63-4.56-26.32-12.63-62.94-27.93-106.9" fill="none" stroke="#000" stroke-linecap="square" stroke-miterlimit="10" stroke-width="24"/>
  </g>
</svg>