<?xml version="1.0" encoding="UTF-8"?>
<svg id="Layer_1" xmlns="http://www.w3.org/2000/svg" version="1.1" viewBox="0 0 256 256">
  <!-- Generator: Adobe Illustrator 30.1.0, SVG Export Plug-In . SVG Version: 2.1.1 Build 136)  -->
  <path d="M199.1,0C230.53,0,256,25.48,256,56.9v142.2c0,31.43-25.48,56.9-56.9,56.9H56.9C25.48,256,0,230.52,0,199.1V56.9C0,25.48,25.48,0,56.9,0h142.2Z" fill="#fcfcfc"/>
  <path d="M99.75,107.98c-3.69,0-7.17,2.3-8.22,5.45,2.62.7,4.08,1.08,8.18,1.08,2.72.02,5.39-.33,8.07-1.03-1.1-3.57-4.1-5.5-8.03-5.5ZM209.8,88.16v.37c0,3.28-2.67,5.93-5.92,5.93s-5.9-2.68-5.9-5.93v-.37c-.02-1.45-5.25-1.45-5.25,0v.37c0,6.15,5,11.15,11.15,11.15s11.17-5,11.17-11.15v-.37c0-1.45-5.25-1.45-5.25,0ZM99.75,107.98c-3.69,0-7.17,2.3-8.22,5.45,2.62.7,4.08,1.08,8.18,1.08,2.72.02,5.39-.33,8.07-1.03-1.1-3.57-4.1-5.5-8.03-5.5ZM209.8,88.16v.37c0,3.28-2.67,5.93-5.92,5.93s-5.9-2.68-5.9-5.93v-.37c-.02-1.45-5.25-1.45-5.25,0v.37c0,6.15,5,11.15,11.15,11.15s11.17-5,11.17-11.15v-.37c0-1.45-5.25-1.45-5.25,0ZM99.75,107.98c-3.69,0-7.17,2.3-8.22,5.45,2.62.7,4.08,1.08,8.18,1.08,2.72.02,5.39-.33,8.07-1.03-1.1-3.57-4.1-5.5-8.03-5.5ZM209.8,88.16v.37c0,3.28-2.67,5.93-5.92,5.93s-5.9-2.68-5.9-5.93v-.37c-.02-1.45-5.25-1.45-5.25,0v.37c0,6.15,5,11.15,11.15,11.15s11.17-5,11.17-11.15v-.37c0-1.45-5.25-1.45-5.25,0ZM209.8,88.16v.37c0,3.28-2.67,5.93-5.92,5.93s-5.9-2.68-5.9-5.93v-.37c-.02-1.45-5.25-1.45-5.25,0v.37c0,6.15,5,11.15,11.15,11.15s11.17-5,11.17-11.15v-.37c0-1.45-5.25-1.45-5.25,0ZM99.75,107.98c-3.69,0-7.17,2.3-8.22,5.45,2.62.7,4.08,1.08,8.18,1.08,2.72.02,5.39-.33,8.07-1.03-1.1-3.57-4.1-5.5-8.03-5.5ZM128,0C57.31,0,0,57.31,0,128s57.31,128,128,128,128-57.31,128-128S198.69,0,128,0ZM30.53,110.16l11.03-17.83c.77-2.97-1.13-5.3-1.9-6.12-3.8-4.88-1.45-9.35-.83-10.35l.13-.18c5.42-.3,9.02,1.73,10.95,4.6,1.65-2.5,4.57-4.35,8.85-4.62l1.02-.03,1.08.05.1.18c.62,1.02,3,5.47-.83,10.35l-.2.2c-.82.95-2.32,3.07-1.72,5.75l.12.5-.07-.33,11,17.83c.8,1.3.57,2.95-.5,3.97l-.38.33c-2.85,2-8.57,4.75-18.47,4.75s-15.65-2.75-18.5-4.75c-1.38-.98-1.78-2.85-.88-4.3ZM65.93,143.96h-10.55v32.07c0,3.05-2.47,5.5-5.5,5.5s-5.47-2.47-5.47-5.5v-32.07h-10.55c-3.05,0-5.5-2.48-5.5-5.5s2.47-5.48,5.5-5.48h32.07c3.05-.02,5.5,2.45,5.5,5.48s-2.47,5.5-5.5,5.5ZM110.26,151.76c3.05,0,5.5,2.47,5.5,5.5s-2.48,5.47-5.5,5.47h-21.1v7.8h24.25c3.02,0,5.47,2.48,5.47,5.5.03,3.05-2.45,5.5-5.47,5.5h-29.73c-3.05,0-5.5-2.47-5.5-5.5v-37.57c0-3.03,2.48-5.48,5.5-5.48h29.73c3.02-.02,5.47,2.45,5.47,5.48.03,3.05-2.45,5.5-5.47,5.5h-24.25v7.8h21.1ZM123.46,109.33c-6.38,5.85-14.8,9.15-23.75,9.15-8.93-.02-17.3-3.32-23.68-9.15-.37-.35-.6-.85-.62-1.37-.03-.55.17-1.05.55-1.43.8-.77,2.05-.82,2.87-.07.65.6,1.7,1.42,3.13,2.5,2.62-3.95,4.37-9.58,4.95-13.15-1.2.82-3.98,3.62-7.43,1.45-6.12-3.85-6.4-5.5-1.62-12.28.3-.4,4.62-6.32,6.5-7.82,2.45-1.95,7.35-.68,11.12,6.82,0,0,3.3,4.93,5.45,6.25,1.55.98,3.43,1.25,5.85.7,2.9-.65,4.7-1.5,6.55-3.45,1.5-1.6,3.58-2.47,4.9.23.58,1.15,1.63,2.87-.22,5.8-.38.57-.88,1.17-1.48,1.77-.82.85-1.4,1.5-1.67,2.18.55,1.62,1.05,2.97,1.5,4.05l2.8,6.25c.52-.43,1.02-.85,1.52-1.3.83-.75,2.08-.73,2.88.07.75.8.72,2.05-.1,2.8ZM174.55,176.08c.03,3.05-2.45,5.5-5.47,5.5s-5.5-2.47-5.5-5.5v-24.7l-9.25,13.05c-1.95,2.7-5.95,2.7-7.88,0l-9.25-13.05v24.7c0,3.05-2.47,5.5-5.5,5.5s-5.47-2.47-5.47-5.5v-37.62c-.03-3.03,2.45-5.48,5.47-5.48h3.4c1.33,0,2.55.63,3.3,1.7l12,18,11.98-18c.75-1.07,2-1.7,3.3-1.7h3.4c3.02-.02,5.47,2.45,5.47,5.48v37.62ZM175.55,87.38c-1.12,5.88-2.52,7.6-2.52,15.38-.02,7.77.28,13.27.68,15.1h-4.65c.47-1.83,2.55-19.35-1.9-19.35-4.45.02-8.55,19.35-21.25,19.35-14.6-.03-19.55-1.8-19.18-4.03.45-2.7,12.05-8.05,18.13-8.1,2.15,0,3.47,2.55,5.07,1.78,14.55-7.03,6.88-23.55,14.88-31.15,4.18,1.51,11.72,5.92,10.74,11.02ZM180.43,105.38l.95-13.47c.58-8.4,7.58-14.93,16-14.93h13.03c8.42,0,15.4,6.53,16,14.93l.95,13.47c.42,6.43-4.63,11.85-11.05,11.85h-24.85c-6.4-.02-11.48-5.45-11.03-11.85ZM225.63,161.03c.02,13.8-8.48,20.55-21.88,20.55s-21.6-6.82-21.6-20.22v-22.9c-.02-3.03,2.45-5.48,5.48-5.48,3.05-.02,5.5,2.45,5.5,5.48v22.65c-.03,7.4,4.05,11.22,10.75,11.22,6.7.03,10.77-3.67,10.77-10.9v-22.97c0-3.03,2.48-5.48,5.5-5.48,3.03-.02,5.48,2.45,5.48,5.48v22.57ZM203.88,99.68c6.17,0,11.17-5,11.17-11.15v-.37c0-1.45-5.25-1.45-5.25,0v.37c0,3.28-2.67,5.93-5.92,5.93s-5.9-2.68-5.9-5.93v-.37c-.02-1.45-5.25-1.45-5.25,0v.37c0,6.15,5,11.15,11.15,11.15ZM99.75,107.98c-3.69,0-7.17,2.3-8.22,5.45,2.62.7,4.08,1.08,8.18,1.08,2.72.02,5.39-.33,8.07-1.03-1.1-3.57-4.1-5.5-8.03-5.5ZM99.75,107.98c-3.69,0-7.17,2.3-8.22,5.45,2.62.7,4.08,1.08,8.18,1.08,2.72.02,5.39-.33,8.07-1.03-1.1-3.57-4.1-5.5-8.03-5.5ZM209.8,88.16v.37c0,3.28-2.67,5.93-5.92,5.93s-5.9-2.68-5.9-5.93v-.37c-.02-1.45-5.25-1.45-5.25,0v.37c0,6.15,5,11.15,11.15,11.15s11.17-5,11.17-11.15v-.37c0-1.45-5.25-1.45-5.25,0ZM209.8,88.16v.37c0,3.28-2.67,5.93-5.92,5.93s-5.9-2.68-5.9-5.93v-.37c-.02-1.45-5.25-1.45-5.25,0v.37c0,6.15,5,11.15,11.15,11.15s11.17-5,11.17-11.15v-.37c0-1.45-5.25-1.45-5.25,0ZM99.75,107.98c-3.69,0-7.17,2.3-8.22,5.45,2.62.7,4.08,1.08,8.18,1.08,2.72.02,5.39-.33,8.07-1.03-1.1-3.57-4.1-5.5-8.03-5.5ZM99.75,107.98c-3.69,0-7.17,2.3-8.22,5.45,2.62.7,4.08,1.08,8.18,1.08,2.72.02,5.39-.33,8.07-1.03-1.1-3.57-4.1-5.5-8.03-5.5ZM209.8,88.16v.37c0,3.28-2.67,5.93-5.92,5.93s-5.9-2.68-5.9-5.93v-.37c-.02-1.45-5.25-1.45-5.25,0v.37c0,6.15,5,11.15,11.15,11.15s11.17-5,11.17-11.15v-.37c0-1.45-5.25-1.45-5.25,0ZM99.75,107.98c-3.69,0-7.17,2.3-8.22,5.45,2.62.7,4.08,1.08,8.18,1.08,2.72.02,5.39-.33,8.07-1.03-1.1-3.57-4.1-5.5-8.03-5.5ZM209.8,88.16v.37c0,3.28-2.67,5.93-5.92,5.93s-5.9-2.68-5.9-5.93v-.37c-.02-1.45-5.25-1.45-5.25,0v.37c0,6.15,5,11.15,11.15,11.15s11.17-5,11.17-11.15v-.37c0-1.45-5.25-1.45-5.25,0Z" fill="#fb7701"/>
  <circle cx="128" cy="128" r="128" fill="none"/>
</svg>