<?xml version="1.0" encoding="UTF-8"?>
<svg id="Layer_1" xmlns="http://www.w3.org/2000/svg" version="1.1" viewBox="0 0 600 600">
  <!-- Generator: Adobe Illustrator 30.1.0, SVG Export Plug-In . SVG Version: 2.1.1 Build 136)  -->
  <g>
    <path d="M300,300l-212.13,212.13C31.63,455.89,0,379.53,0,300,0,135.42,135.42,0,300,0,379.53,0,455.89,31.63,512.13,87.87l-212.13,212.13Z" fill="#cbc2bf"/>
    <path d="M319.57,168.72c0,16.2-5.9,27.3-17.7,33.2-3.4,1.7-14.2,4.1-32.4,7-11.8,2-17.7,6.5-17.7,13.6v29.8c0,1.3.4,5.1,1.1,11.4l1.1,11.8c0,3.7-.9,9.7-2.6,18.1-4.7,1-10.1,2.1-16.2,3.3-2-7.4-2.9-12.4-2.9-15.1,0-1.2.3-3.1.9-5.5.6-2.4.9-4.3.9-5.5,0-1.7-1.5-6.5-4.6-14.4h-5.7c-.7,1.2-1,2.8-.8,4.8,1,4.2,1.4,7.7,1.1,10.7-4.2,2.9-9.9,6.9-17.3,11.8-1.7-.5-2.3-.7-1.8-.7v-26.1c-.5-1.2-1.7-1.7-3.7-1.5h-4.4l-4.4,34.6c-3.4.2-7.6.2-12.5,0-1.7-8.1-4.8-20.1-9.2-36.1h-3c-2.7,8.6-4.2,13.3-4.4,14,0,1,.3,2.9.9,5.7.6,2.8.9,4.7.9,5.7,0,.7-.2,2.6-.7,5.5l-1.1,8.8c-.5.5-1.1.7-1.8.7-7.4,0-12.3-1.8-14.7-5.5-2.5-3.7-3.4-8.9-3-15.5l3-44.2c0-.7.2-1.7.7-3,.5-1.2.7-2.1.7-2.6,0-2-2.1-5.9-6.3-11.8-.7-.2-4.5-1.1-11.4-2.6-4.2-1-12.4-2.7-24.7-5.1-16.9-3.2-25.4-16.8-25.4-40.9,0-35.9,14.7-65.7,44.2-89.5,1.2,6.6,3.3,15.5,6.3,26.5,2.2.5,7,1.6,14.4,3.3,1.5.5,9,3.2,22.5,8.1-6.9-4.2-15.8-10.9-26.9-20.3-4.2-4.9-6.3-13.1-6.3-24.7,0-2.7,4.7-5.9,14-9.6,8.3-3.4,14.6-5.4,18.8-5.9,13.3-1.7,23.4-2.6,30.6-2.6,30.7,0,55.5,7.9,74.4,23.6-6.1,7.1-16.7,14.7-31.7,22.8,5.9.2,14.5-2.1,25.8-7,11.3-4.9,16.1-7.4,14.4-7.4,2,0,5.9,3.9,11.8,11.8,4.4,5.9,8,11.2,10.7,15.8,7.9,14,13.1,29.1,15.9,45.3,0,5.6.1,9.7.4,12.1v2.9h0l-.2.4h0ZM178.47,175.32c0-10.6-4.6-20.6-13.8-30-9.2-9.5-19.1-14.2-29.7-14.2-9.3,0-17.5,4-24.7,11.9-7.1,7.9-10.7,16.7-10.7,26.3,0,8.4,4,13.9,12.2,16.3,5.2,1.5,12.4,2.4,21.7,2.6h20.3c16.5.2,24.7-4.1,24.7-12.9M218.67,221.02v-11.4c-1.7-3.2-3.4-6.5-5.1-10-1.5-4.9-4.2-11.8-8.1-20.6l-4.1,43.1c0,3.4-.7,5.2-2.2,5.2-1,0-1.7-.2-2.2-.7-1.7-26-2.6-37.3-2.6-33.9v-12.9c-.5-.8-1.1-1.1-1.8-1.1-8.3,8.6-12.5,22.5-12.5,41.6,0,10.6,1,17.1,2.9,19.5,2-.5,4.2-1.4,6.6-2.6,1-.5,3.8-.7,8.5-.7s10.3,1.5,16.9,4.4c2.5,0,3.7-6.6,3.7-19.9M301.97,169.72c0-9.9-3.7-18.7-11.1-26.5s-15.8-11.7-25.4-11.7c-10.3,0-20,4.7-28.9,14.2-9,9.4-13.5,19.3-13.5,29.7,0,8.6,4.2,12.9,12.5,12.9h42.4c16-.2,23.9-6.4,23.9-18.5" fill="#130c0e"/>
  </g>
  <g id="layer1">
    <path id="path269" d="M512.09,87.82c54.31,54.31,87.91,129.31,87.91,212.16,0,165.7-134.32,300.02-300.01,300.02-82.84,0-157.83-33.58-212.12-87.88" fill="#f8f6d8"/>
    <path id="path275" d="M528,438.66c-14.62-13.58-24.32-20.95-29.08-22.09-3.46-.83-6.81,1.19-10.03,6.04s-7.75,6.55-13.61,5.15c-2.38-.57-7.05-2.61-14-6.1-5.63,5.31-8.65,8.83-9.06,10.55-.57,2.39.53,5.63,3.3,9.73,2.76,4.1,5.36,6.43,7.8,7.02,1.55.37,3.73.55,6.55.53,2.8,0,4.66.1,5.56.31,2.66.62,2.81,5.83.47,15.59-2.22,9.31-7.81,23.11-16.76,41.35-.35-23.45-3.65-35.93-9.94-37.43-.87-.21-2.81.02-5.83.67-3.02.64-5.18.82-6.48.51-6.28-1.51-10.55-8.6-12.78-21.28-10.34-.87-16.54,3.04-18.62,11.69-1.04,4.36.14,8.3,3.53,11.86,3.38,3.55,4.94,5.87,4.7,6.96-1.4,5.87-12.13,12.8-32.13,20.84-10.66,4.33-18.04,7.37-22.13,9.13,3.95-3.17,8.21-7.54,12.76-13.09,5.18-6.34,8.23-11.44,9.17-15.35.52-2.15-1.25-5.8-5.3-10.88-4.06-5.09-5.56-9.8-4.52-14.13.88-3.68,3.26-7.91,7.16-12.72-2.04-3.92-5-6.36-8.92-7.29-8.66-2.08-13.67-.3-15.02,5.35.93-3.91.23-.98-2.09,8.77-1.5,7.2-7.78,9.48-18.83,6.85-8.45-2.03-22.18-7.37-41.18-16.04,23.89-.23,36.71-4.04,38.47-11.41-.19.88,0-1.85.58-8.12.74-6.92,6.96-11.86,18.65-14.79.43-10.43-3.56-16.66-12.02-18.68-1.3-.32-4.24,1.39-8.78,5.12-4.57,3.71-8.36,5.22-11.39,4.49-5.2-1.23-10.57-8.48-16.1-21.72-2.56-6.58-6.52-16.34-11.9-29.31,4.36,3.79,8.72,7.6,13.09,11.38,5.78,4.6,10.62,7.35,14.51,8.3,3.04.71,6.65-1.23,10.85-5.84,4.19-4.61,8.67-6.35,13.44-5.2.67.16,4.68,2.48,12.07,7.01,5.62-5.3,8.8-9.46,9.52-12.49.61-2.61-.24-5.96-2.58-10.07-2.33-4.12-4.81-6.47-7.42-7.11-1.08-.26-2.83-.34-5.26-.23-2.43.12-4.19.04-5.27-.22-3.89-.93-4.69-6.27-2.35-16.03.61-2.6,6.67-16.85,18.14-42.73-1,3.18-1.04,9.6-.12,19.21,1.08,11.72,4.12,18.16,9.11,19.37.86.2,2.75-.03,5.67-.71,2.9-.68,5.12-.84,6.62-.47,4.98,1.18,8.42,4.99,10.33,11.4l2.78,9.92c4.54,1.1,8.72.38,12.53-2.14,3.82-2.53,6.28-6.07,7.36-10.61,1.13-4.77,0-8.87-3.41-12.33-3.42-3.46-4.97-5.83-4.65-7.13,1.09-4.55,10.07-10.53,26.97-17.94,13.55-5.91,22.25-9.22,26.09-9.91-12.32,10.35-19.19,18.42-20.59,24.28-.73,3.04.33,6.73,3.19,11.09,3.57,5.2,5.47,8.75,5.7,10.63.97,5.52-.88,12.28-5.55,20.34,4.87,5.52,8.81,8.63,11.86,9.37,6.26,1.5,10.19-1.01,11.75-7.5.16-.65.38-2.78.67-6.38.28-3.6.59-5.59.91-5.97,1.6-2.83,7.92-2.92,18.97-.27,6.94,1.66,20.87,7.05,41.83,16.19-5.08.16-12.7.39-22.85.73-9.29.52-14.33,2.41-15.12,5.65-.35,1.52-.44,4.25-.24,8.18.2,3.94.11,6.79-.32,8.53-.72,3.04-3.35,5.38-7.87,7.05l-12.94,5.15c1.48,5.39,2.52,8.63,3.19,9.69,1.55,3.13,4.15,5.12,7.84,6.01,2.6.62,5.53-1.08,8.79-5.12,3.25-4.03,7.27-5.48,12.04-4.33,5.86,1.39,11.17,8.39,15.94,20.99,2.67,7.06,6.86,17.81,12.58,32.23h0v-.05h0ZM460.35,402.55c3.31-13.88,1.1-27.12-6.65-39.74s-18.56-20.6-32.42-23.92c-14.09-3.37-27.44-1.23-40.03,6.42-12.59,7.63-20.68,18.46-24.27,32.5-3.54,13.82-1.26,27.02,6.85,39.62,8.09,12.59,19.08,20.55,32.95,23.87,14.73,3.52,28.19,1.64,40.35-5.64,12.17-7.29,19.91-18.34,23.23-33.11h-.01ZM455.47,401.37c-3.16,13.22-10.22,23.11-21.19,29.63-10.96,6.54-23.05,8.24-36.26,5.08-12.79-3.06-22.67-10.12-29.65-21.19-6.98-11.06-8.93-22.98-5.87-35.77,3.02-12.58,10.19-22.25,21.56-29.05,11.38-6.78,23.33-8.67,35.89-5.66,12.56,3,22.37,10.16,29.39,21.46,7.04,11.32,9.08,23.15,6.13,35.5h0Z" fill="#211d15"/>
  </g>
</svg>