<?xml version="1.0" encoding="UTF-8"?>
<svg id="Layer_1" xmlns="http://www.w3.org/2000/svg" version="1.1" viewBox="0 0 600 600">
  <!-- Generator: Adobe Illustrator 30.1.0, SVG Export Plug-In . SVG Version: 2.1.1 Build 136)  -->
  <circle cx="300" cy="300" r="300" fill="#cbc2bf"/>
  <path d="M512.09,87.82c54.31,54.31,87.91,129.31,87.91,212.16,0,165.7-134.32,300.02-300,300.02-82.84,0-157.83-33.58-212.12-87.88" fill="#9bd3ae" fill-rule="evenodd"/>
  <path d="M531.11,399.7c0,4.55-1.76,8.62-5.27,12.26-3.52,3.62-7.54,5.43-12.09,5.43-7.25,0-12.59-3.4-15.98-10.21l-16-.67c-3.41,0-10.1,1.48-20.08,4.42-10.66,2.94-16.79,5.33-18.38,7.13-2.49,2.73-4.53,9.08-6.13,19.07-1.37,8.17-2.03,14.18-2.03,18.04,0,6.12.96,10.61,2.89,13.44,1.93,2.84,5.9,5.21,11.9,7.13,6,1.91,9.7,3.01,11.06,3.23.91,0,2.38-.11,4.42-.34h4.09c3.11.03,6.21.48,9.2,1.36,4.53,1.36,6.47,3.16,5.79,5.44-3.19-.44-8.74.23-16.67,2.04l9.52,4.77c0,2.72-3.85,4.07-11.57,4.07-2.05,0-4.83-.43-8.33-1.35-3.52-.92-5.85-1.37-6.98-1.37h-4.42c-.23,2.27-.91,5.66-2.04,10.21-3.87-.22-8.4-2.5-13.62-6.8-5.22-4.32-8.51-6.47-9.86-6.47s-3.3,2.15-5.79,6.47c-2.5,4.3-3.75,7.24-3.75,8.85-2.95-1.61-5.43-4.55-7.49-8.85-.92-2.99-1.94-5.95-3.05-8.87-2.27.23-6.46,5.02-12.59,14.31h-1.7c-.46-.68-2.17-5.44-5.12-14.31-7.03-2.25-13.6-3.38-19.73-3.38-2.95,0-7.49.67-13.63,2.05l-9.52-.68c1.35-1.37,5.33-3.97,11.9-7.83,7.71-4.55,13.61-6.82,17.69-6.82.67,0,1.58.13,2.72.35,1.13.23,2.04.35,2.72.35,1.57,0,4.14-.85,7.66-2.56,3.52-1.7,5.56-3.23,6.11-4.6.59-1.37.87-4.88.87-10.55,0-12.92-3.41-22.58-10.22-28.91-5.9-5.67-15.65-9.75-29.26-12.26-3.63,12.92-13.84,19.4-30.62,19.4-5.45,0-10.89-3.29-16.34-9.88-5.43-6.59-8.17-12.59-8.17-18.04,0-8.4,3.52-15.31,10.55-20.76-5.66-5.89-8.5-11.9-8.5-18.04,0-5.66,1.75-10.66,5.27-14.98,3.52-4.3,8.12-6.8,13.78-7.49-.44-7.25,1.93-12.25,7.15-14.97-2.5-2.48-3.74-6.9-3.74-13.27,0-7.48,2.49-13.72,7.49-18.71,4.98-4.98,11.23-7.49,18.7-7.49,8.18,0,14.87,2.85,20.08,8.51,6.59-22.45,20.75-33.68,42.53-33.68,11.34,0,21.32,4.54,29.95,13.62,3.18,3.39,4.76,5.21,4.76,5.43-2.72,0-1.35-.52,4.09-1.52,5.45-1.03,9.41-1.54,11.91-1.54,8.84,0,16.67,3.3,23.49,9.88,5.9,5.9,9.98,13.37,12.25,22.45,1.58.23,4.07.91,7.48,2.05,4.99,2.5,7.49,6.81,7.49,12.93,0,1.13-.91,3.29-2.72,6.47,14.51,8.17,21.77,19.51,21.77,34.02,0,4.09-1.59,9.76-4.76,17.02,5.92,3.41,8.86,8.41,8.86,14.99h.01ZM390.91,414.67v-4.42c0-5.21-2.55-9.98-7.65-14.29-5.11-4.32-10.26-6.46-15.49-6.46-6.36,0-12.25,1.48-17.69,4.4,12.02-.66,25.63,6.25,40.83,20.77h0ZM384.79,372.49c-3.28-3.71-6.24-7.7-8.84-11.91-9.53,2.48-14.29,5.33-14.29,8.5,2.72-.22,6.7.28,11.9,1.54s8.96,1.88,11.23,1.88h0ZM405.56,361.93v-14.97c-5.46-.89-8.75-1.36-9.88-1.36v5.11l9.88,11.22ZM449.79,352.41c-2.73-1.13-7.83-3.41-15.32-6.81v29.26c10.67-6.13,15.77-13.61,15.32-22.45ZM468.49,392.56l-7.48-9.17c-4.52,3.17-9.13,6.4-13.79,9.69-4.49,3.14-8.55,6.86-12.07,11.06,10.19-5.47,21.33-9.31,33.33-11.58h.01Z" fill="#0d0f0f" fill-rule="evenodd"/>
  <path d="M198,48c9.46,18.8,21.05,37.07,34.79,54.8,6.36,8.05,13.06,15.81,20.09,23.27,7.82,8.41,16.05,16.43,24.67,24.02,9.36,8.18,19.27,15.7,29.66,22.52,11.11,7.31,22.73,13.8,34.79,19.42-18.28,9.67-36.39,21.44-54.4,35.38-8.13,6.37-15.98,13.09-23.51,20.16-8.41,7.88-16.41,16.19-23.96,24.9-8.08,9.43-15.61,19.33-22.55,29.63-7.3,10.83-13.84,22.16-19.58,33.89-9.16-17.8-20.57-35.38-34.27-52.84-11.76-14.88-26.62-30.51-44.6-47.02-17.94-16.51-39.67-31.19-65.13-44.11,18.32-9.41,36.43-21.04,54.4-34.91,15.34-11.98,31.16-26.93,47.46-44.86,16.34-17.93,30.35-39.31,42.14-64.27v.02h0ZM176.43,249.05c8.62,10.85,15.71,21.83,21.31,32.95,7.3-15.45,16.05-28.7,26.26-39.82,10.24-11.19,20.2-20.53,29.79-28.08,10.74-8.36,22.19-15.78,34.21-22.17-15.88-7.14-29.37-15.86-40.41-26.02-11.1-10.16-20.44-19.98-28.02-29.52-8.53-10.62-15.85-22.16-21.83-34.39-7.27,15.72-15.98,29.18-26.02,40.3-10.1,11.19-19.93,20.46-29.51,28.08-10.66,8.32-22.12,15.56-34.21,21.62,15.88,8.17,29.4,17.37,40.65,27.53,11.24,10.16,20.52,20.05,27.78,29.52h0Z" fill-rule="evenodd"/>
</svg>