<?xml version="1.0" encoding="UTF-8"?>
<svg id="Layer_1" xmlns="http://www.w3.org/2000/svg" version="1.1" viewBox="0 0 600 600">
  <!-- Generator: Adobe Illustrator 30.1.0, SVG Export Plug-In . SVG Version: 2.1.1 Build 136)  -->
  <path d="M300,300l-212.16,212.16C31.62,455.88,0,379.56,0,300,0,135.42,135.42,0,300,0,379.56,0,455.88,31.62,512.16,87.84l-212.16,212.16h0Z" fill="#cbc2bf" fill-rule="evenodd"/>
  <path d="M198,48c9.48,18.78,21.06,37.08,34.8,54.78,6.36,8.04,13.08,15.84,20.1,23.28,7.8,8.4,16.08,16.44,24.66,24,9.36,8.16,19.26,15.72,29.64,22.5,11.1,7.32,22.74,13.8,34.8,19.44-18.3,9.66-36.36,21.42-54.42,35.4-8.16,6.36-15.96,13.08-23.52,20.16-8.4,7.86-16.44,16.2-23.94,24.9-8.1,9.42-15.6,19.32-22.56,29.64-7.32,10.86-13.86,22.14-19.56,33.9-9.18-17.82-20.58-35.4-34.26-52.86-11.76-14.88-26.64-30.48-44.58-47.04-17.94-16.5-39.66-31.2-65.1-44.1,18.3-9.42,36.42-21.06,54.42-34.92,15.36-12,31.14-26.94,47.46-44.88s30.36-39.3,42.12-64.26l-.06.06h0ZM176.46,249.06c8.64,10.86,15.72,21.84,21.3,32.94,7.32-15.48,16.02-28.68,26.28-39.84,10.26-11.22,20.22-20.52,29.82-28.08,10.74-8.34,22.2-15.78,34.2-22.14-15.9-7.14-29.4-15.84-40.44-26.04-11.1-10.14-20.46-19.98-28.02-29.52-8.52-10.62-15.84-22.14-21.84-34.38-7.26,15.72-15.96,29.16-26.04,40.32-10.08,11.16-19.92,20.46-29.52,28.08-10.68,8.34-22.14,15.54-34.2,21.6,15.9,8.16,29.4,17.4,40.62,27.54s20.52,20.04,27.78,29.52h.06,0Z" fill-rule="evenodd"/>
  <g id="layer1">
    <path id="path289" d="M512.09,87.82c54.31,54.31,87.91,129.31,87.91,212.16,0,165.7-134.32,300.02-300.01,300.02-82.84,0-157.83-33.58-212.12-87.88" fill="#c777d6"/>
    <g>
      <path d="M520.45,396.25c-16.45-32.77-63.53-36.66-87.43-34.22-11.94,1.22-21.54,4.38-27.95,6.97,20.53-18.42,42.8-23.76,48.15-24.93,30.14-6.6,54.6,2.38,63.52,6.17-2.78-5.29-7.27-12.74-14.17-20.48-5.88-6.59-34.79-38.99-69.21-33.74-36.24,5.52-54.5,49.09-59.56,72.58-2.53,11.73-2.49,21.84-2.01,28.74-11.74-26.5-9.22-50.58-8.59-55.75,3.58-29.54,18.96-49.06,25.26-56.26-5.89,1.01-14.36,2.97-23.86,7.15-8.09,3.56-47.83,21.03-53.48,55.4-5.95,36.18,29.85,67,50.62,79.07,10.38,6.03,20.01,9.12,26.72,10.79h-.02c-28.81,2.98-50.92-6.85-55.66-9.05-26.98-12.53-40.8-33.18-45.71-41.4-.86,5.91-1.61,14.58-.57,24.9.88,8.79,5.22,51.99,36.16,67.98,32.57,16.84,72.95-7.68,90.84-23.71,8.94-8,14.85-16.2,18.52-22.06-6.08,28.33-22.27,46.33-25.81,50.15-20.26,21.79-44.18,28.55-53.5,30.67,5.35,2.64,13.37,6.04,23.5,8.24,8.63,1.88,51.06,11.1,75.83-13.38,26.08-25.77,15.24-71.75,5.52-93.72-4.85-10.98-10.82-19.14-15.27-24.43l.05.03c25.02,14.52,37.12,35.44,39.67,40.02,14.46,25.99,13.5,50.83,12.64,60.36,4.17-4.27,9.87-10.85,15.1-19.81,4.46-7.63,26.33-45.13,10.7-76.25h0v-.03h0ZM434.22,417.77c-3.28,3.08-7.8,6.77-13.67,10.16-5.86,3.39-11.32,5.46-15.63,6.76-3.95-2.17-8.85-5.33-13.89-9.86-5.03-4.53-8.68-9.07-11.26-12.78.84-4.43,2.33-10.07,5.09-16.25,2.75-6.19,5.95-11.07,8.67-14.66,4.47-.57,10.3-.89,17.03-.19,6.74.71,12.37,2.24,16.62,3.72,1.92,4.08,4.03,9.51,5.43,16.14,1.41,6.63,1.7,12.45,1.6,16.96h.01Z"/>
      <path d="M388.75,406.06c5.13-2.62,8.78-5.75,11.11-8.08s5.46-5.98,8.08-11.11c2.62,5.13,5.75,8.78,8.08,11.11s5.98,5.46,11.11,8.08c-5.13,2.62-8.78,5.75-11.11,8.08s-5.46,5.98-8.08,11.11c-2.62-5.13-5.75-8.78-8.08-11.11s-5.98-5.46-11.11-8.08Z"/>
    </g>
  </g>
</svg>