<?xml version="1.0" encoding="UTF-8"?>
<svg id="Layer_1" xmlns="http://www.w3.org/2000/svg" version="1.1" viewBox="0 0 600 600">
  <!-- Generator: Adobe Illustrator 30.1.0, SVG Export Plug-In . SVG Version: 2.1.1 Build 136)  -->
  <circle cx="300" cy="300" r="300" fill="#cbc2bf"/>
  <path d="M512.09,87.82c54.31,54.31,87.91,129.31,87.91,212.16,0,165.7-134.32,300.02-300,300.02-82.84,0-157.83-33.58-212.12-87.88" fill="#f9aa8f" fill-rule="evenodd"/>
  <path d="M529.8,446.63c-10.31,24.59-30.78,36.87-61.44,36.87-5.62,0-11.71.7-18.26,2.12-9.83,2.09-14.75,5.03-14.75,8.78,0,1.16.82,2.51,2.46,4.04,1.63,1.52,3.05,2.28,4.22,2.28-5.86,0-1.88.17,11.92.52,13.82.35,22.48.53,26,.53-20.36,11.92-54.42,17.42-102.17,16.5-15.68-.23-29.14-7.14-40.37-20.72-11.01-12.88-16.51-27.25-16.51-43.18,0-16.85,5.68-31.18,17.03-43.01,11.34-11.82,25.45-17.73,42.31-17.73,3.74,0,8.72.82,14.92,2.46,6.2,1.64,10.36,2.46,12.46,2.46,8.66,0,19.43-3.58,32.31-10.72,12.88-7.13,18.96-10.7,18.26-10.7-2.35,24.59-10.54,41.08-24.58,49.51-10.07,5.86-15.1,11.58-15.1,17.2,0,3.49,2.1,6.32,6.31,8.42,3.28,1.64,6.91,2.46,10.89,2.46,6.08,0,12.05-3.74,17.9-11.24,5.84-7.49,8.42-14.27,7.72-20.38-.7-7.02-.22-15.44,1.41-25.28.46-2.81,2.17-6.26,5.09-10.36,2.93-4.1,5.57-6.61,7.9-7.55,0,2.1-.76,5.62-2.28,10.53s-2.28,8.56-2.28,10.88c0,5.15,1.4,9.13,4.22,11.94,4.21-1.64,7.94-6.91,11.23-15.8,2.81-6.79,4.44-13.34,4.92-19.66-9.84-.47-19.27-4.91-28.27-13.34-9.01-8.43-13.51-17.56-13.51-27.38,0-1.64.22-3.28.7-4.92,1.39,2.11,3.5,5.39,6.32,9.83,3.97,5.86,7.02,8.77,9.13,8.77,2.81,0,4.21-2.91,4.21-8.77,0-7.49-1.99-14.28-5.97-20.37-4.46-7.25-10.19-10.88-17.2-10.88-3.29,0-8.2,1.75-14.75,5.26-6.56,3.5-12.53,5.26-17.9,5.26-1.64,0-8.9-2.11-21.77-6.32,22.7-3.73,34.06-7.13,34.06-10.18,0-7.94-15.56-13.34-46.7-16.15-3.05-.22-8.66-.7-16.85-1.4.93-1.16,7.61-2.45,20.02-3.87,10.53-1.15,17.9-1.75,22.11-1.75,55.71,0,91.05,27.05,106.04,81.13,2.59-2.14,3.87-5.71,3.87-10.68,0-6.42-1.87-14.48-5.62-24.21-1.41-3.8-3.64-9.49-6.68-17.08,19.19,24.45,28.8,47.63,28.8,69.5,0,11.53-2.71,21.98-8.09,31.39-3.5,6.34-10.07,14.45-19.66,24.35-9.6,9.88-16.15,17.52-19.66,22.92,12.88-3.5,21.31-6.2,25.28-8.08,8.89-3.97,16.97-9.95,24.22-17.89,0,3.03-1.29,7.61-3.86,13.67h0v.02h-.01ZM376.72,308.66c0,4.21-2.35,6.89-7.02,8.08l-9.13,1.39c-3.28,1.63-8.08,8.09-14.39,19.32-.71-3.51-1.76-8.41-3.17-14.75-2.11.23-5.61,2.11-10.53,5.63-2.11,1.63-5.5,4.1-10.19,7.37,1.41-8.42,6.1-16.96,14.05-25.63,8.42-9.61,16.62-14.39,24.58-14.39,10.53-.02,15.8,4.31,15.8,12.97h0ZM437.81,340.96c0,3.98-2.17,7.31-6.5,10s-8.6,4.04-12.81,4.04c-5.63,0-10.66-3.16-15.1-9.48-5.39-7.72-10.88-12.75-16.5-15.11,1.11-1.14,2.63-1.78,4.22-1.76,2.09,0,5.66,1.64,10.7,4.91,5.02,3.29,8.25,4.91,9.66,4.91,1.17,0,3.1-1.63,5.78-4.91,2.69-3.27,5.68-4.91,8.96-4.91,7.73,0,11.59,4.12,11.59,12.3h0Z" fill="#0d0f0f" fill-rule="evenodd"/>
  <path d="M198,48c9.46,18.8,21.05,37.07,34.79,54.8,6.36,8.05,13.06,15.81,20.09,23.27,7.82,8.41,16.05,16.43,24.67,24.02,9.36,8.18,19.27,15.7,29.66,22.52,11.11,7.31,22.73,13.8,34.79,19.42-18.28,9.67-36.39,21.44-54.4,35.38-8.13,6.37-15.98,13.09-23.51,20.16-8.41,7.88-16.41,16.19-23.96,24.9-8.08,9.43-15.61,19.33-22.55,29.63-7.3,10.83-13.84,22.16-19.58,33.89-9.16-17.8-20.57-35.38-34.27-52.84-11.76-14.88-26.62-30.51-44.6-47.02-17.94-16.51-39.67-31.19-65.13-44.11,18.32-9.41,36.43-21.04,54.4-34.91,15.34-11.98,31.16-26.93,47.46-44.86,16.34-17.93,30.35-39.31,42.14-64.27v.02h0ZM176.43,249.05c8.62,10.85,15.71,21.83,21.31,32.95,7.3-15.45,16.05-28.7,26.26-39.82,10.24-11.19,20.2-20.53,29.79-28.08,10.74-8.36,22.19-15.78,34.21-22.17-15.88-7.14-29.37-15.86-40.41-26.02-11.1-10.16-20.44-19.98-28.02-29.52-8.53-10.62-15.85-22.16-21.83-34.39-7.27,15.72-15.98,29.18-26.02,40.3-10.1,11.19-19.93,20.46-29.51,28.08-10.66,8.32-22.12,15.56-34.21,21.62,15.88,8.17,29.4,17.37,40.65,27.53,11.24,10.16,20.52,20.05,27.78,29.52h0Z" fill-rule="evenodd"/>
</svg>