<?xml version="1.0" encoding="UTF-8"?>
<svg id="Layer_1" xmlns="http://www.w3.org/2000/svg" version="1.1" viewBox="0 0 600 600">
  <!-- Generator: Adobe Illustrator 30.1.0, SVG Export Plug-In . SVG Version: 2.1.1 Build 136)  -->
  <path d="M300,300l-212.13,212.13C31.63,455.89,0,379.53,0,300,0,135.42,135.42,0,300,0,379.53,0,455.89,31.63,512.13,87.87l-212.13,212.13Z" fill="#9bd3ae"/>
  <path d="M309.89,205.69c0,4.5-1.8,8.6-5.3,12.3-3.5,3.6-7.6,5.4-12.1,5.4-7.2,0-12.6-3.4-16-10.2l-16-.7c-3.4,0-10.1,1.5-20.1,4.4-10.7,2.9-16.8,5.3-18.4,7.1-2.5,2.7-4.5,9.1-6.1,19.1-1.4,8.2-2,14.2-2,18.1,0,6.1,1,10.6,2.9,13.4s5.9,5.2,11.9,7.1,9.7,3,11.1,3.2c.9,0,2.4-.1,4.4-.3h4.1c2.9,0,6,.5,9.2,1.4,4.5,1.4,6.5,3.2,5.8,5.4-3.2-.4-8.7.2-16.7,2l9.5,4.8c0,2.7-3.9,4.1-11.6,4.1-2.1,0-4.8-.4-8.3-1.4-3.5-.9-5.8-1.4-7-1.4h-4.4c-.2,2.3-.9,5.7-2,10.2-3.9-.2-8.4-2.5-13.6-6.8-5.2-4.3-8.5-6.5-9.9-6.5s-3.3,2.2-5.8,6.5-3.7,7.2-3.7,8.9c-2.9-1.6-5.4-4.5-7.5-8.8-.9-3-1.9-5.9-3.1-8.9-2.3.2-6.5,5-12.6,14.3h-1.7c-.5-.7-2.2-5.4-5.1-14.3-7-2.3-13.6-3.4-19.7-3.4-2.9,0-7.5.7-13.6,2l-9.5-.7c1.4-1.4,5.3-4,11.9-7.8,7.7-4.5,13.6-6.8,17.7-6.8.7,0,1.6.1,2.7.3s2,.4,2.7.4c1.6,0,4.1-.9,7.7-2.6,3.5-1.7,5.6-3.2,6.1-4.6.6-1.4.9-4.9.9-10.6,0-12.9-3.4-22.6-10.2-28.9-5.9-5.7-15.6-9.7-29.3-12.3-3.6,12.9-13.8,19.4-30.6,19.4-5.5,0-10.9-3.3-16.3-9.9-5.4-6.6-8.2-12.6-8.2-18,0-8.4,3.5-15.3,10.5-20.8-5.7-5.9-8.5-11.9-8.5-18,0-5.7,1.8-10.7,5.3-15s8.1-6.8,13.8-7.5c-.4-7.2,1.9-12.3,7.1-15-2.5-2.5-3.7-6.9-3.7-13.3,0-7.5,2.5-13.7,7.5-18.7s11.2-7.5,18.7-7.5c8.2,0,14.9,2.9,20.1,8.5,6.6-22.5,20.8-33.7,42.5-33.7,11.3,0,21.3,4.5,29.9,13.6,3.2,3.4,4.8,5.2,4.8,5.4-2.7,0-1.3-.5,4.1-1.5,5.5-1,9.4-1.5,11.9-1.5,8.8,0,16.7,3.3,23.5,9.9,5.9,5.9,10,13.4,12.3,22.5,1.6.2,4.1.9,7.5,2,5,2.5,7.5,6.8,7.5,12.9,0,1.1-.9,3.3-2.7,6.5,14.5,8.2,21.8,19.5,21.8,34,0,4.1-1.6,9.8-4.8,17,5.9,3.4,8.9,8.4,8.9,15M169.89,220.39v-4.4c0-5.2-2.5-10-7.7-14.3-5.1-4.3-10.3-6.5-15.5-6.5-6.4,0-12.3,1.5-17.7,4.4,12-.7,25.6,6.2,40.8,20.8M163.69,178.19c-3.4-3.9-6.3-7.8-8.8-11.9-9.5,2.5-14.3,5.3-14.3,8.5,2.7-.2,6.7.3,11.9,1.5,5.2,1.3,9,1.9,11.2,1.9M184.49,167.59v-15c-5.5-.9-8.8-1.4-9.9-1.4v5.1l9.9,11.2M228.69,157.99c-2.7-1.1-7.8-3.4-15.3-6.8v29.3c10.7-6.1,15.8-13.6,15.3-22.5M247.39,198.19l-7.5-9.2c-4.5,3.2-9.1,6.4-13.8,9.7-4.6,3.3-8.7,7-12.1,11.1,10.2-5.5,21.3-9.3,33.3-11.6" fill="#00160b"/>
  <g id="layer1">
    <path id="path289" d="M512.09,87.82c54.31,54.31,87.91,129.31,87.91,212.16,0,165.7-134.32,300.02-300.01,300.02-82.84,0-157.83-33.58-212.12-87.88" fill="#c777d6"/>
    <g>
      <path d="M520.45,396.25c-16.45-32.77-63.53-36.66-87.43-34.22-11.94,1.22-21.54,4.38-27.95,6.97,20.53-18.42,42.8-23.76,48.15-24.93,30.14-6.6,54.6,2.38,63.52,6.17-2.78-5.29-7.27-12.74-14.17-20.48-5.88-6.59-34.79-38.99-69.21-33.74-36.24,5.52-54.5,49.09-59.56,72.58-2.53,11.73-2.49,21.84-2.01,28.74-11.74-26.5-9.22-50.58-8.59-55.75,3.58-29.54,18.96-49.06,25.26-56.26-5.89,1.01-14.36,2.97-23.86,7.15-8.09,3.56-47.83,21.03-53.48,55.4-5.95,36.18,29.85,67,50.62,79.07,10.38,6.03,20.01,9.12,26.72,10.79h-.02c-28.81,2.98-50.92-6.85-55.66-9.05-26.98-12.53-40.8-33.18-45.71-41.4-.86,5.91-1.61,14.58-.57,24.9.88,8.79,5.22,51.99,36.16,67.98,32.57,16.84,72.95-7.68,90.84-23.71,8.94-8,14.85-16.2,18.52-22.06-6.08,28.33-22.27,46.33-25.81,50.15-20.26,21.79-44.18,28.55-53.5,30.67,5.35,2.64,13.37,6.04,23.5,8.24,8.63,1.88,51.06,11.1,75.83-13.38,26.08-25.77,15.24-71.75,5.52-93.72-4.85-10.98-10.82-19.14-15.27-24.43l.05.03c25.02,14.52,37.12,35.44,39.67,40.02,14.46,25.99,13.5,50.83,12.64,60.36,4.17-4.27,9.87-10.85,15.1-19.81,4.46-7.63,26.33-45.13,10.7-76.25h0v-.03h0ZM434.22,417.77c-3.28,3.08-7.8,6.77-13.67,10.16-5.86,3.39-11.32,5.46-15.63,6.76-3.95-2.17-8.85-5.33-13.89-9.86-5.03-4.53-8.68-9.07-11.26-12.78.84-4.43,2.33-10.07,5.09-16.25,2.75-6.19,5.95-11.07,8.67-14.66,4.47-.57,10.3-.89,17.03-.19,6.74.71,12.37,2.24,16.62,3.72,1.92,4.08,4.03,9.51,5.43,16.14,1.41,6.63,1.7,12.45,1.6,16.96h.01Z"/>
      <path d="M388.75,406.06c5.13-2.62,8.78-5.75,11.11-8.08s5.46-5.98,8.08-11.11c2.62,5.13,5.75,8.78,8.08,11.11s5.98,5.46,11.11,8.08c-5.13,2.62-8.78,5.75-11.11,8.08s-5.46,5.98-8.08,11.11c-2.62-5.13-5.75-8.78-8.08-11.11s-5.98-5.46-11.11-8.08Z"/>
    </g>
  </g>
</svg>