<?xml version="1.0" encoding="UTF-8"?>
<svg id="Layer_1" xmlns="http://www.w3.org/2000/svg" version="1.1" viewBox="0 0 600 600">
  <!-- Generator: Adobe Illustrator 30.1.0, SVG Export Plug-In . SVG Version: 2.1.1 Build 136)  -->
  <path d="M300,300l-212.13,212.13C31.63,455.89,0,379.53,0,300,0,135.42,135.42,0,300,0,379.53,0,455.89,31.63,512.13,87.87l-212.13,212.13Z" fill="#9bd3ae"/>
  <path d="M309.89,205.69c0,4.5-1.8,8.6-5.3,12.3-3.5,3.6-7.6,5.4-12.1,5.4-7.2,0-12.6-3.4-16-10.2l-16-.7c-3.4,0-10.1,1.5-20.1,4.4-10.7,2.9-16.8,5.3-18.4,7.1-2.5,2.7-4.5,9.1-6.1,19.1-1.4,8.2-2,14.2-2,18.1,0,6.1,1,10.6,2.9,13.4s5.9,5.2,11.9,7.1,9.7,3,11.1,3.2c.9,0,2.4-.1,4.4-.3h4.1c2.9,0,6,.5,9.2,1.4,4.5,1.4,6.5,3.2,5.8,5.4-3.2-.4-8.7.2-16.7,2l9.5,4.8c0,2.7-3.9,4.1-11.6,4.1-2.1,0-4.8-.4-8.3-1.4-3.5-.9-5.8-1.4-7-1.4h-4.4c-.2,2.3-.9,5.7-2,10.2-3.9-.2-8.4-2.5-13.6-6.8-5.2-4.3-8.5-6.5-9.9-6.5s-3.3,2.2-5.8,6.5-3.7,7.2-3.7,8.9c-2.9-1.6-5.4-4.5-7.5-8.8-.9-3-1.9-5.9-3.1-8.9-2.3.2-6.5,5-12.6,14.3h-1.7c-.5-.7-2.2-5.4-5.1-14.3-7-2.3-13.6-3.4-19.7-3.4-2.9,0-7.5.7-13.6,2l-9.5-.7c1.4-1.4,5.3-4,11.9-7.8,7.7-4.5,13.6-6.8,17.7-6.8.7,0,1.6.1,2.7.3s2,.4,2.7.4c1.6,0,4.1-.9,7.7-2.6,3.5-1.7,5.6-3.2,6.1-4.6.6-1.4.9-4.9.9-10.6,0-12.9-3.4-22.6-10.2-28.9-5.9-5.7-15.6-9.7-29.3-12.3-3.6,12.9-13.8,19.4-30.6,19.4-5.5,0-10.9-3.3-16.3-9.9-5.4-6.6-8.2-12.6-8.2-18,0-8.4,3.5-15.3,10.5-20.8-5.7-5.9-8.5-11.9-8.5-18,0-5.7,1.8-10.7,5.3-15s8.1-6.8,13.8-7.5c-.4-7.2,1.9-12.3,7.1-15-2.5-2.5-3.7-6.9-3.7-13.3,0-7.5,2.5-13.7,7.5-18.7s11.2-7.5,18.7-7.5c8.2,0,14.9,2.9,20.1,8.5,6.6-22.5,20.8-33.7,42.5-33.7,11.3,0,21.3,4.5,29.9,13.6,3.2,3.4,4.8,5.2,4.8,5.4-2.7,0-1.3-.5,4.1-1.5,5.5-1,9.4-1.5,11.9-1.5,8.8,0,16.7,3.3,23.5,9.9,5.9,5.9,10,13.4,12.3,22.5,1.6.2,4.1.9,7.5,2,5,2.5,7.5,6.8,7.5,12.9,0,1.1-.9,3.3-2.7,6.5,14.5,8.2,21.8,19.5,21.8,34,0,4.1-1.6,9.8-4.8,17,5.9,3.4,8.9,8.4,8.9,15M169.89,220.39v-4.4c0-5.2-2.5-10-7.7-14.3-5.1-4.3-10.3-6.5-15.5-6.5-6.4,0-12.3,1.5-17.7,4.4,12-.7,25.6,6.2,40.8,20.8M163.69,178.19c-3.4-3.9-6.3-7.8-8.8-11.9-9.5,2.5-14.3,5.3-14.3,8.5,2.7-.2,6.7.3,11.9,1.5,5.2,1.3,9,1.9,11.2,1.9M184.49,167.59v-15c-5.5-.9-8.8-1.4-9.9-1.4v5.1l9.9,11.2M228.69,157.99c-2.7-1.1-7.8-3.4-15.3-6.8v29.3c10.7-6.1,15.8-13.6,15.3-22.5M247.39,198.19l-7.5-9.2c-4.5,3.2-9.1,6.4-13.8,9.7-4.6,3.3-8.7,7-12.1,11.1,10.2-5.5,21.3-9.3,33.3-11.6" fill="#00160b"/>
  <g id="layer1">
    <path id="path299" d="M512.09,87.82c54.31,54.31,87.91,129.31,87.91,212.16,0,165.7-134.32,300.02-300,300.02-82.84,0-157.83-33.58-212.12-87.88" fill="#f9aa8f"/>
    <path id="path303" d="M529.8,446.63c-10.31,24.59-30.78,36.87-61.44,36.87-5.62,0-11.71.7-18.26,2.12-9.83,2.09-14.75,5.03-14.75,8.78,0,1.16.82,2.51,2.46,4.04,1.63,1.52,3.05,2.28,4.22,2.28-5.86,0-1.88.17,11.92.52,13.82.35,22.48.53,26,.53-20.36,11.92-54.42,17.42-102.17,16.5-15.68-.23-29.14-7.14-40.37-20.72-11.01-12.88-16.51-27.25-16.51-43.18,0-16.85,5.68-31.18,17.03-43.01,11.34-11.82,25.45-17.73,42.31-17.73,3.74,0,8.72.82,14.92,2.46,6.2,1.64,10.36,2.46,12.46,2.46,8.66,0,19.43-3.58,32.31-10.72,12.88-7.13,18.96-10.7,18.26-10.7-2.35,24.59-10.54,41.08-24.58,49.51-10.07,5.86-15.1,11.58-15.1,17.2,0,3.49,2.1,6.32,6.31,8.42,3.28,1.64,6.91,2.46,10.89,2.46,6.08,0,12.05-3.74,17.9-11.24,5.84-7.49,8.42-14.27,7.72-20.38-.7-7.02-.22-15.44,1.41-25.28.46-2.81,2.17-6.26,5.09-10.36,2.93-4.1,5.57-6.61,7.9-7.55,0,2.1-.76,5.62-2.28,10.53s-2.28,8.56-2.28,10.88c0,5.15,1.4,9.13,4.22,11.94,4.21-1.64,7.94-6.91,11.23-15.8,2.81-6.79,4.44-13.34,4.92-19.66-9.84-.47-19.27-4.91-28.27-13.34-9.01-8.43-13.51-17.56-13.51-27.38,0-1.64.22-3.28.7-4.92,1.39,2.11,3.5,5.39,6.32,9.83,3.97,5.86,7.02,8.77,9.13,8.77,2.81,0,4.21-2.91,4.21-8.77,0-7.49-1.99-14.28-5.97-20.37-4.46-7.25-10.19-10.88-17.2-10.88-3.29,0-8.2,1.75-14.75,5.26-6.56,3.5-12.53,5.26-17.9,5.26-1.64,0-8.9-2.11-21.77-6.32,22.7-3.73,34.06-7.13,34.06-10.18,0-7.94-15.56-13.34-46.7-16.15-3.05-.22-8.66-.7-16.85-1.4.93-1.16,7.61-2.45,20.02-3.87,10.53-1.15,17.9-1.75,22.11-1.75,55.71,0,91.05,27.05,106.04,81.13,2.59-2.14,3.87-5.71,3.87-10.68,0-6.42-1.87-14.48-5.62-24.21-1.41-3.8-3.64-9.49-6.68-17.08,19.19,24.45,28.8,47.63,28.8,69.5,0,11.53-2.71,21.98-8.09,31.39-3.5,6.34-10.07,14.45-19.66,24.35-9.6,9.88-16.15,17.52-19.66,22.92,12.88-3.5,21.31-6.2,25.28-8.08,8.89-3.97,16.97-9.95,24.22-17.89,0,3.03-1.29,7.61-3.86,13.67h0v.02h-.01ZM376.72,308.66c0,4.21-2.35,6.89-7.02,8.08l-9.13,1.39c-3.28,1.63-8.08,8.09-14.39,19.32-.71-3.51-1.76-8.41-3.17-14.75-2.11.23-5.61,2.11-10.53,5.63-2.11,1.63-5.5,4.1-10.19,7.37,1.41-8.42,6.1-16.96,14.05-25.63,8.42-9.61,16.62-14.39,24.58-14.39,10.53-.02,15.8,4.31,15.8,12.97h0ZM437.81,340.96c0,3.98-2.17,7.31-6.5,10s-8.6,4.04-12.81,4.04c-5.63,0-10.66-3.16-15.1-9.48-5.39-7.72-10.88-12.75-16.5-15.11,1.16-1.16,2.57-1.76,4.22-1.76,2.09,0,5.66,1.64,10.7,4.91,5.02,3.29,8.25,4.91,9.66,4.91,1.17,0,3.1-1.63,5.78-4.91,2.69-3.27,5.68-4.91,8.96-4.91,7.73,0,11.59,4.12,11.59,12.3h0Z" fill="#200000"/>
  </g>
</svg>