<?xml version="1.0" encoding="UTF-8"?>
<svg id="Layer_1" xmlns="http://www.w3.org/2000/svg" version="1.1" viewBox="0 0 600 600">
  <!-- Generator: Adobe Illustrator 30.1.0, SVG Export Plug-In . SVG Version: 2.1.1 Build 136)  -->
  <path d="M300,300l-212.13,212.13C31.63,455.89,0,379.53,0,300,0,135.42,135.42,0,300,0,379.53,0,455.89,31.63,512.13,87.87l-212.13,212.13Z" fill="#c777d6"/>
  <g>
    <path d="M308.45,184.2c-16.45-32.77-63.53-36.66-87.43-34.22-11.94,1.22-21.54,4.38-27.95,6.97,20.53-18.42,42.8-23.76,48.15-24.93,30.14-6.6,54.6,2.38,63.52,6.17-2.78-5.29-7.27-12.74-14.17-20.48-5.88-6.59-34.79-38.99-69.21-33.74-36.24,5.52-54.5,49.09-59.56,72.58-2.53,11.73-2.49,21.84-2.01,28.74-11.74-26.5-9.22-50.58-8.59-55.75,3.58-29.54,18.96-49.06,25.26-56.26-5.89,1.01-14.36,2.97-23.86,7.15-8.09,3.56-47.83,21.03-53.48,55.4-5.95,36.18,29.85,67,50.62,79.07,10.38,6.03,20.01,9.12,26.72,10.79h-.02c-28.81,2.98-50.92-6.85-55.66-9.05-26.98-12.53-40.8-33.18-45.71-41.4-.86,5.91-1.61,14.58-.57,24.9.88,8.79,5.22,51.99,36.16,67.98,32.57,16.84,72.95-7.68,90.84-23.71,8.94-8,14.85-16.2,18.52-22.06-6.08,28.33-22.27,46.33-25.81,50.15-20.26,21.79-44.18,28.55-53.5,30.67,5.35,2.64,13.37,6.04,23.5,8.24,8.63,1.88,51.06,11.1,75.83-13.38,26.08-25.77,15.24-71.75,5.52-93.72-4.85-10.98-10.82-19.14-15.27-24.43l.05.03c25.02,14.52,37.12,35.44,39.67,40.02,14.46,25.99,13.5,50.83,12.64,60.36,4.17-4.27,9.87-10.85,15.1-19.81,4.46-7.63,26.33-45.13,10.7-76.25h0v-.03h0ZM222.22,205.72c-3.28,3.08-7.8,6.77-13.67,10.16-5.86,3.39-11.32,5.46-15.63,6.76-3.95-2.17-8.85-5.33-13.89-9.86-5.03-4.53-8.68-9.07-11.26-12.78.84-4.43,2.33-10.07,5.09-16.25,2.75-6.19,5.95-11.07,8.67-14.66,4.47-.57,10.3-.89,17.03-.19,6.74.71,12.37,2.24,16.62,3.72,1.92,4.08,4.03,9.51,5.43,16.14,1.41,6.63,1.7,12.45,1.6,16.96h.01Z"/>
    <path d="M176.75,194.01c5.13-2.62,8.78-5.75,11.11-8.08s5.46-5.98,8.08-11.11c2.62,5.13,5.75,8.78,8.08,11.11s5.98,5.46,11.11,8.08c-5.13,2.62-8.78,5.75-11.11,8.08s-5.46,5.98-8.08,11.11c-2.62-5.13-5.75-8.78-8.08-11.11s-5.98-5.46-11.11-8.08Z"/>
  </g>
  <g id="layer1">
    <path id="path309" d="M512.09,87.82c54.31,54.31,87.91,129.31,87.91,212.16,0,165.7-134.32,300.02-300,300.02-82.84,0-157.83-33.58-212.12-87.88" fill="#9bd3ae"/>
    <path id="path315" d="M537.11,405.71c0,4.55-1.76,8.62-5.27,12.26-3.52,3.62-7.54,5.43-12.09,5.43-7.25,0-12.59-3.4-15.98-10.21l-16-.67c-3.41,0-10.1,1.48-20.08,4.42-10.66,2.94-16.79,5.33-18.38,7.13-2.49,2.73-4.53,9.08-6.13,19.07-1.37,8.17-2.03,14.18-2.03,18.04,0,6.12.96,10.61,2.89,13.44,1.93,2.84,5.9,5.21,11.9,7.13,6,1.91,9.7,3.01,11.06,3.23.91,0,2.38-.11,4.42-.34h4.09c2.95,0,6.01.46,9.2,1.36,4.53,1.36,6.47,3.16,5.79,5.44-3.19-.44-8.74.23-16.67,2.04l9.52,4.77c0,2.72-3.85,4.07-11.57,4.07-2.05,0-4.83-.43-8.33-1.35-3.52-.92-5.85-1.37-6.98-1.37h-4.42c-.23,2.27-.91,5.66-2.04,10.21-3.87-.22-8.4-2.5-13.62-6.8-5.22-4.32-8.51-6.47-9.86-6.47s-3.3,2.15-5.79,6.47c-2.5,4.3-3.75,7.24-3.75,8.85-2.95-1.61-5.43-4.55-7.49-8.85-.91-2.97-1.93-5.92-3.05-8.87-2.27.23-6.46,5.02-12.59,14.31h-1.7c-.46-.68-2.17-5.44-5.12-14.31-7.03-2.25-13.6-3.38-19.73-3.38-2.95,0-7.49.67-13.63,2.05l-9.52-.68c1.35-1.37,5.33-3.97,11.9-7.83,7.71-4.55,13.61-6.82,17.69-6.82.67,0,1.58.13,2.72.35,1.13.23,2.04.35,2.72.35,1.57,0,4.14-.85,7.66-2.56,3.52-1.7,5.56-3.23,6.11-4.6.59-1.37.87-4.88.87-10.55,0-12.92-3.41-22.58-10.22-28.91-5.9-5.67-15.65-9.75-29.26-12.26-3.63,12.92-13.84,19.4-30.62,19.4-5.45,0-10.89-3.29-16.34-9.88-5.43-6.59-8.17-12.59-8.17-18.04,0-8.4,3.52-15.31,10.55-20.76-5.66-5.89-8.5-11.9-8.5-18.04,0-5.66,1.75-10.66,5.27-14.98,3.52-4.3,8.12-6.8,13.78-7.49-.44-7.25,1.93-12.25,7.15-14.97-2.5-2.48-3.74-6.9-3.74-13.27,0-7.48,2.49-13.72,7.49-18.71,4.98-4.98,11.23-7.49,18.7-7.49,8.18,0,14.87,2.85,20.08,8.51,6.59-22.45,20.75-33.68,42.53-33.68,11.34,0,21.32,4.54,29.95,13.62,3.18,3.39,4.76,5.21,4.76,5.43-2.72,0-1.35-.52,4.09-1.52,5.45-1.03,9.41-1.54,11.91-1.54,8.84,0,16.67,3.3,23.49,9.88,5.9,5.9,9.98,13.37,12.25,22.45,1.58.23,4.07.91,7.48,2.05,4.99,2.5,7.49,6.81,7.49,12.93,0,1.13-.91,3.29-2.72,6.47,14.51,8.17,21.77,19.51,21.77,34.02,0,4.09-1.59,9.76-4.76,17.02,5.92,3.41,8.86,8.41,8.86,14.99h.01ZM396.91,420.68v-4.42c0-5.21-2.55-9.98-7.65-14.29-5.11-4.32-10.26-6.46-15.49-6.46-6.36,0-12.25,1.48-17.69,4.4,12.02-.66,25.63,6.25,40.83,20.77h0ZM390.79,378.5c-3.4-3.88-6.35-7.84-8.84-11.91-9.53,2.48-14.29,5.33-14.29,8.5,2.72-.22,6.7.28,11.9,1.54,5.21,1.25,8.96,1.88,11.23,1.88h0ZM411.56,367.93v-14.97c-5.46-.89-8.75-1.36-9.88-1.36v5.11l9.88,11.22h0ZM455.79,358.41c-2.73-1.13-7.83-3.41-15.32-6.81v29.26c10.67-6.13,15.77-13.61,15.32-22.45h0ZM474.49,398.57l-7.48-9.17c-4.52,3.17-9.13,6.4-13.79,9.69-4.65,3.28-8.68,6.97-12.07,11.06,10.19-5.47,21.33-9.31,33.33-11.58h.01Z" fill="#00160b"/>
  </g>
</svg>