<?xml version="1.0" encoding="UTF-8"?>
<svg id="Layer_1" xmlns="http://www.w3.org/2000/svg" version="1.1" viewBox="0 0 600 600">
  <!-- Generator: Adobe Illustrator 30.1.0, SVG Export Plug-In . SVG Version: 2.1.1 Build 136)  -->
  <path d="M300,300l-212.13,212.13C31.63,455.89,0,379.53,0,300,0,135.42,135.42,0,300,0,379.53,0,455.89,31.63,512.13,87.87l-212.13,212.13Z" fill="#c777d6"/>
  <g>
    <path d="M308.45,184.2c-16.45-32.77-63.53-36.66-87.43-34.22-11.94,1.22-21.54,4.38-27.95,6.97,20.53-18.42,42.8-23.76,48.15-24.93,30.14-6.6,54.6,2.38,63.52,6.17-2.78-5.29-7.27-12.74-14.17-20.48-5.88-6.59-34.79-38.99-69.21-33.74-36.24,5.52-54.5,49.09-59.56,72.58-2.53,11.73-2.49,21.84-2.01,28.74-11.74-26.5-9.22-50.58-8.59-55.75,3.58-29.54,18.96-49.06,25.26-56.26-5.89,1.01-14.36,2.97-23.86,7.15-8.09,3.56-47.83,21.03-53.48,55.4-5.95,36.18,29.85,67,50.62,79.07,10.38,6.03,20.01,9.12,26.72,10.79h-.02c-28.81,2.98-50.92-6.85-55.66-9.05-26.98-12.53-40.8-33.18-45.71-41.4-.86,5.91-1.61,14.58-.57,24.9.88,8.79,5.22,51.99,36.16,67.98,32.57,16.84,72.95-7.68,90.84-23.71,8.94-8,14.85-16.2,18.52-22.06-6.08,28.33-22.27,46.33-25.81,50.15-20.26,21.79-44.18,28.55-53.5,30.67,5.35,2.64,13.37,6.04,23.5,8.24,8.63,1.88,51.06,11.1,75.83-13.38,26.08-25.77,15.24-71.75,5.52-93.72-4.85-10.98-10.82-19.14-15.27-24.43l.05.03c25.02,14.52,37.12,35.44,39.67,40.02,14.46,25.99,13.5,50.83,12.64,60.36,4.17-4.27,9.87-10.85,15.1-19.81,4.46-7.63,26.33-45.13,10.7-76.25h0v-.03h0ZM222.22,205.72c-3.28,3.08-7.8,6.77-13.67,10.16-5.86,3.39-11.32,5.46-15.63,6.76-3.95-2.17-8.85-5.33-13.89-9.86-5.03-4.53-8.68-9.07-11.26-12.78.84-4.43,2.33-10.07,5.09-16.25,2.75-6.19,5.95-11.07,8.67-14.66,4.47-.57,10.3-.89,17.03-.19,6.74.71,12.37,2.24,16.62,3.72,1.92,4.08,4.03,9.51,5.43,16.14,1.41,6.63,1.7,12.45,1.6,16.96h.01Z"/>
    <path d="M176.75,194.01c5.13-2.62,8.78-5.75,11.11-8.08s5.46-5.98,8.08-11.11c2.62,5.13,5.75,8.78,8.08,11.11s5.98,5.46,11.11,8.08c-5.13,2.62-8.78,5.75-11.11,8.08s-5.46,5.98-8.08,11.11c-2.62-5.13-5.75-8.78-8.08-11.11s-5.98-5.46-11.11-8.08Z"/>
  </g>
  <g id="layer1">
    <path id="path299" d="M512.09,87.82c54.31,54.31,87.91,129.31,87.91,212.16,0,165.7-134.32,300.02-300,300.02-82.84,0-157.83-33.58-212.12-87.88" fill="#f9aa8f"/>
    <path id="path303" d="M529.8,446.63c-10.31,24.59-30.78,36.87-61.44,36.87-5.62,0-11.71.7-18.26,2.12-9.83,2.09-14.75,5.03-14.75,8.78,0,1.16.82,2.51,2.46,4.04,1.63,1.52,3.05,2.28,4.22,2.28-5.86,0-1.88.17,11.92.52,13.82.35,22.48.53,26,.53-20.36,11.92-54.42,17.42-102.17,16.5-15.68-.23-29.14-7.14-40.37-20.72-11.01-12.88-16.51-27.25-16.51-43.18,0-16.85,5.68-31.18,17.03-43.01,11.34-11.82,25.45-17.73,42.31-17.73,3.74,0,8.72.82,14.92,2.46,6.2,1.64,10.36,2.46,12.46,2.46,8.66,0,19.43-3.58,32.31-10.72,12.88-7.13,18.96-10.7,18.26-10.7-2.35,24.59-10.54,41.08-24.58,49.51-10.07,5.86-15.1,11.58-15.1,17.2,0,3.49,2.1,6.32,6.31,8.42,3.28,1.64,6.91,2.46,10.89,2.46,6.08,0,12.05-3.74,17.9-11.24,5.84-7.49,8.42-14.27,7.72-20.38-.7-7.02-.22-15.44,1.41-25.28.46-2.81,2.17-6.26,5.09-10.36,2.93-4.1,5.57-6.61,7.9-7.55,0,2.1-.76,5.62-2.28,10.53s-2.28,8.56-2.28,10.88c0,5.15,1.4,9.13,4.22,11.94,4.21-1.64,7.94-6.91,11.23-15.8,2.81-6.79,4.44-13.34,4.92-19.66-9.84-.47-19.27-4.91-28.27-13.34-9.01-8.43-13.51-17.56-13.51-27.38,0-1.64.22-3.28.7-4.92,1.39,2.11,3.5,5.39,6.32,9.83,3.97,5.86,7.02,8.77,9.13,8.77,2.81,0,4.21-2.91,4.21-8.77,0-7.49-1.99-14.28-5.97-20.37-4.46-7.25-10.19-10.88-17.2-10.88-3.29,0-8.2,1.75-14.75,5.26-6.56,3.5-12.53,5.26-17.9,5.26-1.64,0-8.9-2.11-21.77-6.32,22.7-3.73,34.06-7.13,34.06-10.18,0-7.94-15.56-13.34-46.7-16.15-3.05-.22-8.66-.7-16.85-1.4.93-1.16,7.61-2.45,20.02-3.87,10.53-1.15,17.9-1.75,22.11-1.75,55.71,0,91.05,27.05,106.04,81.13,2.59-2.14,3.87-5.71,3.87-10.68,0-6.42-1.87-14.48-5.62-24.21-1.41-3.8-3.64-9.49-6.68-17.08,19.19,24.45,28.8,47.63,28.8,69.5,0,11.53-2.71,21.98-8.09,31.39-3.5,6.34-10.07,14.45-19.66,24.35-9.6,9.88-16.15,17.52-19.66,22.92,12.88-3.5,21.31-6.2,25.28-8.08,8.89-3.97,16.97-9.95,24.22-17.89,0,3.03-1.29,7.61-3.86,13.67h0v.02h-.01ZM376.72,308.66c0,4.21-2.35,6.89-7.02,8.08l-9.13,1.39c-3.28,1.63-8.08,8.09-14.39,19.32-.71-3.51-1.76-8.41-3.17-14.75-2.11.23-5.61,2.11-10.53,5.63-2.11,1.63-5.5,4.1-10.19,7.37,1.41-8.42,6.1-16.96,14.05-25.63,8.42-9.61,16.62-14.39,24.58-14.39,10.53-.02,15.8,4.31,15.8,12.97h0ZM437.81,340.96c0,3.98-2.17,7.31-6.5,10s-8.6,4.04-12.81,4.04c-5.63,0-10.66-3.16-15.1-9.48-5.39-7.72-10.88-12.75-16.5-15.11,1.16-1.16,2.57-1.76,4.22-1.76,2.09,0,5.66,1.64,10.7,4.91,5.02,3.29,8.25,4.91,9.66,4.91,1.17,0,3.1-1.63,5.78-4.91,2.69-3.27,5.68-4.91,8.96-4.91,7.73,0,11.59,4.12,11.59,12.3h0Z" fill="#200000"/>
  </g>
</svg>