<?xml version="1.0" encoding="UTF-8"?>
<svg id="Layer_1" xmlns="http://www.w3.org/2000/svg" version="1.1" viewBox="0 0 600 600">
  <!-- Generator: Adobe Illustrator 30.1.0, SVG Export Plug-In . SVG Version: 2.1.1 Build 136)  -->
  <path d="M300,300l-212.13,212.13C31.63,455.89,0,379.53,0,300,0,135.42,135.42,0,300,0,379.53,0,455.89,31.63,512.13,87.87l-212.13,212.13Z" fill="#fffbd5"/>
  <path d="M327.98,229.62c-14.6-13.6-24.3-21-29.1-22.1-3.5-.8-6.8,1.2-10,6s-7.8,6.6-13.6,5.1c-2.4-.6-7-2.6-14-6.1-5.6,5.3-8.6,8.8-9.1,10.5-.6,2.4.5,5.6,3.3,9.7s5.4,6.4,7.8,7c1.5.4,3.7.6,6.5.5,2.8,0,4.7.1,5.6.3,2.7.6,2.8,5.8.5,15.6-2.2,9.3-7.8,23.1-16.8,41.4-.3-23.4-3.7-35.9-9.9-37.4-.9-.2-2.8,0-5.8.7-3,.6-5.2.8-6.5.5-6.3-1.5-10.5-8.6-12.8-21.3-10.3-.9-16.5,3-18.6,11.7-1,4.4.1,8.3,3.5,11.9s4.9,5.9,4.7,7c-1.4,5.9-12.1,12.8-32.1,20.8-10.7,4.3-18,7.4-22.1,9.1,4-3.2,8.2-7.5,12.8-13.1,5.2-6.3,8.2-11.4,9.2-15.3.5-2.1-1.2-5.8-5.3-10.9s-5.6-9.8-4.5-14.1c.9-3.7,3.3-7.9,7.2-12.7-2-3.9-5-6.4-8.9-7.3-8.7-2.1-13.7-.3-15,5.3.9-3.9.2-1-2.1,8.8-1.5,7.2-7.8,9.5-18.8,6.8-8.5-2-22.2-7.4-41.2-16,23.9-.2,36.7-4,38.5-11.4-.2.9,0-1.8.6-8.1.7-6.9,7-11.9,18.6-14.8.4-10.4-3.6-16.6-12-18.7-1.3-.3-4.2,1.4-8.8,5.1-4.6,3.7-8.4,5.2-11.4,4.5-5.2-1.2-10.6-8.5-16.1-21.7-2.6-6.6-6.5-16.3-11.9-29.3,4.4,3.8,8.7,7.6,13.1,11.4,5.8,4.6,10.6,7.4,14.5,8.3,3,.7,6.6-1.2,10.8-5.8,4.2-4.6,8.7-6.3,13.4-5.2.7.2,4.7,2.5,12.1,7,5.6-5.3,8.8-9.5,9.5-12.5.6-2.6-.2-5.9-2.6-10.1-2.3-4.1-4.8-6.5-7.4-7.1-1.1-.3-2.8-.3-5.3-.2-2.4.1-4.2,0-5.3-.2-3.9-.9-4.7-6.3-2.4-16,.6-2.6,6.7-16.9,18.1-42.7-1,3.2-1,9.6-.1,19.2,1.1,11.7,4.1,18.1,9.1,19.4.9.2,2.8,0,5.7-.7s5.1-.8,6.6-.5c5,1.2,8.4,5,10.3,11.4l2.8,9.9c4.5,1.1,8.7.4,12.5-2.1s6.3-6.1,7.4-10.6c1.1-4.8,0-8.9-3.4-12.3s-5-5.8-4.6-7.1c1.1-4.5,10.1-10.5,27-17.9,13.6-5.9,22.3-9.2,26.1-9.9-12.3,10.4-19.2,18.4-20.6,24.3-.7,3,.3,6.7,3.2,11.1,3.6,5.2,5.5,8.8,5.7,10.6,1,5.5-.9,12.3-5.5,20.3,4.9,5.5,8.8,8.6,11.9,9.4,6.3,1.5,10.2-1,11.7-7.5.2-.6.4-2.8.7-6.4.3-3.6.6-5.6.9-6,1.6-2.8,7.9-2.9,19-.3,6.9,1.7,20.9,7.1,41.8,16.2-5.1.2-12.7.4-22.9.7-9.3.5-14.3,2.4-15.1,5.7-.4,1.5-.4,4.2-.2,8.2.2,3.9.1,6.8-.3,8.5-.7,3-3.3,5.4-7.9,7.1l-12.9,5.2c1.5,5.4,2.5,8.6,3.2,9.7,1.6,3.1,4.2,5.1,7.8,6,2.6.6,5.5-1.1,8.8-5.1s7.3-5.5,12-4.3c5.9,1.4,11.2,8.4,15.9,21,2.6,7.1,6.8,17.8,12.6,32.2l-.1-.3h0ZM260.38,193.52c3.3-13.9,1.1-27.1-6.6-39.7-7.8-12.6-18.6-20.6-32.4-23.9-14.1-3.4-27.4-1.3-40,6.4-12.6,7.6-20.7,18.5-24.3,32.5-3.5,13.8-1.3,27,6.8,39.6s19.1,20.5,33,23.9c14.7,3.5,28.2,1.6,40.4-5.6,12.2-7.3,19.9-18.3,23.2-33.1M255.58,192.42c-3.2,13.2-10.2,23.1-21.2,29.6-11,6.6-23.1,8.2-36.3,5.1-12.8-3.1-22.7-10.1-29.6-21.2-7-11.1-8.9-23-5.9-35.8,3-12.6,10.2-22.2,21.6-29s23.3-8.7,35.9-5.7,22.4,10.2,29.4,21.5,9.1,23.1,6.1,35.5" fill="#211d15"/>
  <g id="layer1">
    <path id="path309" d="M512.09,87.82c54.31,54.31,87.91,129.31,87.91,212.16,0,165.7-134.32,300.02-300,300.02-82.84,0-157.83-33.58-212.12-87.88" fill="#9bd3ae"/>
    <path id="path315" d="M537.11,405.71c0,4.55-1.76,8.62-5.27,12.26-3.52,3.62-7.54,5.43-12.09,5.43-7.25,0-12.59-3.4-15.98-10.21l-16-.67c-3.41,0-10.1,1.48-20.08,4.42-10.66,2.94-16.79,5.33-18.38,7.13-2.49,2.73-4.53,9.08-6.13,19.07-1.37,8.17-2.03,14.18-2.03,18.04,0,6.12.96,10.61,2.89,13.44,1.93,2.84,5.9,5.21,11.9,7.13,6,1.91,9.7,3.01,11.06,3.23.91,0,2.38-.11,4.42-.34h4.09c2.95,0,6.01.46,9.2,1.36,4.53,1.36,6.47,3.16,5.79,5.44-3.19-.44-8.74.23-16.67,2.04l9.52,4.77c0,2.72-3.85,4.07-11.57,4.07-2.05,0-4.83-.43-8.33-1.35-3.52-.92-5.85-1.37-6.98-1.37h-4.42c-.23,2.27-.91,5.66-2.04,10.21-3.87-.22-8.4-2.5-13.62-6.8-5.22-4.32-8.51-6.47-9.86-6.47s-3.3,2.15-5.79,6.47c-2.5,4.3-3.75,7.24-3.75,8.85-2.95-1.61-5.43-4.55-7.49-8.85-.91-2.97-1.93-5.92-3.05-8.87-2.27.23-6.46,5.02-12.59,14.31h-1.7c-.46-.68-2.17-5.44-5.12-14.31-7.03-2.25-13.6-3.38-19.73-3.38-2.95,0-7.49.67-13.63,2.05l-9.52-.68c1.35-1.37,5.33-3.97,11.9-7.83,7.71-4.55,13.61-6.82,17.69-6.82.67,0,1.58.13,2.72.35,1.13.23,2.04.35,2.72.35,1.57,0,4.14-.85,7.66-2.56,3.52-1.7,5.56-3.23,6.11-4.6.59-1.37.87-4.88.87-10.55,0-12.92-3.41-22.58-10.22-28.91-5.9-5.67-15.65-9.75-29.26-12.26-3.63,12.92-13.84,19.4-30.62,19.4-5.45,0-10.89-3.29-16.34-9.88-5.43-6.59-8.17-12.59-8.17-18.04,0-8.4,3.52-15.31,10.55-20.76-5.66-5.89-8.5-11.9-8.5-18.04,0-5.66,1.75-10.66,5.27-14.98,3.52-4.3,8.12-6.8,13.78-7.49-.44-7.25,1.93-12.25,7.15-14.97-2.5-2.48-3.74-6.9-3.74-13.27,0-7.48,2.49-13.72,7.49-18.71,4.98-4.98,11.23-7.49,18.7-7.49,8.18,0,14.87,2.85,20.08,8.51,6.59-22.45,20.75-33.68,42.53-33.68,11.34,0,21.32,4.54,29.95,13.62,3.18,3.39,4.76,5.21,4.76,5.43-2.72,0-1.35-.52,4.09-1.52,5.45-1.03,9.41-1.54,11.91-1.54,8.84,0,16.67,3.3,23.49,9.88,5.9,5.9,9.98,13.37,12.25,22.45,1.58.23,4.07.91,7.48,2.05,4.99,2.5,7.49,6.81,7.49,12.93,0,1.13-.91,3.29-2.72,6.47,14.51,8.17,21.77,19.51,21.77,34.02,0,4.09-1.59,9.76-4.76,17.02,5.92,3.41,8.86,8.41,8.86,14.99h.01ZM396.91,420.68v-4.42c0-5.21-2.55-9.98-7.65-14.29-5.11-4.32-10.26-6.46-15.49-6.46-6.36,0-12.25,1.48-17.69,4.4,12.02-.66,25.63,6.25,40.83,20.77h0ZM390.79,378.5c-3.4-3.88-6.35-7.84-8.84-11.91-9.53,2.48-14.29,5.33-14.29,8.5,2.72-.22,6.7.28,11.9,1.54,5.21,1.25,8.96,1.88,11.23,1.88h0ZM411.56,367.93v-14.97c-5.46-.89-8.75-1.36-9.88-1.36v5.11l9.88,11.22h0ZM455.79,358.41c-2.73-1.13-7.83-3.41-15.32-6.81v29.26c10.67-6.13,15.77-13.61,15.32-22.45h0ZM474.49,398.57l-7.48-9.17c-4.52,3.17-9.13,6.4-13.79,9.69-4.65,3.28-8.68,6.97-12.07,11.06,10.19-5.47,21.33-9.31,33.33-11.58h.01Z" fill="#00160b"/>
  </g>
</svg>