<?xml version="1.0" encoding="UTF-8"?>
<svg id="Layer_1" xmlns="http://www.w3.org/2000/svg" version="1.1" viewBox="0 0 600 600">
  <!-- Generator: Adobe Illustrator 30.1.0, SVG Export Plug-In . SVG Version: 2.1.1 Build 136)  -->
  <path d="M300,300l-212.13,212.13C31.63,455.89,0,379.53,0,300,0,135.42,135.42,0,300,0,379.53,0,455.89,31.63,512.13,87.87l-212.13,212.13Z" fill="#fffbd5"/>
  <path d="M327.98,229.62c-14.6-13.6-24.3-21-29.1-22.1-3.5-.8-6.8,1.2-10,6s-7.8,6.6-13.6,5.1c-2.4-.6-7-2.6-14-6.1-5.6,5.3-8.6,8.8-9.1,10.5-.6,2.4.5,5.6,3.3,9.7s5.4,6.4,7.8,7c1.5.4,3.7.6,6.5.5,2.8,0,4.7.1,5.6.3,2.7.6,2.8,5.8.5,15.6-2.2,9.3-7.8,23.1-16.8,41.4-.3-23.4-3.7-35.9-9.9-37.4-.9-.2-2.8,0-5.8.7-3,.6-5.2.8-6.5.5-6.3-1.5-10.5-8.6-12.8-21.3-10.3-.9-16.5,3-18.6,11.7-1,4.4.1,8.3,3.5,11.9s4.9,5.9,4.7,7c-1.4,5.9-12.1,12.8-32.1,20.8-10.7,4.3-18,7.4-22.1,9.1,4-3.2,8.2-7.5,12.8-13.1,5.2-6.3,8.2-11.4,9.2-15.3.5-2.1-1.2-5.8-5.3-10.9s-5.6-9.8-4.5-14.1c.9-3.7,3.3-7.9,7.2-12.7-2-3.9-5-6.4-8.9-7.3-8.7-2.1-13.7-.3-15,5.3.9-3.9.2-1-2.1,8.8-1.5,7.2-7.8,9.5-18.8,6.8-8.5-2-22.2-7.4-41.2-16,23.9-.2,36.7-4,38.5-11.4-.2.9,0-1.8.6-8.1.7-6.9,7-11.9,18.6-14.8.4-10.4-3.6-16.6-12-18.7-1.3-.3-4.2,1.4-8.8,5.1-4.6,3.7-8.4,5.2-11.4,4.5-5.2-1.2-10.6-8.5-16.1-21.7-2.6-6.6-6.5-16.3-11.9-29.3,4.4,3.8,8.7,7.6,13.1,11.4,5.8,4.6,10.6,7.4,14.5,8.3,3,.7,6.6-1.2,10.8-5.8,4.2-4.6,8.7-6.3,13.4-5.2.7.2,4.7,2.5,12.1,7,5.6-5.3,8.8-9.5,9.5-12.5.6-2.6-.2-5.9-2.6-10.1-2.3-4.1-4.8-6.5-7.4-7.1-1.1-.3-2.8-.3-5.3-.2-2.4.1-4.2,0-5.3-.2-3.9-.9-4.7-6.3-2.4-16,.6-2.6,6.7-16.9,18.1-42.7-1,3.2-1,9.6-.1,19.2,1.1,11.7,4.1,18.1,9.1,19.4.9.2,2.8,0,5.7-.7s5.1-.8,6.6-.5c5,1.2,8.4,5,10.3,11.4l2.8,9.9c4.5,1.1,8.7.4,12.5-2.1s6.3-6.1,7.4-10.6c1.1-4.8,0-8.9-3.4-12.3s-5-5.8-4.6-7.1c1.1-4.5,10.1-10.5,27-17.9,13.6-5.9,22.3-9.2,26.1-9.9-12.3,10.4-19.2,18.4-20.6,24.3-.7,3,.3,6.7,3.2,11.1,3.6,5.2,5.5,8.8,5.7,10.6,1,5.5-.9,12.3-5.5,20.3,4.9,5.5,8.8,8.6,11.9,9.4,6.3,1.5,10.2-1,11.7-7.5.2-.6.4-2.8.7-6.4.3-3.6.6-5.6.9-6,1.6-2.8,7.9-2.9,19-.3,6.9,1.7,20.9,7.1,41.8,16.2-5.1.2-12.7.4-22.9.7-9.3.5-14.3,2.4-15.1,5.7-.4,1.5-.4,4.2-.2,8.2.2,3.9.1,6.8-.3,8.5-.7,3-3.3,5.4-7.9,7.1l-12.9,5.2c1.5,5.4,2.5,8.6,3.2,9.7,1.6,3.1,4.2,5.1,7.8,6,2.6.6,5.5-1.1,8.8-5.1s7.3-5.5,12-4.3c5.9,1.4,11.2,8.4,15.9,21,2.6,7.1,6.8,17.8,12.6,32.2l-.1-.3h0ZM260.38,193.52c3.3-13.9,1.1-27.1-6.6-39.7-7.8-12.6-18.6-20.6-32.4-23.9-14.1-3.4-27.4-1.3-40,6.4-12.6,7.6-20.7,18.5-24.3,32.5-3.5,13.8-1.3,27,6.8,39.6s19.1,20.5,33,23.9c14.7,3.5,28.2,1.6,40.4-5.6,12.2-7.3,19.9-18.3,23.2-33.1M255.58,192.42c-3.2,13.2-10.2,23.1-21.2,29.6-11,6.6-23.1,8.2-36.3,5.1-12.8-3.1-22.7-10.1-29.6-21.2-7-11.1-8.9-23-5.9-35.8,3-12.6,10.2-22.2,21.6-29s23.3-8.7,35.9-5.7,22.4,10.2,29.4,21.5,9.1,23.1,6.1,35.5" fill="#211d15"/>
  <g id="layer1">
    <path id="path299" d="M512.09,87.82c54.31,54.31,87.91,129.31,87.91,212.16,0,165.7-134.32,300.02-300,300.02-82.84,0-157.83-33.58-212.12-87.88" fill="#f9aa8f"/>
    <path id="path303" d="M529.8,446.63c-10.31,24.59-30.78,36.87-61.44,36.87-5.62,0-11.71.7-18.26,2.12-9.83,2.09-14.75,5.03-14.75,8.78,0,1.16.82,2.51,2.46,4.04,1.63,1.52,3.05,2.28,4.22,2.28-5.86,0-1.88.17,11.92.52,13.82.35,22.48.53,26,.53-20.36,11.92-54.42,17.42-102.17,16.5-15.68-.23-29.14-7.14-40.37-20.72-11.01-12.88-16.51-27.25-16.51-43.18,0-16.85,5.68-31.18,17.03-43.01,11.34-11.82,25.45-17.73,42.31-17.73,3.74,0,8.72.82,14.92,2.46,6.2,1.64,10.36,2.46,12.46,2.46,8.66,0,19.43-3.58,32.31-10.72,12.88-7.13,18.96-10.7,18.26-10.7-2.35,24.59-10.54,41.08-24.58,49.51-10.07,5.86-15.1,11.58-15.1,17.2,0,3.49,2.1,6.32,6.31,8.42,3.28,1.64,6.91,2.46,10.89,2.46,6.08,0,12.05-3.74,17.9-11.24,5.84-7.49,8.42-14.27,7.72-20.38-.7-7.02-.22-15.44,1.41-25.28.46-2.81,2.17-6.26,5.09-10.36,2.93-4.1,5.57-6.61,7.9-7.55,0,2.1-.76,5.62-2.28,10.53s-2.28,8.56-2.28,10.88c0,5.15,1.4,9.13,4.22,11.94,4.21-1.64,7.94-6.91,11.23-15.8,2.81-6.79,4.44-13.34,4.92-19.66-9.84-.47-19.27-4.91-28.27-13.34-9.01-8.43-13.51-17.56-13.51-27.38,0-1.64.22-3.28.7-4.92,1.39,2.11,3.5,5.39,6.32,9.83,3.97,5.86,7.02,8.77,9.13,8.77,2.81,0,4.21-2.91,4.21-8.77,0-7.49-1.99-14.28-5.97-20.37-4.46-7.25-10.19-10.88-17.2-10.88-3.29,0-8.2,1.75-14.75,5.26-6.56,3.5-12.53,5.26-17.9,5.26-1.64,0-8.9-2.11-21.77-6.32,22.7-3.73,34.06-7.13,34.06-10.18,0-7.94-15.56-13.34-46.7-16.15-3.05-.22-8.66-.7-16.85-1.4.93-1.16,7.61-2.45,20.02-3.87,10.53-1.15,17.9-1.75,22.11-1.75,55.71,0,91.05,27.05,106.04,81.13,2.59-2.14,3.87-5.71,3.87-10.68,0-6.42-1.87-14.48-5.62-24.21-1.41-3.8-3.64-9.49-6.68-17.08,19.19,24.45,28.8,47.63,28.8,69.5,0,11.53-2.71,21.98-8.09,31.39-3.5,6.34-10.07,14.45-19.66,24.35-9.6,9.88-16.15,17.52-19.66,22.92,12.88-3.5,21.31-6.2,25.28-8.08,8.89-3.97,16.97-9.95,24.22-17.89,0,3.03-1.29,7.61-3.86,13.67h0v.02h-.01ZM376.72,308.66c0,4.21-2.35,6.89-7.02,8.08l-9.13,1.39c-3.28,1.63-8.08,8.09-14.39,19.32-.71-3.51-1.76-8.41-3.17-14.75-2.11.23-5.61,2.11-10.53,5.63-2.11,1.63-5.5,4.1-10.19,7.37,1.41-8.42,6.1-16.96,14.05-25.63,8.42-9.61,16.62-14.39,24.58-14.39,10.53-.02,15.8,4.31,15.8,12.97h0ZM437.81,340.96c0,3.98-2.17,7.31-6.5,10s-8.6,4.04-12.81,4.04c-5.63,0-10.66-3.16-15.1-9.48-5.39-7.72-10.88-12.75-16.5-15.11,1.16-1.16,2.57-1.76,4.22-1.76,2.09,0,5.66,1.64,10.7,4.91,5.02,3.29,8.25,4.91,9.66,4.91,1.17,0,3.1-1.63,5.78-4.91,2.69-3.27,5.68-4.91,8.96-4.91,7.73,0,11.59,4.12,11.59,12.3h0Z" fill="#200000"/>
  </g>
</svg>