<?xml version="1.0" encoding="UTF-8"?>
<svg id="Layer_1" xmlns="http://www.w3.org/2000/svg" version="1.1" viewBox="0 0 300 600">
  <!-- Generator: Adobe Illustrator 30.1.0, SVG Export Plug-In . SVG Version: 2.1.1 Build 136)  -->
  <path d="M300,300c0,164.58-135.42,300-300,300V0C164.58,0,300,135.43,300,300Z" fill="#cbc2bf"/>
  <path d="M243.7,261.2c-5.6-33.1-16.4-64-32.4-92.6-5.5-9.6-12.8-20.4-21.8-32.4-11.69-15.69-19.68-23.68-23.78-24.08,2.61.32-7.3,5.32-29.62,14.98-23.1,10.1-40.6,14.8-52.7,14.3,30.6-16.5,52.2-32,64.7-46.6C110.3,63.37,60.91,47.28,0,46.62v364.08c1.73-1.28,2.6-4.58,2.6-9.9l8.3-88c8.1,18,13.6,32.1,16.6,42.1,3.5,7,7,13.8,10.5,20.3v23.3h-.1c0,27.1-2.5,40.6-7.5,40.6C18.83,433.96,8.65,431.02,0,430.29v38.21h2.7c4-.5,6.5.5,7.5,3v53.4c-1,0,.3.5,3.8,1.5,15.1-10,26.9-18.1,35.4-24.1.5-6-.3-13.3-2.3-21.8-.5-4,.1-7.3,1.6-9.8h11.7c6.3,16,9.4,25.8,9.4,29.3,0,2.5-.7,6.3-1.9,11.3-1.3,5-1.9,8.8-1.9,11.3,0,5.6,2,15.8,6,30.9,12.5-2.5,23.6-4.8,33.1-6.8,3.5-17.1,5.3-29.4,5.3-36.9l-2.3-24.1c-1.5-13-2.3-20.8-2.3-23.3v-60.9c0-14.5,12-23.8,36.1-27.8,37.1-6,59.2-10.8,66.2-14.3,24.1-12,36.1-34.6,36.1-67.7l.3.3v-6c-.6-5-.8-13.2-.8-24.8h0ZM207.9,293.8c0,24.8-16.3,37.4-48.9,37.9h-86.5c-17.1,0-25.6-8.7-25.6-26.3,0-21.1,9.2-41.3,27.5-60.6,18.3-19.4,38-29,59.1-29,19.5,0,36.8,7.9,51.9,23.8,15.1,15.9,22.6,33.9,22.6,54.1l-.1.1Z" fill="#130c0e"/>
</svg>