<?xml version="1.0" encoding="UTF-8"?>
<svg id="Layer_1" xmlns="http://www.w3.org/2000/svg" version="1.1" viewBox="0 0 300 600">
  <!-- Generator: Adobe Illustrator 30.1.0, SVG Export Plug-In . SVG Version: 2.1.1 Build 136)  -->
  <path d="M300,300c0,164.58-135.42,300-300,300V0C164.58,0,300,135.43,300,300Z" fill="#c777d6"/>
  <g>
    <path d="M234.64,279.53c-34.31-68.33-132.48-76.45-182.31-71.35-21.44,2.2-39.26,7.39-52.33,12.23v26.76c1.8.12,3.63.27,5.5.47,14.05,1.48,25.79,4.67,34.66,7.76,4,8.5,8.4,19.84,11.33,33.65,2.94,13.82,3.54,25.97,3.33,35.36-6.84,6.43-16.27,14.12-28.5,21.18-9.54,5.5-18.55,9.34-26.32,12.05v57.14c4.25-3.34,8.15-6.62,11.63-9.74,18.64-16.69,30.96-33.78,38.61-46.01-11.19,52.18-38.84,87.56-50.24,100.59v91.78c30.89-1.04,66.07-8.96,91.98-34.57,54.38-53.74,31.77-149.62,11.51-195.43-10.12-22.9-22.57-39.91-31.84-50.95l.11.06c52.18,30.28,77.41,73.91,82.72,83.46,30.16,54.2,28.16,105.99,26.36,125.87,8.69-8.91,20.58-22.62,31.48-41.3,9.29-15.92,54.91-94.11,22.32-159.01h0ZM197.37,140.88c-12.27-13.75-72.54-81.3-144.33-70.36C32.71,73.61,15.09,82.45,0,94.67v122.9c41.08-34.29,83.82-44.51,94.46-46.85,62.85-13.77,113.85,4.96,132.46,12.87-5.79-11.03-15.15-26.57-29.55-42.71Z"/>
    <path d="M40,300c-10.69,5.46-18.31,12-23.16,16.84s-11.38,12.47-16.84,23.16v-80c5.46,10.69,12,18.31,16.84,23.16s12.47,11.38,23.16,16.84Z"/>
  </g>
</svg>