<?xml version="1.0" encoding="UTF-8"?>
<svg id="Layer_1" xmlns="http://www.w3.org/2000/svg" version="1.1" viewBox="0 0 300 450">
  <!-- Generator: Adobe Illustrator 30.1.0, SVG Export Plug-In . SVG Version: 2.1.1 Build 136)  -->
  <path d="M300,300L40.19,450C13.86,404.4,0,352.66,0,300,0,135.42,135.42,0,300,0v300Z" fill="#9bd3ae"/>
  <path d="M163.9,324.8c12-6.5,25-9.7,39-9.7,11.5,0,22.9,4.7,34.1,14.2,1.7,1.43,3.26,2.89,4.7,4.36l58.3-33.66V39.16c-3.82-.51-7.72-.76-11.7-.76-48,0-79.2,24.7-93.7,74.2-11.5-12.5-26.2-18.8-44.2-18.8-16.5,0-30.2,5.5-41.2,16.5s-16.5,24.7-16.5,41.2c0,14,2.7,23.7,8.2,29.2-11.5,6-16.7,17-15.7,33-12.5,1.5-22.7,7-30.4,16.5s-11.6,20.5-11.6,33c0,13.5,6.2,26.7,18.7,39.7-15.5,12-23.2,27.2-23.2,45.7,0,12,6,25.2,18.3,40,12,14.5,24,21.7,36,21.7,6.56,0,12.65-.46,18.3-1.36l41.12-23.74c3.44-5.09,6.11-10.95,7.98-17.6,5.76,1.06,11.21,2.25,16.35,3.56l45.71-26.39c-21.1-14.3-40.63-20.98-58.56-19.97h0ZM264.3,218.4c2.4,0,9.7,1,21.7,3v33-.1l-21.7-24.7v-11.2ZM220.8,251.4c5.5,9,12,17.7,19.5,26.2-5.1,0-13.3-1.3-24.8-4.1s-20.2-3.9-26.2-3.4c0-7,10.5-13.2,31.5-18.7h0Z" fill="#00160b"/>
</svg>