<?xml version="1.0" encoding="UTF-8"?>
<svg id="Layer_1" xmlns="http://www.w3.org/2000/svg" version="1.1" viewBox="0 0 300 450">
  <!-- Generator: Adobe Illustrator 30.1.0, SVG Export Plug-In . SVG Version: 2.1.1 Build 136)  -->
  <path d="M0,300V0C164.58,0,300,135.42,300,300c0,52.66-13.86,104.4-40.19,150L0,300Z" fill="#9bd3ae"/>
  <path d="M64.8,80.4c0-.14-.29-.57-.85-1.27-3.11.85-2.84,1.27.85,1.27Z" fill="#00160b"/>
  <path d="M243.2,304.5c7-16,10.5-28.5,10.5-37.5,0-32-16-57-48-75,4-6.9,6-11.7,6-14.2,0-13.5-5.5-23-16.5-28.5-7.5-2.5-13-4-16.5-4.5-5-20-14-36.5-27-49.5-15-14.5-32.2-21.7-51.7-21.7-5.5,0-14.2,1.2-26.2,3.4-4.62.89-7.9,1.59-9.85,2.13.56.7.85,1.13.85,1.27-3.69,0-3.96-.42-.85-1.27-1.42-1.78-4.63-5.35-9.65-10.73C38.32,51.58,20.22,41.84,0,39.16v260.84l62.01,35.8c4.8-4.55,10.01-8.83,15.69-12.8,10.3-7.3,20.4-14.4,30.4-21.4l16.5,20.2-.1.1c-19.95,3.78-38.81,9.56-56.55,17.33l40.45,23.36c.46-.13.92-.26,1.39-.39,21.9-6.5,36.7-9.8,44.2-9.8l35.2,1.5c7.5,15,19.2,22.5,35.2,22.5,10,0,18.9-4,26.6-12,7.7-8,11.6-17,11.6-27l.1.1c0-14.5-6.5-25.5-19.5-33h.01ZM49.7,282.8v-64.5c16.5,7.5,27.7,12.5,33.7,15,1,19.5-10.2,36-33.7,49.5Z" fill="#00160b"/>
</svg>