<?xml version="1.0" encoding="UTF-8"?>
<svg id="Layer_1" xmlns="http://www.w3.org/2000/svg" version="1.1" viewBox="0 0 519.62 300">
  <!-- Generator: Adobe Illustrator 30.1.0, SVG Export Plug-In . SVG Version: 2.1.1 Build 136)  -->
  <path d="M259.81,0l259.81,150c-53.52,92.71-152.76,150-259.81,150S53.52,242.71,0,150L259.81,0Z" fill="#9bd3ae"/>
  <path d="M112.23,85.2l-41.12,23.74c18.72-2.97,32.43-10.88,41.12-23.74Z" fill="#00160b"/>
  <path d="M310.91,47.4c3.36-4.04,7-7.9,10.91-11.6L259.81,0l-58.3,33.66c8.14,8.33,12.2,17.37,12.2,27.14v9.7h-.1c-10.81-10.32-21.25-18.89-31.34-25.73l-45.71,26.39c21.6,5.53,37.65,13.34,48.15,23.44,15,14,22.5,35.2,22.5,63.7,0,12.4-.6,20.2-1.9,23.2-1.3,3-5.8,6.4-13.5,10.1-7.8,3.7-13.4,5.6-16.9,5.6-1.5,0-3.5-.3-6-.8s-4.5-.8-6-.8c-9,0-22,5-39,15-14.5,8.5-23.2,14.2-26.2,17.2l21,1.5c13.5-3,23.5-4.5,30-4.5,13.5,0,28,2.5,43.5,7.5,6.4,19.5,10.2,30,11.2,31.5h3.8c13.5-20.5,22.7-31,27.7-31.5,2.5,6.5,4.7,13,6.7,19.5,4.5,9.5,10,16,16.5,19.5,0-3.5,2.7-10,8.2-19.5,5.4-9.4,9.7-14.2,12.7-14.2s10.2,4.7,21.7,14.2,21.5,14.5,30,15c2.5-10,4-17.5,4.5-22.5h9.7c2.5,0,7.7,1,15.4,3,7.8,2,13.9,3,18.4,3,17,0,25.5-3,25.5-9l-21-10.5c17.5-4,29.7-5.5,36.7-4.5,1.5-5-2.8-9-12.8-12-7-2-13.7-3-20.2-3h-9c-4.6.5-7.8.7-9.8.7-3-.5-11.2-2.9-24.4-7.1s-21.9-9.5-26.2-15.7-6.4-16.1-6.4-29.6c0-8.5,1.5-21.7,4.5-39.7,3.5-22,8-36,13.5-42,3.43-3.92,16.47-8.99,39.11-15.31l-40.45-23.36c-5.74,2.51-11.36,5.23-16.85,8.17h-.01Z" fill="#00160b"/>
</svg>