<?xml version="1.0" encoding="UTF-8"?>
<svg id="svg4977" xmlns="http://www.w3.org/2000/svg" xmlns:svg="http://www.w3.org/2000/svg" xmlns:sodipodi="http://sodipodi.sourceforge.net/DTD/sodipodi-0.dtd" xmlns:rdf="http://www.w3.org/1999/02/22-rdf-syntax-ns#" xmlns:inkscape="http://www.inkscape.org/namespaces/inkscape" xmlns:dc="http://purl.org/dc/elements/1.1/" xmlns:cc="http://creativecommons.org/ns#" version="1.1" viewBox="0 0 600 600">
  <!-- Generator: Adobe Illustrator 30.1.0, SVG Export Plug-In . SVG Version: 2.1.1 Build 136)  -->
  <sodipodi:namedview id="namedview12" bordercolor="#666666" borderopacity="1" gridtolerance="10" guidetolerance="10" inkscape:current-layer="svg4977" inkscape:cx="300" inkscape:cy="300" inkscape:pageopacity="0" inkscape:pageshadow="2" inkscape:window-height="480" inkscape:window-maximized="0" inkscape:window-width="732" inkscape:window-x="0" inkscape:window-y="0" inkscape:zoom="0.39333333" objecttolerance="10" pagecolor="#ffffff" showgrid="false"/>
  <path id="circle5" d="M300,300l-212.13,212.13C31.63,455.89,0,379.53,0,300,0,135.42,135.42,0,300,0,379.53,0,455.89,31.63,512.13,87.87l-212.13,212.13Z" fill="#cbc2bf"/>
  <g id="layer1">
    <path id="path289" d="M512.09,87.82c54.31,54.31,87.91,129.31,87.91,212.16,0,165.7-134.32,300.02-300.01,300.02-82.84,0-157.83-33.58-212.12-87.88" inkscape:connector-curvature="0" fill="#96908d"/>
    <path d="M406.5,264c29.43,62.66,79.84,113.07,142.5,142.5-62.66,29.43-113.07,79.84-142.5,142.5-29.43-62.66-79.84-113.07-142.5-142.5,62.66-29.43,113.07-79.84,142.5-142.5M406.5,317.44c-17.85,39.54-49.52,71.21-89.06,89.06,39.54,17.85,71.21,49.52,89.06,89.06,17.85-39.54,49.52-71.21,89.06-89.06-39.54-17.85-71.21-49.52-89.06-89.06" fill="#130c0e"/>
  </g>
  <path d="M236.93,50.23v209.26c0,27.49,16.27,26.93,26.93,26.93h8.98v28.05h-122.31v-28.05h11.22c10.1,0,26.37,0,26.37-26.93V125.41c0-26.37-8.42-28.61-26.37-28.05h-10.1v-28.61h11.22c20.2,0,31.98-17.95,52.17-18.51h21.89Z" fill="#130c0e"/>
</svg>