<?xml version="1.0" encoding="UTF-8"?>
<svg id="svg4977" xmlns="http://www.w3.org/2000/svg" xmlns:svg="http://www.w3.org/2000/svg" xmlns:sodipodi="http://sodipodi.sourceforge.net/DTD/sodipodi-0.dtd" xmlns:rdf="http://www.w3.org/1999/02/22-rdf-syntax-ns#" xmlns:inkscape="http://www.inkscape.org/namespaces/inkscape" xmlns:dc="http://purl.org/dc/elements/1.1/" xmlns:cc="http://creativecommons.org/ns#" version="1.1" viewBox="0 0 600 600">
  <!-- Generator: Adobe Illustrator 30.1.0, SVG Export Plug-In . SVG Version: 2.1.1 Build 136)  -->
  <sodipodi:namedview id="namedview12" bordercolor="#666666" borderopacity="1" gridtolerance="10" guidetolerance="10" inkscape:current-layer="svg4977" inkscape:cx="300" inkscape:cy="300" inkscape:pageopacity="0" inkscape:pageshadow="2" inkscape:window-height="480" inkscape:window-maximized="0" inkscape:window-width="732" inkscape:window-x="0" inkscape:window-y="0" inkscape:zoom="0.39333333" objecttolerance="10" pagecolor="#ffffff" showgrid="false"/>
  <path id="circle5" d="M300,300l-212.13,212.13C31.63,455.89,0,379.53,0,300,0,135.42,135.42,0,300,0,379.53,0,455.89,31.63,512.13,87.87l-212.13,212.13Z" fill="#cbc2bf"/>
  <g id="layer1">
    <path id="path269" d="M512.09,87.82c54.31,54.31,87.91,129.31,87.91,212.16,0,165.7-134.32,300.02-300.01,300.02-82.84,0-157.83-33.58-212.12-87.88" inkscape:connector-curvature="0" fill="#fffbd5"/>
    <path id="path275" d="M528,438.66c-14.62-13.58-24.32-20.95-29.08-22.09-3.46-.83-6.81,1.19-10.03,6.04s-7.75,6.55-13.61,5.15c-2.38-.57-7.05-2.61-14-6.1-5.63,5.31-8.65,8.83-9.06,10.55-.57,2.39.53,5.63,3.3,9.73,2.76,4.1,5.36,6.43,7.8,7.02,1.55.37,3.73.55,6.55.53,2.8,0,4.66.1,5.56.31,2.66.62,2.81,5.83.47,15.59-2.22,9.31-7.81,23.11-16.76,41.35-.35-23.45-3.65-35.93-9.94-37.43-.87-.21-2.81.02-5.83.67-3.02.64-5.18.82-6.48.51-6.28-1.51-10.55-8.6-12.78-21.28-10.34-.87-16.54,3.04-18.62,11.69-1.04,4.36.14,8.3,3.53,11.86,3.38,3.55,4.94,5.87,4.7,6.96-1.4,5.87-12.13,12.8-32.13,20.84-10.66,4.33-18.04,7.37-22.13,9.13,3.95-3.17,8.21-7.54,12.76-13.09,5.18-6.34,8.23-11.44,9.17-15.35.52-2.15-1.25-5.8-5.3-10.88-4.06-5.09-5.56-9.8-4.52-14.13.88-3.68,3.26-7.91,7.16-12.72-2.04-3.92-5-6.36-8.92-7.29-8.66-2.08-13.67-.3-15.02,5.35.93-3.91.23-.98-2.09,8.77-1.5,7.2-7.78,9.48-18.83,6.85-8.45-2.03-22.18-7.37-41.18-16.04,23.89-.23,36.71-4.04,38.47-11.41-.19.88,0-1.85.58-8.12.74-6.92,6.96-11.86,18.65-14.79.43-10.43-3.56-16.66-12.02-18.68-1.3-.32-4.24,1.39-8.78,5.12-4.57,3.71-8.36,5.22-11.39,4.49-5.2-1.23-10.57-8.48-16.1-21.72-2.56-6.58-6.52-16.34-11.9-29.31,4.36,3.79,8.72,7.6,13.09,11.38,5.78,4.6,10.62,7.35,14.51,8.3,3.04.71,6.65-1.23,10.85-5.84,4.19-4.61,8.67-6.35,13.44-5.2.67.16,4.68,2.48,12.07,7.01,5.62-5.3,8.8-9.46,9.52-12.49.61-2.61-.24-5.96-2.58-10.07-2.33-4.12-4.81-6.47-7.42-7.11-1.08-.26-2.83-.34-5.26-.23-2.43.12-4.19.04-5.27-.22-3.89-.93-4.69-6.27-2.35-16.03.61-2.6,6.67-16.85,18.14-42.73-1,3.18-1.04,9.6-.12,19.21,1.08,11.72,4.12,18.16,9.11,19.37.86.2,2.75-.03,5.67-.71,2.9-.68,5.12-.84,6.62-.47,4.98,1.18,8.42,4.99,10.33,11.4l2.78,9.92c4.54,1.1,8.72.38,12.53-2.14,3.82-2.53,6.28-6.07,7.36-10.61,1.13-4.77,0-8.87-3.41-12.33-3.42-3.46-4.97-5.83-4.65-7.13,1.09-4.55,10.07-10.53,26.97-17.94,13.55-5.91,22.25-9.22,26.09-9.91-12.32,10.35-19.19,18.42-20.59,24.28-.73,3.04.33,6.73,3.19,11.09,3.57,5.2,5.47,8.75,5.7,10.63.97,5.52-.88,12.28-5.55,20.34,4.87,5.52,8.81,8.63,11.86,9.37,6.26,1.5,10.19-1.01,11.75-7.5.16-.65.38-2.78.67-6.38.28-3.6.59-5.59.91-5.97,1.6-2.83,7.92-2.92,18.97-.27,6.94,1.66,20.87,7.05,41.83,16.19-5.08.16-12.7.39-22.85.73-9.29.52-14.33,2.41-15.12,5.65-.35,1.52-.44,4.25-.24,8.18.2,3.94.11,6.79-.32,8.53-.72,3.04-3.35,5.38-7.87,7.05l-12.94,5.15c1.48,5.39,2.52,8.63,3.19,9.69,1.55,3.13,4.15,5.12,7.84,6.01,2.6.62,5.53-1.08,8.79-5.12,3.25-4.03,7.27-5.48,12.04-4.33,5.86,1.39,11.17,8.39,15.94,20.99,2.67,7.06,6.86,17.81,12.58,32.23h0v-.05h0ZM460.35,402.55c3.31-13.88,1.1-27.12-6.65-39.74s-18.56-20.6-32.42-23.92c-14.09-3.37-27.44-1.23-40.03,6.42-12.59,7.63-20.68,18.46-24.27,32.5-3.54,13.82-1.26,27.02,6.85,39.62,8.09,12.59,19.08,20.55,32.95,23.87,14.73,3.52,28.19,1.64,40.35-5.64,12.17-7.29,19.91-18.34,23.23-33.11h-.01ZM455.47,401.37c-3.16,13.22-10.22,23.11-21.19,29.63-10.96,6.54-23.05,8.24-36.26,5.08-12.79-3.06-22.67-10.12-29.65-21.19-6.98-11.06-8.93-22.98-5.87-35.77,3.02-12.58,10.19-22.25,21.56-29.05,11.38-6.78,23.33-8.67,35.89-5.66,12.56,3,22.37,10.16,29.39,21.46,7.04,11.32,9.08,23.15,6.13,35.5h0Z" inkscape:connector-curvature="0" fill="#211d15"/>
  </g>
  <path d="M236.93,50.23v209.26c0,27.49,16.27,26.93,26.93,26.93h8.98v28.05h-122.31v-28.05h11.22c10.1,0,26.37,0,26.37-26.93V125.41c0-26.37-8.42-28.61-26.37-28.05h-10.1v-28.61h11.22c20.2,0,31.98-17.95,52.17-18.51h21.89Z" fill="#130c0e"/>
</svg>