<?xml version="1.0" encoding="UTF-8"?>
<svg id="svg4977" xmlns="http://www.w3.org/2000/svg" xmlns:svg="http://www.w3.org/2000/svg" xmlns:sodipodi="http://sodipodi.sourceforge.net/DTD/sodipodi-0.dtd" xmlns:rdf="http://www.w3.org/1999/02/22-rdf-syntax-ns#" xmlns:inkscape="http://www.inkscape.org/namespaces/inkscape" xmlns:dc="http://purl.org/dc/elements/1.1/" xmlns:cc="http://creativecommons.org/ns#" version="1.1" viewBox="0 0 600 600">
  <!-- Generator: Adobe Illustrator 30.1.0, SVG Export Plug-In . SVG Version: 2.1.1 Build 136)  -->
  <sodipodi:namedview id="namedview12" bordercolor="#666666" borderopacity="1" gridtolerance="10" guidetolerance="10" inkscape:current-layer="svg4977" inkscape:cx="300" inkscape:cy="300" inkscape:pageopacity="0" inkscape:pageshadow="2" inkscape:window-height="480" inkscape:window-maximized="0" inkscape:window-width="732" inkscape:window-x="0" inkscape:window-y="0" inkscape:zoom="0.39333333" objecttolerance="10" pagecolor="#ffffff" showgrid="false"/>
  <path id="circle5" d="M300,300l-212.13,212.13C31.63,455.89,0,379.53,0,300,0,135.42,135.42,0,300,0,379.53,0,455.89,31.63,512.13,87.87l-212.13,212.13Z" fill="#cbc2bf"/>
  <path d="M266.18,221.9c-.51,64.39-66.43,89.43-102.71,88.92-40.37-.51-59.28-17.89-59.28-17.89l11.75-15.84s19.42,12.78,47.01,12.78c15.84,0,63.88-14.82,63.88-63.37,0-26.06-23.51-35.77-35.26-36.28-10.22,0-21.46,5.62-37.3,14.82l-8.69-18.91c56.21-34.24,64.9-44.46,64.9-60.3,0-14.82-13.29-24.53-25.04-24.53s-28.62,3.07-59.79,36.79l-16.35-13.29c40.37-56.72,76.14-54.17,86.87-53.66,24.02,1.02,52.63,13.8,53.15,44.46,0,12.26-4.09,26.57-31.68,47.52,23.51,2.56,49.06,23.51,48.55,58.77h-.01Z" fill="#130c0e"/>
  <g id="layer1">
    <path id="path289" d="M512.09,87.82c54.31,54.31,87.91,129.31,87.91,212.16,0,165.7-134.32,300.02-300.01,300.02-82.84,0-157.83-33.58-212.12-87.88" inkscape:connector-curvature="0" fill="#96908d"/>
    <path d="M406.5,264c29.43,62.66,79.84,113.07,142.5,142.5-62.66,29.43-113.07,79.84-142.5,142.5-29.43-62.66-79.84-113.07-142.5-142.5,62.66-29.43,113.07-79.84,142.5-142.5M406.5,317.44c-17.85,39.54-49.52,71.21-89.06,89.06,39.54,17.85,71.21,49.52,89.06,89.06,17.85-39.54,49.52-71.21,89.06-89.06-39.54-17.85-71.21-49.52-89.06-89.06" fill="#130c0e"/>
  </g>
</svg>