<?xml version="1.0" encoding="UTF-8"?>
<svg id="svg4977" xmlns="http://www.w3.org/2000/svg" xmlns:svg="http://www.w3.org/2000/svg" xmlns:sodipodi="http://sodipodi.sourceforge.net/DTD/sodipodi-0.dtd" xmlns:rdf="http://www.w3.org/1999/02/22-rdf-syntax-ns#" xmlns:inkscape="http://www.inkscape.org/namespaces/inkscape" xmlns:dc="http://purl.org/dc/elements/1.1/" xmlns:cc="http://creativecommons.org/ns#" version="1.1" viewBox="0 0 600 600">
  <!-- Generator: Adobe Illustrator 30.1.0, SVG Export Plug-In . SVG Version: 2.1.1 Build 136)  -->
  <sodipodi:namedview id="namedview12" bordercolor="#666666" borderopacity="1" gridtolerance="10" guidetolerance="10" inkscape:current-layer="svg4977" inkscape:cx="300" inkscape:cy="300" inkscape:pageopacity="0" inkscape:pageshadow="2" inkscape:window-height="480" inkscape:window-maximized="0" inkscape:window-width="732" inkscape:window-x="0" inkscape:window-y="0" inkscape:zoom="0.39333333" objecttolerance="10" pagecolor="#ffffff" showgrid="false"/>
  <path id="circle5" d="M300,300l-212.13,212.13C31.63,455.89,0,379.53,0,300,0,135.42,135.42,0,300,0,379.53,0,455.89,31.63,512.13,87.87l-212.13,212.13Z" fill="#cbc2bf"/>
  <path d="M219.89,225.6c9.79,59.11-.46,103.84-30.74,134.12-20.19,20.19-42.53,30.15-66.84,29.84-24.36-.29-46.64-10.53-66.85-30.74s-30.67-42.72-31.41-67.52c-.78-24.78,8.84-47.17,28.74-67.07,29.7-29.7,74.57-40.11,134.56-31.18-8.32-60.61,1.8-105.18,30.3-133.69,20.2-20.2,42.64-30.03,67.27-29.41,24.69.61,47.12,11.01,67.3,31.19s30.53,42.56,30.96,67.07c.46,24.48-9.42,46.87-29.62,67.07-29.11,29.13-73.66,39.2-133.68,30.31h0ZM216.3,196.18c54.97,8.61,94.22,1.16,117.68-22.3,13.96-13.96,20.71-29.49,20.26-46.55-.42-17.1-7.66-32.6-21.62-46.56-13.97-13.97-29.61-21.34-47.01-22.07-17.38-.76-33.02,5.87-46.99,19.83-22.3,22.3-29.73,61.51-22.32,117.65h0ZM190.91,221.57c-55.87-7.69-95.35.02-118.54,23.2-13.63,13.63-20.21,28.94-19.59,45.88.6,16.92,7.87,32.38,21.84,46.35s30.32,22.12,47.23,22.72c16.91.59,32.54-6.25,46.79-20.5s22.58-32.7,24.95-55.27c1.49-13.96.58-34.75-2.68-62.38h0Z" fill="#0d0f0f"/>
  <path d="M512.1,87.8c54.3,54.3,87.9,129.3,87.9,212.2,0,165.7-134.3,300-300,300-82.8,0-157.8-33.6-212.1-87.9" fill="#aae0fa"/>
  <path d="M460.3,502.1c-16.2,16.4-36,24.7-59.7,24.7-26.5,0-47.6-9.1-63.1-27.2-14.7-17.3-22.1-39.3-22.1-66.2,0-28.8,12.5-61.7,37.6-98.6,20.5-30.3,44.5-56.8,72.2-79.6-4,18.5-6,31.6-6,39.4,0,17.9,5.6,35.3,16.9,52.3,13.8,20.2,24.4,35.2,31.6,45,11.2,17,16.9,33.6,16.9,49.7,0,23.9-8.1,44.1-24.2,60.6M460,409.9c-4.3-9.7-9.4-16.1-15.1-19.2.9,1.7,1.3,4.2,1.3,7.4,0,6.1-1.7,14.7-5.2,25.9l-5.6,17.3c0,10.1,5,15.1,15.1,15.1,10.7,0,16-7.1,16-21.2,0-7.2-2.2-15.6-6.5-25.3" fill="#061922"/>
</svg>