<?xml version="1.0" encoding="UTF-8"?>
<svg id="Layer_1" xmlns="http://www.w3.org/2000/svg" version="1.1" viewBox="0 0 600 600">
  <!-- Generator: Adobe Illustrator 30.1.0, SVG Export Plug-In . SVG Version: 2.1.1 Build 136)  -->
  <circle cx="300" cy="299.99" r="300" fill="#cac5c0"/>
  <path d="M202.27,114.91v295.84c0,35.27,14.58,52.88,43.71,52.88h6.89v19.93H95.74v-19.93h10.73c29.63,0,44.46-17.62,44.46-52.88v-193.91c0-35.74-12.77-53.65-38.32-53.65h-15.35v-19.92h6.14c30.65,0,58.27-9.46,82.78-28.36h16.09ZM398.51,485.86h-53.67v-6.12c0-34.24,10.73-77.41,32.18-129.52,32.72-77.69,62.88-137.47,90.44-179.36l3.1-5.37h-125.72c-18.4,0-32.32,3.83-41.77,11.47-9.44,7.67-16.76,20.46-21.87,38.33h-20.67l22.99-101.17h13.81c7.64,3.59,21.47,5.37,41.39,5.37h165.54v29.13c-6.12,8.69-13.78,22.48-22.99,41.38-17.9,34.77-34.24,75.13-49.06,121.09-21.98,68.49-33.21,126.76-33.7,174.76Z" fill="#0d0f0f"/>
</svg>