<?xml version="1.0" encoding="UTF-8"?>
<svg id="svg4977" xmlns="http://www.w3.org/2000/svg" xmlns:svg="http://www.w3.org/2000/svg" xmlns:sodipodi="http://sodipodi.sourceforge.net/DTD/sodipodi-0.dtd" xmlns:rdf="http://www.w3.org/1999/02/22-rdf-syntax-ns#" xmlns:inkscape="http://www.inkscape.org/namespaces/inkscape" xmlns:dc="http://purl.org/dc/elements/1.1/" xmlns:cc="http://creativecommons.org/ns#" version="1.1" viewBox="0 0 600 600">
  <!-- Generator: Adobe Illustrator 30.1.0, SVG Export Plug-In . SVG Version: 2.1.1 Build 136)  -->
  <sodipodi:namedview id="namedview12" bordercolor="#666666" borderopacity="1" gridtolerance="10" guidetolerance="10" inkscape:current-layer="svg4977" inkscape:cx="300" inkscape:cy="300" inkscape:pageopacity="0" inkscape:pageshadow="2" inkscape:window-height="480" inkscape:window-maximized="0" inkscape:window-width="732" inkscape:window-x="0" inkscape:window-y="0" inkscape:zoom="0.39333333" objecttolerance="10" pagecolor="#ffffff" showgrid="false"/>
  <path id="circle5" d="M300,300l-212.13,212.13C31.63,455.89,0,379.53,0,300,0,135.42,135.42,0,300,0c79.53,0,155.89,31.63,212.13,87.87l-212.13,212.13Z" fill="#cac5c0"/>
  <path id="path24" d="M188.91,287.73c13.41,0,42.21-8.94,42.21-35.26,0-17.88-12.91-34.76-58.6-53.63-23.34,14.9-30.29,30.79-30.29,44.2,0,30.79,24.33,44.69,46.18,44.69M224.17,131.81c0-17.88-14.9-36.25-39.73-36.25s-36.25,16.39-36.25,28.8c0,22.84,18.37,29.3,49.16,44.2,7.95-3.97,26.81-12.82,26.81-36.16v-.59ZM189.41,307.6c-45.19,0-80.45-25.33-80.45-62.07s42.71-57.11,42.71-57.11c-10.43-6.46-37.74-22.35-37.74-52.64,0-49.16,49.16-61.58,74.49-61.58,53.63,0,68.53,43.7,68.53,55.12,0,24.83-22.35,42.21-37.24,48.67,0,0,41.71,16.39,41.71,64.06,0,43.2-41.22,65.55-72.01,65.55" inkscape:connector-curvature="0" sodipodi:nodetypes="cscsccssccccscssscsc" fill="#0d0f0f"/>
</svg>