<?xml version="1.0" encoding="UTF-8"?>
<svg id="svg4478" xmlns="http://www.w3.org/2000/svg" xmlns:svg="http://www.w3.org/2000/svg" xmlns:rdf="http://www.w3.org/1999/02/22-rdf-syntax-ns#" xmlns:dc="http://purl.org/dc/elements/1.1/" xmlns:cc="http://creativecommons.org/ns#" version="1.1" viewBox="0 0 600 600">
  <!-- Generator: Adobe Illustrator 30.1.0, SVG Export Plug-In . SVG Version: 2.1.1 Build 136)  -->
  <path id="circle485" d="M300,300l-212.13,212.13C31.63,455.89,0,379.53,0,300,0,135.42,135.42,0,300,0,379.53,0,455.89,31.63,512.13,87.87l-212.13,212.13Z" fill="#c9c4be"/>
  <g id="layer1">
    <polygon id="polygon489" points="124.36 304.28 147.75 293.02 159.67 292.87 166.15 281.65 193.11 319.62 220.06 281.65 226.54 292.87 238.47 293.01 261.86 304.28 263.8 278.39 269.65 267.98 263.17 256.77 309.52 252.4 290.12 210.08 303.08 210.08 309.16 199.82 330.61 185.19 309.16 170.56 303.08 160.3 290.12 160.3 309.52 117.98 263.17 113.62 269.65 102.4 263.8 92 261.86 66.11 238.47 77.37 226.54 77.51 220.06 88.73 193.11 50.76 166.15 88.73 159.67 77.51 147.75 77.37 124.36 66.11 122.41 92 116.57 102.4 123.04 113.62 76.69 117.98 96.09 160.3 83.14 160.3 77.05 170.57 55.61 185.19 77.05 199.82 83.14 210.08 96.09 210.08 76.69 252.4 123.04 256.77 116.57 267.98 122.41 278.39 124.36 304.28" fill="#0d0f0f"/>
    <polygon id="polygon491" points="244.28 284.97 253.93 279.4 253.93 268.28 244.28 262.71 207.1 193.27 285.83 190.75 295.47 196.32 305.11 190.76 305.11 179.63 295.47 174.06 285.83 179.63 207.1 177.11 244.29 107.68 253.93 102.11 253.93 90.98 244.29 85.42 234.65 90.98 234.65 102.11 193.11 169.04 151.57 102.11 151.57 90.98 141.93 85.42 132.29 90.98 132.29 102.11 141.93 107.68 179.12 177.11 100.39 179.63 90.75 174.06 81.11 179.62 81.11 190.75 90.75 196.32 100.39 190.75 179.12 193.27 141.93 262.71 132.29 268.27 132.29 279.4 141.93 284.97 151.57 279.4 151.57 268.27 193.11 201.35 234.65 268.27 234.65 279.4 244.28 284.97" fill="#fff"/>
    <polygon id="polygon493" points="212.5 109.27 193.11 143.06 173.72 109.27 193.11 75.48 212.5 109.27" fill="#fff"/>
    <polygon id="polygon495" points="137.05 130.44 156.62 164.13 117.67 164.02 98.09 130.33 137.05 130.44" fill="#fff"/>
    <polygon id="polygon497" points="117.66 206.36 156.62 206.25 137.05 239.94 98.09 240.05 117.66 206.36" fill="#fff"/>
    <polygon id="polygon499" points="173.72 261.11 193.11 227.32 212.49 261.11 193.11 294.91 173.72 261.11" fill="#fff"/>
    <polygon id="polygon501" points="249.16 239.94 229.59 206.26 268.55 206.36 288.12 240.05 249.16 239.94" fill="#fff"/>
    <polygon id="polygon503" points="268.56 164.02 229.59 164.13 249.17 130.44 288.12 130.34 268.56 164.02" fill="#fff"/>
  </g>
</svg>