<?xml version="1.0" encoding="UTF-8"?>
<svg id="Layer_1" xmlns="http://www.w3.org/2000/svg" version="1.1" viewBox="0 0 600 600">
  <!-- Generator: Adobe Illustrator 30.1.0, SVG Export Plug-In . SVG Version: 2.1.1 Build 136)  -->
  <path d="M300,300l-212.13,212.13C31.63,455.89,0,379.53,0,300,0,135.42,135.42,0,300,0,379.53,0,455.89,31.63,512.13,87.87l-212.13,212.13Z" fill="#f2f75e"/>
  <path d="M303.01,184.49l-46.87,27.68c-.51.3-.3,1.09.3,1.09h26.37c.99,0,1.79.8,1.79,1.8v2.64c0,.64-.35,1.24-.91,1.56l-78.58,44.52c-.81.46-1.84.22-2.37-.54l-2.6-3.77c-.53-.78-.38-1.83.35-2.42l35.15-28.31c.44-.35.18-1.07-.4-1.05l-29.04,1.11c-.6.02-1.17-.25-1.52-.73h0c-.57-.77-.43-1.85.31-2.46l30.65-25.06c.44-.36.17-1.08-.4-1.05l-45.51,2.02c-1.11.05-2.17.41-3.09,1.04l-59.14,40.6c-.48.33-.25,1.08.34,1.08h71c.99,0,1.8.8,1.8,1.8v3.24c0,.62-.31,1.19-.84,1.52l-127.78,80.75c-.76.48-1.76.33-2.34-.36l-2.66-3.15c-.66-.78-.54-1.95.27-2.58l68.8-53.64c.45-.35.19-1.08-.38-1.06l-80.44,2.39c-.61.02-1.19-.28-1.54-.78l-2.48-3.62c-.54-.79-.37-1.86.39-2.44l144.88-110.78c.46-.35.2-1.07-.37-1.06l-99.83,1.56c-.6,0-1.17-.28-1.51-.78l-1.04-1.49c-.62-.89-.44-2.09.38-2.77l88.21-72.63c.9-.74,2.59-1.35,3.76-1.35h60.55c.7,0,1.34.41,1.63,1.05l.8,1.76c.35.78.11,1.7-.57,2.2l-56.96,41.45c-.46.34-.22,1.07.35,1.07h97.6c1.11,0,2.12.63,2.63,1.61l1.48,2.87c.69,1.34.27,2.99-.99,3.83l-65.89,43.56c-.49.33-.26,1.08.33,1.08h75.59c.99,0,1.8.8,1.8,1.8v2.66c0,1.05-.55,2.02-1.46,2.55h-.01,0Z"/>
</svg>