<?xml version="1.0" encoding="UTF-8"?>
<svg id="Layer_1" xmlns="http://www.w3.org/2000/svg" version="1.1" viewBox="0 0 600 600">
  <!-- Generator: Adobe Illustrator 30.1.0, SVG Export Plug-In . SVG Version: 2.1.1 Build 136)  -->
  <path d="M122.46,6.27c186.05,34.21,268.89,27.91,345.48,0,0,0,25.74,247.42,126.05,367.99,0,0-178.44,50.02-294.78,219.46,0,0-113.91-158.91-293.19-222.29C62.15,294.26,114,141.59,122.46,6.27h0Z" stroke="#fff" stroke-width="5.88"/>
  <path d="M225.26,62.14c-1.24-9.98,39.55,26.51,155.55-3.45,0,0-83.76,70.1-93.14,184.14,0,0,90.64,20.34,174.89-6.41,0,0-126.09,162.51-158.55,308.01,0,0-35.32-80,1.21-214.9,0,0-43.41-29.81-198.2,9.35,0,0,133.4-154.84,118.24-276.73h0Z" fill="#fff" stroke="#fff" stroke-width="5.88"/>
</svg>