<?xml version="1.0" encoding="UTF-8"?>
<svg id="svg4940" xmlns="http://www.w3.org/2000/svg" xmlns:svg="http://www.w3.org/2000/svg" xmlns:rdf="http://www.w3.org/1999/02/22-rdf-syntax-ns#" xmlns:inkscape="http://www.inkscape.org/namespaces/inkscape" xmlns:dc="http://purl.org/dc/elements/1.1/" xmlns:cc="http://creativecommons.org/ns#" version="1.1" viewBox="0 0 600 600">
  <!-- Generator: Adobe Illustrator 30.1.0, SVG Export Plug-In . SVG Version: 2.1.1 Build 136)  -->
  <circle cx="300" cy="300" r="300" fill="#cbc2bf"/>
  <path id="path6" d="M147.42,272.9h60.22c23.99,0,31.13-1.53,39.3-28.07l20.41-.51-18.37,63.28H103.53l-.51-17.35c109.21-106.66,111.25-122.48,112.27-138.3,2.55-34.7-22.45-45.93-35.72-45.93s-35.21,8.68-56.65,52.56l-18.88-8.17c28.58-80.12,76.55-76.55,91.86-76.04,37.76,1.02,62.26,36.74,61.24,66.85-1.02,40.83-18.88,46.95-109.72,131.66Z" inkscape:connector-curvature="0" fill="#130c0e"/>
  <g id="layer1">
    <path id="path279" d="M512.09,87.82c54.31,54.31,87.91,129.31,87.91,212.16,0,165.7-134.32,300.02-300.01,300.02-82.84,0-157.83-33.58-212.12-87.88" inkscape:connector-curvature="0" fill="#aae0fa"/>
    <path id="path283" d="M460.33,502.05c-16.15,16.43-36.05,24.65-59.68,24.65-26.53,0-47.57-9.08-63.14-27.24-14.71-17.3-22.06-39.35-22.06-66.17,0-28.82,12.54-61.69,37.63-98.61,20.46-30.28,44.54-56.8,72.22-79.58-4.04,18.46-6.06,31.57-6.06,39.37,0,17.88,5.62,35.32,16.87,52.33,13.84,20.19,24.37,35.18,31.57,44.98,11.24,17.01,16.87,33.6,16.87,49.73,0,23.94-8.06,44.12-24.21,60.55h0ZM459.9,409.72c-4.33-9.65-9.37-16.08-15.14-19.25.87,1.73,1.29,4.19,1.29,7.36,0,6.06-1.72,14.72-5.18,25.94l-5.63,17.31c0,10.08,5.03,15.13,15.13,15.13,10.66,0,16.01-7.06,16.01-21.19,0-7.21-2.16-15.65-6.49-25.3h0Z" inkscape:connector-curvature="0" fill="#061922"/>
  </g>
</svg>