<?xml version="1.0" encoding="UTF-8"?>
<svg id="svg4977" xmlns="http://www.w3.org/2000/svg" xmlns:svg="http://www.w3.org/2000/svg" xmlns:sodipodi="http://sodipodi.sourceforge.net/DTD/sodipodi-0.dtd" xmlns:rdf="http://www.w3.org/1999/02/22-rdf-syntax-ns#" xmlns:inkscape="http://www.inkscape.org/namespaces/inkscape" xmlns:dc="http://purl.org/dc/elements/1.1/" xmlns:cc="http://creativecommons.org/ns#" version="1.1" viewBox="0 0 600 600">
  <!-- Generator: Adobe Illustrator 30.1.0, SVG Export Plug-In . SVG Version: 2.1.1 Build 136)  -->
  <sodipodi:namedview id="namedview12" bordercolor="#666666" borderopacity="1" gridtolerance="10" guidetolerance="10" inkscape:current-layer="svg4977" inkscape:cx="300" inkscape:cy="300" inkscape:pageopacity="0" inkscape:pageshadow="2" inkscape:window-height="480" inkscape:window-maximized="0" inkscape:window-width="732" inkscape:window-x="0" inkscape:window-y="0" inkscape:zoom="0.39333333" objecttolerance="10" pagecolor="#ffffff" showgrid="false"/>
  <path id="circle5" d="M300,300l-212.13,212.13C31.63,455.89,0,379.53,0,300,0,135.42,135.42,0,300,0c79.53,0,155.89,31.63,212.13,87.87l-212.13,212.13Z" fill="#cac5c0"/>
  <path d="M300,300l212.13-212.13c56.24,56.24,87.87,132.6,87.87,212.13,0,164.58-135.42,300-300,300-79.53,0-155.89-31.63-212.13-87.87l212.13-212.13Z" fill="#96908d"/>
  <g>
    <path d="M414.7,293.26c31.72.47,34.87,7.68,44.16,7.93,13.44.38,33.98-25.45,61.81-2.1,27.43,23.01,5.08,59.11,5.08,59.11,0,0,15.27,27.05,17.05,68.25,1.3,29.83-10.18,66.95-61.66,88-47.39,19.39-118.11,15.52-161.34-17.67-33.51-25.71-31.15-63.21-30.23-75.99,2.4-33.53,17.05-60.47,17.05-60.47,0,0-21.67-42.84,4.78-63.15,29.04-22.3,49.71,3.95,61.66,3,8.7-.72,11.55-7.36,41.63-6.91Z" fill="#855b52"/>
    <path d="M356.63,316.3c-.4-2.36-15.8-17.63-31.72-2.1-12.27,11.97,0,32.79,2.1,31.13,1.62-1.28,7.57-8.95,14.52-15.56,7.12-6.78,15.24-12.54,15.1-13.46Z" fill="#b99277"/>
    <path d="M476.81,316.45c-.11,1.32,8.1,6.27,15.56,13.31,7.55,7.12,14.35,16.31,15.56,16.16,2.4-.3,12.71-20.5-.74-31.87-13.46-11.38-30.09-1.49-30.38,2.4Z" fill="#b99277"/>
    <path d="M417.29,400.52c31.13,0,49.8,35.12,48.69,57.07-1,19.96-12.37,36.53-50.69,36.32-38.31-.19-48.03-17.77-48.69-36.53-.6-16.75,11.38-56.85,50.69-56.85Z" fill="#f2a258"/>
    <path d="M477.7,399.08c.7,8.84-4.04,16.9-13.12,16.22-8.76-.68-15.16-7.78-15.16-16.67s4.72-15.18,11.82-16.16c8.67-1.21,15.46,4.04,16.46,16.61Z" fill="#171716"/>
    <path d="M438.64,435.84c-.72,8.84-6.59,18.31-23.64,17.71-14.31-.51-21.05-10.04-21.26-18.9-.3-12.52,6.38-17.14,22.56-17.37,18.46-.23,23.35,6.4,22.35,18.56Z" fill="#2f3030"/>
    <path d="M382.98,402.37c-.91,8.82-9.21,15.01-16.97,13.12-8.53-2.08-12.35-11.06-10.57-19.75,1.59-7.78,8.42-13.84,16.16-12.97,8.08.89,12.52,8.48,11.38,19.6Z" fill="#171716"/>
    <path d="M416.19,474.22c11.67,0,18.05-6.44,19.86-8.23,1.81-1.79,4.23-4.85,7.97-1.79,3.19,2.59.04,6.63-1.4,8.19-2.59,2.79-10.42,11.29-27.49,10.52-16.75-.74-23.2-8.33-25-10.12-1.79-1.79-4.78-6.38-1.4-8.97,4.06-3.1,5.38.4,9.57,3.78s6.83,6.61,17.9,6.61Z" fill="#2f3030"/>
  </g>
  <path d="M189.1,220.51l.51-99.54-67.38,99.54M96.2,244.5l-.51-23.99,101.07-147.01h33.69v147.01c9.7,0,15.82-15.31,16.84-22.46h19.4l-6.64,45.94h-29.1v22.46c0,13.78,5.61,21.95,18.89,21.95h10.21v19.91h-100.56l.51-19.91h12.25c8.68,0,18.38-5.61,17.87-22.97v-21.95" fill="#0d0f0f"/>
</svg>