<?xml version="1.0" encoding="UTF-8"?>
<svg id="Layer_1" xmlns="http://www.w3.org/2000/svg" version="1.1" viewBox="0 0 1200 600">
  <!-- Generator: Adobe Illustrator 30.1.0, SVG Export Plug-In . SVG Version: 2.1.1 Build 136)  -->
  <path d="M1200,300c0,164.58-135.42,300-300,300H300L900,0c164.58,0,300,135.43,300,300Z" fill="#9bd3ae"/>
  <path d="M900,0L300,600C135.42,600,0,464.58,0,300S135.42,0,300,0h600Z" fill="#c777d6"/>
  <path d="M477.39,248.87c-29.73-59.2-114.79-66.24-157.96-61.82-21.57,2.21-38.91,7.92-50.5,12.59,37.1-33.29,77.34-42.92,87-45.05,54.46-11.93,98.65,4.3,114.77,11.15-5.02-9.56-13.13-23.02-25.6-37.01-10.63-11.91-62.85-70.44-125.06-60.96-65.49,9.97-98.47,88.7-107.6,131.13-4.57,21.19-4.5,39.46-3.63,51.93-21.21-47.87-16.65-91.38-15.53-100.73,6.47-53.36,34.25-88.64,45.64-101.65-10.64,1.83-25.95,5.37-43.11,12.92-14.62,6.43-86.42,38-96.63,100.09-10.75,65.37,53.93,121.06,91.45,142.86,18.76,10.9,36.15,16.47,48.28,19.5h-.03c-52.05,5.38-92-12.38-100.57-16.36-48.75-22.64-73.72-59.96-82.58-74.81-1.55,10.67-2.91,26.34-1.03,44.99,1.59,15.88,9.44,93.93,65.33,122.83,58.85,30.42,131.8-13.88,164.13-42.84,16.15-14.46,26.83-29.27,33.45-39.87-10.98,51.19-40.24,83.72-46.64,90.61-36.6,39.37-79.82,51.58-96.66,55.42,9.67,4.77,24.15,10.91,42.46,14.89,15.6,3.4,92.25,20.05,137-24.18,47.12-46.56,27.53-129.64,9.97-169.33-8.77-19.84-19.56-34.58-27.59-44.15l.1.05c45.21,26.24,67.07,64.04,71.67,72.31,26.13,46.96,24.4,91.84,22.84,109.06,7.53-7.72,17.83-19.6,27.28-35.78,8.05-13.79,47.58-81.54,19.34-137.77h0v-.02h.01s0,0,0,0ZM321.59,287.76c-5.93,5.57-14.1,12.23-24.69,18.35-10.59,6.12-20.45,9.86-28.24,12.21-7.14-3.92-15.99-9.63-25.09-17.81-9.09-8.19-15.69-16.39-20.34-23.08,1.52-8,4.21-18.19,9.19-29.36,4.97-11.18,10.74-20,15.67-26.48,8.08-1.03,18.6-1.61,30.77-.34,12.17,1.28,22.35,4.05,30.03,6.72,3.47,7.36,7.28,17.19,9.82,29.16,2.55,11.97,3.07,22.5,2.89,30.64h-.01,0ZM239.43,266.61c9.26-4.73,15.86-10.4,20.07-14.59,4.21-4.19,9.86-10.8,14.59-20.07,4.73,9.26,10.4,15.86,14.59,20.07,4.19,4.21,10.8,9.86,20.07,14.59-9.26,4.73-15.86,10.4-20.07,14.59-4.21,4.19-9.86,10.8-14.59,20.07-4.73-9.26-10.4-15.86-14.59-20.07s-10.8-9.86-20.07-14.59Z" fill="#0d0f0f"/>
  <path d="M1166.84,257.36c0,5.95-2.32,11.31-6.9,16.07-4.58,4.76-9.88,7.14-15.83,7.14-9.52,0-16.48-4.46-20.95-13.39l-20.95-.89c-4.46,0-13.27,1.96-26.3,5.83-13.98,3.87-22.02,6.96-24.1,9.34-3.27,3.57-5.95,11.9-8.03,24.99-1.79,10.71-2.68,18.57-2.68,23.62,0,8.03,1.25,13.92,3.81,17.61s7.74,6.84,15.59,9.34c7.86,2.5,12.73,3.93,14.52,4.23,1.19,0,3.09-.12,5.83-.42h5.36c3.87,0,7.86.6,12.02,1.79,5.95,1.79,8.51,4.17,7.62,7.14-4.17-.6-11.43.3-21.84,2.68l12.5,6.25c0,3.57-5.06,5.36-15.17,5.36-2.68,0-6.31-.6-10.95-1.79-4.58-1.19-7.68-1.79-9.16-1.79h-5.77c-.3,2.98-1.19,7.44-2.68,13.39-5.06-.3-11.01-3.27-17.85-8.93-6.84-5.65-11.13-8.45-12.91-8.45s-4.34,2.86-7.56,8.45c-3.27,5.65-4.88,9.52-4.88,11.6-3.87-2.08-7.14-5.95-9.82-11.6-1.19-3.87-2.5-7.74-3.99-11.6-2.98.3-8.45,6.55-16.48,18.74h-2.26c-.6-.89-2.86-7.14-6.66-18.74-9.22-2.98-17.85-4.46-25.89-4.46-3.87,0-9.82.89-17.85,2.68l-12.5-.89c1.79-1.79,6.96-5.18,15.59-10.24,10.12-5.95,17.85-8.93,23.21-8.93.89,0,2.08.18,3.57.48s2.68.48,3.57.48c2.08,0,5.42-1.13,10.06-3.33,4.58-2.2,7.26-4.23,8.03-6.01s1.13-6.43,1.13-13.81c0-16.96-4.46-29.58-13.39-37.91-7.74-7.44-20.53-12.79-38.38-16.07-4.76,16.96-18.15,25.41-40.11,25.41-7.14,0-14.28-4.28-21.42-12.91-7.32-8.81-10.89-16.66-10.89-23.8,0-11.01,4.58-20.05,13.81-27.2-7.44-7.74-11.13-15.59-11.13-23.62,0-7.44,2.32-13.98,6.9-19.64s10.65-8.93,18.09-9.82c-.6-9.52,2.5-16.07,9.34-19.64-3.27-3.27-4.88-9.05-4.88-17.38,0-9.82,3.27-17.97,9.82-24.52s14.7-9.82,24.52-9.82c10.71,0,19.46,3.75,26.3,11.19,8.63-29.46,27.2-44.15,55.76-44.15,14.88,0,27.97,5.95,39.28,17.85,4.17,4.46,6.25,6.84,6.25,7.14-3.57,0-1.79-.65,5.36-2.02,7.14-1.31,12.32-2.02,15.59-2.02,11.6,0,21.84,4.28,30.77,12.91,7.74,7.74,13.09,17.55,16.07,29.46,2.08.3,5.36,1.19,9.82,2.68,6.55,3.27,9.82,8.93,9.82,16.96,0,1.49-1.19,4.34-3.57,8.45,19.04,10.71,28.56,25.59,28.56,44.63,0,5.36-2.08,12.79-6.25,22.32,7.74,4.46,11.6,11.01,11.6,19.64M983.14,277.06v-5.77c0-6.84-3.33-13.09-10.06-18.74-6.66-5.65-13.45-8.45-20.29-8.45-8.33,0-16.07,1.9-23.21,5.77,15.77-.89,33.62,8.21,53.5,27.2M975.05,221.78c-4.46-5.06-8.33-10.24-11.6-15.59-12.5,3.27-18.74,6.96-18.74,11.13,3.57-.3,8.75.36,15.59,2.02s11.72,2.44,14.76,2.44M1002.24,207.97v-19.64c-7.14-1.19-11.48-1.79-12.91-1.79v6.66l12.91,14.7M1060.2,195.42c-3.57-1.49-10.24-4.46-20.05-8.93v38.38c13.98-8.03,20.65-17.85,20.05-29.46M1084.72,248.08l-9.82-12.02c-5.95,4.17-11.96,8.39-18.09,12.73-6.13,4.28-11.37,9.16-15.83,14.52,13.39-7.14,27.97-12.2,43.68-15.17" fill="#0d0f0f"/>
  <path d="M898.84,450.98c0,5.95-2.32,11.31-6.9,16.07-4.58,4.76-9.88,7.14-15.83,7.14-9.52,0-16.48-4.46-20.95-13.39l-20.95-.89c-4.46,0-13.27,1.96-26.3,5.83-13.98,3.87-22.02,6.96-24.1,9.34-3.27,3.57-5.95,11.9-8.03,24.99-1.79,10.71-2.68,18.57-2.68,23.62,0,8.03,1.25,13.92,3.81,17.61s7.74,6.84,15.59,9.34c7.86,2.5,12.73,3.93,14.52,4.23,1.19,0,3.09-.12,5.83-.42h5.36c3.87,0,7.86.6,12.02,1.79,5.95,1.79,8.51,4.17,7.62,7.14-4.17-.6-11.43.3-21.84,2.68l12.5,6.25c0,3.57-5.06,5.36-15.17,5.36-2.68,0-6.31-.6-10.95-1.79-4.58-1.19-7.68-1.79-9.16-1.79h-5.77c-.3,2.98-1.19,7.44-2.68,13.39-5.06-.3-11.01-3.27-17.85-8.93-6.84-5.65-11.13-8.45-12.91-8.45s-4.34,2.86-7.56,8.45c-3.27,5.65-4.88,9.52-4.88,11.6-3.87-2.08-7.14-5.95-9.82-11.6-1.19-3.87-2.5-7.74-3.99-11.6-2.98.3-8.45,6.55-16.48,18.74h-2.26c-.6-.89-2.86-7.14-6.66-18.74-9.22-2.98-17.85-4.46-25.89-4.46-3.87,0-9.82.89-17.85,2.68l-12.5-.89c1.79-1.79,6.96-5.18,15.59-10.24,10.12-5.95,17.85-8.93,23.21-8.93.89,0,2.08.18,3.57.48s2.68.48,3.57.48c2.08,0,5.42-1.13,10.06-3.33,4.58-2.2,7.26-4.23,8.03-6.01s1.13-6.43,1.13-13.81c0-16.96-4.46-29.58-13.39-37.91-7.74-7.44-20.53-12.79-38.38-16.07-4.76,16.96-18.15,25.41-40.11,25.41-7.14,0-14.28-4.28-21.42-12.91-7.32-8.81-10.89-16.66-10.89-23.8,0-11.01,4.58-20.05,13.81-27.2-7.44-7.74-11.13-15.59-11.13-23.62,0-7.44,2.32-13.98,6.9-19.64s10.65-8.93,18.09-9.82c-.6-9.52,2.5-16.07,9.34-19.64-3.27-3.27-4.88-9.05-4.88-17.38,0-9.82,3.27-17.97,9.82-24.52s14.7-9.82,24.52-9.82c10.71,0,19.46,3.75,26.3,11.19,8.63-29.46,27.2-44.15,55.76-44.15,14.88,0,27.97,5.95,39.28,17.85,4.17,4.46,6.25,6.84,6.25,7.14-3.57,0-1.79-.65,5.36-2.02,7.14-1.31,12.32-2.02,15.59-2.02,11.6,0,21.84,4.28,30.77,12.91,7.74,7.74,13.09,17.55,16.07,29.46,2.08.3,5.36,1.19,9.82,2.68,6.55,3.27,9.82,8.93,9.82,16.96,0,1.49-1.19,4.34-3.57,8.45,19.04,10.71,28.56,25.59,28.56,44.63,0,5.36-2.08,12.79-6.25,22.32,7.74,4.46,11.6,11.01,11.6,19.64M715.14,470.68v-5.77c0-6.84-3.33-13.09-10.06-18.74-6.66-5.65-13.45-8.45-20.29-8.45-8.33,0-16.07,1.9-23.21,5.77,15.77-.89,33.62,8.21,53.5,27.2M707.05,415.39c-4.46-5.06-8.33-10.24-11.6-15.59-12.5,3.27-18.74,6.96-18.74,11.13,3.57-.3,8.75.36,15.59,2.02s11.72,2.44,14.76,2.44M734.24,401.59v-19.64c-7.14-1.19-11.48-1.79-12.91-1.79v6.66l12.91,14.7M792.2,389.03c-3.57-1.49-10.24-4.46-20.05-8.93v38.38c13.98-8.03,20.65-17.85,20.05-29.46M816.72,441.7l-9.82-12.02c-5.95,4.17-11.96,8.39-18.09,12.73-6.13,4.28-11.37,9.16-15.83,14.52,13.39-7.14,27.97-12.2,43.68-15.17" fill="#0d0f0f"/>
</svg>