<?xml version="1.0" encoding="UTF-8"?>
<svg id="Layer_1" xmlns="http://www.w3.org/2000/svg" version="1.1" viewBox="0 0 1200 600">
  <!-- Generator: Adobe Illustrator 30.1.0, SVG Export Plug-In . SVG Version: 2.1.1 Build 136)  -->
  <path d="M1200,300c0,164.58-135.42,300-300,300H300L900,0c164.58,0,300,135.43,300,300Z" fill="#c777d6"/>
  <path d="M900,0L300,600C135.42,600,0,464.58,0,300S135.42,0,300,0h600Z" fill="#fffbd5"/>
  <path d="M1136.19,315.85c-29.73-59.2-114.79-66.24-157.96-61.82-21.57,2.21-38.91,7.92-50.5,12.59,37.1-33.29,77.34-42.92,87-45.05,54.46-11.93,98.65,4.3,114.77,11.15-5.02-9.56-13.13-23.02-25.6-37.01-10.63-11.91-62.85-70.44-125.06-60.96-65.49,9.97-98.47,88.7-107.6,131.13-4.57,21.19-4.5,39.46-3.63,51.93-21.21-47.87-16.65-91.38-15.53-100.73,6.47-53.36,34.25-88.64,45.64-101.65-10.64,1.83-25.95,5.37-43.11,12.92-14.62,6.43-86.42,38-96.63,100.09-10.75,65.37,53.93,121.06,91.45,142.86,18.76,10.9,36.15,16.47,48.28,19.5h-.03c-52.05,5.38-92-12.38-100.57-16.36-48.75-22.64-73.72-59.96-82.58-74.81-1.55,10.67-2.91,26.34-1.03,44.99,1.59,15.88,9.44,93.93,65.33,122.83,58.85,30.42,131.8-13.88,164.13-42.84,16.15-14.46,26.83-29.27,33.45-39.87-10.98,51.19-40.24,83.72-46.64,90.61-36.6,39.37-79.82,51.58-96.66,55.42,9.67,4.77,24.15,10.91,42.46,14.89,15.6,3.4,92.25,20.05,137-24.18,47.12-46.56,27.53-129.64,9.97-169.33-8.77-19.84-19.56-34.58-27.59-44.15l.1.05c45.21,26.24,67.07,64.04,71.67,72.31,26.13,46.96,24.4,91.84,22.84,109.06,7.53-7.72,17.83-19.6,27.28-35.78,8.05-13.79,47.58-81.54,19.34-137.77h0v-.02h.01ZM980.38,354.74c-5.93,5.57-14.1,12.23-24.69,18.35s-20.45,9.86-28.24,12.21c-7.14-3.92-15.99-9.63-25.09-17.81-9.09-8.19-15.69-16.39-20.34-23.08,1.52-8,4.21-18.19,9.19-29.36,4.97-11.18,10.74-20,15.67-26.48,8.08-1.03,18.6-1.61,30.77-.34,12.17,1.28,22.35,4.05,30.03,6.72,3.47,7.36,7.28,17.19,9.82,29.16,2.55,11.97,3.07,22.5,2.89,30.64h-.01ZM898.22,333.59c9.26-4.73,15.86-10.4,20.07-14.59s9.86-10.8,14.59-20.07c4.73,9.26,10.4,15.86,14.59,20.07s10.8,9.86,20.07,14.59c-9.26,4.73-15.86,10.4-20.07,14.59s-9.86,10.8-14.59,20.07c-4.73-9.26-10.4-15.86-14.59-20.07s-10.8-9.86-20.07-14.59Z" fill="#0d0f0f"/>
  <path d="M631.18,233.03c-19.08-17.77-31.76-27.45-38.03-28.88-4.57-1.05-8.89,1.57-13.07,7.84s-10.19,8.63-17.77,6.67c-3.14-.78-9.15-3.4-18.3-7.97-7.32,6.93-11.24,11.5-11.89,13.72-.78,3.14.65,7.32,4.31,12.68,3.66,5.36,7.06,8.36,10.19,9.15,1.96.52,4.84.78,8.49.65,3.66,0,6.14.13,7.32.39,3.53.78,3.66,7.58.65,20.39-2.88,12.15-10.19,30.19-21.96,54.11-.39-30.58-4.84-46.92-12.94-48.88-1.18-.26-3.66,0-7.58.91-3.92.78-6.8,1.05-8.49.65-8.23-1.96-13.72-11.24-16.73-27.84-13.46-1.18-21.56,3.92-24.31,15.29-1.31,5.75.13,10.85,4.57,15.55,4.44,4.7,6.4,7.71,6.14,9.15-1.83,7.71-15.81,16.73-41.95,27.18-13.98,5.62-23.52,9.67-28.88,11.89,5.23-4.18,10.72-9.8,16.73-17.12,6.8-8.23,10.72-14.9,12.02-20,.65-2.74-1.57-7.58-6.93-14.25-5.36-6.67-7.32-12.81-5.88-18.43,1.18-4.84,4.31-10.32,9.41-16.6-2.61-5.1-6.53-8.36-11.63-9.54-11.37-2.74-17.9-.39-19.6,6.93,1.18-5.1.26-1.31-2.74,11.5-1.96,9.41-10.19,12.42-24.57,8.89-11.11-2.61-29.01-9.67-53.84-20.91,31.24-.26,47.96-5.23,50.32-14.9-.26,1.18,0-2.35.78-10.59.91-9.02,9.15-15.55,24.31-19.34.52-13.59-4.7-21.69-15.68-24.44-1.7-.39-5.49,1.83-11.5,6.67-6.01,4.84-10.98,6.8-14.9,5.88-6.8-1.57-13.85-11.11-21.04-28.36-3.4-8.63-8.49-21.3-15.55-38.29,5.75,4.97,11.37,9.93,17.12,14.9,7.58,6.01,13.85,9.67,18.95,10.85,3.92.91,8.63-1.57,14.11-7.58,5.49-6.01,11.37-8.23,17.51-6.8.91.26,6.14,3.27,15.81,9.15,7.32-6.93,11.5-12.42,12.42-16.34.78-3.4-.26-7.71-3.4-13.2-3.01-5.36-6.27-8.49-9.67-9.28-1.44-.39-3.66-.39-6.93-.26-3.14.13-5.49,0-6.93-.26-5.1-1.18-6.14-8.23-3.14-20.91.78-3.4,8.76-22.09,23.66-55.81-1.31,4.18-1.31,12.55-.13,25.09,1.44,15.29,5.36,23.66,11.89,25.35,1.18.26,3.66,0,7.45-.91,3.79-.91,6.67-1.05,8.63-.65,6.53,1.57,10.98,6.53,13.46,14.9l3.66,12.94c5.88,1.44,11.37.52,16.34-2.74s8.23-7.97,9.67-13.85c1.44-6.27,0-11.63-4.44-16.08-4.44-4.44-6.53-7.58-6.01-9.28,1.44-5.88,13.2-13.72,35.29-23.39,17.77-7.71,29.14-12.02,34.11-12.94-16.08,13.59-25.09,24.05-26.92,31.76-.91,3.92.39,8.76,4.18,14.51,4.7,6.8,7.19,11.5,7.45,13.85,1.31,7.19-1.18,16.08-7.19,26.53,6.4,7.19,11.5,11.24,15.55,12.28,8.23,1.96,13.33-1.31,15.29-9.8.26-.78.52-3.66.91-8.36.39-4.7.78-7.32,1.18-7.84,2.09-3.66,10.32-3.79,24.83-.39,9.02,2.22,27.31,9.28,54.63,21.17-6.67.26-16.6.52-29.93.91-12.15.65-18.69,3.14-19.73,7.45-.52,1.96-.52,5.49-.26,10.72.26,5.1.13,8.89-.39,11.11-.91,3.92-4.31,7.06-10.32,9.28l-16.86,6.8c1.96,7.06,3.27,11.24,4.18,12.68,2.09,4.05,5.49,6.67,10.19,7.84,3.4.78,7.19-1.44,11.5-6.67s9.54-7.19,15.68-5.62c7.71,1.83,14.64,10.98,20.78,27.45,3.4,9.28,8.89,23.26,16.47,42.08l-.13-.39h0ZM542.84,185.86c4.31-18.17,1.44-35.42-8.63-51.88-10.19-16.47-24.31-26.92-42.34-31.24-18.43-4.44-35.81-1.7-52.28,8.36-16.47,9.93-27.05,24.18-31.76,42.47-4.57,18.04-1.7,35.29,8.89,51.75,10.59,16.47,24.96,26.79,43.13,31.24,19.21,4.57,36.85,2.09,52.8-7.32,15.94-9.54,26.01-23.92,30.32-43.26M536.56,184.42c-4.18,17.25-13.33,30.19-27.71,38.68-14.38,8.63-30.19,10.72-47.44,6.67-16.73-4.05-29.67-13.2-38.68-27.71-9.15-14.51-11.63-30.06-7.71-46.79,3.92-16.47,13.33-29.01,28.23-37.9,14.9-8.89,30.45-11.37,46.92-7.45,16.47,3.92,29.27,13.33,38.42,28.1,9.15,14.77,11.89,30.19,7.97,46.4" fill="#0d0f0f"/>
  <path d="M363.76,416.8c-19.08-17.77-31.76-27.45-38.03-28.88-4.57-1.05-8.89,1.57-13.07,7.84-4.18,6.27-10.19,8.63-17.77,6.67-3.14-.78-9.15-3.4-18.3-7.97-7.32,6.93-11.24,11.5-11.89,13.72-.78,3.14.65,7.32,4.31,12.68s7.06,8.36,10.19,9.15c1.96.52,4.84.78,8.49.65,3.66,0,6.14.13,7.32.39,3.53.78,3.66,7.58.65,20.39-2.88,12.15-10.19,30.19-21.96,54.11-.39-30.58-4.84-46.92-12.94-48.88-1.18-.26-3.66,0-7.58.91-3.92.78-6.8,1.05-8.49.65-8.23-1.96-13.72-11.24-16.73-27.84-13.46-1.18-21.56,3.92-24.31,15.29-1.31,5.75.13,10.85,4.57,15.55,4.44,4.7,6.4,7.71,6.14,9.15-1.83,7.71-15.81,16.73-41.95,27.18-13.98,5.62-23.52,9.67-28.88,11.89,5.23-4.18,10.72-9.8,16.73-17.12,6.8-8.23,10.72-14.9,12.02-20,.65-2.74-1.57-7.58-6.93-14.25s-7.32-12.81-5.88-18.43c1.18-4.84,4.31-10.32,9.41-16.6-2.61-5.1-6.53-8.36-11.63-9.54-11.37-2.74-17.9-.39-19.6,6.93,1.18-5.1.26-1.31-2.74,11.5-1.96,9.41-10.19,12.42-24.57,8.89-11.11-2.61-29.01-9.67-53.84-20.91,31.24-.26,47.96-5.23,50.32-14.9-.26,1.18,0-2.35.78-10.59.91-9.02,9.15-15.55,24.31-19.34.52-13.59-4.7-21.69-15.68-24.44-1.7-.39-5.49,1.83-11.5,6.67-6.01,4.84-10.98,6.8-14.9,5.88-6.8-1.57-13.85-11.11-21.04-28.36-3.4-8.63-8.49-21.3-15.55-38.29,5.75,4.97,11.37,9.93,17.12,14.9,7.58,6.01,13.85,9.67,18.95,10.85,3.92.91,8.63-1.57,14.11-7.58,5.49-6.01,11.37-8.23,17.51-6.8.91.26,6.14,3.27,15.81,9.15,7.32-6.93,11.5-12.42,12.42-16.34.78-3.4-.26-7.71-3.4-13.2-3.01-5.36-6.27-8.49-9.67-9.28-1.44-.39-3.66-.39-6.93-.26-3.14.13-5.49,0-6.93-.26-5.1-1.18-6.14-8.23-3.14-20.91.78-3.4,8.76-22.09,23.66-55.81-1.31,4.18-1.31,12.55-.13,25.09,1.44,15.29,5.36,23.66,11.89,25.35,1.18.26,3.66,0,7.45-.91s6.67-1.05,8.63-.65c6.53,1.57,10.98,6.53,13.46,14.9l3.66,12.94c5.88,1.44,11.37.52,16.34-2.74s8.23-7.97,9.67-13.85c1.44-6.27,0-11.63-4.44-16.08s-6.53-7.58-6.01-9.28c1.44-5.88,13.2-13.72,35.29-23.39,17.77-7.71,29.14-12.02,34.11-12.94-16.08,13.59-25.09,24.05-26.92,31.76-.91,3.92.39,8.76,4.18,14.51,4.7,6.8,7.19,11.5,7.45,13.85,1.31,7.19-1.18,16.08-7.19,26.53,6.4,7.19,11.5,11.24,15.55,12.28,8.23,1.96,13.33-1.31,15.29-9.8.26-.78.52-3.66.91-8.36.39-4.7.78-7.32,1.18-7.84,2.09-3.66,10.32-3.79,24.83-.39,9.02,2.22,27.31,9.28,54.63,21.17-6.67.26-16.6.52-29.93.91-12.15.65-18.69,3.14-19.73,7.45-.52,1.96-.52,5.49-.26,10.72.26,5.1.13,8.89-.39,11.11-.91,3.92-4.31,7.06-10.32,9.28l-16.86,6.8c1.96,7.06,3.27,11.24,4.18,12.68,2.09,4.05,5.49,6.67,10.19,7.84,3.4.78,7.19-1.44,11.5-6.67s9.54-7.19,15.68-5.62c7.71,1.83,14.64,10.98,20.78,27.45,3.4,9.28,8.89,23.26,16.47,42.08l-.13-.39h0ZM275.41,369.62c4.31-18.17,1.44-35.42-8.63-51.88-10.19-16.47-24.31-26.92-42.34-31.24-18.43-4.44-35.81-1.7-52.28,8.36-16.47,9.93-27.05,24.18-31.76,42.47-4.57,18.04-1.7,35.29,8.89,51.75,10.59,16.47,24.96,26.79,43.13,31.24,19.21,4.57,36.85,2.09,52.8-7.32,15.94-9.54,26.01-23.92,30.32-43.26M269.14,368.18c-4.18,17.25-13.33,30.19-27.71,38.68-14.38,8.63-30.19,10.72-47.44,6.67-16.73-4.05-29.67-13.2-38.68-27.71-9.15-14.51-11.63-30.06-7.71-46.79,3.92-16.47,13.33-29.01,28.23-37.9s30.45-11.37,46.92-7.45c16.47,3.92,29.27,13.33,38.42,28.1,9.15,14.77,11.89,30.19,7.97,46.4" fill="#0d0f0f"/>
</svg>