<?xml version="1.0" encoding="UTF-8"?>
<svg id="Layer_1" xmlns="http://www.w3.org/2000/svg" version="1.1" viewBox="0 0 600 600">
  <!-- Generator: Adobe Illustrator 30.1.0, SVG Export Plug-In . SVG Version: 2.1.1 Build 136)  -->
  <circle cx="300" cy="300" r="300" fill="#b89370"/>
  <path d="M324.16,448.13c17.68,11.54,35.36,23.08,53.05,34.62,2.36,1.54,3.95,4.01,4.37,6.8,1.19,7.85,2.37,15.69,3.56,23.54.29,1.94-2.11,3.07-3.42,1.62-19.61-21.7-39.22-43.39-58.83-65.09-.78-.86.3-2.13,1.28-1.49h0ZM514.58,410.82c-6.8,30.59-13.6,61.18-20.4,91.78-.87,3.92-4.02,6.93-7.98,7.6l-65.81,11.26c-4.83.83-9.53-2.01-11.06-6.66-9.29-28.31-18.59-56.63-27.88-84.94-.62-1.91-3.37-1.77-3.81.19-2.03,9.14-4.05,18.27-6.08,27.4-.42,1.89-2.75,2.59-4.14,1.23-21.91-21.4-43.82-42.81-65.72-64.21-.96-.94-1-2.47-.09-3.45,3.7-3.99,7.41-7.99,11.1-11.99.94-1.01,2.53-1.06,3.53-.1,4.05,3.9,8.1,7.8,12.15,11.7,1.78,1.72,4.7.04,4.12-2.36-2.65-10.97-5.3-21.94-7.95-32.9-.37-1.55-2.1-2.34-3.51-1.63l-22.16,11.2c-1.51.77-3.22-.59-2.81-2.23l11.24-45.67c.83-3.37,3.37-6.06,6.68-7.08,23.73-7.33,47.46-14.65,71.2-21.98,2.57-.79,5.34-.5,7.69.8l74.49,41.13c3.13,1.73,5.74,4.28,7.54,7.38,12.85,22.14,25.71,44.28,38.56,66.42,1.25,2.15,1.64,4.69,1.1,7.11h0ZM357.21,312.78c-8.01,3.34-16.03,6.67-24.05,10.01-1.17.49-1.78,1.78-1.42,3,4.09,13.56,8.19,27.11,12.28,40.66.32,1.08,1.91.86,1.93-.26.27-11.38.53-22.76.79-34.15.03-1.17.47-2.28,1.24-3.16l11.46-12.96c1.39-1.57-.3-3.94-2.24-3.13h0ZM473.65,451.54c-14.43-4.81-28.86-9.62-43.29-14.44-1.92-.64-3.61-1.86-4.82-3.49-17.66-23.83-35.33-47.67-52.99-71.5-1.13-1.53-3.56-.73-3.56,1.18v22c0,2.37.86,4.67,2.41,6.46,17.33,20.06,34.67,40.11,52,60.17.92,1.06,2.25,1.69,3.65,1.71,15.37.27,30.74.53,46.1.8,1.7.03,2.11-2.35.5-2.89h0Z"/>
  <path d="M113.35,238.97c17.68,11.54,35.36,23.08,53.05,34.62,2.36,1.54,3.95,4.01,4.37,6.8,1.19,7.85,2.37,15.69,3.56,23.54.29,1.94-2.11,3.07-3.42,1.62-19.61-21.7-39.22-43.39-58.83-65.09-.78-.86.3-2.13,1.28-1.49h0ZM303.77,201.67c-6.8,30.59-13.6,61.18-20.4,91.78-.87,3.92-4.02,6.93-7.98,7.6l-65.81,11.26c-4.83.83-9.53-2.01-11.06-6.66-9.29-28.31-18.59-56.63-27.88-84.94-.62-1.91-3.37-1.77-3.81.19-2.03,9.14-4.05,18.27-6.08,27.4-.42,1.89-2.75,2.59-4.14,1.23-21.91-21.4-43.82-42.81-65.72-64.21-.96-.94-1-2.47-.09-3.45,3.7-3.99,7.41-7.99,11.1-11.99.94-1.01,2.53-1.06,3.53-.1,4.05,3.9,8.1,7.8,12.15,11.7,1.78,1.72,4.7.04,4.12-2.36-2.65-10.97-5.3-21.94-7.95-32.9-.37-1.55-2.1-2.34-3.51-1.63l-22.16,11.2c-1.51.77-3.22-.59-2.81-2.23l11.24-45.67c.83-3.37,3.37-6.06,6.68-7.08,23.73-7.33,47.46-14.65,71.2-21.98,2.57-.79,5.34-.5,7.69.8l74.49,41.13c3.13,1.73,5.74,4.28,7.54,7.38,12.85,22.14,25.71,44.28,38.56,66.42,1.25,2.15,1.64,4.69,1.1,7.11h0ZM146.4,103.62c-8.01,3.34-16.03,6.67-24.05,10.01-1.17.49-1.78,1.78-1.42,3,4.09,13.56,8.19,27.11,12.28,40.66.32,1.08,1.91.86,1.93-.26.27-11.38.53-22.76.79-34.15.03-1.17.47-2.28,1.24-3.16l11.46-12.96c1.39-1.57-.3-3.94-2.24-3.13h0ZM262.84,242.38c-14.43-4.81-28.86-9.62-43.29-14.44-1.92-.64-3.61-1.86-4.82-3.49-17.66-23.83-35.33-47.67-52.99-71.5-1.13-1.53-3.56-.73-3.56,1.18v22c0,2.37.86,4.67,2.41,6.46,17.33,20.06,34.67,40.11,52,60.17.92,1.06,2.25,1.69,3.65,1.71,15.37.27,30.74.53,46.1.8,1.7.03,2.11-2.35.5-2.89h0Z"/>
</svg>