<?xml version="1.0" encoding="UTF-8"?>
<svg id="svg4478" xmlns="http://www.w3.org/2000/svg" xmlns:svg="http://www.w3.org/2000/svg" xmlns:rdf="http://www.w3.org/1999/02/22-rdf-syntax-ns#" xmlns:dc="http://purl.org/dc/elements/1.1/" xmlns:cc="http://creativecommons.org/ns#" version="1.1" viewBox="0 0 600 600">
  <!-- Generator: Adobe Illustrator 30.1.0, SVG Export Plug-In . SVG Version: 2.1.1 Build 136)  -->
  <circle id="circle485" cx="300" cy="300" r="300" fill="#c9c4be"/>
  <g id="layer1">
    <polygon id="polygon489" points="124.36 304.28 147.75 293.02 159.67 292.87 166.15 281.65 193.11 319.62 220.06 281.65 226.54 292.87 238.47 293.01 261.86 304.28 263.8 278.39 269.65 267.98 263.17 256.77 309.52 252.4 290.12 210.08 303.08 210.08 309.16 199.82 330.61 185.19 309.16 170.56 303.08 160.3 290.12 160.3 309.52 117.98 263.17 113.62 269.65 102.4 263.8 92 261.86 66.11 238.47 77.37 226.54 77.51 220.06 88.73 193.11 50.76 166.15 88.73 159.67 77.51 147.75 77.37 124.36 66.11 122.41 92 116.57 102.4 123.04 113.62 76.69 117.98 96.09 160.3 83.14 160.3 77.05 170.57 55.61 185.19 77.05 199.82 83.14 210.08 96.09 210.08 76.69 252.4 123.04 256.77 116.57 267.98 122.41 278.39 124.36 304.28" fill="#0d0f0f"/>
    <polygon id="polygon491" points="244.28 284.97 253.93 279.4 253.93 268.28 244.28 262.71 207.1 193.27 285.83 190.75 295.47 196.32 305.11 190.76 305.11 179.63 295.47 174.06 285.83 179.63 207.1 177.11 244.29 107.68 253.93 102.11 253.93 90.98 244.29 85.42 234.65 90.98 234.65 102.11 193.11 169.04 151.57 102.11 151.57 90.98 141.93 85.42 132.29 90.98 132.29 102.11 141.93 107.68 179.12 177.11 100.39 179.63 90.75 174.06 81.11 179.62 81.11 190.75 90.75 196.32 100.39 190.75 179.12 193.27 141.93 262.71 132.29 268.27 132.29 279.4 141.93 284.97 151.57 279.4 151.57 268.27 193.11 201.35 234.65 268.27 234.65 279.4 244.28 284.97" fill="#fff"/>
    <polygon id="polygon493" points="212.5 109.27 193.11 143.06 173.72 109.27 193.11 75.48 212.5 109.27" fill="#fff"/>
    <polygon id="polygon495" points="137.05 130.44 156.62 164.13 117.67 164.02 98.09 130.33 137.05 130.44" fill="#fff"/>
    <polygon id="polygon497" points="117.66 206.36 156.62 206.25 137.05 239.94 98.09 240.05 117.66 206.36" fill="#fff"/>
    <polygon id="polygon499" points="173.72 261.11 193.11 227.32 212.49 261.11 193.11 294.91 173.72 261.11" fill="#fff"/>
    <polygon id="polygon501" points="249.16 239.94 229.59 206.26 268.55 206.36 288.12 240.05 249.16 239.94" fill="#fff"/>
    <polygon id="polygon503" points="268.56 164.02 229.59 164.13 249.17 130.44 288.12 130.34 268.56 164.02" fill="#fff"/>
  </g>
  <g id="layer11" data-name="layer1">
    <polygon id="polygon4891" data-name="polygon489" points="338.15 533.9 361.53 522.64 373.46 522.49 379.94 511.27 406.9 549.24 433.85 511.27 440.33 522.49 452.26 522.63 475.65 533.9 477.59 508.01 483.43 497.6 476.96 486.39 523.31 482.02 503.91 439.7 516.87 439.7 522.95 429.44 544.39 414.81 522.95 400.18 516.87 389.92 503.91 389.92 523.31 347.6 476.96 343.24 483.43 332.02 477.59 321.62 475.64 295.73 452.26 306.99 440.33 307.13 433.85 318.35 406.89 280.38 379.94 318.35 373.46 307.13 361.53 306.99 338.14 295.73 336.2 321.62 330.36 332.02 336.83 343.24 290.48 347.6 309.88 389.92 296.92 389.92 290.84 400.19 269.39 414.81 290.84 429.44 296.92 439.7 309.88 439.7 290.48 482.02 336.83 486.39 330.36 497.6 336.2 508.01 338.15 533.9" fill="#0d0f0f"/>
    <polygon id="polygon4911" data-name="polygon491" points="458.07 514.59 467.71 509.02 467.71 497.9 458.07 492.33 420.89 422.89 499.62 420.37 509.26 425.94 518.89 420.38 518.89 409.25 509.26 403.68 499.62 409.25 420.89 406.73 458.07 337.3 467.72 331.73 467.72 320.6 458.07 315.04 448.44 320.6 448.43 331.73 406.9 398.65 365.36 331.73 365.35 320.6 355.72 315.03 346.08 320.6 346.08 331.73 355.72 337.3 392.9 406.73 314.18 409.25 304.53 403.68 294.9 409.24 294.9 420.37 304.53 425.94 314.18 420.37 392.9 422.89 355.72 492.33 346.08 497.89 346.07 509.02 355.72 514.59 365.35 509.02 365.35 497.89 406.89 430.97 448.43 497.89 448.43 509.02 458.07 514.59" fill="#fff"/>
    <polygon id="polygon4931" data-name="polygon493" points="426.28 338.89 406.9 372.68 387.51 338.89 406.9 305.1 426.28 338.89" fill="#fff"/>
    <polygon id="polygon4951" data-name="polygon495" points="350.84 360.06 370.41 393.75 331.45 393.64 311.88 359.95 350.84 360.06" fill="#fff"/>
    <polygon id="polygon4971" data-name="polygon497" points="331.45 435.98 370.41 435.87 350.84 469.56 311.88 469.67 331.45 435.98" fill="#fff"/>
    <polygon id="polygon4991" data-name="polygon499" points="387.5 490.73 406.89 456.94 426.28 490.73 406.89 524.53 387.5 490.73" fill="#fff"/>
    <polygon id="polygon5011" data-name="polygon501" points="462.95 469.56 443.38 435.88 482.34 435.98 501.91 469.67 462.95 469.56" fill="#fff"/>
    <polygon id="polygon5031" data-name="polygon503" points="482.34 393.64 443.38 393.75 462.95 360.06 501.91 359.96 482.34 393.64" fill="#fff"/>
  </g>
</svg>