<?xml version="1.0" encoding="UTF-8"?>
<svg id="svg3156" xmlns="http://www.w3.org/2000/svg" xmlns:svg="http://www.w3.org/2000/svg" xmlns:rdf="http://www.w3.org/1999/02/22-rdf-syntax-ns#" xmlns:inkscape="http://www.inkscape.org/namespaces/inkscape" xmlns:dc="http://purl.org/dc/elements/1.1/" xmlns:cc="http://creativecommons.org/ns#" version="1.1" viewBox="0 0 570 570">
  <!-- Generator: Adobe Illustrator 30.1.0, SVG Export Plug-In . SVG Version: 2.1.1 Build 136)  -->
  <circle cx="285" cy="285" r="285" isolation="isolate" opacity=".2"/>
  <path d="M285,285l-159.1,159.1c-42.18-42.18-65.9-99.45-65.9-159.1s23.72-116.92,65.9-159.1l159.1,159.1Z" fill="#3277a7"/>
  <path d="M285,285l159.1,159.1c-42.18,42.18-99.45,65.9-159.1,65.9s-116.92-23.72-159.1-65.9l159.1-159.1Z" fill="#fafde8"/>
  <path d="M285,285l159.1-159.1c42.18,42.18,65.9,99.45,65.9,159.1s-23.72,116.92-65.9,159.1l-159.1-159.1Z" fill="#38614c"/>
  <path d="M285,285L125.9,125.9c42.18-42.18,99.45-65.9,159.1-65.9s116.92,23.72,159.1,65.9l-159.1,159.1Z" fill="#da3946"/>
  <path d="M285,60c-124.26,0-225,100.74-225,225s100.74,225,225,225,225-100.74,225-225S409.26,60,285,60ZM285,480c-107.7,0-195-87.3-195-195s87.3-195,195-195,195,87.3,195,195-87.3,195-195,195Z" fill="#333"/>
</svg>