<?xml version="1.0" encoding="UTF-8"?>
<svg id="Layer_1" xmlns="http://www.w3.org/2000/svg" version="1.1" viewBox="0 0 600 600">
  <!-- Generator: Adobe Illustrator 30.1.0, SVG Export Plug-In . SVG Version: 2.1.1 Build 136)  -->
  <path d="M512.09,87.82c54.32,54.31,87.91,129.31,87.91,212.16,0,165.7-134.32,300.02-300,300.02-82.84,0-157.83-33.58-212.12-87.88" fill="#a3c095" fill-rule="evenodd"/>
  <path d="M87.88,512.12C33.58,457.84,0,382.82,0,299.98,0,134.3,134.32,0,300,0,382.81,0,457.81,33.56,512.09,87.82" fill="#de8166" fill-rule="evenodd"/>
  <path d="M84.75,203.74c-.24-20.18,7.03-39.73,20.41-54.84,6.6-6.5,12.04-13.91,19.04-20.06,15.43-13.68,38.52-14.59,57.1-23.21,1.09-8.66,4.62-17.32,2.48-26.06-.65-2.91-1.62-5.85.12-8.63,4.88-10.04.68-20.94,1.55-31.4.65-5.46.24-12.16,6.06-15.53,1.36,11.38,6.04,21.97,9.83,32.76,1.75,8.42,1.75,17.18,5.81,25.11-2.58,8.04,2.52,14.81,8.03,20.74,12.2,5.58,26.69,6.91,37.3,15.1,7.56,5.74,15.73,10.77,24.19,15.44,6.35,7.1,13.38,13.95,16.21,22.92,11.35,12.25,12.69,28.7,19.13,43.04.12,21.3-4.71,44.24-19.93,61.32-10.89,8.04-18.5,18.84-29.38,26.88-10.44,5.58-21.58,10.15-32.36,15.16-7.02,1.47-14.28,2.19-21.26,3.9-5.67,26.11-9.54,52.85-20.92,77.63-3.78-10.17-3.32-21.07-6.58-31.34-4.6-15.19,4.83-31-.48-45.92-7.96-6.36-21.24-2.23-30.08-7.7-16.81-9.26-34.61-18.29-46.81-32.47-4.54-8.15-14.08-14.24-14.08-24.02-.08-13.16-8.67-25.5-5.38-38.82h0ZM215.39,276c10.28-2.36,19.86-7,28.48-12.67,9.28-5.83,12.74-16.72,21.9-22.69,8.57-9.65,6.72-22.84,10.23-34.27-1.41-7.98-3.07-15.89-3.95-23.97-4.18-6.4-10.63-11.5-12.42-19.21-6.14-8.29-15.46-14.02-22.96-21.2-5.45-5.93-14.12-3.42-21.29-3.66.71,6.54,1.27,13.32-.46,19.76-.85,3.97-2.74,7.88-2.1,12.03,1.44,8.83-2.07,17.7.41,26.42,5,18.25-.46,36.68-.93,55.08.71,8.14,1.12,16.35,3.08,24.37ZM125.26,242.58c7.62,4.65,14.12,10.34,20.78,15.9,11.57,6.85,23,14.1,36.77,17.52-1.24-8.4-2.45-17.05.68-25.28,7.68-18.59-1.72-38.04-3.32-56.84,1.4-11.18.07-23.1,6.06-33.4.78-7.73-3.13-15.2-5.77-22.48-9.1,3.11-17.66,7.3-25.22,12.7-9.14,5.87-23.15,9.66-25.2,20.6-1.04,7.18-10.22,11.52-9.96,18.87.57,17.47-2.24,35.74,5.19,52.41ZM527.25,389.74c.24-20.18-7.03-39.73-20.41-54.84-6.6-6.5-12.04-13.91-19.04-20.06-15.43-13.68-38.52-14.59-57.1-23.21-1.09-8.66-4.62-17.32-2.48-26.06.65-2.91,1.62-5.85-.12-8.63-4.88-10.04-.68-20.94-1.55-31.4-.65-5.46-.24-12.16-6.06-15.53-1.36,11.38-6.04,21.97-9.83,32.76-1.75,8.42-1.75,17.18-5.81,25.11,2.58,8.04-2.52,14.81-8.03,20.74-12.2,5.58-26.69,6.91-37.3,15.1-7.56,5.74-15.73,10.77-24.19,15.44-6.35,7.1-13.38,13.95-16.21,22.92-11.35,12.25-12.69,28.7-19.13,43.04-.12,21.3,4.71,44.24,19.93,61.32,10.89,8.04,18.5,18.84,29.38,26.88,10.44,5.58,21.58,10.15,32.36,15.16,7.02,1.47,14.28,2.19,21.26,3.9,5.67,26.11,9.54,52.85,20.92,77.63,3.78-10.17,3.32-21.07,6.58-31.34,4.6-15.19-4.83-31,.48-45.92,7.96-6.36,21.24-2.23,30.08-7.7,16.81-9.26,34.61-18.29,46.81-32.47,4.54-8.15,14.08-14.24,14.08-24.02.08-13.16,8.67-25.5,5.38-38.82h0ZM396.61,462c-10.28-2.36-19.86-7-28.48-12.67-9.28-5.83-12.74-16.72-21.9-22.69-8.57-9.65-6.72-22.84-10.23-34.27,1.41-7.98,3.07-15.89,3.95-23.97,4.18-6.4,10.63-11.5,12.42-19.21,6.14-8.29,15.46-14.02,22.96-21.2,5.45-5.93,14.12-3.42,21.29-3.66-.71,6.54-1.27,13.32.46,19.76.85,3.97,2.74,7.88,2.1,12.03-1.44,8.83,2.07,17.7-.41,26.42-5,18.25.46,36.68.93,55.08-.71,8.14-1.12,16.35-3.08,24.37ZM486.74,428.58c-7.62,4.65-14.12,10.34-20.78,15.9-11.57,6.85-23,14.1-36.77,17.52,1.24-8.4,2.45-17.05-.68-25.28-7.68-18.59,1.72-38.04,3.32-56.84-1.4-11.18-.07-23.1-6.06-33.4-.78-7.73,3.13-15.2,5.77-22.48,9.1,3.11,17.66,7.3,25.22,12.7,9.14,5.87,23.15,9.66,25.2,20.6,1.04,7.18,10.22,11.52,9.96,18.87-.57,17.47,2.24,35.74-5.19,52.41Z" fill="#111212" fill-rule="evenodd"/>
</svg>