<?xml version="1.0" encoding="UTF-8"?>
<svg id="svg3156" xmlns="http://www.w3.org/2000/svg" xmlns:svg="http://www.w3.org/2000/svg" xmlns:rdf="http://www.w3.org/1999/02/22-rdf-syntax-ns#" xmlns:inkscape="http://www.inkscape.org/namespaces/inkscape" xmlns:dc="http://purl.org/dc/elements/1.1/" xmlns:cc="http://creativecommons.org/ns#" version="1.1" viewBox="0 0 570 570">
  <!-- Generator: Adobe Illustrator 30.1.0, SVG Export Plug-In . SVG Version: 2.1.1 Build 136)  -->
  <circle cx="285" cy="285" r="285" isolation="isolate" opacity=".2"/>
  <path d="M285,285l-213.99,69.53c-7.3-22.45-11.01-45.92-11.01-69.53,0-71.97,34.53-139.73,92.75-182.03l132.25,182.03Z" fill="#38614c"/>
  <path d="M285,285v225c-47.51,0-93.82-15.05-132.25-42.97-38.43-27.92-67.06-67.32-81.74-112.5l213.99-69.53Z" fill="#da3946"/>
  <path d="M285,285l213.99,69.53c-14.68,45.18-43.3,84.58-81.74,112.5-38.43,27.92-84.74,42.97-132.25,42.97v-225Z" fill="#393736"/>
  <path d="M285,285l132.25-182.03c58.22,42.3,92.75,110.06,92.75,182.03,0,23.61-3.72,47.07-11.01,69.53l-213.99-69.53h0Z" fill="#3277a7"/>
  <path d="M285,285L152.75,102.97c38.43-27.92,84.74-42.97,132.25-42.97s93.82,15.05,132.25,42.97l-132.25,182.03Z" fill="#fafde8"/>
  <path d="M285,60c-124.26,0-225,100.74-225,225s100.74,225,225,225,225-100.74,225-225S409.26,60,285,60ZM285,480c-107.7,0-195-87.3-195-195s87.3-195,195-195,195,87.3,195,195-87.3,195-195,195Z" fill="#333"/>
</svg>