<?xml version="1.0" encoding="UTF-8"?>
<svg id="svg3156" xmlns="http://www.w3.org/2000/svg" xmlns:svg="http://www.w3.org/2000/svg" xmlns:rdf="http://www.w3.org/1999/02/22-rdf-syntax-ns#" xmlns:inkscape="http://www.inkscape.org/namespaces/inkscape" xmlns:dc="http://purl.org/dc/elements/1.1/" xmlns:cc="http://creativecommons.org/ns#" version="1.1" viewBox="0 0 510 510">
  <!-- Generator: Adobe Illustrator 30.1.0, SVG Export Plug-In . SVG Version: 2.1.1 Build 136)  -->
  <circle cx="255" cy="255" r="255" isolation="isolate" opacity=".2"/>
  <path d="M255,255l-213.99,69.53c-7.3-22.45-11.01-45.92-11.01-69.53,0-71.97,34.53-139.73,92.75-182.03l132.25,182.03Z" fill="#38614c"/>
  <path d="M255,255v225c-47.51,0-93.82-15.05-132.25-42.97-38.43-27.92-67.06-67.32-81.74-112.5l213.99-69.53Z" fill="#da3946"/>
  <path d="M255,255l213.99,69.53c-14.68,45.18-43.3,84.58-81.74,112.5-38.43,27.92-84.74,42.97-132.25,42.97v-225Z" fill="#393736"/>
  <path d="M255,255l132.25-182.03c58.22,42.3,92.75,110.06,92.75,182.03,0,23.61-3.72,47.07-11.01,69.53l-213.99-69.53Z" fill="#3277a7"/>
  <path d="M255,255L122.75,72.97c38.43-27.92,84.74-42.97,132.25-42.97s93.82,15.05,132.25,42.97l-132.25,182.03Z" fill="#fafde8"/>
  <path d="M255,30c-124.26,0-225,100.74-225,225s100.74,225,225,225,225-100.74,225-225S379.26,30,255,30ZM255,465c-115.98,0-210-94.02-210-210S139.02,45,255,45s210,94.02,210,210-94.02,210-210,210Z" fill="#333"/>
</svg>