<?xml version="1.0" encoding="UTF-8"?>
<svg id="svg4977" xmlns="http://www.w3.org/2000/svg" xmlns:svg="http://www.w3.org/2000/svg" xmlns:sodipodi="http://sodipodi.sourceforge.net/DTD/sodipodi-0.dtd" xmlns:rdf="http://www.w3.org/1999/02/22-rdf-syntax-ns#" xmlns:inkscape="http://www.inkscape.org/namespaces/inkscape" xmlns:dc="http://purl.org/dc/elements/1.1/" xmlns:cc="http://creativecommons.org/ns#" version="1.1" viewBox="0 0 600 600">
  <!-- Generator: Adobe Illustrator 30.1.0, SVG Export Plug-In . SVG Version: 2.1.1 Build 136)  -->
  <sodipodi:namedview id="namedview12" bordercolor="#666666" borderopacity="1" gridtolerance="10" guidetolerance="10" inkscape:current-layer="svg4977" inkscape:cx="300" inkscape:cy="300" inkscape:pageopacity="0" inkscape:pageshadow="2" inkscape:window-height="480" inkscape:window-maximized="0" inkscape:window-width="732" inkscape:window-x="0" inkscape:window-y="0" inkscape:zoom="0.39333333" objecttolerance="10" pagecolor="#ffffff" showgrid="false"/>
  <path id="circle5" d="M300,300l-212.13,212.13C31.63,455.89,0,379.53,0,300,0,135.42,135.42,0,300,0,379.53,0,455.89,31.63,512.13,87.87l-212.13,212.13Z" fill="#cbc2bf"/>
  <path id="path6" d="M147.42,272.9h60.22c23.99,0,31.13-1.53,39.3-28.07l20.41-.51-18.37,63.28H103.53l-.51-17.35c109.21-106.66,111.25-122.48,112.27-138.3,2.55-34.7-22.45-45.93-35.72-45.93s-35.21,8.68-56.65,52.56l-18.88-8.17c28.58-80.12,76.55-76.55,91.86-76.04,37.76,1.02,62.26,36.74,61.24,66.85-1.02,40.83-18.88,46.95-109.72,131.66v.02h0Z" inkscape:connector-curvature="0"/>
  <path d="M300,300l212.13-212.13c56.24,56.24,87.87,132.6,87.87,212.13,0,164.58-135.42,300-300,300-79.53,0-155.89-31.63-212.13-87.87l212.13-212.13Z" fill="#bfab90"/>
  <path d="M557.93,380.35c-.19-1.22-.53-2.15-.75-2.69-10.16-24.97-24.84-44.34-24.84-44.34-6.3-8.3-12.69-16.66-22.97-26.52-7.9-7.57-15.48-13.52-21.97-18.09-1.85-1.3-4.05-1.99-6.31-1.99h-66.64c-.77,0-1.3.77-1.03,1.49l14.94,39.26c.38.99-.04,2.1-.98,2.59l-23.15,12.1c-1.16.6-1.48,2.12-.68,3.14l14.53,18.51c1.49,1.9-.73,4.46-2.82,3.27l-29.72-16.93c-1.02-.58-1.36-1.88-.76-2.89l19.27-32.07c.52-.86.35-1.98-.42-2.64l-28.75-25.14c-.5-.44-1.14-.68-1.81-.68h-28.91c-2.26,0-4.46.69-6.31,1.99-6.49,4.58-14.08,10.53-21.97,18.09-10.28,9.86-16.67,18.22-22.97,26.52,0,0-14.68,19.37-24.84,44.34-.21.53-.55,1.47-.75,2.69-.37,2.36-.04,4.8.98,7.01,5.46,11.8,15.94,28.29,15.94,28.29,2.32,3.37,3.48,5.03,3.51,5.06,21.75,31.07,33.88,45.95,33.88,45.95,13.88,17.35,26.11,28.85,41.88,44.13,1.65,1.6,7.65,7.4,15.98,14.49,6.31,5.38,10.32,8.77,16.12,12.53,2.8,1.82,5.48,3.74,7.96,5.5,5.42,3.85,12.67,3.85,18.09,0,2.48-1.76,5.16-3.68,7.96-5.5,5.8-3.76,9.81-7.15,16.12-12.53,8.33-7.09,14.33-12.89,15.98-14.49,15.77-15.29,28.01-26.79,41.88-44.13,0,0,12.12-14.87,33.86-45.92l.02-.03s1.18-1.69,3.51-5.06c0,0,10.49-16.49,15.94-28.29,1.02-2.21,1.35-4.65.98-7.01h.02ZM403.22,535.19l-102.57-153.2c-.24-.36,0-.84.42-.86,6.9-.35,48.59-2.49,53.25-2.73.25-.01.47.14.55.38l49.32,155.93c.19.6-.63,1-.98.47h.01ZM524.62,381.99l-102.57,153.2c-.35.53-1.17.13-.98-.47l49.32-155.93c.08-.24.3-.4.55-.38,4.66.24,46.36,2.38,53.25,2.73.43.02.66.5.42.86h.01Z"/>
</svg>