<?xml version="1.0" encoding="UTF-8"?>
<svg id="svg4977" xmlns="http://www.w3.org/2000/svg" xmlns:svg="http://www.w3.org/2000/svg" xmlns:sodipodi="http://sodipodi.sourceforge.net/DTD/sodipodi-0.dtd" xmlns:rdf="http://www.w3.org/1999/02/22-rdf-syntax-ns#" xmlns:inkscape="http://www.inkscape.org/namespaces/inkscape" xmlns:dc="http://purl.org/dc/elements/1.1/" xmlns:cc="http://creativecommons.org/ns#" version="1.1" viewBox="0 0 600 600">
  <!-- Generator: Adobe Illustrator 30.1.0, SVG Export Plug-In . SVG Version: 2.1.1 Build 136)  -->
  <sodipodi:namedview id="namedview12" bordercolor="#666666" borderopacity="1" gridtolerance="10" guidetolerance="10" inkscape:current-layer="svg4977" inkscape:cx="300" inkscape:cy="300" inkscape:pageopacity="0" inkscape:pageshadow="2" inkscape:window-height="480" inkscape:window-maximized="0" inkscape:window-width="732" inkscape:window-x="0" inkscape:window-y="0" inkscape:zoom="0.39333333" objecttolerance="10" pagecolor="#ffffff" showgrid="false"/>
  <path id="circle5" d="M300,300l-212.13,212.13C31.63,455.89,0,379.53,0,300,0,135.42,135.42,0,300,0,379.53,0,455.89,31.63,512.13,87.87l-212.13,212.13Z" fill="#cbc2bf"/>
  <path d="M266.18,221.9c-.51,64.39-66.43,89.43-102.71,88.92-40.37-.51-59.28-17.89-59.28-17.89l11.75-15.84s19.42,12.78,47.01,12.78c15.84,0,63.88-14.82,63.88-63.37,0-26.06-23.51-35.77-35.26-36.28-10.22,0-21.46,5.62-37.3,14.82l-8.69-18.91c56.21-34.24,64.9-44.46,64.9-60.3,0-14.82-13.29-24.53-25.04-24.53s-28.62,3.07-59.79,36.79l-16.35-13.29c40.37-56.72,76.14-54.17,86.87-53.66,24.02,1.02,52.63,13.8,53.15,44.46,0,12.26-4.09,26.57-31.68,47.52,23.51,2.56,49.06,23.51,48.55,58.77h-.01Z" fill="#130c0e"/>
  <path d="M300,300l212.13-212.13c56.24,56.24,87.87,132.6,87.87,212.13,0,164.58-135.42,300-300,300-79.53,0-155.89-31.63-212.13-87.87l212.13-212.13Z" fill="#f2f75e"/>
  <path d="M552.07,388.94l-46.87,27.68c-.51.3-.3,1.09.3,1.09h26.37c.99,0,1.79.8,1.79,1.8v2.64c0,.64-.35,1.24-.91,1.56l-78.58,44.52c-.81.46-1.84.22-2.37-.54l-2.6-3.77c-.53-.78-.38-1.83.35-2.42l35.15-28.31c.44-.35.18-1.07-.4-1.05l-29.04,1.11c-.6.02-1.17-.25-1.52-.73h0c-.57-.77-.43-1.85.31-2.46l30.65-25.06c.44-.36.17-1.08-.4-1.05l-45.51,2.02c-1.11.05-2.17.41-3.09,1.04l-59.14,40.6c-.48.33-.25,1.08.34,1.08h71c.99,0,1.8.8,1.8,1.8v3.24c0,.62-.31,1.19-.84,1.52l-127.78,80.75c-.76.48-1.76.33-2.34-.36l-2.66-3.15c-.66-.78-.54-1.95.27-2.58l68.8-53.64c.45-.35.19-1.08-.38-1.06l-80.44,2.39c-.61.02-1.19-.28-1.54-.78l-2.48-3.62c-.54-.79-.37-1.86.39-2.44l144.88-110.78c.46-.35.2-1.07-.37-1.06l-99.83,1.56c-.6.01-1.17-.28-1.51-.78l-1.04-1.49c-.62-.89-.44-2.09.38-2.77l88.21-72.63c.9-.74,2.59-1.35,3.76-1.35h60.55c.7,0,1.34.41,1.63,1.05l.8,1.76c.35.78.11,1.7-.57,2.2l-56.96,41.45c-.46.34-.22,1.07.35,1.07h97.6c1.11,0,2.12.63,2.63,1.61l1.48,2.87c.69,1.34.27,2.99-.99,3.83l-65.89,43.56c-.49.33-.26,1.08.33,1.08h75.59c.99,0,1.8.8,1.8,1.8v2.66c0,1.05-.55,2.02-1.46,2.55h-.01.01Z"/>
</svg>