<?xml version="1.0" encoding="UTF-8"?>
<svg id="Layer_1" xmlns="http://www.w3.org/2000/svg" version="1.1" viewBox="0 0 600 600">
  <!-- Generator: Adobe Illustrator 30.1.0, SVG Export Plug-In . SVG Version: 2.1.1 Build 136)  -->
  <g id="Layer_2">
    <g id="Layer_1-2">
      <g id="Layer_1-3">
        <circle cx="300" cy="300" r="300" fill="#988430"/>
        <circle cx="300" cy="300" r="290.39" fill="#7a6a2a"/>
        <circle cx="300" cy="300" r="284.27" fill="#ba9f33"/>
        <path d="M131.16,267.96c-1.7-1.55-3.49-3.11-5.15-4.66s-3.35-3.11-5.05-4.66l-5.05-4.8c-.83-.83-1.7-1.55-2.52-2.38-.83-.73-1.8-1.55-2.62-2.28-6.7-6.36-13.44-12.72-20.05-19.08,6.84,6.26,13.55,12.48,20.39,18.84l2.38,2.38c.83.82,1.7,1.55,2.52,2.38l5.05,4.66c1.7,1.55,3.35,3.11,5.05,4.8s3.35,3.25,5.05,4.8h0ZM42.23,267s24.37,2.52,36.26,4.22c11.02,1.56,45.48,6.84,45.48,6.84l-81.75-11.07ZM42.23,267c6.84.58,13.69,1.31,20.53,2.04,3.49.34,6.84.73,10.2,1.07l5.14.59c1.7.24,3.35.48,5.05.73l20.39,3.25,10.19,1.7c3.35.58,6.7,1.22,10.2,1.8-3.35-.34-6.84-.83-10.2-1.31l-10.19-1.46-20.39-3.01c-1.7-.24-3.35-.59-5.05-.83l-5.15-.59c-3.35-.34-6.84-.83-10.2-1.22-6.84-.82-13.69-1.7-20.53-2.76h0ZM121.56,284.42s-26.02,6.6-34.81,9.13c-8.64,2.38-34.81,10.34-34.81,10.34l69.61-19.47h0Z" fill="#cfb66c" fill-rule="evenodd"/>
        <path d="M121.55,284.42c-5.78,1.7-11.52,3.35-17.38,4.91l-17.38,4.66c-5.78,1.7-11.52,3.35-17.28,5.05l-8.64,2.38c-2.86.83-5.78,1.55-8.74,2.38,2.86-.96,5.78-1.94,8.64-2.77l8.64-2.76c5.78-1.8,11.52-3.5,17.28-5.29,5.87-1.46,11.65-3.01,17.52-4.42,5.58-1.41,11.46-2.81,17.33-4.12h0ZM55.58,319.9c2.86-1.07,35.87-16.45,43.54-20.05,3.84-1.8,15-5.76,15-5.76l-58.54,25.81Z" fill="#cfb66c" fill-rule="evenodd"/>
        <path d="M55.58,319.9c2.52-.96,4.9-2.13,7.33-3.25l7.18-3.35,14.42-6.94c4.8-2.28,9.47-4.8,14.42-6.94,2.52-1.07,5.05-1.94,7.57-2.76l3.84-1.21c1.31-.34,2.52-.73,3.84-1.07-4.8,2.28-9.85,4.22-14.66,6.45-4.8,2.38-9.71,4.32-14.66,6.46l-14.66,6.45c-4.92,1.99-9.72,4.13-14.62,6.17h0ZM58.78,333.34s29.9-17.52,40.19-23.16c5.39-3.01,22.82-11.65,22.82-11.65l-63.01,34.81Z" fill="#cfb66c" fill-rule="evenodd"/>
        <path d="M58.79,333.35c5.05-3.11,10.19-6.26,15.34-9.47l7.68-4.66c2.62-1.55,5.15-3.01,7.82-4.56,2.62-1.56,5.15-3.11,7.81-4.56,1.27-.78,2.6-1.47,3.98-2.04l4.08-2.04c5.39-2.62,10.78-5.29,16.46-7.57-5.15,3.25-10.44,6.02-15.73,8.88-2.62,1.46-5.29,2.77-7.91,4.22s-5.15,3.01-7.82,4.42c-2.62,1.55-5.15,3.01-7.81,4.42l-7.91,4.32-15.97,8.64h0ZM121.55,302.38s-18.59,14.27-24.61,18.84c-6.02,4.56-23.74,17.38-23.74,17.38l48.35-36.21Z" fill="#cfb66c" fill-rule="evenodd"/>
        <polygon points="228.25 417.48 218.74 399.47 224.27 376.94 263.74 361.7 246.94 327.24 255.24 292.43 270.83 261.26 318.98 253.69 354.37 219.95 430.78 225.73 445.78 307.43 416.89 410.29 400.44 463.55 333.74 466.07 302.77 444.61 266.51 429.47 228.25 417.48" fill="#e2cc85" fill-rule="evenodd"/>
        <path d="M345.24,416.89s-9.23,4.22-24.96,3.25c-4.55-6.12-36.44-8.98-36.44-8.98,0,0-3.98-1.21-11.02,1.7-7.08,2.88-13.79,2.52-20.05,4.08-6.26,1.55-12.48-6.6-17.28-8.3-4.8-1.8-11.16-6.12-11.16-6.12l-13.44-1.31-26.99-11.41-42.88-42.72-11.65,18.24-3.59,22.57,12.96,26.75,34.9,31.8,68.06,17.28,40.34-11.88,50.53-21.36,12.67-13.59h0Z" fill="#f1d789" fill-rule="evenodd"/>
        <polygon points="103.45 265.92 112.09 239.76 122.38 222.86 155.53 220.1 145.58 249.13 117.87 298.45 129.37 342.48 108.98 352.67 102.72 343.06 97.67 321.02 97.33 296.26 103.45 265.92" fill="#f4ecb4" fill-rule="evenodd"/>
        <path d="M140.63,415.1l-6.36-8.88s-1.7-4.22-.73-7.91c.96-3.74.82-3.98.34-5.39s-4.56-6.26-4.32-10.44c.24-4.22-.34-5.63,2.76-8.98,3.25-3.25,2.28-8.88,2.28-8.88l4.22,2.62.96-1.46s1.55,1.21,1.55,3.11c.34-2.62-1.07-14.76,2.13-17.52s8.88,12.96,8.88,12.96l-3.49-22.82-8.98-23.4-15.97-21.36-.96-23.55v-2.04s-7.33,11.26-9.37,20.16c-1.46,6.12,2.04,13.54,1.31,22.33-.59,8.74-1.31,8.06.82,11.52,2.13,3.46,7.33,10.58,5.29,15.73-1.8,4.42-7.91,1.31-7.91,1.31,0,0-1.21,3.59-2.86,4.9-.58-2.13-1.21-3.49-2.38-4.8-.1.83-.34,1.94-.34,1.94,0,0-1.07-3.35-2.14-7.57-1.45-5.63-3.01-13.06-4.42-17.04-.58,2.28-2.04,9.22-2.04,9.22l.83,10.68,3.98,14.66,3.84,9.6,3.74,11.75,3.25,7.89,2.62,6.02,2.28,13.55,11.02,11.65,5.88,2.62,4.27-2.19h0Z" fill="#f3e19d" fill-rule="evenodd"/>
        <path d="M109.22,244.56s-7.91,13.44-10.19,26.99-4.32,27.87-2.88,46.31c1.46,18.6,4.22,30,6.46,38.16,3.84,13.55,13.79,32.38,13.79,32.38l.34-.73c-1.67-3.17-3.01-6.5-3.98-9.95-1.31-5.15-1.8-11.26-3.01-14.03-1.07-2.76-2.86-5.15-3.74-8.54-.83-3.25-.96-8.4-3.49-12.23-1.07-1.56-2.38-5.63-2.77-9.71-.49-6.12.24-12.96-.34-18.59-1.07-9.37-1.8-15.73-.83-20.63s6.02-18.83,9.13-29.9c2.04-7.09.82-13.06,4.56-19.23,3.74-6.12,6.02-11.5,6.84-15.24.96-3.4-9.9,14.95-9.9,14.95h.01Z" fill="#f2e8b0" fill-rule="evenodd"/>
        <path d="M146.75,239.17s-4.08,1.22-6.02,3.35c-1.94,2.04-2.77,3.74-5.39,7.18s-2.77,6.26-4.91,10.58c-2.13,4.22-6.84,10.58-7.43,12.86s-1.55,12.96-2.76,18.01c-1.07,5.05,1.21,11.26,1.21,11.26l2.76-.59s0,3.59,2.77,6.02c2.76,2.38,3.25-8.06,3.25-8.06l10.34-34.9,15.58-10.58,1.7-8.54-11.12-6.6h0Z" fill="#f5eec0" fill-rule="evenodd"/>
        <path d="M154.32,255s-7.33.48-10.92,3.11c-1.46,1.07-2.04,1.94-3.59,3.25-2.86,2.38-5.78,4.56-7.18,7.68-1.56,3.1-3.25,7.81-4.42,16.7-.49,3.74-.49,7.18-.83,10.2-.49,4.08-1.21,7.33-.83,9.6.49,4.66,5.29,7.09,5.76,12.38l9.95-5.05,9.37-36.94,19.9-12.48-11.26-12.62-5.97,4.16h0v.02Z" fill="#e6db9d" fill-rule="evenodd"/>
        <path d="M101.82,503.77c.04-.36.08-.73.12-1.1,1.45-12.48,1.7-21.94,2.76-27.86,1.55-8.4,2.62-11.52,2.38-14.66-.34-5.05-.73-8.74-.24-12.62.73-5.15,5.78-11.26,5.63-15.48-.1-3.35-1.8-5.53-3.25-7.57s-2.62-3.74-2.62-3.74c0,0,9.95-6.84,9.86-34.42.2.06.4.14.58.24l4.9,13.93,3.35,4.08,12.86,23.98,16.55,16.07,24.46,16.45,15.34,16.69,1.55,44.52-20.05,26.02-3.28,5.95c-26.08-13.09-50-30.12-70.92-50.47h0Z" fill="#e5cb7a" fill-rule="evenodd"/>
        <path d="M163.06,546.36s.34-5.53,4.9-9.13c.73,1.21,1.21,2.38,1.07,3.25.83-1.45,6.6-10.77,19.66-13.2,13.06-2.38,16.21-11.89,16.21-11.89l27.72-25.19,31.7-29.17,38.54-13.55,18.01-4.42s.34,1.31-.34,4.22c3.35-.24,10.77-1.94,18.49-4.66,3.11-1.21,6.02-1.7,7.57-.1,2.28,2.13,2.62,7.18,2.76,10.19,3.74-.83,8.06-4.42,11.52-4.08,5.54.58,10.44,7.09,16.07,7.09,7.43,0,10.77-4.56,15.97-8.16,3.11-2.13,7.57-4.8,10.1-6.6,6.02-4.42,69.71-23.88,69.71-23.88l22.33,1.46,3.59,23.98-1.92,62.69c-.24.23-.47.46-.71.69l-101.53,53.03-140.74,21.57c-31.53-5.15-61.95-15.62-89.97-30.95l-.72-3.2h0Z" fill="#d8c173" fill-rule="evenodd"/>
        <path d="M110.35,511.75c2-4.18,3.8-7.68,4.12-8.93.25,2.52.71,8.05,1.63,13.94-1.93-1.64-3.85-3.31-5.74-5.01h0Z" fill="#f1d789" fill-rule="evenodd"/>
        <path d="M213.16,570.74l18.2-5.06,1.55.49s.83.49.83,2.13c2.28-1.31,4.22-1.07,5.63-1.94.73,1.55,1.45,6.7,4.66,7.33,3.35.73,6.94-1.46,10.58-4.22,3.59-2.86,7.68-6.46,10.77-7.91,1.14,2.09,2.14,4.24,3.01,6.45,4.08-3.25,11.16-16.45,21.26-16.21,2.92-6.9,7.79-12.79,14.02-16.94,9.37-6.36,15.24-6.84,22.57-6.26,2.91-3.78,6.5-6.99,10.58-9.47,1.21.49,4.56,2.52,8.74.58,4.22-1.94,8.98-9.47,15.24-10.44,3.37-.46,6.81.26,9.71,2.04,0,0,18.24-18.11,30.83-24.13-.49-1.46-1.46-6.94,13.3-19.08.83.73.24,2.77.83,2.88.24,0,3.84-1.55,8.4-5.05,5.63-4.22,12.38-8.64,16.45-9.85,7.68-2.28,15.83,2.38,15.83,2.38.69-.49,1.46-.85,2.28-1.07,1.94-.34,3.35-.58,4.42-.96-.1,2.52,1.31,6.84,0,10.58,1.52.85,3.13,1.54,4.8,2.04-.82,1.8-2.62,6.36-5.63,8.54,2.52,1.21,2.86,2.62,6.45,3.84-1.46,2.04-3.84,5.54-4.9,7.68-1.07,2.28-4.91,11.75-6.6,15.34-1.8,3.59-4.22,10.2-5.39,11.52s-5.39,6.94-8.64,9.71c2.88-1.07,14.66-4.66,19.66-6.02-1.49,2.18-9.03,13.37-16.28,24.13-70.23,42.1-155.19,51.93-233.18,27l.02-.05Z" fill="#e0cd81" fill-rule="evenodd"/>
        <path d="M155.52,253.69s-4.22,0-5.05.58,4.22,1.8,5.78,2.38,4.9,3.25,5.78,5.39c.83,2.04,30.34,13.93,30.34,13.93l20.87-1.07,7.2-9.94-13.69-11.99,9.6-28.3-12.72,2.04-30.58,18.24-15.34,5.88-2.19,2.87h0Z" fill="#dfc57c" fill-rule="evenodd"/>
        <path d="M201.36,263.06c.61.99,1.71,1.59,2.88,1.55,4.32,0,8.3,1.07,9.95,3.25,2.77,3.5,10.44,14.66,10.44,14.66l18.35,6.6,1.18-21.61-20.05-13.93-22.82,8.4v1.07h.06Z" fill="#e5cc7c" fill-rule="evenodd"/>
        <path d="M197.76,271.07s3.35.24,7.57-1.31,11.16-4.9,14.18-3.59c4.22,1.8,3.35,7.43,7.91,12.48,2.76,3.11,7.81,3.01,10.68,6.36s12.72,1.8,12.72,1.8l3.74,20.16-15,19.23-4.91,23.88h-20.28l-18.53-7.35-9.13-22.08,4.56-22.33,6.48-27.24h0Z" fill="#d2c281" fill-rule="evenodd"/>
        <path d="M236.99,272.04c.5.16,1.03.24,1.55.24-.58.49-1.8,1.55-1.31,4.32s2.04,6.26.73,8.4c1.04,1.14,1.82,2.5,2.28,3.98.83,2.38,1.07,4.56,6.45,4.91-.78.48-1.49,1.05-2.13,1.7,0,0,3.74,3.25,5.63,6.26,1.94-.08,7.08-1.68,7.08-1.68l1.07.73,2.28-.96s-2.13-.83-.58-6.02c1.46-4.56,2.77-4.32,2.88-4.66s1.07-5.15,1.07-7.09c.73-2.52,1.31-10.19,1.31-10.19l-1.55-16.94-8.74-5.29-7.1-6.86-6.7,12.62-4.41,4.4-.34,10.92.53,1.22h0Z" fill="#e2c270" fill-rule="evenodd"/>
        <path d="M258.01,257.87s1.55,4.42,2.14,7.81c.21-.66.32-1.35.34-2.04,0,0,1.21,6.7,1.45,9.47.49-.1.96-.24,1.07.24s1.22,5.88.96,8.88c2.02-3.33,4.82-6.13,8.15-8.15,1.94-1.22,4.22-2.52,6.6-2.62,3.74-.1,6.45,2.38,10.92,2.38,10.77,0,20.53-7.91,27.72-10.34,5.29-1.8,9.85-3.11,13.06-6.02,1.56-1.31,4.32-4.22,6.84-8.54,3.35-5.76,6.84-10.77,10.34-11.4-1.58.29-3.19.4-4.8.34,0,0,1.07-1.07,2.88-2.52s3.98-3.25,7.08-3.25c5.54,0,8.3.82,11.41.82,3.11-.1,4.9-.82,4.9-.82,0,0,3.25,2.28,10.58,2.28,7.33.1,12.23.73,16.07,1.07s16.7-1.07,20.39-.96c2.41.09,4.77.67,6.94,1.7l-11.89-34.56-42.73-37.34-25.44,18.01-39.13,39.13-37.86,14.03-7.91,8.88v13.54h-.1Z" fill="#ccb360" fill-rule="evenodd"/>
        <path d="M342.96,238.06s1.07-1.07,2.86-2.52,3.98-3.25,7.09-3.25c5.53,0,8.3.83,11.41.83,3.11-.1,4.9-.83,4.9-.83,0,0,3.26,2.28,10.58,2.28,7.33.1,12.23.73,16.07,1.07s16.7-1.07,20.39-.96c2.4.09,4.77.67,6.94,1.7l-5.39-15.58-6.26-11.89-17.87-19.56s-21.44-12.62-21.6-12.72c-.1-.1-7.43-2.04-7.43-2.04l-19.42,11.75-17.62,45.58-.34,9.6,11.4,5.39c2.86-4.8,6.02-8.64,8.98-9.13-2.67.29-4.71.29-4.71.29h0Z" fill="#d5b457" fill-rule="evenodd"/>
        <path d="M342.72,241.31c-1.7.1-3.1-.24-3.49-1.46-1.46-4.08-2.62-4.66-3.84-4.66s-2.86,2.62-3.84,2.86-2.13-3.01-2.13-3.01l-1.07-.49s-6.26,4.08-10.68,8.88-11.65,12.96-14.9,14.42-14.42,1.94-18.24,2.77-8.06,3.59-8.64,4.22,1.7,1.31,2.04,1.94c.34.58-3.74.34-4.08.96-.24.49.96,3.25,1.56,4.66,1.04-.52,2.18-.8,3.35-.83,3.74-.1,6.46,2.38,10.92,2.38,10.78,0,20.53-7.91,27.72-10.34,5.29-1.8,9.86-3.11,13.06-6.02,1.55-1.31,4.32-4.22,6.84-8.54,1.84-2.96,3.64-5.73,5.44-7.77h0v.02Z" fill="#d2b257" fill-rule="evenodd"/>
        <path d="M188.16,481.56s-.96-3.59-9.86-12.86c-2.52-2.62-4.08-4.8-5.78-6.36-4.22-3.98-6.7-5.05-9.71-7.33-6.6-4.9-13.79-4.9-19.32-10.92-5.53-6.02-11.98-17.52-16.46-29.27-4.42-11.75-5.63-15.48-5.63-15.82s1.22-2.62,2.77-2.28,1.55,3.35,1.94,4.08c.77,1.19,1.65,2.31,2.62,3.35,2.28,2.62,5.53,5.76,7.18,10.44-.34-3.98-1.7-8.4-1.7-8.4,0,0,8.54,5.39,15.82,11.02,7.33,5.63,10.34,7.57,12.48,11.16s7.18,13.06,9.6,15.83c2.42,2.77,35.52,13.2,35.52,13.2l15.75,11.74,7.82,17.14-6.12,9.6-11.75,2.52-19.08-8.54-6.11-8.28h0Z" fill="#d2b159" fill-rule="evenodd"/>
        <path d="M145.78,422.52s3.98,6.36,13.69,12.38c8.74,5.29,22.57,10.1,34.91,12.96,7.08,1.7,14.17,3.01,20.53,3.11,17.14.24,28.93-4.66,43.55-6.26,7.91-.83,17.62-1.46,27.72-3.84,12.96-3.11,20.63-6.6,31.07-11.52,7.57-3.49,14.52-6.12,20.14-9.47,7.91-4.66,13.69-9.85,20.39-11.4-.83,2.28-1.7,6.36-8.3,10.58,3.49-.1,8.3-.34,8.3-.34,0,0-4.66,2.76-12.86,8.98-5.05,3.84-11.75,10.34-18.59,14.66-4.42,2.77-9.23,4.8-12.38,6.46-7.68,4.22-10.78,6.36-15.82,11.52,1.8-.1,1.94,0,1.94,0,0,0-6.36.83-10.92,3.25-.96,0-2.62-.34-5.54.49-2.28.73-5.29,2.38-8.4,3.25-4.42,1.31-5.87.73-5.87.73l.73,1.46s-5.76-.1-7.68.1c.34.1.24.24.24.24-.34.06-.66.17-.96.34-.92.6-1.94,1.04-3.01,1.31-.58.1-1.07.1-1.8.24.24.58,2.14,3.84,3.01,5.76-.73.49-11.65,8.74-11.65,8.74.34.53.62,1.1.83,1.7.34,1.07.49,2.62.83,3.35.82,1.46,1.31,1.7,1.31,1.7,0,0-1.31.24-3.59.83-1.94.49-4.32,1.31-7.68,1.8-1.03.13-2.07.22-3.11.24.49,1.07,2.62,5.15-1.31,9.85-3.93,4.71-5.15,5.39-6.36,8.4-.61-.46-1.26-.87-1.94-1.22-1.31-.58-3.11-1.45-3.74-2.62-.37,1.56-.85,3.08-1.46,4.56-1.21,3.25-3.01,6.46-3.35,8.88-1.31-1.46-3.74-4.32-7.09-3.74s-6.02,5.15-6.6,6.46c0-.83-.58-1.46-.73-.49-.1,1.07-1.94,12.23-12.23,21.26-.1-2.28-.1-7.33-.34-8.98-.96.96-2.13,2.38-9.13,5.39-6.84,3.01-5.76,6.02-5.76,6.02,0,0-.58-4.8,3.11-9.86,3.74-5.05,6.02-7.43,6.02-7.81-.06-.39-.23-.76-.49-1.07-.49-.49-1.46-1.07-1.46-1.46.58-.24,6.36-3.01,6.02-8.74-.34-5.14-2.52-7.81-4.08-9.71-.24-.24,2.28-2.04,1.94-2.62-.24-.34-3.35-2.62-3.74-3.84.09-.73.25-1.44.49-2.13.34-1.07.58-1.8.49-2.52-.24-1.21-1.56-4.56-1.94-4.9.34.1,2.76,0,2.76,0,0,0-1.94-3.11-2.28-4.56s-1.07-5.29-1.46-6.02c.83.1,2.86.24,2.86,0,.1-.73-1.8-1.94-.96-2.88.58.1,1.7.58,2.76,1.94-.58-1.56-1.55-4.56-3.59-5.78.96-.34,4.22-1.22,7.09.48s3.84,4.08,3.84,4.08c0,0,1.7,1.31,4.32,3.25,3.01,2.38,6.84,5.76,12.96,8.15,1.31.73,4.66.73,7.09.24,1.06-.25,2.07-.66,3.01-1.21.34-.2.7-.36,1.07-.49-.52-1.05-1.12-2.05-1.8-3.01.83,0,1.8.1,1.8.1,0,0,.58-1.31-2.04-3.84.58-.58,1.31-.96,1.31-1.94-.83-.1-2.28-1.31-2.62-1.8.48-.34,1.21-1.46,2.04-1.8-.73-.58-2.52-3.01-3.35-3.25.79-.29,1.55-.65,2.28-1.07,0,0-4.08-1.07-5.39-1.94-1.31-.96-3.25-2.62-4.42-3.11-1.22-.49-3.35-.73-4.22-1.7.82.24,2.13,0,3.11,0,.73,0,1.07.1,1.31.1-.1-.34-.1-1.07,1.8-1.31.91-.14,1.8-.42,2.62-.83,0,0-1.8-.1-3.84-2.04s-3.74-3.49-4.9-3.74c-1.21-.24-3.49.83-4.9.73-1.94-.24-2.77-1.21-2.77-1.21,0,0-6.45.58-20.77-8.15-12.38-7.57-17.77-14.27-17.77-14.27-1.16-.42-2.28-.94-3.35-1.56-4.66-2.43-11.12-7.48-10.92-14.08h0l-.03.05Z" fill="#c2a44d" fill-rule="evenodd"/>
        <path d="M324.37,131.16c1.12.36,2.12,1.04,2.88,1.94,2.28,2.62,3.74,7.57-1.46,12.86,2.04.73,2.88.96,4.66.73-1.8,2.14-5.87,6.7-6.12,10.68-.24,3.25,1.8,4.22,1.8,4.22,0,0-3.11,3.59-3.25,9.6,1.47-1.65,3.07-3.18,4.8-4.56,3.59-2.86,8.54-6.12,11.89-8.15-.05.85.07,1.71.34,2.52,0,0,6.26-5.15,11.52-2.86,2.38,1.07,1.31,4.42,1.31,4.42,0,0,3.25-1.21,5.54,1.07s5.51,8.17,7.16,10.45c.73,1.07,2.62,3.11,4.56,6.26,2.65,4.42,4.86,9.08,6.6,13.93.1-2.52.73-6.45,7.91-3.98,7.18,2.52,15.34,7.82,22.18,18.24,6.84,10.42,8.54,22.19,11.99,26.67,3.49,4.32,7.09,11.5,7.33,14.52s-1.07,12.72,6.12,38.98c2.04-8.15,5.15-26.26,5.15-26.26l1.7-15.97,1.94-49.42-51.6-42.87-40.34-29.27-26.26,2.52,1.65,3.74h0Z" fill="#caa13e" fill-rule="evenodd"/>
        <path d="M420.24,204.71s-.73-4.8-12.86-12.96c-12.14-8.06-21.6-8.06-30.34-14.9-6.7-5.39-13.69-17.77-18.24-21.85-4.42-4.03-5.15-15.68-5.15-15.68l14.9-12.48,22.16-32.04,18.74-20.63,8.98,12.48,12.48,14.66,6.94,29.42,2.52,43.06-20.16,30.92h.02Z" fill="#b59544" fill-rule="evenodd"/>
        <path d="M435.24,256.32c.37-6.53-.44-13.07-2.38-19.32-3.2-9.95-10.19-27.62-13.44-34.24-1.31-7.33-.34-7.91,1.07-8.74s6.7-3.84,9.6-14.42c2.9-10.58,11.89-10.92,11.89-10.92l5.53-4.08,8.4,21.02,7.33,18.98,2.28,14.52,1.7,12.38-3.98,26.17-19.66,17.77-8.35-19.11h0Z" fill="#c89d3a" fill-rule="evenodd"/>
        <path d="M160.92,547.96v-.54c.41-.26.77-.58,1.07-.96.34-.49.59-1.07.83-1.21.49-.24,2.77-.96,3.98-.73s4.42,1.55,6.12,1.46c3.49-.1,7.57-2.77,14.03-1.55,9.71,1.8,11.99,8.4,17.62,12.13,3.84,2.62,7.81,1.46,8.4,1.46h1.31c.24,0,2.04-2.04,3.01-1.94,1.94.1,2.13,1.7,3.35,1.8,2.86.34,8.4-1.46,11.17-.73,1.67.52,2.97,1.83,3.49,3.49.58,1.8.1,4.08-1.31,5.39-3.01,2.76-5.87,5.39-6.45,7.68.74.56,1.45,1.17,2.13,1.8-24.02-6.12-47.13-15.37-68.73-27.52v-.03Z" fill="#ceb052" fill-rule="evenodd"/>
        <path d="M419.42,450.97s7.57-10.1,10.2-15.1c2.62-5.16-8.3-70.44-8.3-70.44l21.94-71.89-.59-23.4s1.07-21.6,3.59-30.97c3.01,5.39,12.38,11.89,14.42,15.34.96-6.6,4.22-20.53,3.74-35.39,1.8,2.76,6.12,30.58,6.12,30.58l4.32,18.74,5.63,19.9,6.26,21.02,3.74,14.52,2.13,3.49,1.8,6.12,1.7,6.6,4.9,15.48,2.88,12.72,2.28,23.06c.5,1.77.85,3.57,1.07,5.39.1,2.52-.34,3.98-.34,4.42s.83,5.53.49,9.37c-.49,3.84-.49,6.84-3.5,9.6s-4.9,19.22-4.9,19.22l-5.39-3.59s1.07-4.91-1.46-9.37c-2.52-4.46-7.43-5.39-10.2-4.66-2.76.58-8.3,1.45-10.1,3.01-1.7,1.55-5.87,6.36-9.71,8.54-4.8,2.88-12.62,3.11-16.79,4.08-4.22.96-8.88,3.84-13.79,7.18-3.85,2.49-7.91,4.63-12.13,6.4h0l-.02.02Z" fill="#cca847" fill-rule="evenodd"/>
        <path d="M419.42,557.04s.32.21.94.55c34.49-16.16,65.39-39.06,90.88-67.36-.28-9.82-.64-19.89-1.04-23.63-.82-7.91-.24-15.97-.48-20.63s-2.86-23.64-4.08-28.54c-1.31-4.9-3.84-7.33-4.22-7.33-.34.1-2.38,9.23-2.38,11.52s-.49,7.82-.49,9.23c-.34-.1-.48-.96-.48-1.31-.49,1.21-1.07,3.35-1.31,3.59s.34-2.04,0-2.52-.96-.24-.83-1.46c.06-.72.17-1.43.34-2.13,0,0-1.46,2.13-2.52,7.57-1.07,5.39-1.07,5.54-1.46,6.02-.34.59-2.28,2.52-2.38,3.25-.1,1.31,1.8,2.62,1.94,3.35.1,1.22-1.7,6.84-2.28,9.6s-.34,8.15-.96,10.92c-.49,2.52-.96,3.98-2.62,5.05,1.21.24,2.38.58,2.38.58,0,0,1.7,7.18-2.62,13.3-1.55,2.13-1.94,3.11-3.59,5.05-3.25,3.59-5.78,7.68-6.02,10.34-.17-.78-.28-1.58-.34-2.38,0,0-5.05,5.88-7.18,9.23-2.76,4.32-6.6,4.08-7.68,5.15s-1.31,3.01-.96,4.56c-.96.24-2.76.58-3.98,4.32-.58,1.94-2.04,3.84-4.32,5.15s-5.05,1.7-6.46,2.04c1.21.34,1.7.34,2.28.73-.73,1.21-4.08,3.11-7.81,5.54-3.74,2.28-5.54,5.63-6.46,7.81-.96,2.04-2.38,3.35-4.66,3.59.96.58,2.38,1.94,3.11,2.38-1.07.24-2.88.24-6.12,3.01-3.4,2.82-4.56,3.64-6.12,3.88h-.02Z" fill="#c39d3c" fill-rule="evenodd"/>
        <path d="M351.87,579.54c1.86-1.3,3.87-2.37,5.99-3.18,7.57-3.01,15.58-3.59,18.74-4.56,3.01-.96,5.39-2.28,9.13-3.01-.1.85-.18,1.65-.27,2.41-11.02,3.46-22.24,6.25-33.6,8.34h.02Z" fill="#d2ba6b" fill-rule="evenodd"/>
        <path d="M491.52,380.39s-1.55,8.4-4.32,13.69-5.76,12.62-5.76,12.62c.02-1.65.21-3.3.58-4.91-3.49,2.04-11.99,6.94-14.4,9.13-2.28,2.04-6.12,5.63-7.09,7.33,2.28-6.7,4.66-12.72,5.05-15.48-3.49,2.52-19.81,15.97-28.3,24.85l-26.46,21.41c-3.05,1.65-6.2,3.12-9.42,4.41-4.56,1.94-9.95,3.59-13.93,5.15,1.07-2.86,2.76-5.39,5.15-7.82,2.52-2.38,10.1-10.58,11.26-14.4,1.07-3.98,1.31-6.36-.1-9.71-1.31.34-4.32.49-6.36,1.07s-4.22,2.76-4.22,2.76c0,0,1.55-8.88,4.9-17.28-2.52.1-6.84.82-6.84.82,0,0,6.02-10.1,16.32-17.13-3.15.67-6.24,1.63-9.22,2.86-6.02,2.52-12.62,6.26-17.52,8.3,2.76-3.84,22.18-31.55,33.74-57.38,11.52-25.78,15.82-32.38,18.35-46.21,1.31-6.84.96-16.96,1.31-26.02.34-8.98,1.46-17.04.73-22.43,3.01,3.74,14.27,14.27,14.66,37.82.34,23.54-10.77,55.34-22.57,72.47,2.88.83,10.34,1.8,18.01-11.52,7.67-13.32,7.57-17.04,10.34-22.57.34,2.77.24,3.74.24,3.74,0,0,11.17-13.54,16.46-30.58,1.07,7.33,4.22,13.79-.73,27.24-4.42,12.13-10.19,15.1-10.19,15.1,0,0,2.86-.49,7.08-3.01.73,1.8.59,3.84,1.8,4.56s2.86,1.94,3.11,3.11c1.31-1.94,3.35-4.42,3.98-6.26-.49,3.84-.83,20.63.96,29.17,3.74-.34,7.57-.58,10.2-7.33-1.8,6.6-1.8,10.58-.58,16.21,1.99-1.36,3.79-3.79,3.79-3.79h.01Z" fill="#c0993a" fill-rule="evenodd"/>
        <path d="M365.39,112.82s-3.74,1.55-10.1,1.55c-5.53,0-3.98-2.13-12.62-2.13-13.3,0-59.76,7.68-67.91,7.57-5.29-.1,17.86,2.28,17.86,2.28l59.18.83,11.89-.96,4.42-8.99-2.72-.14Z" fill="#a88f33" fill-rule="evenodd"/>
        <path d="M211.94,228.5s-7.57,5.78-10.78,10.2c-3.2,4.42-4.9,7.33-8.54,10.92.85.03,1.71-.08,2.52-.34,0,0,0,.96-.58,1.21,1.02-.11,2.04.24,2.76.96-1.07.58-3.98,3.5-1.7,6.94,1.7,2.62,5.29,2.86,5.29,2.86,0,0-.83,2.38,2.62,2.14,7.43-.34,15.73-3.59,19.56-2.77,3.84.96,6.02,1.31,8.74,6.02,2.88,4.66,5.39,5.39,5.39,5.39,0,0,1.7-4.32,1.31-10.78,1.39-3.48,2.17-7.18,2.28-10.92l-2.52-18.59-11.02-13.93-14.27,7.91-1.07,2.76h0Z" fill="#e3c571" fill-rule="evenodd"/>
        <path d="M225.48,225.73s1.07,2.52,5.54,2.76c-.49,1.07-.49,1.22-.34,2.04.1.83.24,2.04.24,2.04.49-.24.94-.56,1.31-.96.24,1.07-.24,2.76,0,3.98.15.74.39,1.46.73,2.13.07-.17.15-.33.24-.48.1-.24.96,2.62,3.35,4.8,0-.34.08-.67.24-.96.04.61.24,1.2.58,1.7-.18-.09-.34-.2-.48-.34,0,0,.24,7.68,1.55,11.65.22-.26.41-.53.58-.83,0-.24-.1,2.14-.34,3.84-.34,1.7-.1,4.08-.1,4.08.88-.69,1.84-1.26,2.86-1.7,1.46-.59,3.84-2.38,5.29-6.36.84-2.25,1.49-4.58,1.94-6.94.47.9.79,1.88.96,2.88.1,1.21,2.38.58,2.38.58l.49-5.29,2.88-11.99,2.62-7.43,12.62-19.66,22.8-17.56,19.9,4.56,16.79-22.82-28.93-17.38-27.38,2.86-24.85,34.42-19.9,31.22-3.59,5.15h0Z" fill="#d8b65b" fill-rule="evenodd"/>
        <path d="M368.88,175.92s-1.7.34-6.6,2.88-8.3,3.35-10.2,7.08-2.04,6.7-2.04,6.7c0,0,3.35-1.46,5.29-1.94,2.04-.48,4.32-.34,4.08.49-.23.57-.56,1.09-.96,1.55,0,0,3.84-.1,3.74,1.8s-.73,3.98-1.45,4.9c-.73.96-3.74,2.38-4.08,3.5-.83,2.28.34,2.38-.1,4.22-.34,1.8-1.94,5.29-7.18,11.41-5.39,6.12-7.68,10.44-7.68,10.44,0,0-2.62-4.9-3.98-9.13-.96.48-6.12,3.35-6.12,3.35l-11.94-41.6.24-2.77s1.07-1.31,1.31-3.74c-1.8-.58-2.04-1.07-4.42-3.35s-4.32-5.05-8.3-6.94c-.58-1.07-1.31-2.52-4.22-3.11-2.91-.59-4.66-1.07-4.66-1.07,0,0,1.55-.59,2.28-1.8-1.8.24-3.25.83-7.18.73-3.98-.1-4.42-.24-6.6.1s-4.8,1.31-5.78-2.04c-1.07-.83-3.35-.1-5.29,2.76s-2.62,5.15-6.36,6.26c-.26,1.65-.84,3.23-1.7,4.66-1.07,1.8-2.77,3.59-5.05,6.26-3.59,4.22-3.01,11.16-8.74,16.46-5.78,5.29.96-14.66.96-14.66l9.22-22.08,26.26-25.68,40.78-2.76,3.98,21.12,19.9,6.84,12.57,19.17h0v-.03Z" fill="#d3ae4d" fill-rule="evenodd"/>
        <path d="M375.34,180.58l-17.14-24.71-11.99-9.23s-8.54-15.72-9.13-16.21c-.49-.34-8.54-1.21-13.69-1.55l.96,2.38c1.12.36,2.12,1.04,2.88,1.94,2.28,2.62,3.74,7.57-1.46,12.86,2.04.73,2.88.96,4.66.73-1.8,2.14-5.87,6.7-6.12,10.68-.24,3.25,1.8,4.22,1.8,4.22,0,0-3.11,3.59-3.25,9.6,1.47-1.65,3.07-3.18,4.8-4.56,3.59-2.88,8.54-6.12,11.89-8.16-.05.86.07,1.71.34,2.52,0,0,6.26-5.15,11.52-2.86,2.38,1.07,1.31,4.42,1.31,4.42,0,0,3.25-1.21,5.54,1.07,2.28,2.28,5.53,8.15,7.18,10.44.73,1.07,2.62,3.11,4.56,6.26,2.65,4.42,4.86,9.08,6.6,13.93.1-1.94.49-4.66,3.84-4.66l-5.1-9.13h-.02Z" fill="#caa13e" fill-rule="evenodd"/>
        <path d="M118.45,250.78s-1.21-3.01,0-8.88,3.11-8.64,3.74-17.28,6.26-19.42,6.26-19.42l15.58-7.08,11.02,3.01,3.25,14.76-13.93,7.68s-.73,3.25-4.66,5.87-9.37,4.66-10.68,7.33c-.78,1.64-1.35,3.37-1.7,5.15,0,0-3.98-.83-6.36,1.8-2.52,2.67-2.43,5.05-2.52,7.09h0Z" fill="#f4efc8" fill-rule="evenodd"/>
        <path d="M149.9,246.84s-1.31.83-2.28,2.88c-.96-1.55-3.25-10.78-3.35-19.08s-.59-10.36,1.33-13.22,9.45-5.88,8.38-11.03c-1.07-4.9-5.54-6.94-11.02-5.53-3.84.96-6.7,9.13-10.68,13.2-3.01,3.11-6.6,2.62-7.57,4.32-1.31,2.28-.1,4.56-.49,6.02-.1.49-1.31,3.11-3.5,6.26-4.42,6.36-11.89,15.34-12.86,23.4.34-4.56.1-4.66,1.31-9.71l-.73-1.21,4.8-15.73,3.11-12.96,6.94-21.7,12.23-22.18,11.89-13.3,12.38.83,1.46,18.59,7.09,34.91,14.9,18.35-23.88,16.07-9.47.83h0Z" fill="#ebcc73" fill-rule="evenodd"/>
        <path d="M157.33,253.44s-2.04.49-2.77.1-1.45-.83-1.21-1.31,1.55-1.31,1.55-1.7c.06-.73-.48-1.38-1.21-1.46-1.12-.14-1.46.58-1.46.58,0,0-1.07-.82-1.94-.96.51-.06,1.03-.1,1.55-.1-1.34-.61-2.76-1.02-4.22-1.21,1.21-.73,3.59-2.86,5.15-2.86s2.52-.24,2.28-1.07-1.46-2.04-2.76-2.52c.48-.58.83-1.46-.34-3.84-1.22-2.38-.73-3.98-.34-4.56.34-.73,1.55-2.04,2.13-2.86s1.07-1.94,2.04-2.52c.49-.34,2.04-.96,3.59-1.55,1.7-.58,3.11-1.31,4.08-.58,1.07.73.58,1.7.58,1.7,0,0,3.35-1.22,6.36.34,3.01,1.45,10.34,2.38,10.34,2.38l2.63,5.29-17.38,14.9-7.18,3.59-1.46.24h0Z" fill="#e5c66b" fill-rule="evenodd"/>
        <path d="M181.46,229.08s-5.39,3.59-6.6,4.9c.73.1,1.94.59,1.45,1.31-.58.73-4.08,3.25-6.02,5.63-2.04,2.38-3.98,5.39-4.66,6.84-.73,1.31-6.26,5.15-8.15,5.63,3.98,0,11.99-4.9,15-4.9-.1,1.46.83,3.11,2.52,3.25s6.6,1.07,13.2-3.01c6.6-3.98,4.42-6.94,7.18-8.88,5.29-3.5,7.43-6.6,10.34-8.54,2.91-1.94,4.42-2.38,4.42-2.38,0,0,.1-1.46.96-1.31.48.06.89.37,1.07.83,0,0,5.05-3.59,11.52-4.56-.15-.07-.27-.19-.34-.34,0,0,.48-.24.58-.49,0,0,.34-.49.58-.24s.58,2.04,1.07,2.77c1.07-.49,3.11-5.05,3.11-5.05l4.91-14.03v-12.82l-3.84.73-28.8,12.23-17.48,18.11-2.04,4.32h.01Z" fill="#e6bd62" fill-rule="evenodd"/>
        <path d="M264.37,166.21c1.56-.38,3.05-.98,4.43-1.8-.58,1.56-.58,3.25-3.11,6.94s-2.62,4.22-4.66,8.06c-2.04,3.98-2.28,9.71-4.22,12.23.87-.42,1.8-.7,2.76-.82,0,0-1.94,1.7-2.76,3.49s-2.28,5.53-5.87,7.82-8.16,3.74-13.06,9.13c-4.91,5.29-9.95,11.99-12.48,14.4,1.31-2.28,3.11-6.84,3.59-9.85s-.1-6.6.73-10.58.83-6.84,4.8-13.79,10.78-31.07,10.78-31.07l14.66-4.66,4.42,10.49h0v.02Z" fill="#b6933f" fill-rule="evenodd"/>
        <path d="M253.79,157.33s-4.42,6.36-5.63,11.99c-1.21,5.63-.1,5.15-.83,7.91-.43,1.69-.43,3.46,0,5.15,1.53-2.46,3.62-4.53,6.11-6.02,4.18-2.52,7.57-4.32,9.6-6.45,2.04-2.28,3.74-6.02,8.15-8.88-1.8-.24-4.32-1.07-4.8-.96,1.8-2.04,7.18-5.15,12.62-8.88,5.39-3.84,5.05-5.39,13.79-9.22-2.86.49-4.22-.24-6.6,0,.96-2.04,4.32-3.01,7.68-6.36,3.36-3.35-2.13-8.3-2.13-8.3l-25.6,15.48-12.38,14.56h.02Z" fill="#c49937" fill-rule="evenodd"/>
        <polygon points="184.32 145.78 184.9 141.12 192.23 129.37 199.9 108.74 199.9 80.53 199.32 64.22 200.53 53.54 201.46 50.15 202.43 48.84 208.69 52.09 217.33 63.83 218.16 86.51 209.76 122.28 185.78 148.45 184.32 145.78" fill="#dfc068" fill-rule="evenodd"/>
        <path d="M203.4,47.52s-3.84.1-4.66,16.07c-.82,15.97-1.22,24.37-1.8,32.28s-1.94,12.72-2.62,17.38-1.07,11.02-3.25,14.9c-.96,1.8-3.01,7.43-7.82,11.65-5.39,4.66-13.44,7.91-14.66,8.16-2.14.48-12.96,1.55-17.38,3.98-1.55.83-4.22,1.8-7.18,4.56-5.88,5.29-13.69,14.76-19.32,26.16-8.64,17.04-17.28,65.15-17.28,65.15l1.94-3.25s.24-4.32,4.56-11.89c4.22-7.57,3.01-16.07,8.88-30.58,2.28-5.53,5.15-12.72,8.64-18.84,5.54-9.95,12.23-18.5,18.98-23.16,11.02-7.57,23.16-9.22,23.16-9.22l13.06-8.64s2.28-4.42,5.29-9.47c4.22-7.08,9.6-15,10.77-26.5,1.8-17.04-2.52-28.2-2.28-38.3s.34-17.52,2.38-19.32.58-1.12.58-1.12h0Z" fill="#a88f33" fill-rule="evenodd"/>
        <path d="M203.4,123.74s5.76-14.18,8.4-26.75c.49-2.52,1.46-5.05,1.7-7.08,1.21-11.89,1.55-16.8,0-23.3-1.21-4.8-5.87-9.13-8.3-12.48-2.38-3.5-3.49-4.8-3.01-5.54s2.38-1.94,4.22-1.8c3.96.12,7.7,1.85,10.34,4.8,3.74,4.32,6.7,18.98,6.7,18.98l3.11,19.35,7.91,24.37-31.07,9.47h0v-.02Z" fill="#c99e3d" fill-rule="evenodd"/>
        <path d="M257.52,108.98s-1.07.48-3.01,0c.17,1.62-.58,3.19-1.94,4.08-2.04-.83-21.12.83-21.12.83,0,0-8.88-1.56-11.65-13.3-1.94-7.82,1.46-18.59.34-25.68-1.7-10.44-4.08-12.48-4.32-15.73s-.49-4.08-.49-6.12c-1.07-.24-1.7-.58-2.76-.58-.24-.96.24-1.8-.83-3.5.58.24,4.56.73,9.22,5.15,3.84,3.59,3.84,4.9,4.42,5.63.73.73,6.6,5.76,9.13,10.78,2.52,5.02,7.43,21.02,8.54,23.64.34,1.07,1.07,2.14,2.88,4.56,2.82,3.5,6.94,9.28,11.6,10.24h-.01Z" fill="#b58634" fill-rule="evenodd"/>
        <path d="M226.07,60c2.94,4.75,5.58,9.68,7.91,14.76,2.86,6.45,4.56,11.75,8.16,16.07-1.94-5.63-5.39-16.7-7.43-20.63-2.28-4.16-6.94-8.64-8.64-10.19h0Z" fill="#a88f33" fill-rule="evenodd"/>
        <path d="M193.06,139.81s-4.9,1.21-14.03,6.02c-3.01,1.55-5.87,2.86-8.64,4.08-7.19,3.25-14.9,6.26-21.02,7.91.49.58.73.82.73.82,0,0,0,2.38,1.31,3.74-.73.73-10.44,7.33-7.57,29.42,1.94-.73,4.22-1.7,4.56-1.7.59.1.73,1.7,1.46,1.7s3.11-.96,5.63-4.22c-.1,1.31-1.55,14.52,6.26,23.4,1.46-1.7,5.15-7.33,5.15-7.33l.1-1.8s.34-6.26,2.38-11.99,6.02-9.95,6.02-9.95l20.77-29.66-3.11-10.44h0Z" fill="#e6c367" fill-rule="evenodd"/>
        <path d="M173.64,183.36c-.95.67-2,1.2-3.11,1.55-.34-1.21-.83-5.39,2.04-9.47,3.35-4.91,10.68-11.26,12.72-16.32,1.31-3.25.73-11.41,12.38-21.85,11.65-10.44,16.21-14.03,16.21-14.03l18.84-9.47,23.16,9.13-11.5,45.09-8.93,21.12-35.52-6.7-26.28.94h0Z" fill="#dcba5a" fill-rule="evenodd"/>
        <path d="M187.2,171.12l4.42-5.53v-3.93s4.9-1.31,10.19-6.7,12.62-15.73,19.08-15.1c6.46.73,7.09,14.03,7.33,17.77s1.07,12.23,2.38,16.8c1.46,4.56-15.73,21.84-15.73,21.84l-11.67,8.88-16-34.03h0Z" fill="#e9ce77" fill-rule="evenodd"/>
        <path d="M200.87,217.18s3.59-5.63.96-6.84c1.55-3.49,4.42-7.18,4.42-7.18,0,0,2.04-5.05,8.64-11.26s10.68-10.34,11.75-14.52c.66-2.72,1.02-5.5,1.07-8.3.71.58,1.48,1.1,2.28,1.55,1.07.49,6.12,4.66,5.39,13.06-.73,8.4-3.84,11.89-3.84,11.89,0,0-3.01,3.01-5.14,4.56-2.28,1.55-3.11,3.35-6.94,3.49.39-.31.84-.56,1.31-.73,0,0-3.98-.48-6.12,1.46s-6.68,7.91-8.96,9.71c-2.28,1.46-4.8,3.11-4.8,3.11h0Z" fill="#cdae50" fill-rule="evenodd"/>
        <path d="M362.28,122.76c-5.74-2.09-11.76-3.27-17.86-3.49-10.2-.34-25.1.24-39.71.34-15.73.1-30-5.39-49.8-6.36-3.25-1.94-11.52-10.44-37.33,7.57,1.55-.1,18.74-3.98,24.71,3.5,6.02,7.43,4.32,20.05,3.5,23.06-1.56,6.7-6.6,16.46-8.64,23.3s-1.56,10.44-3.01,15.24-4.66,7.18-2.77,12.72c2.52-1.55,3.84-1.55,8.06-11.02,4.22-9.47,3.35-16.21,10.34-24.22,6.84-8.06,18.24-19.08,22.57-21.85s38.74-20.63,74.76-3.59c8.69-.92,15.19-15.2,15.19-15.2h0Z" fill="#d2a83e" fill-rule="evenodd"/>
        <path d="M232.09,116.16c-.04-.36-.12-.72-.24-1.07-.34-.71-.78-1.36-1.31-1.94,0,0-8.54-1.55-12.86-1.07-7.57.83-14.42,10.2-17.62,15-3.2,4.81-7.18,12.23-11.5,16.07.05-.37-.04-.75-.24-1.07,0,0,.24.34-.24.83s-.49.73-.24.96l.73.73c.24,0,6.94-3.01,16.07-11.52,9.71-8.88,17.14-13.44,21.02-15,2.07-.88,4.24-1.52,6.45-1.91h0Z" fill="#c29637" fill-rule="evenodd"/>
        <path d="M397.82,79.66s-1.56,1.94-3.5,4.08c-4.32,4.56-9.95,9.71-14.76,15-4.56,5.05-9.71,8.98-15.48,15.58-5.78,6.6-12.48,13.93-14.18,16.07-1.55,2.14-2.76,5.63-2.76,7.43-.83-.58-1.8-1.21-1.8-1.21.41.76.9,1.48,1.46,2.14,1.21,1.7,3.1,3.84,4.08,5.15,1.19,1.66,2.05,3.54,2.52,5.53.58.1,4.32.83,8.98-6.84,4.66-7.67,10.77-16.07,10.77-16.07l9.71-14.42,6.12-12.23,7.68-13.69,1.17-6.51h0Z" fill="#ac8132" fill-rule="evenodd"/>
        <path d="M407.77,69.86s-5.88,4.8-8.16,7.68-7.68,10.44-7.68,10.44l1.94-.24,9.86-8.74,3.84-6.84.2-2.28h0Z" fill="#a88f33" fill-rule="evenodd"/>
        <path d="M405.97,455.63s-.1-3.98,2.14-6.36c2.28-2.38,8.06-5.88,13.69-18.98,5.63-13.11,6.26-16.07,6.26-16.07,0,0-10.1,8.64-16.32,10.68,1.46-3.01,2.28-5.15,3.01-6.7-.83-.73-4.32-1.55-4.66-1.94,1.94-1.94,3.01-6.7,6.94-9.86,5.05-3.84,14.27-10.44,21.44-16.32,7.17-5.88,21.26-19.56,23.06-23.54,1.07,1.55,1.31,2.52,1.31,2.52,0,0-7.08,9.23-10.77,15.1-3.25,5.05-3.01,7.91-3.01,7.91l6.7-2.88s1.94,7.18-6.84,18.11c3.84-1.46,5.39-.58,7.57-1.8-3.59,2.28-8.54,5.39-13.2,13.93-4.56,8.54-10.78,18.5-21.26,24.71-10.2,6.55-16.07,11.46-16.07,11.46h0l.03.03Z" fill="#a67a2e" fill-rule="evenodd"/>
        <path d="M379.66,127.82s-3.98,8.3-4.56,14.76c-.1,1.56-.49,2.77-.49,4.56-.1,5.78.34,12.23-.96,15.24-.49-1.21-.73-2.04-1.22-2.52-.73,2.04-2.04,8.4-3.11,10.77-.48-1.55-1.55-6.94-1.45-13.3.1-6.36.24-7.57.24-8.88-.24,1.94-1.55,4.56-2.04,6.12-.73-1.31-1.55-3.01-2.52-4.42-.58.96-1.31,2.38-1.94,3.11-.1-.58-.34-2.14-.49-4.32-.1-2.52-.24-5.78-.1-6.46.24-1.31,2.28-6.45,6.6-11.16,5.15-5.63,10.44-16.45,11.99-19.8s8.15-17.28,8.15-17.28h5.05l-7.33,16.7s-4.42,9.13-6.7,12.48-7.09,12.96-9.23,16.7c1.55-2.04,2.86-3.11,4.42-5.05,1.5-1.36,5.68-7.23,5.68-7.23h0Z" fill="#8c6228" fill-rule="evenodd"/>
        <path d="M407.87,69.22c-.82,2.54-2.13,4.9-3.84,6.94-3.01,3.59-9.47,8.4-12.62,12.23-2.88,3.74-8.64,13.93-6.02,26.02.96-2.62,2.77-7.81,7.57-13.69,4.81-5.88,9.95-12.62,12.48-17.86,2.52-5.29,2.86-9.47,2.86-9.47l.96-1.21-.58-2.77-.83-.2h.02Z" fill="#cba94c" fill-rule="evenodd"/>
        <path d="M506.17,391.21s-1.94-5.29-2.52-10.1.96-5.76-.83-11.26c-1.07-3.35-3.01-2.88-3.49-3.35s-.83-5.53-.73-8.3-.1-6.36-.58-7.91c-.73-.58-1.21-1.07-2.28-4.66-1.21-3.59-1.8-5.39-2.38-6.45s-2.28-2.04-2.28-3.11c0-2.14,1.94-3.25,1.94-3.84-.1-1.21-1.55-.24-1.94-.58-.48-.58,1.22-4.08.59-4.56-.24-.24-1.94,1.8-2.38,1.22-.49-.59-1.07-6.36-1.94-10.2-.82-3.74-1.7-6.45-1.8-7.57-.1-1.07-6.7-19.9-8.3-24.47-1.29-3.86-2.37-7.78-3.25-11.75-.49-2.28-.83-6.94-1.07-6.46s-.1,2.86-.49,2.77c-.34-.1-1.55-8.4-1.94-9.71-.34-1.31-2.38-5.76-2.88-8.98-.49-3.25-1.55-11.75-2.28-17.53s-1.07-8.15-1.07-9.6c.12-3.54-.08-7.08-.58-10.58-.96-6.12-2.88-13.55-4.56-17.86-3.25-8.16-11.89-29.03-13.44-34.22,0-1.31,1.7-.58,1.7-.58,0,0,4.22,10.58,7.33,18.74,3.01,8.16,5.88,15.34,6.6,16.07.58.73,5.15,8.74,7.18,21.84s2.76,25.19,3.98,33.25c.58,3.84,1.07,7.91,2.28,11.99,1.31,4.42,3.35,8.98,6.02,15.97,2.28,5.88,3.98,10.78,4.9,15,1.07,5.39,1.07,9.47,1.7,12.14.59,2.28,1.46,6.84,3.5,13.44s5.05,15.1,7.08,20.39c3.98,10.58,5.76,19.42,6.36,24.13.53,4.85,2.33,21.65,1.84,26.7h0Z" fill="#a88f33" fill-rule="evenodd"/>
        <path d="M408.11,68.64l-.24.58s.73.24.58,1.22c.01,1.33-.07,2.66-.24,3.98-.24,1.7-.73,3.01-.82,4.08,0,2.28.34,4.9-2.88,11.41-.96,1.8-1.55,3.35-2.04,4.42-1.21,2.62-1.46,3.01-2.52,4.22,1.7-.96,7.82-4.8,10.92-4.22-2.13,1.21-5.39,3.59-7.43,6.7.49.1,2.52.49,5.76,0,5.39-.83,11.41-2.77,16.7-2.38,5.78.34,3.5-6.94,3.5-6.94l-6.67-14.66-12.62-8.88-1.99.48h0Z" fill="#be9c44" fill-rule="evenodd"/>
        <path d="M441.02,178.45s-5.63-5.63-7.91-24.96c-2.28-19.42-1.8-48-1.8-48l-4.56-11.16s-.96-7.43-3.35-10.19c-2.39-2.76-7.08-7.43-9.22-9.71s-4.56-5.39-6.02-5.88c.73-1.21,3.98-8.06,16.45-8.15,12.47-.1,16.32,6.84,17.62,9.37s7.18,13.44,9.37,34.24c2.04,20.77,2.14,22.33,1.8,29.51-.24,3.98-1.56,13.2-3.84,23.06-2.09,8.35-4.37,17.67-8.54,21.89v-.02Z" fill="#a17c34" fill-rule="evenodd"/>
        <path d="M423.36,195c1.88.14,3.75-.29,5.39-1.22,1.8-.1,8.3.73,13.3-5.63.34,1.45,1.22,5.39-1.07,8.88,1.22-1.22,3.01-1.7,3.25-2.04.1,1.8,1.8,7.33-5.39,20.77,1.94-2.13,4.22-2.04,6.26-2.28.1,2.52,1.46,11.02-2.13,15.58-2.38,3.11-6.26,2.13-6.26,2.13.06-.68.06-1.36,0-2.04-.1-1.31-.58-2.62-.24-3.49-1.88-.86-3.59-2.04-5.05-3.5-4.22-3.98-9.71-10.77-10.1-15.82-.49-5.63,4.56-6.84,4.56-6.84-.42-.38-.78-.82-1.07-1.31-.24-.82-.49-2.13-1.46-3.2h0Z" fill="#8c6228" fill-rule="evenodd"/>
        <path d="M385.92,133.93s-.24-.34-1.55,1.21c.24-1.55.49-3.01.58-4.42.62-1.3,1.42-2.51,2.38-3.59-.73,1.45-1.22,2.76-1.22,2.76,0,0,1.8-3.35,4.42-5.39,1.8-1.46,4.08-2.13,5.05-3.49,1.07-1.46.83-1.7,1.07-1.94,0,0,2.38-1.55,6.02-6.12.48-.58,1.21-1.21,1.7-1.8.82-.34,2.76-1.21,5.05-2.38,2.38-1.31,5.05-3.1,6.7-3.84,3.25-1.46,6.7-1.31,8.3-3.59,1.21-.34,2.52-3.98,2.28-7.08,1.8.73,11.02,6.45,14.18,18.98,2.28,8.88-1.8,22.57-3.5,29.18s-1.94,11.5-4.32,14.51c-3.01,3.98-12.72,9.6-15.1,12.38-2.04,2.28-8.15,8.06-7.91,12.23.24,3.11,4.08,4.8,4.91,5.39s.82,1.31,2.38.96,2.13-1.07,2.77-1.07c.73.1.73.24,1.07.24.25,0,.49-.04.73-.1,0,0-.24,4.42-10.58,5.76-.73.1-1.46.34-2.38.49,1.22-.58,1.94-.58,3.25-2.38-1.46-.24-5.63-.49-6.7-.83.34-.58,1.46-2.14,2.38-2.86.83-.73-.1-.96-.82-.58-1.25.85-2.45,1.77-3.59,2.76-1.21,1.07-2.28,2.52-4.22,3.84-.58-1.94-.49-5.63,1.8-8.3-.59.1-1.7,1.8-2.77,1.46-.19-1.77-.08-3.56.34-5.29.58-2.19,3.74-6.02,3.74-6.02l15.24-27.24,3.25-20.63-34.9,6.78h0Z" fill="#92723a" fill-rule="evenodd"/>
        <path d="M385.1,135.1s-.83.58.83,1.7c-.24.34-.83,1.55-1.56,2.38-.82.96-1.7,1.56-2.04,2.38-.73,1.7-1.31,2.86-1.31,3.59s-.24,5.39-2.28,8.4c-.73,1.07-1.56,2.86-2.14,4.08-1.21,2.13-2.28,3.84-2.52,4.8-.48,1.7-.82,6.36-.82,6.36,0,0,1.07-1.31,1.46-1.8-.59,1.21-1.22,2.52-2.14,3.49.58-.49,2.28-1.7,5.15-4.22,3.98-3.35,10.2-8.98,17.77-13.44-2.28.83-4.22.83-5.78,1.07,1.21-1.21,12.13-14.03,17.86-15.24.35-.44.52-.99.49-1.56l-4.91-.48-9.95,2.13-1.45-7.68-6.65,4.03h0Z" fill="#b18e3e" fill-rule="evenodd"/>
        <path d="M400.92,178.79s-1.31,1.31-2.52,4.56c-.93-.97-1.73-2.07-2.38-3.25-1.8-3.01-4.56-6.84-11.02-4.66-.1-2.04-.24-3.11,0-4.56,1.07-.24,4.32-2.86,7.57-6.7,2.28-2.62,4.42-5.63,5.88-9.47.96-.73,2.62-1.94,4.8-3.35,3.11-2.13,6.84-5.05,7.43-8.3-1.46.58-4.56,2.04-9.23,1.8,1.8-.83,4.56-1.7,4.22-5.29.73-.49,1.31-.83,1.31-.83-.55-.18-1.12-.26-1.7-.24-.1-.34-.24-.82-1.07-.58s-.96.24-1.07.58c-.34.1-1.46,0-2.28.59s-3.11,2.52-3.98,2.86c.34-.58.82-1.45.82-1.45,0,0-2.38.24-4.08.96-3.11,1.07-6.7,3.01-10.34,4.9.34-.58.49-.96.73-1.07s.83-.24.83-.34-.24-.96-.1-1.31c1.09-2.31,2.37-4.52,3.84-6.6,1.7-2.28,2.04-5.54,2.04-5.54l7.43-3.74,20.87-4.8,13.55.83-1.7,9.37-8,16.36-6.84,14.9-7.82,9.13-7.18,5.24h0Z" fill="#543e26" fill-rule="evenodd"/>
        <path d="M434.76,138.24s-8.16,10.1-10.44,11.65c1.46-3.11,10.44-21.6,13.69-26.75-.73-.58-1.7-.58.58-9.6-1.94,4.56-2.62,6.94-4.22,8.15s-1.8.83-2.88.83c.2-.37.29-.79.24-1.21,0,0-6.84-.83-11.52-.83s-13.93,2.52-19.08,4.56c-4.08,1.7-6.36,1.7-7.81,2.76-1.46,1.21-2.28,2.52-3.01,2.86-.58.34-3.35,1.21-3.98,2.13-.58.96-1.55,2.04-1.55,2.28s-.24.59.49.34c.24-.1,2.04-1.07,4.08-2.28,2.76-1.55,6.12-3.35,8.54-4.42,6.94-2.77,9.13-2.28,12.23-2.86,3.25-.58,7.91-1.94,11.02-1.94,3.11-.1,8.98,0,10.34.24-.58.49-1.07,1.07-.83,3.11,0,.58-.49,1.21-.96,2.62-1.45,3.98-4.22,10.58-5.76,13.93-2.13,4.56-4.56,8.4-5.76,10.77s-3.84,8.64-6.45,11.99-3.98,5.39-4.8,6.12-6.7,5.05-6.26,6.6c1.07-.34,7.82-2.88,12.72-8.4,4.9-5.52,5.88-8.88,9.71-11.89s6.84-8.06,8.64-12.23c1.5-3.88,1.16-5.1,3.06-8.54h-.01Z" fill="#806031" fill-rule="evenodd"/>
        <path d="M258.98,213.59s-1.07,4.42-3.5,6.6c-2.38,2.14-6.6,3.98-7.08,7.57-.58,3.59,4.22,5.39,4.22,5.39,0,0-2.62,4.32-2.62,7.57s-.1,3.98.24,7.18c-.38.25-.71.58-.96.96,0,0,.24,3.11,2.62,5.05s4.42,3.11,5.63,2.62c.19.4.35.8.49,1.22,0,0,1.8-4.56,3.01-8.54,1.21-4.08,2.28-3.5,2.76-8.98s5.76-14.9,5.76-14.9l3.6-8.05-5.87-4.56-8.3.87h0Z" fill="#b6903c" fill-rule="evenodd"/>
        <path d="M269.9,221.5c-1.21,1.24-2.33,2.57-3.34,3.98-1.55,2.14-2.76,4.08-5.05,4.91s-3.74.82-3.59,3.11,2.28,3.25,3.49,4.42c1.31,1.21,2.38,3.25,1.8,5.54.73-.34,2.04-.73,3.25-3.35s9.7-18.59,9.7-18.59h-6.26Z" fill="#685026" fill-rule="evenodd"/>
        <path d="M303.36,184.66s.73-1.94,0-3.35c-.73-1.46-5.15-1.94-7.33-3.59-2.28-1.7-5.05-2.88-7.33-2.13.34-.83,1.7-2.62.58-3.01-1.07-.34-5.05,1.46-6.12,2.28s-3.5,1.8-3.98,2.38-1.31,1.7-1.8,1.21c-.49-.34-.73-1.21-1.55-.73s-4.8,3.74-5.53,5.63-2.38,6.12-7.33,10.92-7.09,7.91-5.63,9.71,2.14.49,2.38,2.04c.19,1.52.1,3.07-.24,4.56-.58,2.52-1.55,4.9-.24,5.39,3.35,1.07,6.6-.96,7.33-.34,1.46,1.31-.83,6.02,2.62,6.94,3.5.96,6.94-.83,6.94-.83l12.72-6.84,12.23-6.45,6.26-12.38-3.36-10.34-.64-1.07h.02Z" fill="#d4b968" fill-rule="evenodd"/>
        <path d="M291.36,214.22s-2.14-3.25.49-6.12,6.36-4.08,7.81-5.87c-.28-.34-.65-.59-1.07-.73.97-1.73,2.44-3.12,4.22-3.98-.73-.73-1.7-1.31-2.76-1.31-2.38,0-3.84,1.46-6.02,1.46s-2.38-1.07-2.38-1.07c0,0,3.59-.34,3.25-1.94-.34-1.7-.96-1.7-.96-1.7,0,0,6.94-2.88,8.15-4.42s1.07-3.35,1.31-4.08c.82,0,5.63-2.52,7.57-1.46s.58,3.98.58,3.98c0,0,5.88-4.42,8.87-8.75,2.62.24,3.84-1.8,5.76-1.8,2.38,0,6.12,3.25,6.84,10.19.49,3.98,1.21,6.26.49,13.3-.34,3.98-.24,12.48.96,16.7.82,3.35,2.76,3.01,2.76,3.01-.3,1.02-.89,1.93-1.7,2.62-1.31,1.21-1.46,4.42-1.31,5.63.19.89.44,1.76.73,2.62,0,0-1.55,1.8-1.94,3.01-.34,1.21-1.94,2.04-3.11,2.04s-.58-.1-2.13,0-2.04.34-3.01,0-1.7-.73-1.31-3.84c.34-3.11-11.99-10.34-11.99-10.34l-20.16-7.18h0l.04.02Z" fill="#cca849" fill-rule="evenodd"/>
        <path d="M268.2,244.9s4.42,5.88,22.57,5.88c8.64,0,11.65-.83,13.44-1.31,1.94-.49,9.22-3.35,16.55-11.99,6.6-7.81,5.15-11.02,5.15-11.02l-3.84-.58-12.48,1.7-36.93,15.73-4.48,1.6h.02Z" fill="#585136" fill-rule="evenodd"/>
        <path d="M281.75,246.36s-15.73,3.5-15.73-6.45,9.71-19.9,12.14-21.7c2.52-1.8,8.54-3.84,8.54-3.84h14.52l2.76,7.33-1.21,15.82-21.02,8.84h0Z" fill="#252211" fill-rule="evenodd"/>
        <path d="M296.26,217.33s-3.01-2.77-9.85.96-12.38,11.52-12.72,18.6c-.34,6.26,5.15,10.92,13.69,11.16,6.36.24,10.2-.49,12.14-.96-.49-.58-3.01-3.74-3.01-3.74l-.24-26.02h0Z" fill="#c3b378" fill-rule="evenodd"/>
        <path d="M293.3,218.88s-.73-.58-2.88.58c-1.8.96-4.42,3.5-6.45,5.29-1.31,1.07-2.14,1.55-2.88,2.38-3.01,3.59-5.54,9.47-4.08,12.38s6.26,6.26,18.5,3.98l-2.24-24.61h.04Z" fill="#e6d89c" fill-rule="evenodd"/>
        <path d="M289.32,224.9s-1.94,3.01-1.94,7.82,2.77,12.72,12.96,13.3c7.81.49,13.06-11.26,18.74-15.82,4.32-3.49,6.94-3.59,6.94-3.59,0,0-4.42-4.8-16.21-11.02-11.65-6.26-24.71-7.09-31.8,2.52,3.35-.24,14.18-3.01,14.18-3.01l5.29,1.7-8.16,8.11h0Z" fill="#252211" fill-rule="evenodd"/>
        <path d="M304.56,231.26c-.34-.73-.58-1.7.83-1.94s2.04-.1,2.52.96.96,1.94.24,2.38c-.73.39-2.62,0-3.59-1.41h0ZM302.28,224.42s-.49.34-.24-.34c.1-.82.73-2.28,2.28-1.94s1.22,2.04.96,2.52-1.55,1.31-2.52.96c-.43-.11-.69-.55-.58-.98.02-.08.05-.16.1-.23h.01Z" fill="#6f674d" fill-rule="evenodd"/>
        <path d="M170.88,227.52s3.84,2.88,8.3,2.77c4.42-.1,10.1-4.66,12.72-7.57,1.55-1.7,2.88-3.49,4.32-4.9,1.22-1.21,2.04-1.8,2.62-2.62.83-.96,1.7-2.76,2.14-3.35-1.07.83-2.62,2.28-4.22,3.25-1.55.96-4.9,2.76-6.26,3.25-1.31.49-14.9,7.68-14.9,7.68l-4.71,1.49h0Z" fill="#ac924c" fill-rule="evenodd"/>
        <path d="M176.75,191.65s2.13-1.46,6.26-2.38c3.98-.96,11.99-1.7,11.99-1.7l6.6,2.88,2.62,9.95-4.8,10.34-6.12,3.84-6.94-11.16-9.6-11.75h0l-.02-.02Z" fill="#9f8e57" fill-rule="evenodd"/>
        <path d="M168.11,200.53l-2.28,1.71s.59-1.07,1.07-4.32,3.01-11.16,6.7-15.73,3.59-4.32,3.59-4.32c-.69-.13-1.39.05-1.94.48.49-1.08,3.59-4.92,6.7-6.84,3.11-1.92,4.32-2.52,7.57-.96s4.08,2.38,6.46,2.28,4.42-2.62,4.42-2.62c0,0,.49,1.55-1.31,5.15s-8.88,10.92-8.88,10.92l-14.76,10.1-7.33,4.16h0Z" fill="#eac970" fill-rule="evenodd"/>
        <path d="M179.03,190.44s10.68,1.46,13.93-1.55c.1.34.49.34.49.58-.03.18-.11.35-.24.48.35-.06.71-.09,1.07-.1.43.13.87.21,1.31.24.36,0,.72-.04,1.07-.1-.07.49-.33.93-.73,1.22.49,0,.96.1.96.48s.1,1.56-.49,1.8c-.48.13-1,.1-1.46-.1.04.92.29,1.82.73,2.62.96,1.8,3.01,3.84,5.76,3.25,0,0,1.45,3.49-4.66,11.26-.82,1.07-1.7,2.52-2.76,3.74-.42.92-.74,1.88-.96,2.86,0,0,10.34-3.98,13.3-13.06,3.01-9.13,3.59-18.11,3.01-26.5-.1-2.38-.49-4.08-1.07-5.29-1.46-3.01-5.54-2.52-7.18-.83-2.38,2.38-6.36,8.3-11.89,12.38-5.63,4.08-5.87,4.8-10.2,6.6h.01Z" fill="#d7bc6b" fill-rule="evenodd"/>
        <path d="M166.21,203.55s-2.04,1.21-3.11,5.76c-1.07,4.66.96,10.34,2.13,12.13s3.84,6.7,9.37,6.94c1.37,0,2.72-.29,3.98-.83,1.93-.89,3.74-2.01,5.39-3.35,2.38-1.8,4.32-3.35,4.08-3.49-.58-.24-14.66-11.89-14.66-11.89l-5.29-5.91-1.89.64h0Z" fill="#585136" fill-rule="evenodd"/>
        <path d="M179.52,222.86s2.86-.24,4.56-1.31-9.95-12.62-9.95-12.62l.83,12.48,4.56,1.45Z" fill="#453a25" fill-rule="evenodd"/>
        <path d="M167.14,202.67s-1.46,2.77-1.46,3.5c-.24,2.38.49,9.85,1.07,12.23.58,2.52,3.74,6.36,7.82,6.36,2.52,0,6.02-1.55,6.02-1.94,0-.49-3.59-.96-4.56-2.77-.58-.96-.83-3.35-.96-5.76-.1-1.55-.1-3.25.49-3.84,1.31-1.46,1.55-5.63,1.55-5.63l4.66-8.66h-6.13l-7.33,4.56-1.16,1.95Z" fill="#84754b" fill-rule="evenodd"/>
        <path d="M165.34,205.34s4.8-6.36,9.13-7.82,6.26-.58,6.26-.58l-2.52,6.46-3.59,3.98.24,2.04s-.59,5.39,3.01,9.13,6.26,3.59,7.82,3.59,6.02-1.31,8.3-6.7c2.04-5.05,3.74-11.52-.34-18.01-3.98-6.46-11.02-6.71-12.38-6.71s-12.04.53-15.92,14.61h0Z" fill="#252211" fill-rule="evenodd"/>
        <path d="M288.59,226.94c-1.8-.83-.1-5.87,1.7-7.43s4.08-3.35,8.06-3.59c1.45-.1,2.86.83,2.62,1.8-.34,1.8-2.86,4.32-5.15,6.12-3.16,2.48-5.2,4.03-7.24,3.11Z" fill="#f7f7e7" fill-rule="evenodd"/>
        <path d="M191.5,199.42c1.31-.1,3.01.96,3.35,2.38.34,1.55-.83,4.66-3.35,4.66-2.04,0-3.11-2.52-3.11-3.25.02-.6.19-1.18.49-1.7.1-.15.34-1.85,2.62-2.09Z" fill="#f8f6de" fill-rule="evenodd"/>
        <path d="M172.57,200.53s-3.35,1.55-4.9,4.8c-1.11,2.4-1.44,5.08-.96,7.68.24,1.21,1.46,4.22,2.28,5.29s1.94,1.8,2.77,1.7,2.52-2.28,2.52-3.59.1-6.84,1.7-9.86c1.41-3.01-3.4-6.02-3.4-6.02h0Z" fill="#d4c38b" fill-rule="evenodd"/>
        <path d="M173.06,200.29c-.58.34-1.55.83-1.31,1.46.24.58,2.28.96,3.01,2.38.83,1.46.83,3.01.58,3.74.63-.3,1.21-.71,1.7-1.22,1.07-1.21,2.38-2.86,3.49-2.86.73,0,1.46.34,2.14.34,1.07,0,2.13-.34,2.28-1.46.24-1.46-2.04-2.77-3.35-2.52.24-.96.58-2.38-.49-3.35s-4.42.73-5.15,1.22-2.91,2.28-2.91,2.28h0Z" fill="#e2d59d" fill-rule="evenodd"/>
        <path d="M250.2,302.28l7.18-2.12,2.04,1.46s1.45,3.11,3.74,3.49c-.73,1.55-2.62,2.88-2.52,3.98s1.07,1.94,1.07,1.94c0,0-6.46,10.68,6.26,21.44-3.01,1.21-6.84,2.88-8.88,3.84,1.45.34,4.56.96,5.87,2.14s1.31,1.55,2.52,2.28,1.94,1.7,1.7,2.13c-.83-.49-3.59-1.94-4.08-.58s-11.99.83-11.99.83l-19.42,3.74s.73-1.94-1.31-3.74c-2.38-2.13-5.29.1-8.4-2.28-4.08-3.11-4.22-6.7-5.53-8.06,1.31-.83,3.98-2.04,10.34-2.88-.24-.49-1.07-1.94-.58-3.25.58-1.7,3.01-2.77,2.28-4.8,1.07-.24,1.55-.24,4.22-3.59,2.52-3.35,4.08-4.08,6.02-4.32s3.11,0,6.7-3.35c2.52-2.38,1.7-4.42,1.7-4.42,0,0,1.65-.53,1.07-3.88h0Z" fill="#cbac5a" fill-rule="evenodd"/>
        <path d="M228.98,303.36c.1-.49.49-.73,3.11-.49s19.22-1.55,23.74-1.8c4.56-.34,20.63-.1,28.45,1.55s15.73,3.59,19.56,4.56c3.84,1.07,5.05,1.45,4.9,1.94-.1.49-.96.96-1.46.83-.48-.1-13.2-3.98-17.13-4.8s-17.53-3.01-24.96-2.88c-6.94.1-9.71-.1-15.58.58-5.88.73-15.58,1.7-18.5,1.31-2.88-.34-2.28-.34-2.14-.83h0Z" fill="#d6bc6f" fill-rule="evenodd"/>
        <path d="M268.06,341.41s9.95,5.39,13.55,11.99c2.62,4.9-1.55,7.33-1.55,7.33,0,0,5.63,0,4.9,3.11-.34,1.94-9.71,7.18-15.97,9.95-6.36,2.77-6.12,2.62-9.22,3.11-3.01.49-11.26-.96-12.96,1.46s-.96,4.91-.49,5.29c.49.34,4.42.83,4.42.83,0,0-.83,2.28-8.98,2.52-8.15.24-10.2.82-10.68,1.7-.49.82,1.55.34,5.29.96,3.74.58,8.98.96,8.98.96,0,0-1.7,1.46-6.12,2.62-5.05,1.31-12.96,2.52-15.34,3.98,1.21.83,3.01,2.04,3.84,2.13-2.04.49-4.91,1.56-5.39,1.94.73.49,1.7,1.07,1.7,1.07,0,0-4.08,4.9-6.46,6.12s-16.07,7.57-20.78,6.36c-11.75-3.11-13.2-15.97-16.07-16.94-4.32-1.46-6.36,1.45-10.2-.59,1.7-1.21,2.62-1.94,4.42-2.76-1.94-.96-11.99-7.33-11.99-7.33-1.05-2.29-2.22-4.53-3.49-6.7-1.94-3.35-4.8-7.82-6.94-11.75-4.66-8.64-4.9-12.62-9.13-17.52.73-.96,3.25-.83,3.25-.83l35.39,11.65,62.76,1.82,16.32-23.3,6.94.83h0Z" fill="#dfc677" fill-rule="evenodd"/>
        <path d="M175.1,376.94c.38.42.82.78,1.31,1.07,1.22.83,3.01,1.8,4.22,3.25.49-.73,1.7-2.04,3.84,0s4.8.59,6.45,1.07c1.7.59,1.8.83,1.8.83,0,0,.96-.83,3.11-1.7,1.31-.49,2.86-.83,4.56-1.31,1.55-.34,3.25-.83,4.42-.83,1.07.73,4.9,4.8,20.29-1.21,14.52-5.63,17.86-6.26,20.29-5.39.24-.58.49-1.7,4.22-1.55,0-1.55-3.11-6.84-3.11-6.84l-17.14-5.87h-9.37l-28.11,5.15-15.57,8.89-1.21,4.48v-.02Z" fill="#c4a859" fill-rule="evenodd"/>
        <path d="M165.73,367.09s.34,2.62,4.22,5.39c3.84,2.76,5.05,4.42,5.05,4.42,0,0,.73-.96,1.31-1.94.58-1.07,1.07-2.28,2.04-2.62,1.94-.83,6.36.73,7.33.48.83-.24.58-1.94,1.46-1.94,2.04-.1,3.35,1.31,4.08,1.31s2.52-.1,2.76-.48.34-4.42,3.11-6.36c3.01-2.13,6.7-1.21,7.68-.73,0,.73.1,2.52,2.04,2.62s2.13-.24,3.84.34,3.74-.1,4.66,2.76c.83-.24,2.77-.48,2.28-3.25.96-.73,1.8-1.21,3.84-4.08.49-.73,1.31-1.55,1.94-2.62,1.7,0,3.74-.34,6.45,2.04-.83.58-1.31.96-1.55,1.55.71.7,1.36,1.47,1.94,2.28.73.96,1.22,2.14,2.14,2.38,2.04.58,5.39-.24,9.13,0,3.59.24,6.6,1.55,7.91,2.38.49-.24.49-.34,1.7-.1s2.13.34.83-1.21c.73.34,1.55,1.07,2.28.34s1.31-1.8,3.35-2.04,2.77.1,3.59-2.04c1.07-2.62-2.62-2.62-2.62-2.62,0,0,1.7-1.56,3.59-3.59,2.28-2.13,4.9-4.9,5.53-8.3,1.07-6.26-5.05-7.08-5.05-7.08l-29.66,9.13-36.26-1.8-30.92,15.39h-.02Z" fill="#927d49" fill-rule="evenodd"/>
        <path d="M139.08,281.41s-.96,1.21-1.55,4.08-.34,2.52-.83,4.56-6.46,22.33-4.22,29.17,6.12,9.37,8.54,14.9c.49,1.21.96,1.94,1.21,3.01.83,3.59.1,6.36,1.07,9.95.34,1.21,1.22,2.62,2.52,4.08,2.88,3.01,7.57,5.87,9.6,7.91,2.86,3.01,6.94,9.13,12.13,9.71,2.77.34,6.7-.83,9.95-2.76,2.88-1.8,4.66-4.32,7.68-5.76,2.13-1.07,4.42-1.46,6.45-1.94,4.22-.83,8.06-.96,10.34-.49,3.49.73,11.75,3.25,16.32,3.25,3.57-.06,7.13-.55,10.58-1.46,6.94-2.04,15.34-5.54,20.87-7.09,3.25-.96,5.87-1.21,8.54-1.8,4.56-1.07,8.4-2.52,10.58-5.29-1.46-1.7-3.25-4.32-12.96-4.22-11.02.24-23.74,6.36-30,7.33-6.26.97-8.98,1.8-15.97-.73-6.85-2.55-7.08-4.24-7.08-4.24,0,0-7.2-5.03-10.21-17.87-3.01-12.83,0-22.18,7.82-31.07,2.04-2.28,1.55-4.32,1.55-4.32,0,0,5.15-6.94,3.74-13.44-1.55-6.46-11.5-5.15-11.5-5.15l-55.19,9.65h0Z" fill="#6e6342" fill-rule="evenodd"/>
        <path d="M147.38,303.01c-.43.8-.63,1.71-.58,2.62.1,1.31.49,3.01,4.42,6.84,3.35,3.35,2.62,7.08,2.62,7.08,0,0,1.69.34,6.26-1.8,3.59-1.7,4.8,1.31,4.8,1.31,1.05-.55,2.18-.91,3.35-1.07,1.06-.1,2.09-.43,3.01-.96,0,0,4.22,4.32,7.91,6.36,3.35,1.8,5.29,3.01,6.94,1.8,1.55-1.07,1.55-3.25,1.45-4.22-.39-.89-.87-1.74-1.45-2.52-1.07-1.55-2.77-3.35-2.88-4.8-.24-3.35,2.52-7.33,1.94-8.3s-2.76-1.21-8.15.73c-5.58,1.84-29.66-3.06-29.66-3.06h.02Z" fill="#39331f" fill-rule="evenodd"/>
        <path d="M160.1,324.71s-2.76-2.62-1.8-15.34c1.17-.02,2.35.1,3.49.34,0,0,1.51,9.86-1.7,15Z" fill="#292311" fill-rule="evenodd"/>
        <path d="M140.39,271.7c.39-.29.74-.61,1.07-.96-.96,1.8-5.39,8.98-1.8,20.29,3.59,11.26,12.62,19.66,23.74,20.05,11.12.39,16.96-5.05,23.64-13.2,2.62-3.25,5.63-7.33,8.3-10.1,3.98-4.32,7.09-5.54,7.09-9.71,0-8.54-8.74-12.38-21.6-16.21-12.86-3.83-24.47-3.36-30.49-.74-5.87,2.86-8.4,5.87-9.95,10.58h0Z" fill="#252211" fill-rule="evenodd"/>
        <path d="M181.7,328.54l.96-.49s.24-3.84,1.8-3.74c1.55.24,2.28,2.28,2.13,3.01-.1.73-.48,1.94-2.04,1.8-2.04.05-2.86-.58-2.86-.58h0Z" fill="#3f3824" fill-rule="evenodd"/>
        <path d="M177.38,312.23s.96-.34,2.13.83c.96,0,5.15-.49,6.46.34s1.7,1.55,1.7,1.55c0,0-4.9,1.07-7.57,0-2.72-.92-2.72-2.72-2.72-2.72Z" fill="#2d2815" fill-rule="evenodd"/>
        <path d="M198.98,312.96c0-.24-2.62-2.04-5.39-2.62-.49-.1-.59.24-.96.24-.24-.1-.34-.83-.34-.83l-1.57.83s-.24.34.58.96c.73.58,1.94,1.07,2.28,2.04s.34,1.31.49,1.46c.1.1,1.8,0,2.62-.49s2.38-1.28,2.28-1.6h0Z" fill="#82764f" fill-rule="evenodd"/>
        <path d="M174.47,322.82s.48-3.35,3.74-3.49c3.35-.24,3.98,3.01,3.98,3.01l-1.94,1.94s-1.46-2.09-5.76-1.46h-.02Z" fill="#2d2816" fill-rule="evenodd"/>
        <path d="M195.58,308.4s-1.8,1.94-5.78,2.52c-.34-.49-1.07-1.46,0-3.01s2.28-2.04,3.49-1.56c1.09.18,1.98.97,2.28,2.04Z" fill="#574f35" fill-rule="evenodd"/>
        <path d="M202.91,310.78c.1-.49-.24-.58,0-.83s1.56-.73,1.8-.49c.1.1,0,.49,0,.96s0,.96-.24,1.31c-.34.49-1.31.73-1.8.59s-.58-.83-.58-.96c.24-.1.82-.34.82-.58ZM211.2,305.54c0-.24.83-.73,1.31-.73.73,0,.73.58.83.73.24.1.24-.1.48.34s.59,1.21.34,1.7-1.21.82-1.45.73c-.34-.24-1.41-2.43-1.51-2.76Z" fill="#82764f" fill-rule="evenodd"/>
        <path d="M194.52,311.89s1.07.24,2.52,1.46c-.49.34-1.22.73-1.22.73,0,0-.1-1.12-1.31-2.19h0Z" fill="#6e6342" fill-rule="evenodd"/>
        <path d="M192.14,301.21c-.24-.24.73-.82,1.31-.73s.83.49,1.46.58.73-.24.96-.49,1.07-.1,1.21,0c.09.11.17.22.24.34.02-.37.2-.72.48-.96.38-.28.86-.37,1.31-.24.1.34.58,1.55.49,1.8s-1.55.59-1.8.34c.24.59,1.31,1.8,1.46,2.04s-1.07.83-1.55.73c-.68-.05-4.85-2.48-5.58-3.4h.01ZM198.5,293.16c-.09-.24-.26-.45-.49-.58-.34-.1-1.46,0-1.46.58s.96,3.84,2.04,5.54c1.22,1.7,2.04,3.1,2.86,3.49.54.24,1.17.03,1.46-.49.1-.24.34-2.04.24-6.26s-.24-8.3-.49-8.54-1.21-.24-1.55.24-2.52,5.29-2.62,6.02h0Z" fill="#585136" fill-rule="evenodd"/>
        <path d="M194.18,318.01s-1.7-1.07-3.35-.34c-1.55.73-1.46,3.59-1.46,3.59.71.28,1.51.19,2.14-.24,1.07-.73,2.43-1.94,2.67-3.01h0Z" fill="#574f35" fill-rule="evenodd"/>
        <path d="M197.38,321.85c-.1-.96-.96-.96-.96-1.46.12-.49.56-.83,1.07-.83.49,0,.96.58,1.56.96.58.34,1.46.96,1.55,1.7s-.96,2.76-2.13,2.76-.83-2.19-1.07-3.16h0ZM206.75,320.53s-1.94.58-1.8,0,.59-.73,1.22-.73c.32-.34.75-.54,1.21-.59.26-.01.52.07.73.24,0,0,1.31-.58,1.7-.24s.1.34.34.73c.31.43.51.93.59,1.46,0,.39-1.46,1.21-2.62,1.07-1.36-.29-1.12-1.7-1.36-1.94ZM218.06,318.35s.58.34.1.73c-.34.34-2.04.96-3.5,1.07-1.46,0-2.76.24-2.76-.24s1.21-1.46,1.94-1.7c.3-.37.74-.58,1.22-.58.58,0,2.86-.24,3.49-.34.58-.1,1.07.24.73.73-.14.34-1.21.34-1.21.34h0ZM221.41,303.36s-.73,1.55-1.55,1.55c-.83-.1-.83-.34-.83-.58,0-.34.83-1.21.73-1.46-.24,0-.83,0-.73-.58,0-.49.83-1.07,1.55-.96.55-.45,1.23-.71,1.94-.73.83,0,1.55.24,1.55.73s-.96,1.55-1.31,1.8c-.39.39-.87.64-1.36.24h0ZM210.34,332.05s-.96.1-.96.58c0,.24.24.24.58.1.2-.01.39-.04.58-.1.1.1.1.58.83.58.6-.08,1.18-.28,1.7-.58.58-.24,1.07-.49,1.07-.96-.24-.83-.73-1.22-1.46-1.22-.37-.02-.74.06-1.07.24,0,0-.24-.49-1.07,0s-.73.49-.49.73c.44.39.29.64.29.64v-.02ZM204.85,337.1c0-.24,1.21-.73,1.55-.58.34.1,1.31,1.94,1.31,2.13,0,.24-1.21.83-1.7.83s-1.31-.83-1.31-.96c0-.1.58-.24.58-.34.14-.24-.44-.83-.44-1.07h0ZM201.01,330.01c.24-.1.24-.34.58-.58.22-.14.48-.18.73-.1.17-.31.48-.52.83-.59.58-.1,1.07,0,.96.24,0,.73.49,1.21.49,1.8s-.34,1.31-1.55,1.8c-1.21.34-2.86.34-3.11.24s-.49-1.07-.24-1.56.92-1.02,1.31-1.26h0Z" fill="#82764f" fill-rule="evenodd"/>
        <path d="M202.56,330.34s-.83.49-.83.73c-.07.23-.11.48-.1.73,0,.14,1.07-.1,1.21-.24.05-.1-.29-.96-.29-1.21Z" fill="#6e6342" fill-rule="evenodd"/>
        <path d="M195.34,328.06c.48.1,1.31,0,1.94.24.49.24.83.73.34,1.31s-.96,1.46-2.04,1.31c-1.21-.1-2.38-.73-2.38-1.21-.04-.62.17-1.23.58-1.7.49-.39.73-.14,1.55.05h0Z" fill="#585136" fill-rule="evenodd"/>
        <path d="M194.76,328.54s-1.55,1.21-1.94,1.8c-.49.58-2.86,3.59-3.59,4.22.24-.43.52-.83.82-1.21-.96.61-1.68,1.54-2.04,2.62-.58,1.8,3.25,2.77,5.78,3.5s3.5.96,3.5.96c-.93-1.4-1.73-2.87-2.38-4.42-.96-2.28-1.46-2.52-.83-3.59.49-1.07,1.22-1.8,1.22-2.62-.29-.77-.53-1.25-.53-1.25Z" fill="#574f35" fill-rule="evenodd"/>
        <path d="M139.42,332.38c.35.06.72.06,1.07,0,.73-.1,8.3-2.88,16.21-2.38,5.92.36,11.8,1.32,17.52,2.88,9.95,2.62,22.33,7.81,30.34,10.78,2.13.82,4.22,2.28,5.76,2.86,6.12,2.38,6.36,2.38,9.95,3.01,4.22.58,8.54-.83,13.06-1.8,5.53-1.22,15-1.8,23.3-3.01,2.68-.37,5.33-.97,7.91-1.8,0,0-6.6,6.6-22.43,8.98-6.4.97-12.9,1.05-19.32.24-5.05-.49-8.4-1.22-10.92-1.94-2.86-.83-8.74-3.01-15.97-4.8-5.05-1.31-10.68-2.28-17.14-3.49-15.92-2.92-33.2-6.26-39.36-9.51v-.02Z" fill="#252211" fill-rule="evenodd"/>
        <line x1="131.16" y1="270.83" x2="90.73" y2="233.06" fill="none"/>
        <path d="M121.55,302.38c-3.84,3.25-7.91,6.36-11.89,9.37l-11.99,9.21c-4.08,3.01-8.06,6.12-12.14,9.13s-8.15,5.87-12.48,8.64c3.84-3.25,7.91-6.26,11.99-9.22,4.08-2.96,8.3-5.86,12.24-8.86l11.99-9.23c4.12-3.01,8.11-6.12,12.28-9.03h0ZM100.34,336.36s4.32-3.59,9.71-8.64c6.7-6.26,14.9-14.27,17.52-15.72l-27.24,24.37h0Z" fill="#cfb66c" fill-rule="evenodd"/>
        <path d="M100.34,336.36c2.14-2.13,4.42-4.22,6.7-6.26l3.49-3.01c1.07-.96,2.28-2.04,3.35-3.11,2.13-2.13,4.22-4.42,6.36-6.6,1.06-1.1,2.18-2.13,3.35-3.11.59-.52,1.24-.96,1.94-1.31.59-.34,1.22-.96,2.04-1.07-.48.73-1.07,1.07-1.55,1.7-.58.49-1.07,1.07-1.55,1.55-1.07,1.07-2.28,2.04-3.35,3.01-2.28,1.94-4.66,3.84-6.94,5.87s-4.42,4.22-6.7,6.26c-2.47,2.09-4.76,4.13-7.14,6.08h0ZM129.37,316.94s-15.82,15.49-19.08,18.01l19.08-18.01Z" fill="#cfb66c" fill-rule="evenodd"/>
        <path d="M129.37,316.94c-1.42,1.65-2.95,3.2-4.57,4.66l-4.8,4.56c-1.55,1.55-3.01,3.11-4.66,4.66-1.7,1.46-3.25,2.88-5.05,4.22l4.66-4.56c1.56-1.55,3.25-2.86,4.91-4.42l4.66-4.56c1.6-1.6,3.16-3.16,4.85-4.56ZM130.1,325.34c-1.46,4.07-3.18,8.04-5.15,11.89-4.08,8.16-10.19,18.35-12.86,23.55l18.01-35.44h0Z" fill="#cfb66c" fill-rule="evenodd"/>
        <path d="M130.1,325.34c0,1.8-.49,3.35-1.07,4.9-.57,1.55-1.21,3.08-1.94,4.56-.73,1.46-1.56,3.01-2.38,4.42s-1.8,2.86-2.52,4.32l-4.9,8.64c-1.7,2.88-3.35,5.78-5.15,8.54,1.21-3.11,2.86-6.02,4.42-8.88,1.7-2.88,3.25-5.76,4.8-8.74.76-1.48,1.44-3.01,2.04-4.56.73-1.56,1.45-3.01,2.04-4.42.73-1.55,1.31-3.01,2.04-4.42.82-1.51,1.5-2.96,2.62-4.37h0Z" fill="#cfb66c" fill-rule="evenodd"/>
        <path d="M147.38,365.15s-4.8,6.36-4.32,14.42c1.31-4.22,2.96-10.68,4.32-14.42ZM151.94,371.52s-1.7,17.28-3.11,25.78c1.99-9.82,2.38-9,3.11-25.78ZM183.74,398.32s-7.18,21.12-7.33,26.99c1.56-6.04,4.56-18.36,7.33-27v.02Z" fill="#dec270" fill-rule="evenodd"/>
        <path d="M200.53,363.84s11.65,19.22,20.39,35.63c-2.36-8.26-7.8-23.4-20.39-35.63Z" fill="#cbaf59" fill-rule="evenodd"/>
        <path d="M231.85,392.14c6.4,11.31,12.17,22.96,17.28,34.9-.97-8.25-3.59-22.38-17.28-34.9Z" fill="#e3c677" fill-rule="evenodd"/>
        <path d="M323.88,420.48c1.94-1.21,5.78-7.82,9.13-9.47,3.35-1.7,5.87-2.04,8.88-5.39,3.01-3.5,3.84-5.63,10.44-8.4,9.23-3.98,2.88-9.13,2.88-9.13,1.02-1,2.1-1.92,3.25-2.76,2.38-1.8,5.15-3.98,4.91-7.82-.34-6.45-1.55-15.82-6.84-21.26,5.15-1.07,15-1.8,21.12-3.35,7.08-1.8,10.34-4.32,10.34-4.32,0,0-4.08-6.94,2.52-13.93s11.99-11.16,15.97-18.98c-4.56-.58-11.52-3.01-29.27,3.74.96.45,1.88.97,2.77,1.55,0,0-10.92,3.01-14.9,6.36-6.94,5.87-7.82,10.68-15.34,14.27-7.52,3.59-15.1,2.62-21.36,5.53-6.26,2.91-7.18,5.39-9.47,6.46.49.58-.1,1.55.83,2.38-.58.83-3.98,6.36-7.43,6.36.34,1.31,3.25,2.28,3.25,2.28,0,0-2.13,1.56-7.57,1.94,2.76,2.88,5.39,6.02,12.62,10.58-.58,1.21-3.01,3.01-2.04,5.29,1.07,2.28,3.84,5.39,14.9,7.91-5.63.24-12.23,1.55-21.12.34-8.88-1.07-10.34-1.7-15.82-.34.58.58,2.13.58,3.49,2.13-1.46.1-10.58-1.07-13.69,3.01-3.25,4.22-4.66,11.16-4.42,15.82-1.7.83-3.35,2.28-2.52,5.29s5.15,3.98,7.91,5.87c2.76,2.04,3.01,2.76,5.63,2.28,2.76-.58,6.84-3.35,9.22-3.35s4.08,1.8,4.08,1.8c0,0,6.46-3.11,7.09-2.52.58.58.1,4.32.73,4.9.64.44,7.91-3.88,9.86-5.1h-.02Z" fill="#ecd592" fill-rule="evenodd"/>
        <path d="M465,226.21c-30.34-78.35-105.34-92.86-105.34-92.86h-213.98l.83,79.8h42.61v178.2h-43.44v79.66h208.06c50.14,0,90.34-50.39,90.34-50.39,64.37-91.36,20.92-194.42,20.92-194.42h0ZM354.85,366.94s-16.32,23.55-34.08,23.55h-35.52l-.84-177.14h45.58s21.12,4.42,35.88,46.21c0,0,19.56,59.84-11.02,107.38Z" fill="#fff" fill-opacity=".8" fill-rule="evenodd"/>
      </g>
    </g>
  </g>
  <path d="M300,300l-212.13,212.13C31.63,455.89,0,379.53,0,300,0,135.42,135.42,0,300,0,379.53,0,455.89,31.63,512.13,87.87l-212.13,212.13Z" fill="#cbc2bf"/>
  <path d="M319.57,168.72c0,16.2-5.9,27.3-17.7,33.2-3.4,1.7-14.2,4.1-32.4,7-11.8,2-17.7,6.5-17.7,13.6v29.8c0,1.3.4,5.1,1.1,11.4l1.1,11.8c0,3.7-.9,9.7-2.6,18.1-4.7,1-10.1,2.1-16.2,3.3-2-7.4-2.9-12.4-2.9-15.1,0-1.2.3-3.1.9-5.5.6-2.4.9-4.3.9-5.5,0-1.7-1.5-6.5-4.6-14.4h-5.7c-.7,1.2-1,2.8-.8,4.8,1,4.2,1.4,7.7,1.1,10.7-4.2,2.9-9.9,6.9-17.3,11.8-1.7-.5-2.3-.7-1.8-.7v-26.1c-.5-1.2-1.7-1.7-3.7-1.5h-4.4l-4.4,34.6c-3.4.2-7.6.2-12.5,0-1.7-8.1-4.8-20.1-9.2-36.1h-3c-2.7,8.6-4.2,13.3-4.4,14,0,1,.3,2.9.9,5.7.6,2.8.9,4.7.9,5.7,0,.7-.2,2.6-.7,5.5l-1.1,8.8c-.5.5-1.1.7-1.8.7-7.4,0-12.3-1.8-14.7-5.5-2.5-3.7-3.4-8.9-3-15.5l3-44.2c0-.7.2-1.7.7-3,.5-1.2.7-2.1.7-2.6,0-2-2.1-5.9-6.3-11.8-.7-.2-4.5-1.1-11.4-2.6-4.2-1-12.4-2.7-24.7-5.1-16.9-3.2-25.4-16.8-25.4-40.9,0-35.9,14.7-65.7,44.2-89.5,1.2,6.6,3.3,15.5,6.3,26.5,2.2.5,7,1.6,14.4,3.3,1.5.5,9,3.2,22.5,8.1-6.9-4.2-15.8-10.9-26.9-20.3-4.2-4.9-6.3-13.1-6.3-24.7,0-2.7,4.7-5.9,14-9.6,8.3-3.4,14.6-5.4,18.8-5.9,13.3-1.7,23.4-2.6,30.6-2.6,30.7,0,55.5,7.9,74.4,23.6-6.1,7.1-16.7,14.7-31.7,22.8,5.9.2,14.5-2.1,25.8-7,11.3-4.9,16.1-7.4,14.4-7.4,2,0,5.9,3.9,11.8,11.8,4.4,5.9,8,11.2,10.7,15.8,7.9,14,13.1,29.1,15.9,45.3,0,5.6.1,9.7.4,12.1v2.9h0l-.2.4h0ZM178.47,175.32c0-10.6-4.6-20.6-13.8-30-9.2-9.5-19.1-14.2-29.7-14.2-9.3,0-17.5,4-24.7,11.9-7.1,7.9-10.7,16.7-10.7,26.3,0,8.4,4,13.9,12.2,16.3,5.2,1.5,12.4,2.4,21.7,2.6h20.3c16.5.2,24.7-4.1,24.7-12.9M218.67,221.02v-11.4c-1.7-3.2-3.4-6.5-5.1-10-1.5-4.9-4.2-11.8-8.1-20.6l-4.1,43.1c0,3.4-.7,5.2-2.2,5.2-1,0-1.7-.2-2.2-.7-1.7-26-2.6-37.3-2.6-33.9v-12.9c-.5-.8-1.1-1.1-1.8-1.1-8.3,8.6-12.5,22.5-12.5,41.6,0,10.6,1,17.1,2.9,19.5,2-.5,4.2-1.4,6.6-2.6,1-.5,3.8-.7,8.5-.7s10.3,1.5,16.9,4.4c2.5,0,3.7-6.6,3.7-19.9M301.97,169.72c0-9.9-3.7-18.7-11.1-26.5s-15.8-11.7-25.4-11.7c-10.3,0-20,4.7-28.9,14.2-9,9.4-13.5,19.3-13.5,29.7,0,8.6,4.2,12.9,12.5,12.9h42.4c16-.2,23.9-6.4,23.9-18.5" fill="#130c0e"/>
</svg>