<?xml version="1.0" encoding="UTF-8"?>
<svg id="Layer_1" xmlns="http://www.w3.org/2000/svg" version="1.1" viewBox="0 0 800 800">
  <!-- Generator: Adobe Illustrator 30.1.0, SVG Export Plug-In . SVG Version: 2.1.1 Build 136)  -->
  <path d="M800,401.88c0,111.94-45.99,213.15-120.1,285.75H120.1C45.99,615.03,0,513.82,0,401.88S47.59,185.23,123.98,112.38h552.04c76.39,72.85,123.98,175.61,123.98,289.5Z" fill="#ff1821"/>
  <path d="M120.1,687.63c-6.95-6.81-13.66-13.87-20.1-21.17v33.54h33.31c-4.5-4.02-8.9-8.15-13.21-12.37ZM100,100v37.31c7.63-8.65,15.63-16.97,23.98-24.93,4.43-4.23,8.96-8.36,13.59-12.38h-37.57ZM662.43,100c4.63,4.02,9.16,8.15,13.59,12.38,8.35,7.96,16.35,16.28,23.98,24.93v-37.31h-37.57ZM679.9,687.63c-4.31,4.22-8.71,8.35-13.21,12.37h33.31v-33.54c-6.44,7.3-13.15,14.36-20.1,21.17Z" fill="#fff"/>
  <path d="M676.02,112.38c-4.43-4.23-8.96-8.36-13.59-12.38C592.2,38.89,500.42,1.88,400,1.88S207.8,38.89,137.57,100c-4.63,4.02-9.16,8.15-13.59,12.38-8.35,7.96-16.35,16.28-23.98,24.93v529.15c6.44,7.3,13.15,14.36,20.1,21.17,4.31,4.22,8.71,8.35,13.21,12.37,70.77,63.36,164.23,101.88,266.69,101.88s195.92-38.52,266.69-101.88c4.5-4.02,8.9-8.15,13.21-12.37,6.95-6.81,13.66-13.87,20.1-21.17V137.31c-7.63-8.65-15.63-16.97-23.98-24.93ZM198.25,385.88l-23.25-71.5,67.75,14.37c3.78.79,7.6-1.2,9.13-4.75l13.12-30.87,52.88,56.75c1.9,2.01,4.7,2.91,7.43,2.38,4.4-.84,7.29-5.1,6.44-9.51l-25.5-131.5,40.87,23.63c.16.09.32.17.48.25,4.01,2.01,8.89.38,10.9-3.63l41.5-81.5,41.5,81.5c.08.16.17.32.26.47,2.27,3.88,7.24,5.17,11.12,2.91l40.87-23.63-25.5,131.5c-.52,2.72.38,5.52,2.39,7.43,3.26,3.09,8.4,2.95,11.48-.3l52.88-56.75,13.12,30.87c1.53,3.55,5.35,5.54,9.13,4.75l67.75-14.37-23.25,71.5c-1.27,3.89.55,8.12,4.25,9.87l26.5,12.38-117.62,95.25c-2.71,2.19-3.71,5.86-2.5,9.12l14.5,40-107.38-18.87c-.84-.15-1.7-.2-2.56-.16-6.55.3-11.62,5.85-11.32,12.41l5.63,107.87h-22.5l5.63-107.87c.03-.86-.02-1.72-.16-2.56-1.12-6.47-7.26-10.81-13.72-9.69l-107.38,18.87,14.5-40c1.21-3.26.21-6.93-2.5-9.12l-117.62-95.25,26.5-12.38c3.7-1.75,5.52-5.98,4.25-9.87Z" fill="#fff"/>
  <path d="M100,137.31v529.15C37.77,595.95,0,503.32,0,401.88S37.76,207.82,100,137.31Z" fill="none"/>
  <path d="M512.38,512.5l14.5,40-107.38-18.87c-.84-.15-1.7-.2-2.56-.16-6.55.3-11.62,5.85-11.32,12.41l5.63,107.87h-22.5l5.63-107.87c.03-.86-.02-1.72-.16-2.56-1.12-6.47-7.26-10.81-13.72-9.69l-107.38,18.87,14.5-40c1.21-3.26.21-6.93-2.5-9.12l-117.62-95.25,26.5-12.38c3.7-1.75,5.52-5.98,4.25-9.87l-23.25-71.5,67.75,14.37c3.78.79,7.6-1.2,9.13-4.75l13.12-30.87,52.88,56.75c1.9,2.01,4.7,2.91,7.43,2.38,4.4-.84,7.29-5.1,6.44-9.51l-25.5-131.5,40.87,23.63c.16.09.32.17.48.25,4.01,2.01,8.89.38,10.9-3.63l41.5-81.5,41.5,81.5c.08.16.17.32.26.47,2.27,3.88,7.24,5.17,11.12,2.91l40.87-23.63-25.5,131.5c-.52,2.72.38,5.52,2.39,7.43,3.26,3.09,8.4,2.95,11.48-.3l52.88-56.75,13.12,30.87c1.53,3.55,5.35,5.54,9.13,4.75l67.75-14.37-23.25,71.5c-1.27,3.89.55,8.12,4.25,9.87l26.5,12.38-117.62,95.25c-2.71,2.19-3.71,5.86-2.5,9.12Z" fill="none" stroke="#c777d6" stroke-miterlimit="10"/>
  <path d="M800,401.88c0,101.44-37.77,194.07-100,264.58V137.31c62.24,70.51,100,163.12,100,264.57Z" fill="none"/>
</svg>