<?xml version="1.0" encoding="UTF-8"?>
<svg id="Layer_1" xmlns="http://www.w3.org/2000/svg" version="1.1" viewBox="0 0 600 600">
  <!-- Generator: Adobe Illustrator 30.1.0, SVG Export Plug-In . SVG Version: 2.1.1 Build 136)  -->
  <path d="M300,300l-212.13,212.13C31.63,455.89,0,379.53,0,300,0,135.42,135.42,0,300,0,379.53,0,455.89,31.63,512.13,87.87l-212.13,212.13Z" fill="#ffb579"/>
  <path d="M191.85,72.97c11.06-.8,19.88,9.98,26.21,17.94,20.53,25.81,30.8,38.71,40.1,52.11,7.86,11.34,49.03,70.66,76.22,63.18,9.47-2.6,13.92-12.41,17.08-10.6,4.35,2.48-.56,23.04-9.82,40.06-14.63,26.91-37.97,41.06-56.16,52.09-12.07,7.32-23.5,12.02-46.35,21.43-41.19,16.96-45.67,13.71-46.96,12.22-4.58-5.29,6.81-16.01,12.64-46.39,3.75-19.58,1.6-28.6.47-32.45-3.64-12.35-11.26-20.47-14.98-24.34-13.65-14.23-22.74-11.8-30.42-23.71-5.99-9.29-5.87-19.13-5.77-27.46.12-9.67,2.26-18.54,13.38-43.51,12.24-27.45,18.55-36.68,17.34-37.51-2.33-1.61-29.77,30.06-52.45,70-20.23,35.6-23.49,54.55-24.56,64.99-1.21,11.78-2.6,27.11,4.51,43.6,9.58,22.22,27.64,30.4,25.38,34.13-2.72,4.48-29.09-6.72-47.84-18.44-15.15-9.47-18.99-15.34-21.01-20.05-4.79-11.15-2.09-22.16-.56-27,3.43-5.94,8.62-14.87,15.08-25.63,21.1-35.11,34.9-58.08,54.34-82.73,8.82-11.19,21.99-26.76,39.91-44.13,3.02-3.24,7.89-7.34,14.23-7.79h0Z"/>
  <path d="M512.1,87.8c54.3,54.3,87.9,129.3,87.9,212.2,0,165.7-134.3,300-300,300-82.8,0-157.8-33.6-212.1-87.9" fill="#aae0fa"/>
  <path d="M460.3,502.1c-16.2,16.4-36,24.7-59.7,24.7-26.5,0-47.6-9.1-63.1-27.2-14.7-17.3-22.1-39.3-22.1-66.2,0-28.8,12.5-61.7,37.6-98.6,20.5-30.3,44.5-56.8,72.2-79.6-4,18.5-6,31.6-6,39.4,0,17.9,5.6,35.3,16.9,52.3,13.8,20.2,24.4,35.2,31.6,45,11.2,17,16.9,33.6,16.9,49.7,0,23.9-8.1,44.1-24.2,60.6M460,409.9c-4.3-9.7-9.4-16.1-15.1-19.2.9,1.7,1.3,4.2,1.3,7.4,0,6.1-1.7,14.7-5.2,25.9l-5.6,17.3c0,10.1,5,15.1,15.1,15.1,10.7,0,16-7.1,16-21.2,0-7.2-2.2-15.6-6.5-25.3" fill="#061922"/>
</svg>