<?xml version="1.0" encoding="UTF-8"?>
<svg id="Layer_1" xmlns="http://www.w3.org/2000/svg" version="1.1" viewBox="0 0 1200 600">
  <!-- Generator: Adobe Illustrator 30.1.0, SVG Export Plug-In . SVG Version: 2.1.1 Build 136)  -->
  <path d="M1200,300c0,164.58-135.42,300-300,300H300L900,0C1064.58,0,1200,135.43,1200,300Z" fill="#cbc2bf"/>
  <path d="M900,0L300,600C135.42,600,0,464.58,0,300S135.42,0,300,0h600Z" fill="#aae0fa"/>
  <path d="M1155.83,233.07c0,19.51-7.07,32.84-21.28,39.91-4.13,2.06-17.16,4.89-39.03,8.43-14.21,2.36-21.28,7.84-21.28,16.39v35.9c0,1.47.47,6.07,1.36,13.74l1.36,14.21c0,4.42-1.06,11.67-3.12,21.75-5.6,1.18-12.14,2.54-19.51,4.01-2.36-8.9-3.54-14.92-3.54-18.22,0-1.47.35-3.71,1.12-6.66.71-2.95,1.12-5.19,1.12-6.66,0-2.06-1.83-7.84-5.54-17.27h-6.9c-.88,1.47-1.24,3.42-.94,5.78,1.18,5.01,1.65,9.32,1.36,12.85-5.01,3.54-11.97,8.31-20.87,14.21-2.06-.59-2.83-.88-2.24-.88v-31.48c-.59-1.47-2.06-2.06-4.42-1.77h-5.31l-5.31,41.68c-4.13.29-9.2.29-15.09,0-2.06-9.73-5.78-24.23-11.08-43.45h-3.54c-3.24,10.38-5.01,15.98-5.31,16.86,0,1.18.35,3.48,1.12,6.9.71,3.42,1.12,5.72,1.12,6.9,0,.88-.29,3.12-.88,6.66l-1.36,10.67c-.59.59-1.36.88-2.24.88-8.84,0-14.8-2.24-17.75-6.66s-4.13-10.67-3.54-18.63l3.54-53.24c0-.88.29-2.06.88-3.54s.88-2.54.88-3.12c0-2.36-2.54-7.07-7.55-14.21-.88-.29-5.48-1.36-13.74-3.12-5.01-1.18-14.92-3.24-29.71-6.19-20.4-3.83-30.6-20.22-30.6-49.23,0-43.16,17.75-79.12,53.24-107.77,1.47,7.96,4.01,18.63,7.55,31.95,2.65.59,8.43,1.95,17.27,4.01,1.77.59,10.79,3.83,27.06,9.79-8.31-5.01-19.1-13.15-32.37-24.41-5.01-5.9-7.55-15.8-7.55-29.71,0-3.24,5.6-7.07,16.86-11.56,10.02-4.13,17.63-6.49,22.64-7.07,15.98-2.06,28.24-3.12,36.85-3.12,36.97,0,66.86,9.49,89.61,28.42-7.37,8.61-20.1,17.75-38.14,27.47,7.13.29,17.45-2.48,31.07-8.43,13.62-5.9,19.4-8.84,17.27-8.84,2.36,0,7.13,4.72,14.21,14.21,5.31,7.07,9.61,13.44,12.85,19.1,9.43,16.86,15.8,35.08,19.1,54.59,0,6.84.12,11.67.47,14.62v3.54h0l-.18-.18h0ZM985.92,241.03c0-12.73-5.54-24.76-16.63-36.14s-22.99-17.1-35.73-17.1c-11.26,0-21.17,4.78-29.71,14.27-8.61,9.55-12.85,20.1-12.85,31.72,0,10.14,4.89,16.68,14.62,19.63,6.19,1.77,14.92,2.83,26.18,3.12h24.41c19.81.29,29.71-4.89,29.71-15.51M1034.27,296.03v-13.74c-2.06-3.83-4.13-7.84-6.19-11.97-1.77-5.9-5.01-14.21-9.79-24.82l-4.89,51.88c0,4.13-.88,6.19-2.65,6.19-1.18,0-2.06-.29-2.65-.88-2.06-31.36-3.12-44.92-3.12-40.8v-15.51c-.59-.88-1.3-1.36-2.18-1.36-10.08,10.38-15.09,27.06-15.09,50.11,0,12.73,1.18,20.58,3.54,23.52,2.36-.59,5.01-1.65,7.96-3.12,1.18-.59,4.6-.88,10.2-.88s12.44,1.77,20.4,5.31c2.95,0,4.42-7.96,4.42-23.94M1134.49,234.25c0-11.91-4.42-22.52-13.32-31.9-8.9-9.37-19.1-14.03-30.6-14.03-12.44,0-24.05,5.66-34.84,17.1-10.79,11.38-16.21,23.29-16.21,35.73,0,10.38,5.01,15.51,15.09,15.51h51c19.22-.29,28.83-7.72,28.83-22.34" fill="#130c0e"/>
  <path d="M887.83,419.65c0,19.51-7.07,32.84-21.28,39.91-4.13,2.06-17.16,4.89-39.03,8.43-14.21,2.36-21.28,7.84-21.28,16.39v35.9c0,1.47.47,6.07,1.36,13.74l1.36,14.21c0,4.42-1.06,11.67-3.12,21.75-5.6,1.18-12.14,2.54-19.51,4.01-2.36-8.9-3.54-14.92-3.54-18.22,0-1.47.35-3.71,1.12-6.66.71-2.95,1.12-5.19,1.12-6.66,0-2.06-1.83-7.84-5.54-17.27h-6.9c-.88,1.47-1.24,3.42-.94,5.78,1.18,5.01,1.65,9.32,1.36,12.85-5.01,3.54-11.97,8.31-20.87,14.21-2.06-.59-2.83-.88-2.24-.88v-31.48c-.59-1.47-2.06-2.06-4.42-1.77h-5.31l-5.31,41.68c-4.13.29-9.2.29-15.09,0-2.06-9.73-5.78-24.23-11.08-43.45h-3.54c-3.24,10.38-5.01,15.98-5.31,16.86,0,1.18.35,3.48,1.12,6.9.71,3.42,1.12,5.72,1.12,6.9,0,.88-.29,3.12-.88,6.66l-1.36,10.67c-.59.59-1.36.88-2.24.88-8.84,0-14.8-2.24-17.75-6.66s-4.13-10.67-3.54-18.63l3.54-53.24c0-.88.29-2.06.88-3.54s.88-2.54.88-3.12c0-2.36-2.54-7.07-7.55-14.21-.88-.29-5.48-1.36-13.74-3.12-5.01-1.18-14.92-3.24-29.71-6.19-20.4-3.83-30.6-20.22-30.6-49.23,0-43.16,17.75-79.12,53.24-107.77,1.47,7.96,4.01,18.63,7.55,31.95,2.65.59,8.43,1.95,17.27,4.01,1.77.59,10.79,3.83,27.06,9.79-8.31-5.01-19.1-13.15-32.37-24.41-5.01-5.9-7.55-15.8-7.55-29.71,0-3.24,5.6-7.07,16.86-11.56,10.02-4.13,17.63-6.49,22.64-7.07,15.98-2.06,28.24-3.12,36.85-3.12,36.97,0,66.86,9.49,89.61,28.42-7.37,8.61-20.1,17.75-38.14,27.47,7.13.29,17.45-2.48,31.07-8.43,13.62-5.9,19.4-8.84,17.27-8.84,2.36,0,7.13,4.72,14.21,14.21,5.31,7.07,9.61,13.44,12.85,19.1,9.43,16.86,15.8,35.08,19.1,54.59,0,6.84.12,11.67.47,14.62v3.54h0l-.18-.18h.01ZM717.92,427.61c0-12.73-5.54-24.76-16.63-36.14s-22.99-17.1-35.73-17.1c-11.26,0-21.17,4.78-29.71,14.27-8.61,9.55-12.85,20.1-12.85,31.72,0,10.14,4.89,16.68,14.62,19.63,6.19,1.77,14.92,2.83,26.18,3.12h24.41c19.81.29,29.71-4.89,29.71-15.51M766.27,482.62v-13.74c-2.06-3.83-4.13-7.84-6.19-11.97-1.77-5.9-5.01-14.21-9.79-24.82l-4.89,51.88c0,4.13-.88,6.19-2.65,6.19-1.18,0-2.06-.29-2.65-.88-2.06-31.36-3.12-44.92-3.12-40.8v-15.51c-.59-.88-1.3-1.36-2.18-1.36-10.08,10.38-15.09,27.06-15.09,50.11,0,12.73,1.18,20.58,3.54,23.52,2.36-.59,5.01-1.65,7.96-3.12,1.18-.59,4.6-.88,10.2-.88s12.44,1.77,20.4,5.31c2.95,0,4.42-7.96,4.42-23.94M866.49,420.83c0-11.91-4.42-22.52-13.32-31.9-8.9-9.37-19.1-14.03-30.6-14.03-12.44,0-24.05,5.66-34.84,17.1-10.79,11.38-16.21,23.29-16.21,35.73,0,10.38,5.01,15.51,15.09,15.51h51c19.22-.29,28.83-7.72,28.83-22.34" fill="#130c0e"/>
  <path d="M363.57,437.74c-24.89,25.33-55.54,37.99-91.96,37.99-40.87,0-73.3-13.98-97.28-41.97-22.66-26.65-33.98-60.63-33.98-101.93,0-44.42,19.32-95.07,57.97-151.93,31.52-46.63,68.62-87.5,111.26-122.59-6.22,28.43-9.32,48.64-9.32,60.63,0,27.55,8.65,54.41,25.98,80.63,21.32,31.09,37.53,54.21,48.64,69.29,17.32,26.22,25.99,51.75,25.99,76.61,0,36.88-12.43,67.97-37.29,93.28M362.89,295.49c-6.66-14.88-14.44-24.76-23.33-29.65,1.33,2.67,2,6.45,2,11.33,0,9.33-2.66,22.65-8,39.97l-8.65,26.65c0,15.54,7.75,23.33,23.31,23.33,16.43,0,24.65-10.89,24.65-32.66,0-11.09-3.33-24.08-9.99-38.98" fill="#061922"/>
</svg>