<?xml version="1.0" encoding="UTF-8"?>
<svg id="Layer_1" xmlns="http://www.w3.org/2000/svg" version="1.1" viewBox="0 0 600 600">
  <!-- Generator: Adobe Illustrator 30.1.0, SVG Export Plug-In . SVG Version: 2.1.1 Build 136)  -->
  <path d="M300,300L40.19,150C93.72,57.29,192.95,0,300,0s206.28,57.29,259.81,150l-259.81,150Z" fill="#cbc2bf"/>
  <path d="M403.96,148.8c0,13.94-5.05,23.45-15.2,28.5-2.95,1.47-12.25,3.49-27.87,6.02-10.15,1.68-15.2,5.6-15.2,11.7v25.64c0,1.05.34,4.34.97,9.81l.97,10.15c0,3.16-.76,8.34-2.23,15.54-4,.84-8.67,1.81-13.94,2.86-1.68-6.36-2.53-10.65-2.53-13.01,0-1.05.25-2.65.8-4.76.51-2.11.8-3.71.8-4.76,0-1.47-1.31-5.6-3.96-12.34h-4.93c-.63,1.05-.88,2.44-.67,4.13.84,3.58,1.18,6.65.97,9.18-3.58,2.53-8.55,5.94-14.9,10.15-1.47-.42-2.02-.63-1.6-.63v-22.48c-.42-1.05-1.47-1.47-3.16-1.26h-3.79l-3.79,29.77c-2.95.21-6.57.21-10.78,0-1.47-6.95-4.13-17.3-7.92-31.03h-2.53c-2.32,7.41-3.58,11.41-3.79,12.04,0,.84.25,2.48.8,4.93.51,2.44.8,4.08.8,4.93,0,.63-.21,2.23-.63,4.76l-.97,7.62c-.42.42-.97.63-1.6.63-6.32,0-10.57-1.6-12.67-4.76s-2.95-7.62-2.53-13.3l2.53-38.02c0-.63.21-1.47.63-2.53s.63-1.81.63-2.23c0-1.68-1.81-5.05-5.39-10.15-.63-.21-3.92-.97-9.81-2.23-3.58-.84-10.65-2.32-21.22-4.42-14.57-2.74-21.85-14.44-21.85-35.16,0-30.82,12.67-56.5,38.02-76.97,1.05,5.68,2.86,13.3,5.39,22.82,1.89.42,6.02,1.39,12.34,2.86,1.26.42,7.7,2.74,19.33,6.99-5.94-3.58-13.64-9.39-23.11-17.43-3.58-4.21-5.39-11.28-5.39-21.22,0-2.32,4-5.05,12.04-8.25,7.16-2.95,12.59-4.63,16.17-5.05,11.41-1.47,20.17-2.23,26.31-2.23,26.4,0,47.75,6.78,64,20.29-5.26,6.15-14.36,12.67-27.24,19.62,5.09.21,12.46-1.77,22.19-6.02,9.73-4.21,13.85-6.32,12.34-6.32,1.68,0,5.09,3.37,10.15,10.15,3.79,5.05,6.86,9.6,9.18,13.64,6.74,12.04,11.28,25.05,13.64,38.99,0,4.88.08,8.34.34,10.44v2.53h0l-.13-.13h0ZM282.62,154.48c0-9.09-3.96-17.68-11.87-25.81s-16.42-12.21-25.51-12.21c-8.04,0-15.12,3.41-21.22,10.19-6.15,6.82-9.18,14.36-9.18,22.65,0,7.24,3.49,11.92,10.44,14.02,4.42,1.26,10.65,2.02,18.69,2.23h17.43c14.15.21,21.22-3.49,21.22-11.07M317.14,193.76v-9.81c-1.47-2.74-2.95-5.6-4.42-8.55-1.26-4.21-3.58-10.15-6.99-17.73l-3.49,37.05c0,2.95-.63,4.42-1.89,4.42-.84,0-1.47-.21-1.89-.63-1.47-22.4-2.23-32.08-2.23-29.14v-11.07c-.42-.63-.93-.97-1.56-.97-7.2,7.41-10.78,19.33-10.78,35.79,0,9.09.84,14.69,2.53,16.8,1.68-.42,3.58-1.18,5.68-2.23.84-.42,3.28-.63,7.28-.63s8.88,1.26,14.57,3.79c2.11,0,3.16-5.68,3.16-17.09M388.72,149.64c0-8.5-3.16-16.08-9.52-22.78-6.36-6.69-13.64-10.02-21.85-10.02-8.88,0-17.18,4.04-24.88,12.21-7.7,8.13-11.58,16.63-11.58,25.51,0,7.41,3.58,11.07,10.78,11.07h36.42c13.73-.21,20.59-5.52,20.59-15.96" fill="#130c0e"/>
  <path d="M300,300l259.81-150c26.33,45.6,40.19,97.34,40.19,150,0,164.58-135.42,300-300,300v-300Z" fill="#9bd3ae"/>
  <path d="M564.56,390.11c0,4.3-1.68,8.17-4.99,11.61-3.31,3.44-7.14,5.16-11.44,5.16-6.88,0-11.91-3.22-15.14-9.67l-15.14-.64c-3.22,0-9.59,1.42-19.01,4.21-10.1,2.79-15.91,5.03-17.41,6.75-2.36,2.58-4.3,8.6-5.8,18.06-1.29,7.74-1.93,13.42-1.93,17.07,0,5.8.9,10.06,2.75,12.73s5.59,4.94,11.27,6.75,9.2,2.84,10.49,3.05c.86,0,2.24-.09,4.21-.3h3.87c2.79,0,5.68.43,8.69,1.29,4.3,1.29,6.15,3.01,5.5,5.16-3.01-.43-8.26.21-15.78,1.93l9.03,4.51c0,2.58-3.65,3.87-10.96,3.87-1.93,0-4.56-.43-7.91-1.29-3.31-.86-5.55-1.29-6.62-1.29h-4.17c-.21,2.15-.86,5.37-1.93,9.67-3.65-.21-7.95-2.36-12.9-6.45s-8.04-6.11-9.33-6.11-3.14,2.06-5.46,6.11c-2.36,4.08-3.53,6.88-3.53,8.38-2.79-1.5-5.16-4.3-7.09-8.38-.86-2.79-1.81-5.59-2.88-8.38-2.15.21-6.11,4.73-11.91,13.54h-1.63c-.43-.64-2.06-5.16-4.82-13.54-6.66-2.15-12.9-3.22-18.7-3.22-2.79,0-7.09.64-12.9,1.93l-9.03-.64c1.29-1.29,5.03-3.74,11.27-7.4,7.31-4.3,12.9-6.45,16.77-6.45.64,0,1.5.13,2.58.34s1.93.34,2.58.34c1.5,0,3.91-.82,7.27-2.41,3.31-1.59,5.25-3.05,5.8-4.34s.82-4.64.82-9.98c0-12.25-3.22-21.37-9.67-27.39-5.59-5.37-14.83-9.24-27.73-11.61-3.44,12.25-13.11,18.36-28.98,18.36-5.16,0-10.32-3.1-15.48-9.33-5.29-6.36-7.87-12.04-7.87-17.2,0-7.95,3.31-14.49,9.98-19.65-5.37-5.59-8.04-11.27-8.04-17.07,0-5.37,1.68-10.1,4.99-14.19,3.31-4.08,7.7-6.45,13.07-7.09-.43-6.88,1.81-11.61,6.75-14.19-2.36-2.36-3.53-6.54-3.53-12.56,0-7.09,2.36-12.99,7.09-17.72s10.62-7.09,17.72-7.09c7.74,0,14.06,2.71,19.01,8.08,6.23-21.28,19.65-31.91,40.29-31.91,10.75,0,20.21,4.3,28.38,12.9,3.01,3.22,4.51,4.94,4.51,5.16-2.58,0-1.29-.47,3.87-1.46,5.16-.95,8.9-1.46,11.27-1.46,8.38,0,15.78,3.1,22.23,9.33,5.59,5.59,9.46,12.68,11.61,21.28,1.5.21,3.87.86,7.09,1.93,4.73,2.36,7.09,6.45,7.09,12.25,0,1.07-.86,3.14-2.58,6.11,13.76,7.74,20.64,18.49,20.64,32.25,0,3.87-1.5,9.24-4.51,16.12,5.59,3.22,8.38,7.95,8.38,14.19M431.82,404.35v-4.17c0-4.94-2.41-9.46-7.27-13.54-4.82-4.08-9.72-6.11-14.66-6.11-6.02,0-11.61,1.38-16.77,4.17,11.39-.64,24.29,5.93,38.66,19.65M425.97,364.4c-3.22-3.65-6.02-7.4-8.38-11.27-9.03,2.36-13.54,5.03-13.54,8.04,2.58-.21,6.32.26,11.27,1.46,4.94,1.2,8.47,1.76,10.66,1.76M445.62,354.42v-14.19c-5.16-.86-8.3-1.29-9.33-1.29v4.82l9.33,10.62M487.51,345.35c-2.58-1.07-7.4-3.22-14.49-6.45v27.73c10.1-5.8,14.92-12.9,14.49-21.28M505.22,383.4l-7.09-8.69c-4.3,3.01-8.64,6.06-13.07,9.2-4.43,3.1-8.21,6.62-11.44,10.49,9.67-5.16,20.21-8.81,31.56-10.96" fill="#00160b"/>
  <path d="M300,300v300C135.42,600,0,464.58,0,300c0-52.66,13.86-104.4,40.19-150l259.81,150Z" fill="#aae0fa"/>
  <path d="M196.35,458.57c-12.01,12.22-26.79,18.33-44.36,18.33-19.72,0-35.36-6.75-46.93-20.25-10.93-12.86-16.39-29.25-16.39-49.17,0-21.43,9.32-45.86,27.96-73.29,15.21-22.49,33.1-42.21,53.68-59.14-3,13.71-4.5,23.46-4.5,29.25,0,13.29,4.17,26.25,12.53,38.9,10.29,15,18.1,26.15,23.47,33.43,8.36,12.65,12.54,24.97,12.54,36.96,0,17.79-6,32.79-17.99,45M196.02,389.95c-3.21-7.18-6.96-11.94-11.25-14.3.64,1.29.97,3.11.97,5.47,0,4.5-1.28,10.93-3.86,19.28l-4.17,12.86c0,7.5,3.74,11.25,11.24,11.25,7.93,0,11.89-5.25,11.89-15.75,0-5.35-1.61-11.62-4.82-18.81" fill="#061922"/>
</svg>