<?xml version="1.0" encoding="UTF-8"?>
<svg id="Layer_1" xmlns="http://www.w3.org/2000/svg" version="1.1" viewBox="0 0 600 600">
  <!-- Generator: Adobe Illustrator 30.1.0, SVG Export Plug-In . SVG Version: 2.1.1 Build 136)  -->
  <path d="M300,300L40.19,150C93.72,57.29,192.95,0,300,0s206.28,57.29,259.81,150l-259.81,150Z" fill="#9bd3ae"/>
  <path d="M412.32,162.97c0,4.3-1.68,8.17-4.99,11.61s-7.14,5.16-11.44,5.16c-6.88,0-11.91-3.22-15.14-9.67l-15.14-.64c-3.22,0-9.59,1.42-19.01,4.21-10.1,2.79-15.91,5.03-17.41,6.75-2.36,2.58-4.3,8.6-5.8,18.06-1.29,7.74-1.93,13.42-1.93,17.07,0,5.8.9,10.06,2.75,12.73s5.59,4.94,11.27,6.75,9.2,2.84,10.49,3.05c.86,0,2.24-.09,4.21-.3h3.87c2.79,0,5.68.43,8.69,1.29,4.3,1.29,6.15,3.01,5.5,5.16-3.01-.43-8.26.21-15.78,1.93l9.03,4.51c0,2.58-3.65,3.87-10.96,3.87-1.93,0-4.56-.43-7.91-1.29-3.31-.86-5.55-1.29-6.62-1.29h-4.17c-.21,2.15-.86,5.37-1.93,9.67-3.65-.21-7.95-2.36-12.9-6.45s-8.04-6.11-9.33-6.11-3.14,2.06-5.46,6.11c-2.36,4.08-3.53,6.88-3.53,8.38-2.79-1.5-5.16-4.3-7.09-8.38-.86-2.79-1.81-5.59-2.88-8.38-2.15.21-6.11,4.73-11.91,13.54h-1.63c-.43-.64-2.06-5.16-4.82-13.54-6.66-2.15-12.9-3.22-18.7-3.22-2.79,0-7.09.64-12.9,1.93l-9.03-.64c1.29-1.29,5.03-3.74,11.27-7.4,7.31-4.3,12.9-6.45,16.77-6.45.64,0,1.5.13,2.58.34s1.93.34,2.58.34c1.5,0,3.91-.82,7.27-2.41,3.31-1.59,5.25-3.05,5.8-4.34s.82-4.64.82-9.98c0-12.25-3.22-21.37-9.67-27.39-5.59-5.37-14.83-9.24-27.73-11.61-3.44,12.25-13.11,18.36-28.98,18.36-5.16,0-10.32-3.1-15.48-9.33-5.29-6.36-7.87-12.04-7.87-17.2,0-7.95,3.31-14.49,9.98-19.65-5.37-5.59-8.04-11.27-8.04-17.07,0-5.37,1.68-10.1,4.99-14.19s7.7-6.45,13.07-7.09c-.43-6.88,1.81-11.61,6.75-14.19-2.36-2.36-3.53-6.54-3.53-12.56,0-7.09,2.36-12.99,7.09-17.72s10.62-7.09,17.72-7.09c7.74,0,14.06,2.71,19.01,8.08,6.23-21.28,19.65-31.91,40.29-31.91,10.75,0,20.21,4.3,28.38,12.9,3.01,3.22,4.51,4.94,4.51,5.16-2.58,0-1.29-.47,3.87-1.46,5.16-.95,8.9-1.46,11.27-1.46,8.38,0,15.78,3.1,22.23,9.33,5.59,5.59,9.46,12.68,11.61,21.28,1.5.21,3.87.86,7.09,1.93,4.73,2.36,7.09,6.45,7.09,12.25,0,1.07-.86,3.14-2.58,6.11,13.76,7.74,20.64,18.49,20.64,32.25,0,3.87-1.5,9.24-4.51,16.12,5.59,3.22,8.38,7.95,8.38,14.19M279.58,177.2v-4.17c0-4.94-2.41-9.46-7.27-13.54-4.82-4.08-9.72-6.11-14.66-6.11-6.02,0-11.61,1.38-16.77,4.17,11.39-.64,24.29,5.93,38.66,19.65M273.73,137.25c-3.22-3.65-6.02-7.4-8.38-11.27-9.03,2.36-13.54,5.03-13.54,8.04,2.58-.21,6.32.26,11.27,1.46s8.47,1.76,10.66,1.76M293.38,127.28v-14.19c-5.16-.86-8.3-1.29-9.33-1.29v4.82l9.33,10.62M335.26,118.21c-2.58-1.07-7.4-3.22-14.49-6.45v27.73c10.1-5.8,14.92-12.9,14.49-21.28M352.98,156.26l-7.09-8.69c-4.3,3.01-8.64,6.06-13.07,9.2-4.43,3.1-8.21,6.62-11.44,10.49,9.67-5.16,20.21-8.81,31.56-10.96" fill="#00160b"/>
  <path d="M300,300l259.81-150c26.33,45.6,40.19,97.34,40.19,150,0,164.58-135.42,300-300,300v-300Z" fill="#aae0fa"/>
  <path d="M497.76,458.57c-12.01,12.22-26.79,18.33-44.36,18.33-19.72,0-35.36-6.75-46.93-20.25-10.93-12.86-16.39-29.25-16.39-49.17,0-21.43,9.32-45.86,27.96-73.29,15.21-22.49,33.1-42.21,53.68-59.14-3,13.71-4.5,23.46-4.5,29.25,0,13.29,4.17,26.25,12.53,38.9,10.29,15,18.1,26.15,23.47,33.43,8.36,12.65,12.54,24.97,12.54,36.96,0,17.79-6,32.79-17.99,45M497.43,389.95c-3.21-7.18-6.96-11.94-11.25-14.3.64,1.29.97,3.11.97,5.47,0,4.5-1.28,10.93-3.86,19.28l-4.17,12.86c0,7.5,3.74,11.25,11.24,11.25,7.93,0,11.89-5.25,11.89-15.75,0-5.35-1.61-11.62-4.82-18.81" fill="#061922"/>
  <path d="M300,300v300C135.42,600,0,464.58,0,300c0-52.66,13.86-104.4,40.19-150l259.81,150Z" fill="#f9aa8f"/>
  <path d="M244.93,418.62c-9.54,22.79-28.54,34.17-56.92,34.17-5.2,0-10.86.64-16.91,1.96-9.12,1.96-13.68,4.69-13.68,8.14,0,1.07.77,2.34,2.26,3.75,1.53,1.41,2.81,2.13,3.92,2.13-5.41,0-1.75.17,11.08.47,12.82.34,20.83.47,24.07.47-18.87,11.08-50.44,16.15-94.7,15.29-14.53-.21-27.01-6.6-37.4-19.21-10.22-11.93-15.29-25.26-15.29-40,0-15.59,5.24-28.88,15.81-39.88,10.52-10.95,23.6-16.44,39.19-16.44,3.45,0,8.09.77,13.85,2.26,5.75,1.53,9.59,2.26,11.55,2.26,8.01,0,18.02-3.32,29.95-9.93,11.93-6.6,17.59-9.93,16.91-9.93-2.17,22.79-9.76,38.09-22.79,45.88-9.33,5.41-13.97,10.74-13.97,15.93,0,3.24,1.96,5.88,5.84,7.8,3.02,1.53,6.39,2.3,10.1,2.3,5.62,0,11.16-3.45,16.61-10.39,5.41-6.94,7.8-13.25,7.16-18.87-.64-6.52-.21-14.31,1.32-23.43.43-2.6,2-5.79,4.73-9.59,2.73-3.79,5.15-6.13,7.33-6.99,0,1.96-.68,5.2-2.13,9.76-1.41,4.56-2.13,7.92-2.13,10.1,0,4.77,1.28,8.48,3.92,11.08,3.92-1.53,7.37-6.39,10.39-14.66,2.6-6.31,4.13-12.35,4.56-18.23-9.12-.43-17.85-4.56-26.2-12.35-8.35-7.8-12.53-16.27-12.53-25.39,0-1.53.21-3.02.64-4.56,1.28,1.96,3.24,4.98,5.84,9.12,3.71,5.41,6.52,8.14,8.48,8.14,2.6,0,3.92-2.73,3.92-8.14,0-6.94-1.83-13.25-5.54-18.87-4.13-6.73-9.46-10.1-15.93-10.1-3.02,0-7.58,1.62-13.68,4.9-6.09,3.24-11.63,4.9-16.61,4.9-1.53,0-8.26-1.96-20.19-5.88,21.05-3.45,31.57-6.6,31.57-9.42,0-7.37-14.44-12.35-43.28-14.95-2.81-.21-8.01-.64-15.63-1.32.85-1.07,7.03-2.26,18.53-3.58,9.76-1.07,16.61-1.62,20.49-1.62,51.63,0,84.39,25.05,98.28,75.19,2.39-1.96,3.58-5.28,3.58-9.88,0-5.92-1.75-13.42-5.2-22.45-1.32-3.49-3.37-8.78-6.18-15.85,17.77,22.66,26.67,44.14,26.67,64.41,0,10.69-2.51,20.36-7.5,29.1-3.24,5.88-9.33,13.42-18.23,22.58-8.9,9.16-14.95,16.23-18.23,21.26,11.93-3.24,19.77-5.75,23.43-7.5,8.22-3.66,15.72-9.2,22.45-16.61,0,2.81-1.19,7.07-3.58,12.7M103.07,290.73c0,3.92-2.17,6.39-6.52,7.5l-8.48,1.32c-3.02,1.53-7.5,7.5-13.33,17.89-.64-3.24-1.62-7.8-2.94-13.68-1.96.21-5.2,1.96-9.76,5.2-1.96,1.53-5.11,3.79-9.46,6.82,1.32-7.8,5.62-15.72,13.04-23.77,7.8-8.9,15.42-13.33,22.79-13.33,9.76,0,14.66,4,14.66,12.06M159.68,320.68c0,3.71-2,6.77-6.01,9.29-4,2.51-7.97,3.75-11.89,3.75-5.2,0-9.88-2.94-13.97-8.78-4.98-7.16-10.1-11.8-15.29-14.02,1.07-1.07,2.39-1.62,3.92-1.62,1.96,0,5.24,1.53,9.93,4.56,4.64,3.02,7.63,4.56,8.95,4.56,1.07,0,2.85-1.53,5.37-4.56,2.51-3.02,5.24-4.56,8.31-4.56,7.16,0,10.74,3.79,10.74,11.37" fill="#200000"/>
</svg>