<?xml version="1.0" encoding="UTF-8"?>
<svg id="Layer_1" xmlns="http://www.w3.org/2000/svg" version="1.1" viewBox="0 0 600 600">
  <!-- Generator: Adobe Illustrator 30.1.0, SVG Export Plug-In . SVG Version: 2.1.1 Build 136)  -->
  <path d="M300,300L40.19,150C93.72,57.29,192.95,0,300,0s206.28,57.29,259.81,150l-259.81,150Z" fill="#9bd3ae"/>
  <path d="M412.32,162.97c0,4.3-1.68,8.17-4.99,11.61s-7.14,5.16-11.44,5.16c-6.88,0-11.91-3.22-15.14-9.67l-15.14-.64c-3.22,0-9.59,1.42-19.01,4.21-10.1,2.79-15.91,5.03-17.41,6.75-2.36,2.58-4.3,8.6-5.8,18.06-1.29,7.74-1.93,13.42-1.93,17.07,0,5.8.9,10.06,2.75,12.73s5.59,4.94,11.27,6.75,9.2,2.84,10.49,3.05c.86,0,2.24-.09,4.21-.3h3.87c2.79,0,5.68.43,8.69,1.29,4.3,1.29,6.15,3.01,5.5,5.16-3.01-.43-8.26.21-15.78,1.93l9.03,4.51c0,2.58-3.65,3.87-10.96,3.87-1.93,0-4.56-.43-7.91-1.29-3.31-.86-5.55-1.29-6.62-1.29h-4.17c-.21,2.15-.86,5.37-1.93,9.67-3.65-.21-7.95-2.36-12.9-6.45s-8.04-6.11-9.33-6.11-3.14,2.06-5.46,6.11c-2.36,4.08-3.53,6.88-3.53,8.38-2.79-1.5-5.16-4.3-7.09-8.38-.86-2.79-1.81-5.59-2.88-8.38-2.15.21-6.11,4.73-11.91,13.54h-1.63c-.43-.64-2.06-5.16-4.82-13.54-6.66-2.15-12.9-3.22-18.7-3.22-2.79,0-7.09.64-12.9,1.93l-9.03-.64c1.29-1.29,5.03-3.74,11.27-7.4,7.31-4.3,12.9-6.45,16.77-6.45.64,0,1.5.13,2.58.34s1.93.34,2.58.34c1.5,0,3.91-.82,7.27-2.41,3.31-1.59,5.25-3.05,5.8-4.34s.82-4.64.82-9.98c0-12.25-3.22-21.37-9.67-27.39-5.59-5.37-14.83-9.24-27.73-11.61-3.44,12.25-13.11,18.36-28.98,18.36-5.16,0-10.32-3.1-15.48-9.33-5.29-6.36-7.87-12.04-7.87-17.2,0-7.95,3.31-14.49,9.98-19.65-5.37-5.59-8.04-11.27-8.04-17.07,0-5.37,1.68-10.1,4.99-14.19s7.7-6.45,13.07-7.09c-.43-6.88,1.81-11.61,6.75-14.19-2.36-2.36-3.53-6.54-3.53-12.56,0-7.09,2.36-12.99,7.09-17.72s10.62-7.09,17.72-7.09c7.74,0,14.06,2.71,19.01,8.08,6.23-21.28,19.65-31.91,40.29-31.91,10.75,0,20.21,4.3,28.38,12.9,3.01,3.22,4.51,4.94,4.51,5.16-2.58,0-1.29-.47,3.87-1.46,5.16-.95,8.9-1.46,11.27-1.46,8.38,0,15.78,3.1,22.23,9.33,5.59,5.59,9.46,12.68,11.61,21.28,1.5.21,3.87.86,7.09,1.93,4.73,2.36,7.09,6.45,7.09,12.25,0,1.07-.86,3.14-2.58,6.11,13.76,7.74,20.64,18.49,20.64,32.25,0,3.87-1.5,9.24-4.51,16.12,5.59,3.22,8.38,7.95,8.38,14.19M279.58,177.2v-4.17c0-4.94-2.41-9.46-7.27-13.54-4.82-4.08-9.72-6.11-14.66-6.11-6.02,0-11.61,1.38-16.77,4.17,11.39-.64,24.29,5.93,38.66,19.65M273.73,137.25c-3.22-3.65-6.02-7.4-8.38-11.27-9.03,2.36-13.54,5.03-13.54,8.04,2.58-.21,6.32.26,11.27,1.46s8.47,1.76,10.66,1.76M293.38,127.28v-14.19c-5.16-.86-8.3-1.29-9.33-1.29v4.82l9.33,10.62M335.26,118.21c-2.58-1.07-7.4-3.22-14.49-6.45v27.73c10.1-5.8,14.92-12.9,14.49-21.28M352.98,156.26l-7.09-8.69c-4.3,3.01-8.64,6.06-13.07,9.2-4.43,3.1-8.21,6.62-11.44,10.49,9.67-5.16,20.21-8.81,31.56-10.96" fill="#00160b"/>
  <path d="M300,300l259.81-150c26.33,45.6,40.19,97.34,40.19,150,0,164.58-135.42,300-300,300v-300Z" fill="#fffbd5"/>
  <path d="M574.2,392.55c-16.85-9.49-27.62-14.24-32.37-14.24-3.46,0-6.16,2.65-8.08,7.95s-5.81,7.91-11.63,7.91c-2.39,0-7.23-.86-14.58-2.57-4.1,6.24-6.16,10.26-6.16,11.97,0,2.39,1.75,5.17,5.3,8.42s6.5,4.83,8.94,4.83c1.54,0,3.63-.3,6.29-.98,2.65-.64,4.4-.98,5.3-.98,2.65,0,3.98,4.87,3.98,14.58s-2.14,23.52-6.46,42.71c-5.6-22.02-11.54-33.01-17.79-33.01-.86,0-2.65.64-5.34,1.97-2.69,1.28-4.7,1.92-5.99,1.92-6.24,0-11.84-5.73-16.85-17.15-9.92,1.5-14.88,6.58-14.88,15.22,0,4.32,2.01,7.78,5.99,10.35,3.98,2.61,5.99,4.45,5.99,5.52,0,5.81-8.51,14.79-25.57,26.85-9.06,6.46-15.31,10.99-18.77,13.6,2.99-3.89,6.03-8.94,9.06-15.22,3.46-7.1,5.17-12.61,5.17-16.5,0-2.14-2.48-5.17-7.44-9.06-4.96-3.89-7.44-8-7.44-12.31,0-3.68,1.28-8.21,3.89-13.6-2.82-3.25-6.16-4.87-10.05-4.87-8.64,0-12.96,2.82-12.96,8.42,0-3.89,0-.98,0,8.72.21,7.14-5.17,10.69-16.2,10.69-8.42,0-22.53-1.97-42.41-5.81,22.45-5.6,33.65-12.1,33.65-19.41,0,.86-.43-1.71-1.28-7.78-.86-6.67,3.89-12.74,14.24-18.13-1.92-9.92-7.1-14.88-15.52-14.88-1.28,0-3.68,2.27-7.1,6.8-3.46,4.53-6.67,6.8-9.71,6.8-5.17,0-11.89-5.6-20.05-16.85-3.89-5.6-9.83-13.9-17.79-24.93,4.96,2.61,9.92,5.17,14.88,7.78,6.46,3.04,11.67,4.53,15.52,4.53,3.04,0,5.99-2.65,8.89-7.95,2.91-5.3,6.76-7.95,11.5-7.95.64,0,4.96,1.28,12.96,3.89,4.1-6.24,6.16-10.9,6.16-13.94,0-2.61-1.58-5.56-4.7-8.89-3.12-3.33-5.99-5-8.59-5-1.07,0-2.74.34-5,.98s-3.93.98-5,.98c-3.89,0-5.81-4.87-5.81-14.58,0-2.61,2.48-17.36,7.44-44.34-.21,3.25,1.2,9.28,4.19,18.13,3.68,10.77,8,16.2,12.96,16.2.86,0,2.61-.64,5.17-1.92,2.61-1.28,4.62-1.92,6.16-1.92,4.96,0,9.06,2.82,12.31,8.42l4.87,8.72c4.53,0,8.29-1.62,11.33-4.83,3.04-3.25,4.53-7.14,4.53-11.67s-2.01-8.38-5.99-10.86c-4.02-2.48-5.99-4.36-5.99-5.64,0-4.53,7.14-12.19,21.38-22.96,11.42-8.64,18.9-13.68,22.32-15.22-9.28,12.53-13.94,21.68-13.94,27.49,0,3.04,1.84,6.24,5.52,9.71,4.53,4.1,7.14,7.01,7.78,8.72,2.14,4.96,1.92,11.76-.64,20.39,5.81,4.1,10.26,6.16,13.25,6.16,6.24,0,9.36-3.25,9.36-9.71,0-.64-.26-2.69-.81-6.16-.56-3.46-.68-5.39-.47-5.81.86-3.04,6.8-4.53,17.79-4.53,6.93,0,21.25,1.92,43.06,5.81-4.75,1.28-11.89,3.25-21.38,5.81-8.64,2.61-12.96,5.52-12.96,8.72,0,1.5.56,4.1,1.62,7.78,1.07,3.68,1.62,6.37,1.62,8.08,0,3.04-1.92,5.81-5.81,8.42l-10.99,7.78c2.61,4.75,4.32,7.57,5.17,8.42,2.14,2.61,5.09,3.89,8.72,3.89,2.61,0,4.96-2.27,7.14-6.8,2.14-4.53,5.6-6.8,10.35-6.8,5.81,0,12.4,5.39,19.75,16.2,4.1,6.07,10.48,15.22,19.07,27.53M502.45,373.83c0-13.81-5.09-25.78-15.22-35.91s-22.1-15.22-35.91-15.22-26.12,5-36.26,15.05c-10.13,10.05-15.31,22.06-15.52,36.09-.21,13.81,4.92,25.74,15.39,35.74,10.48,10.05,22.62,15.05,36.43,15.05,14.67,0,26.94-4.79,36.73-14.41,9.83-9.58,14.62-21.72,14.41-36.39M497.62,373.83c0,13.17-4.4,24.07-13.25,32.67-8.85,8.64-19.84,12.96-33.01,12.96s-23.64-4.4-32.67-13.25c-9.06-8.85-13.6-19.62-13.6-32.37s4.57-23.26,13.77-32.2c9.19-8.94,20.01-13.43,32.54-13.43s23.34,4.53,32.54,13.6c9.15,9.06,13.77,19.75,13.77,32.02" fill="#211d15"/>
  <path d="M300,300v300C135.42,600,0,464.58,0,300c0-52.66,13.86-104.4,40.19-150l259.81,150Z" fill="#aae0fa"/>
  <path d="M196.35,458.57c-12.01,12.22-26.79,18.33-44.36,18.33-19.72,0-35.36-6.75-46.93-20.25-10.93-12.86-16.39-29.25-16.39-49.17,0-21.43,9.32-45.86,27.96-73.29,15.21-22.49,33.1-42.21,53.68-59.14-3,13.71-4.5,23.46-4.5,29.25,0,13.29,4.17,26.25,12.53,38.9,10.29,15,18.1,26.15,23.47,33.43,8.36,12.65,12.54,24.97,12.54,36.96,0,17.79-6,32.79-17.99,45M196.02,389.95c-3.21-7.18-6.96-11.94-11.25-14.3.64,1.29.97,3.11.97,5.47,0,4.5-1.28,10.93-3.86,19.28l-4.17,12.86c0,7.5,3.74,11.25,11.24,11.25,7.93,0,11.89-5.25,11.89-15.75,0-5.35-1.61-11.62-4.82-18.81" fill="#061922"/>
</svg>