<?xml version="1.0" encoding="UTF-8"?>
<svg id="Layer_1" xmlns="http://www.w3.org/2000/svg" version="1.1" viewBox="0 0 600 600">
  <!-- Generator: Adobe Illustrator 30.1.0, SVG Export Plug-In . SVG Version: 2.1.1 Build 136)  -->
  <path d="M300,300L40.19,150C93.72,57.29,192.95,0,300,0s206.28,57.29,259.81,150l-259.81,150Z" fill="#aae0fa"/>
  <path d="M346.48,230.79c-12.01,12.22-26.79,18.33-44.36,18.33-19.72,0-35.36-6.75-46.93-20.25-10.93-12.86-16.39-29.25-16.39-49.17,0-21.43,9.32-45.86,27.96-73.29,15.21-22.49,33.1-42.21,53.68-59.14-3,13.71-4.5,23.46-4.5,29.25,0,13.29,4.17,26.25,12.53,38.9,10.29,15,18.1,26.15,23.47,33.43,8.36,12.65,12.54,24.97,12.54,36.96,0,17.79-6,32.79-17.99,45M346.15,162.16c-3.21-7.18-6.96-11.94-11.25-14.3.64,1.29.97,3.11.97,5.47,0,4.5-1.28,10.93-3.86,19.28l-4.17,12.86c0,7.5,3.74,11.25,11.24,11.25,7.93,0,11.89-5.25,11.89-15.75,0-5.35-1.61-11.62-4.82-18.81" fill="#061922"/>
  <path d="M300,300l259.81-150c26.33,45.6,40.19,97.34,40.19,150,0,164.58-135.42,300-300,300v-300Z" fill="#cbc2bf"/>
  <path d="M555.03,372.47c0,13.94-5.05,23.45-15.2,28.5-2.95,1.47-12.25,3.49-27.87,6.02-10.15,1.68-15.2,5.6-15.2,11.7v25.64c0,1.05.34,4.34.97,9.81l.97,10.15c0,3.16-.76,8.34-2.23,15.54-4,.84-8.67,1.81-13.94,2.86-1.68-6.36-2.53-10.65-2.53-13.01,0-1.05.25-2.65.8-4.76.51-2.11.8-3.71.8-4.76,0-1.47-1.31-5.6-3.96-12.34h-4.93c-.63,1.05-.88,2.44-.67,4.13.84,3.58,1.18,6.65.97,9.18-3.58,2.53-8.55,5.94-14.9,10.15-1.47-.42-2.02-.63-1.6-.63v-22.48c-.42-1.05-1.47-1.47-3.16-1.26h-3.79l-3.79,29.77c-2.95.21-6.57.21-10.78,0-1.47-6.95-4.13-17.3-7.92-31.03h-2.53c-2.32,7.41-3.58,11.41-3.79,12.04,0,.84.25,2.48.8,4.93.51,2.44.8,4.08.8,4.93,0,.63-.21,2.23-.63,4.76l-.97,7.62c-.42.42-.97.63-1.6.63-6.32,0-10.57-1.6-12.67-4.76s-2.95-7.62-2.53-13.3l2.53-38.02c0-.63.21-1.47.63-2.53s.63-1.81.63-2.23c0-1.68-1.81-5.05-5.39-10.15-.63-.21-3.92-.97-9.81-2.23-3.58-.84-10.65-2.32-21.22-4.42-14.57-2.74-21.85-14.44-21.85-35.16,0-30.82,12.67-56.5,38.02-76.97,1.05,5.68,2.86,13.3,5.39,22.82,1.89.42,6.02,1.39,12.34,2.86,1.26.42,7.7,2.74,19.33,6.99-5.94-3.58-13.64-9.39-23.11-17.43-3.58-4.21-5.39-11.28-5.39-21.22,0-2.32,4-5.05,12.04-8.25,7.16-2.95,12.59-4.63,16.17-5.05,11.41-1.47,20.17-2.23,26.31-2.23,26.4,0,47.75,6.78,64,20.29-5.26,6.15-14.36,12.67-27.24,19.62,5.09.21,12.46-1.77,22.19-6.02,9.73-4.21,13.85-6.32,12.34-6.32,1.68,0,5.09,3.37,10.15,10.15,3.79,5.05,6.86,9.6,9.18,13.64,6.74,12.04,11.28,25.05,13.64,38.99,0,4.88.08,8.34.34,10.44v2.53h0l-.13-.13h0ZM433.69,378.15c0-9.09-3.96-17.68-11.87-25.81-7.92-8.13-16.42-12.21-25.51-12.21-8.04,0-15.12,3.41-21.22,10.19-6.15,6.82-9.18,14.36-9.18,22.65,0,7.24,3.49,11.92,10.44,14.02,4.42,1.26,10.65,2.02,18.69,2.23h17.43c14.15.21,21.22-3.49,21.22-11.07M468.21,417.43v-9.81c-1.47-2.74-2.95-5.6-4.42-8.55-1.26-4.21-3.58-10.15-6.99-17.73l-3.49,37.05c0,2.95-.63,4.42-1.89,4.42-.84,0-1.47-.21-1.89-.63-1.47-22.4-2.23-32.08-2.23-29.14v-11.07c-.42-.63-.93-.97-1.56-.97-7.2,7.41-10.78,19.33-10.78,35.79,0,9.09.84,14.69,2.53,16.8,1.68-.42,3.58-1.18,5.68-2.23.84-.42,3.28-.63,7.28-.63s8.88,1.26,14.57,3.79c2.11,0,3.16-5.68,3.16-17.09M539.79,373.31c0-8.5-3.16-16.08-9.52-22.78-6.36-6.69-13.64-10.02-21.85-10.02-8.88,0-17.18,4.04-24.88,12.21-7.7,8.13-11.58,16.63-11.58,25.51,0,7.41,3.58,11.07,10.78,11.07h36.42c13.73-.21,20.59-5.52,20.59-15.96" fill="#130c0e"/>
  <path d="M300,300v300C135.42,600,0,464.58,0,300c0-52.66,13.86-104.4,40.19-150l259.81,150Z" fill="#f9aa8f"/>
  <path d="M244.93,418.62c-9.54,22.79-28.54,34.17-56.92,34.17-5.2,0-10.86.64-16.91,1.96-9.12,1.96-13.68,4.69-13.68,8.14,0,1.07.77,2.34,2.26,3.75,1.53,1.41,2.81,2.13,3.92,2.13-5.41,0-1.75.17,11.08.47,12.82.34,20.83.47,24.07.47-18.87,11.08-50.44,16.15-94.7,15.29-14.53-.21-27.01-6.6-37.4-19.21-10.22-11.93-15.29-25.26-15.29-40,0-15.59,5.24-28.88,15.81-39.88,10.52-10.95,23.6-16.44,39.19-16.44,3.45,0,8.09.77,13.85,2.26,5.75,1.53,9.59,2.26,11.55,2.26,8.01,0,18.02-3.32,29.95-9.93,11.93-6.6,17.59-9.93,16.91-9.93-2.17,22.79-9.76,38.09-22.79,45.88-9.33,5.41-13.97,10.74-13.97,15.93,0,3.24,1.96,5.88,5.84,7.8,3.02,1.53,6.39,2.3,10.1,2.3,5.62,0,11.16-3.45,16.61-10.39,5.41-6.94,7.8-13.25,7.16-18.87-.64-6.52-.21-14.31,1.32-23.43.43-2.6,2-5.79,4.73-9.59,2.73-3.79,5.15-6.13,7.33-6.99,0,1.96-.68,5.2-2.13,9.76-1.41,4.56-2.13,7.92-2.13,10.1,0,4.77,1.28,8.48,3.92,11.08,3.92-1.53,7.37-6.39,10.39-14.66,2.6-6.31,4.13-12.35,4.56-18.23-9.12-.43-17.85-4.56-26.2-12.35-8.35-7.8-12.53-16.27-12.53-25.39,0-1.53.21-3.02.64-4.56,1.28,1.96,3.24,4.98,5.84,9.12,3.71,5.41,6.52,8.14,8.48,8.14,2.6,0,3.92-2.73,3.92-8.14,0-6.94-1.83-13.25-5.54-18.87-4.13-6.73-9.46-10.1-15.93-10.1-3.02,0-7.58,1.62-13.68,4.9-6.09,3.24-11.63,4.9-16.61,4.9-1.53,0-8.26-1.96-20.19-5.88,21.05-3.45,31.57-6.6,31.57-9.42,0-7.37-14.44-12.35-43.28-14.95-2.81-.21-8.01-.64-15.63-1.32.85-1.07,7.03-2.26,18.53-3.58,9.76-1.07,16.61-1.62,20.49-1.62,51.63,0,84.39,25.05,98.28,75.19,2.39-1.96,3.58-5.28,3.58-9.88,0-5.92-1.75-13.42-5.2-22.45-1.32-3.49-3.37-8.78-6.18-15.85,17.77,22.66,26.67,44.14,26.67,64.41,0,10.69-2.51,20.36-7.5,29.1-3.24,5.88-9.33,13.42-18.23,22.58-8.9,9.16-14.95,16.23-18.23,21.26,11.93-3.24,19.77-5.75,23.43-7.5,8.22-3.66,15.72-9.2,22.45-16.61,0,2.81-1.19,7.07-3.58,12.7M103.07,290.73c0,3.92-2.17,6.39-6.52,7.5l-8.48,1.32c-3.02,1.53-7.5,7.5-13.33,17.89-.64-3.24-1.62-7.8-2.94-13.68-1.96.21-5.2,1.96-9.76,5.2-1.96,1.53-5.11,3.79-9.46,6.82,1.32-7.8,5.62-15.72,13.04-23.77,7.8-8.9,15.42-13.33,22.79-13.33,9.76,0,14.66,4,14.66,12.06M159.68,320.68c0,3.71-2,6.77-6.01,9.29-4,2.51-7.97,3.75-11.89,3.75-5.2,0-9.88-2.94-13.97-8.78-4.98-7.16-10.1-11.8-15.29-14.02,1.07-1.07,2.39-1.62,3.92-1.62,1.96,0,5.24,1.53,9.93,4.56,4.64,3.02,7.63,4.56,8.95,4.56,1.07,0,2.85-1.53,5.37-4.56,2.51-3.02,5.24-4.56,8.31-4.56,7.16,0,10.74,3.79,10.74,11.37" fill="#200000"/>
</svg>