<?xml version="1.0" encoding="UTF-8"?>
<svg id="Layer_1" xmlns="http://www.w3.org/2000/svg" version="1.1" viewBox="0 0 600 600">
  <!-- Generator: Adobe Illustrator 30.1.0, SVG Export Plug-In . SVG Version: 2.1.1 Build 136)  -->
  <path d="M300,300L40.19,150C93.72,57.29,192.95,0,300,0s206.28,57.29,259.81,150l-259.81,150Z" fill="#aae0fa"/>
  <path d="M346.48,230.79c-12.01,12.22-26.79,18.33-44.36,18.33-19.72,0-35.36-6.75-46.93-20.25-10.93-12.86-16.39-29.25-16.39-49.17,0-21.43,9.32-45.86,27.96-73.29,15.21-22.49,33.1-42.21,53.68-59.14-3,13.71-4.5,23.46-4.5,29.25,0,13.29,4.17,26.25,12.53,38.9,10.29,15,18.1,26.15,23.47,33.43,8.36,12.65,12.54,24.97,12.54,36.96,0,17.79-6,32.79-17.99,45M346.15,162.16c-3.21-7.18-6.96-11.94-11.25-14.3.64,1.29.97,3.11.97,5.47,0,4.5-1.28,10.93-3.86,19.28l-4.17,12.86c0,7.5,3.74,11.25,11.24,11.25,7.93,0,11.89-5.25,11.89-15.75,0-5.35-1.61-11.62-4.82-18.81" fill="#061922"/>
  <path d="M300,300l259.81-150c26.33,45.6,40.19,97.34,40.19,150,0,164.58-135.42,300-300,300v-300Z" fill="#f9aa8f"/>
  <path d="M547.14,418.62c-9.54,22.79-28.54,34.17-56.92,34.17-5.2,0-10.86.64-16.91,1.96-9.12,1.96-13.68,4.69-13.68,8.14,0,1.07.77,2.34,2.26,3.75,1.53,1.41,2.81,2.13,3.92,2.13-5.41,0-1.75.17,11.08.47,12.82.34,20.83.47,24.07.47-18.87,11.08-50.44,16.15-94.7,15.29-14.53-.21-27.01-6.6-37.4-19.21-10.22-11.93-15.29-25.26-15.29-40,0-15.59,5.24-28.88,15.81-39.88,10.52-10.95,23.6-16.44,39.19-16.44,3.45,0,8.09.77,13.85,2.26,5.75,1.53,9.59,2.26,11.55,2.26,8.01,0,18.02-3.32,29.95-9.93,11.93-6.6,17.59-9.93,16.91-9.93-2.17,22.79-9.76,38.09-22.79,45.88-9.33,5.41-13.97,10.74-13.97,15.93,0,3.24,1.96,5.88,5.84,7.8,3.02,1.53,6.39,2.3,10.1,2.3,5.62,0,11.16-3.45,16.61-10.39,5.41-6.94,7.8-13.25,7.16-18.87-.64-6.52-.21-14.31,1.32-23.43.43-2.6,2-5.79,4.73-9.59,2.73-3.79,5.15-6.13,7.33-6.99,0,1.96-.68,5.2-2.13,9.76-1.41,4.56-2.13,7.92-2.13,10.1,0,4.77,1.28,8.48,3.92,11.08,3.92-1.53,7.37-6.39,10.39-14.66,2.6-6.31,4.13-12.35,4.56-18.23-9.12-.43-17.85-4.56-26.2-12.35-8.35-7.8-12.53-16.27-12.53-25.39,0-1.53.21-3.02.64-4.56,1.28,1.96,3.24,4.98,5.84,9.12,3.71,5.41,6.52,8.14,8.48,8.14,2.6,0,3.92-2.73,3.92-8.14,0-6.94-1.83-13.25-5.54-18.87-4.13-6.73-9.46-10.1-15.93-10.1-3.02,0-7.58,1.62-13.68,4.9-6.09,3.24-11.63,4.9-16.61,4.9-1.53,0-8.26-1.96-20.19-5.88,21.05-3.45,31.57-6.6,31.57-9.42,0-7.37-14.44-12.35-43.28-14.95-2.81-.21-8.01-.64-15.63-1.32.85-1.07,7.03-2.26,18.53-3.58,9.76-1.07,16.61-1.62,20.49-1.62,51.63,0,84.39,25.05,98.28,75.19,2.39-1.96,3.58-5.28,3.58-9.88,0-5.92-1.75-13.42-5.2-22.45-1.32-3.49-3.37-8.78-6.18-15.85,17.77,22.66,26.67,44.14,26.67,64.41,0,10.69-2.51,20.36-7.5,29.1-3.24,5.88-9.33,13.42-18.23,22.58-8.9,9.16-14.95,16.23-18.23,21.26,11.93-3.24,19.77-5.75,23.43-7.5,8.22-3.66,15.72-9.2,22.45-16.61,0,2.81-1.19,7.07-3.58,12.7M405.27,290.73c0,3.92-2.17,6.39-6.52,7.5l-8.48,1.32c-3.02,1.53-7.5,7.5-13.33,17.89-.64-3.24-1.62-7.8-2.94-13.68-1.96.21-5.2,1.96-9.76,5.2-1.96,1.53-5.11,3.79-9.46,6.82,1.32-7.8,5.62-15.72,13.04-23.77,7.8-8.9,15.42-13.33,22.79-13.33,9.76,0,14.66,4,14.66,12.06M461.89,320.68c0,3.71-2,6.77-6.01,9.29-4,2.51-7.97,3.75-11.89,3.75-5.2,0-9.88-2.94-13.97-8.78-4.98-7.16-10.1-11.8-15.29-14.02,1.07-1.07,2.39-1.62,3.92-1.62,1.96,0,5.24,1.53,9.93,4.56,4.64,3.02,7.63,4.56,8.95,4.56,1.07,0,2.85-1.53,5.37-4.56,2.51-3.02,5.24-4.56,8.31-4.56,7.16,0,10.74,3.79,10.74,11.37" fill="#200000"/>
  <path d="M300,300v300C135.42,600,0,464.58,0,300c0-52.66,13.86-104.4,40.19-150l259.81,150Z" fill="#fffbd5"/>
  <path d="M274.92,392.55c-16.85-9.49-27.62-14.24-32.37-14.24-3.46,0-6.16,2.65-8.08,7.95s-5.81,7.91-11.63,7.91c-2.39,0-7.23-.86-14.58-2.57-4.1,6.24-6.16,10.26-6.16,11.97,0,2.39,1.75,5.17,5.3,8.42s6.5,4.83,8.94,4.83c1.54,0,3.63-.3,6.29-.98,2.65-.64,4.4-.98,5.3-.98,2.65,0,3.98,4.87,3.98,14.58s-2.14,23.52-6.46,42.71c-5.6-22.02-11.54-33.01-17.79-33.01-.86,0-2.65.64-5.34,1.97-2.69,1.28-4.7,1.92-5.99,1.92-6.24,0-11.84-5.73-16.85-17.15-9.92,1.5-14.88,6.58-14.88,15.22,0,4.32,2.01,7.78,5.99,10.35,3.98,2.61,5.99,4.45,5.99,5.52,0,5.81-8.51,14.79-25.57,26.85-9.06,6.46-15.31,10.99-18.77,13.6,2.99-3.89,6.03-8.94,9.06-15.22,3.46-7.1,5.17-12.61,5.17-16.5,0-2.14-2.48-5.17-7.44-9.06s-7.44-8-7.44-12.31c0-3.68,1.28-8.21,3.89-13.6-2.82-3.25-6.16-4.87-10.05-4.87-8.64,0-12.96,2.82-12.96,8.42,0-3.89,0-.98,0,8.72.21,7.14-5.17,10.69-16.2,10.69-8.42,0-22.53-1.97-42.41-5.81,22.45-5.6,33.65-12.1,33.65-19.41,0,.86-.43-1.71-1.28-7.78-.86-6.67,3.89-12.74,14.24-18.13-1.92-9.92-7.1-14.88-15.52-14.88-1.28,0-3.68,2.27-7.1,6.8-3.46,4.53-6.67,6.8-9.71,6.8-5.17,0-11.89-5.6-20.05-16.85-3.89-5.6-9.83-13.9-17.79-24.93,4.96,2.61,9.92,5.17,14.88,7.78,6.46,3.04,11.67,4.53,15.52,4.53,3.04,0,5.99-2.65,8.89-7.95,2.91-5.3,6.76-7.95,11.5-7.95.64,0,4.96,1.28,12.96,3.89,4.1-6.24,6.16-10.9,6.16-13.94,0-2.61-1.58-5.56-4.7-8.89s-5.99-5-8.59-5c-1.07,0-2.74.34-5,.98s-3.93.98-5,.98c-3.89,0-5.81-4.87-5.81-14.58,0-2.61,2.48-17.36,7.44-44.34-.21,3.25,1.2,9.28,4.19,18.13,3.68,10.77,8,16.2,12.96,16.2.86,0,2.61-.64,5.17-1.92,2.61-1.28,4.62-1.92,6.16-1.92,4.96,0,9.06,2.82,12.31,8.42l4.87,8.72c4.53,0,8.29-1.62,11.33-4.83,3.04-3.25,4.53-7.14,4.53-11.67s-2.01-8.38-5.99-10.86c-4.02-2.48-5.99-4.36-5.99-5.64,0-4.53,7.14-12.19,21.38-22.96,11.42-8.64,18.9-13.68,22.32-15.22-9.28,12.53-13.94,21.68-13.94,27.49,0,3.04,1.84,6.24,5.52,9.71,4.53,4.1,7.14,7.01,7.78,8.72,2.14,4.96,1.92,11.76-.64,20.39,5.81,4.1,10.26,6.16,13.25,6.16,6.24,0,9.36-3.25,9.36-9.71,0-.64-.26-2.69-.81-6.16-.56-3.46-.68-5.39-.47-5.81.86-3.04,6.8-4.53,17.79-4.53,6.93,0,21.25,1.92,43.06,5.81-4.75,1.28-11.89,3.25-21.38,5.81-8.64,2.61-12.96,5.52-12.96,8.72,0,1.5.56,4.1,1.62,7.78,1.07,3.68,1.62,6.37,1.62,8.08,0,3.04-1.92,5.81-5.81,8.42l-10.99,7.78c2.61,4.75,4.32,7.57,5.17,8.42,2.14,2.61,5.09,3.89,8.72,3.89,2.61,0,4.96-2.27,7.14-6.8,2.14-4.53,5.6-6.8,10.35-6.8,5.81,0,12.4,5.39,19.75,16.2,4.1,6.07,10.48,15.22,19.07,27.53M203.18,373.83c0-13.81-5.09-25.78-15.22-35.91s-22.1-15.22-35.91-15.22-26.12,5-36.26,15.05-15.31,22.06-15.52,36.09c-.21,13.81,4.92,25.74,15.39,35.74,10.48,10.05,22.62,15.05,36.43,15.05,14.67,0,26.94-4.79,36.73-14.41,9.83-9.58,14.62-21.72,14.41-36.39M198.35,373.83c0,13.17-4.4,24.07-13.25,32.67-8.85,8.64-19.84,12.96-33.01,12.96s-23.64-4.4-32.67-13.25c-9.06-8.85-13.6-19.62-13.6-32.37s4.57-23.26,13.77-32.2c9.19-8.94,20.01-13.43,32.54-13.43s23.34,4.53,32.54,13.6c9.15,9.06,13.77,19.75,13.77,32.02" fill="#211d15"/>
</svg>