<?xml version="1.0" encoding="UTF-8"?>
<svg id="Layer_1" xmlns="http://www.w3.org/2000/svg" version="1.1" viewBox="0 0 600 600">
  <!-- Generator: Adobe Illustrator 30.1.0, SVG Export Plug-In . SVG Version: 2.1.1 Build 136)  -->
  <path d="M300,300L40.19,150C93.72,57.29,192.95,0,300,0s206.28,57.29,259.81,150l-259.81,150Z" fill="#fffbd5"/>
  <path d="M424.51,166.49c-16.85-9.49-27.62-14.24-32.37-14.24-3.46,0-6.16,2.65-8.08,7.95s-5.81,7.91-11.63,7.91c-2.39,0-7.23-.86-14.58-2.57-4.1,6.24-6.16,10.26-6.16,11.97,0,2.39,1.75,5.17,5.3,8.42s6.5,4.83,8.94,4.83c1.54,0,3.63-.3,6.29-.98,2.65-.64,4.4-.98,5.3-.98,2.65,0,3.98,4.87,3.98,14.58s-2.14,23.52-6.46,42.71c-5.6-22.02-11.54-33.01-17.79-33.01-.86,0-2.65.64-5.34,1.97-2.69,1.28-4.7,1.92-5.99,1.92-6.24,0-11.84-5.73-16.85-17.15-9.92,1.5-14.88,6.58-14.88,15.22,0,4.32,2.01,7.78,5.99,10.35,3.98,2.61,5.99,4.45,5.99,5.52,0,5.81-8.51,14.79-25.57,26.85-9.06,6.46-15.31,10.99-18.77,13.6,2.99-3.89,6.03-8.94,9.06-15.22,3.46-7.1,5.17-12.61,5.17-16.5,0-2.14-2.48-5.17-7.44-9.06s-7.44-8-7.44-12.31c0-3.68,1.28-8.21,3.89-13.6-2.82-3.25-6.16-4.87-10.05-4.87-8.64,0-12.96,2.82-12.96,8.42,0-3.89,0-.98,0,8.72.21,7.14-5.17,10.69-16.2,10.69-8.42,0-22.53-1.97-42.41-5.81,22.45-5.6,33.65-12.1,33.65-19.41,0,.86-.43-1.71-1.28-7.78-.86-6.67,3.89-12.74,14.24-18.13-1.92-9.92-7.1-14.88-15.52-14.88-1.28,0-3.68,2.27-7.1,6.8-3.46,4.53-6.67,6.8-9.71,6.8-5.17,0-11.89-5.6-20.05-16.85-3.89-5.6-9.83-13.9-17.79-24.93,4.96,2.61,9.92,5.17,14.88,7.78,6.46,3.04,11.67,4.53,15.52,4.53,3.04,0,5.99-2.65,8.89-7.95,2.91-5.3,6.76-7.95,11.5-7.95.64,0,4.96,1.28,12.96,3.89,4.1-6.24,6.16-10.9,6.16-13.94,0-2.61-1.58-5.56-4.7-8.89s-5.99-5-8.59-5c-1.07,0-2.74.34-5,.98s-3.93.98-5,.98c-3.89,0-5.81-4.87-5.81-14.58,0-2.61,2.48-17.36,7.44-44.34-.21,3.25,1.2,9.28,4.19,18.13,3.68,10.77,8,16.2,12.96,16.2.86,0,2.61-.64,5.17-1.92,2.61-1.28,4.62-1.92,6.16-1.92,4.96,0,9.06,2.82,12.31,8.42l4.87,8.72c4.53,0,8.29-1.62,11.33-4.83,3.04-3.25,4.53-7.14,4.53-11.67s-2.01-8.38-5.99-10.86c-4.02-2.48-5.99-4.36-5.99-5.64,0-4.53,7.14-12.19,21.38-22.96,11.42-8.64,18.9-13.68,22.32-15.22-9.28,12.53-13.94,21.68-13.94,27.49,0,3.04,1.84,6.24,5.52,9.71,4.53,4.1,7.14,7.01,7.78,8.72,2.14,4.96,1.92,11.76-.64,20.39,5.81,4.1,10.26,6.16,13.25,6.16,6.24,0,9.36-3.25,9.36-9.71,0-.64-.26-2.69-.81-6.16-.56-3.46-.68-5.39-.47-5.81.86-3.04,6.8-4.53,17.79-4.53,6.93,0,21.25,1.92,43.06,5.81-4.75,1.28-11.89,3.25-21.38,5.81-8.64,2.61-12.96,5.52-12.96,8.72,0,1.5.56,4.1,1.62,7.78,1.07,3.68,1.62,6.37,1.62,8.08,0,3.04-1.92,5.81-5.81,8.42l-10.99,7.78c2.61,4.75,4.32,7.57,5.17,8.42,2.14,2.61,5.09,3.89,8.72,3.89,2.61,0,4.96-2.27,7.14-6.8,2.14-4.53,5.6-6.8,10.35-6.8,5.81,0,12.4,5.39,19.75,16.2,4.1,6.07,10.48,15.22,19.07,27.53M352.77,147.77c0-13.81-5.09-25.78-15.22-35.91-10.13-10.13-22.1-15.22-35.91-15.22s-26.12,5-36.26,15.05-15.31,22.06-15.52,36.09c-.21,13.81,4.92,25.74,15.39,35.74,10.48,10.05,22.62,15.05,36.43,15.05,14.67,0,26.94-4.79,36.73-14.41,9.83-9.58,14.62-21.72,14.41-36.39M347.93,147.77c0,13.17-4.4,24.07-13.25,32.67-8.85,8.64-19.84,12.96-33.01,12.96s-23.64-4.4-32.67-13.25c-9.06-8.85-13.6-19.62-13.6-32.37s4.57-23.26,13.77-32.2c9.19-8.94,20.01-13.43,32.54-13.43s23.34,4.53,32.54,13.6c9.15,9.06,13.77,19.75,13.77,32.02" fill="#211d15"/>
  <path d="M300,300l259.81-150c26.33,45.6,40.19,97.34,40.19,150,0,164.58-135.42,300-300,300v-300Z" fill="#aae0fa"/>
  <path d="M497.76,458.57c-12.01,12.22-26.79,18.33-44.36,18.33-19.72,0-35.36-6.75-46.93-20.25-10.93-12.86-16.39-29.25-16.39-49.17,0-21.43,9.32-45.86,27.96-73.29,15.21-22.49,33.1-42.21,53.68-59.14-3,13.71-4.5,23.46-4.5,29.25,0,13.29,4.17,26.25,12.53,38.9,10.29,15,18.1,26.15,23.47,33.43,8.36,12.65,12.54,24.97,12.54,36.96,0,17.79-6,32.79-17.99,45M497.43,389.95c-3.21-7.18-6.96-11.94-11.25-14.3.64,1.29.97,3.11.97,5.47,0,4.5-1.28,10.93-3.86,19.28l-4.17,12.86c0,7.5,3.74,11.25,11.24,11.25,7.93,0,11.89-5.25,11.89-15.75,0-5.35-1.61-11.62-4.82-18.81" fill="#061922"/>
  <path d="M300,300v300C135.42,600,0,464.58,0,300c0-52.66,13.86-104.4,40.19-150l259.81,150Z" fill="#cbc2bf"/>
  <path d="M254.78,372.47c0,13.94-5.05,23.45-15.2,28.5-2.95,1.47-12.25,3.49-27.87,6.02-10.15,1.68-15.2,5.6-15.2,11.7v25.64c0,1.05.34,4.34.97,9.81l.97,10.15c0,3.16-.76,8.34-2.23,15.54-4,.84-8.67,1.81-13.94,2.86-1.68-6.36-2.53-10.65-2.53-13.01,0-1.05.25-2.65.8-4.76.51-2.11.8-3.71.8-4.76,0-1.47-1.31-5.6-3.96-12.34h-4.93c-.63,1.05-.88,2.44-.67,4.13.84,3.58,1.18,6.65.97,9.18-3.58,2.53-8.55,5.94-14.9,10.15-1.47-.42-2.02-.63-1.6-.63v-22.48c-.42-1.05-1.47-1.47-3.16-1.26h-3.79l-3.79,29.77c-2.95.21-6.57.21-10.78,0-1.47-6.95-4.13-17.3-7.92-31.03h-2.53c-2.32,7.41-3.58,11.41-3.79,12.04,0,.84.25,2.48.8,4.93.51,2.44.8,4.08.8,4.93,0,.63-.21,2.23-.63,4.76l-.97,7.62c-.42.42-.97.63-1.6.63-6.32,0-10.57-1.6-12.67-4.76s-2.95-7.62-2.53-13.3l2.53-38.02c0-.63.21-1.47.63-2.53s.63-1.81.63-2.23c0-1.68-1.81-5.05-5.39-10.15-.63-.21-3.92-.97-9.81-2.23-3.58-.84-10.65-2.32-21.22-4.42-14.57-2.74-21.85-14.44-21.85-35.16,0-30.82,12.67-56.5,38.02-76.97,1.05,5.68,2.86,13.3,5.39,22.82,1.89.42,6.02,1.39,12.34,2.86,1.26.42,7.7,2.74,19.33,6.99-5.94-3.58-13.64-9.39-23.11-17.43-3.58-4.21-5.39-11.28-5.39-21.22,0-2.32,4-5.05,12.04-8.25,7.16-2.95,12.59-4.63,16.17-5.05,11.41-1.47,20.17-2.23,26.31-2.23,26.4,0,47.75,6.78,64,20.29-5.26,6.15-14.36,12.67-27.24,19.62,5.09.21,12.46-1.77,22.19-6.02,9.73-4.21,13.85-6.32,12.34-6.32,1.68,0,5.09,3.37,10.15,10.15,3.79,5.05,6.86,9.6,9.18,13.64,6.74,12.04,11.28,25.05,13.64,38.99,0,4.88.08,8.34.34,10.44v2.53h0l-.13-.13h-.01ZM133.44,378.15c0-9.09-3.96-17.68-11.87-25.81-7.92-8.13-16.42-12.21-25.51-12.21-8.04,0-15.12,3.41-21.22,10.19-6.15,6.82-9.18,14.36-9.18,22.65,0,7.24,3.49,11.92,10.44,14.02,4.42,1.26,10.65,2.02,18.69,2.23h17.43c14.15.21,21.22-3.49,21.22-11.07M167.96,417.43v-9.81c-1.47-2.74-2.95-5.6-4.42-8.55-1.26-4.21-3.58-10.15-6.99-17.73l-3.49,37.05c0,2.95-.63,4.42-1.89,4.42-.84,0-1.47-.21-1.89-.63-1.47-22.4-2.23-32.08-2.23-29.14v-11.07c-.42-.63-.93-.97-1.56-.97-7.2,7.41-10.78,19.33-10.78,35.79,0,9.09.84,14.69,2.53,16.8,1.68-.42,3.58-1.18,5.68-2.23.84-.42,3.28-.63,7.28-.63s8.88,1.26,14.57,3.79c2.11,0,3.16-5.68,3.16-17.09M239.54,373.31c0-8.5-3.16-16.08-9.52-22.78-6.36-6.69-13.64-10.02-21.85-10.02-8.88,0-17.18,4.04-24.88,12.21-7.7,8.13-11.58,16.63-11.58,25.51,0,7.41,3.58,11.07,10.78,11.07h36.42c13.73-.21,20.59-5.52,20.59-15.96" fill="#130c0e"/>
</svg>