<?xml version="1.0" encoding="UTF-8"?>
<svg id="Layer_1" xmlns="http://www.w3.org/2000/svg" version="1.1" viewBox="0 0 600 600">
  <!-- Generator: Adobe Illustrator 30.1.0, SVG Export Plug-In . SVG Version: 2.1.1 Build 136)  -->
  <circle cx="300" cy="300" r="300" fill="#aae0fa"/>
  <path d="M346.48,230.79c-12.01,12.22-26.79,18.33-44.36,18.33-19.72,0-35.36-6.75-46.93-20.25-10.93-12.86-16.39-29.25-16.39-49.17,0-21.43,9.32-45.86,27.96-73.29,15.21-22.49,33.1-42.21,53.68-59.14-3,13.71-4.5,23.46-4.5,29.25,0,13.29,4.17,26.25,12.53,38.9,10.29,15,18.1,26.15,23.47,33.43,8.36,12.65,12.54,24.97,12.54,36.96,0,17.79-6,32.79-17.99,45M346.15,162.16c-3.21-7.18-6.96-11.94-11.25-14.3.64,1.29.97,3.11.97,5.47,0,4.5-1.28,10.93-3.86,19.28l-4.17,12.86c0,7.5,3.74,11.25,11.24,11.25,7.93,0,11.89-5.25,11.89-15.75,0-5.35-1.61-11.62-4.82-18.81" fill="#061922"/>
  <path d="M196.35,458.57c-12.01,12.22-26.79,18.33-44.36,18.33-19.72,0-35.36-6.75-46.93-20.25-10.93-12.86-16.39-29.25-16.39-49.17,0-21.43,9.32-45.86,27.96-73.29,15.21-22.49,33.1-42.21,53.68-59.14-3,13.71-4.5,23.46-4.5,29.25,0,13.29,4.17,26.25,12.53,38.9,10.29,15,18.1,26.15,23.47,33.43,8.36,12.65,12.54,24.97,12.54,36.96,0,17.79-6,32.79-17.99,45M196.02,389.95c-3.21-7.18-6.96-11.94-11.25-14.3.64,1.29.97,3.11.97,5.47,0,4.5-1.28,10.93-3.86,19.28l-4.17,12.86c0,7.5,3.74,11.25,11.24,11.25,7.93,0,11.89-5.25,11.89-15.75,0-5.35-1.61-11.62-4.82-18.81" fill="#061922"/>
  <path d="M497.76,458.57c-12.01,12.22-26.79,18.33-44.36,18.33-19.72,0-35.36-6.75-46.93-20.25-10.93-12.86-16.39-29.25-16.39-49.17,0-21.43,9.32-45.86,27.96-73.29,15.21-22.49,33.1-42.21,53.68-59.14-3,13.71-4.5,23.46-4.5,29.25,0,13.29,4.17,26.25,12.53,38.9,10.29,15,18.1,26.15,23.47,33.43,8.36,12.65,12.54,24.97,12.54,36.96,0,17.79-6,32.79-17.99,45M497.43,389.95c-3.21-7.18-6.96-11.94-11.25-14.3.64,1.29.97,3.11.97,5.47,0,4.5-1.28,10.93-3.86,19.28l-4.17,12.86c0,7.5,3.74,11.25,11.24,11.25,7.93,0,11.89-5.25,11.89-15.75,0-5.35-1.61-11.62-4.82-18.81" fill="#061922"/>
</svg>