<?xml version="1.0" encoding="UTF-8"?>
<svg id="Layer_1" xmlns="http://www.w3.org/2000/svg" version="1.1" viewBox="0 0 600 600">
  <!-- Generator: Adobe Illustrator 30.1.0, SVG Export Plug-In . SVG Version: 2.1.1 Build 136)  -->
  <circle cx="300" cy="300" r="300" fill="#cbc2bf"/>
  <path d="M300,99.99s58.25,0,104,49.01c.76.82,1.52,1.66,2.31,2.54,11.44,12.78,46.1,54.57,31.69,84.46-5.05,10.47-14.73,15.45-35,25-42.18,19.86-81.14,20.73-103,21-32.14.39-54.01-4.43-61.28-6.16-22.54-5.36-36.88-12.73-41.72-14.84-26.89-11.73-32.64-20.1-35-25-14.41-29.89,20.24-71.67,31.69-84.46.79-.89,1.55-1.73,2.31-2.54,45.75-49.01,104-49.01,104-49.01ZM174.11,177.13c-10.14-.04-44.51,1.06-74.9,26.5-8.72,7.29-36.22,30.31-36.73,60.41-1,58.93,102.26,97.73,120.99,104.33,43.91,15.47,81.44,15.47,116.53,15.47s72.62,0,116.53-15.47c18.73-6.6,121.99-45.39,120.99-104.33-.51-30.1-28.02-53.12-36.73-60.41-30.4-25.43-64.76-26.54-74.9-26.5M208.38,375.75l-54.54,104.92M391.62,375.75l54.54,104.92M300,465.77v-81.93" fill="none" stroke="#000" stroke-linecap="round" stroke-miterlimit="10" stroke-width="30"/>
</svg>