<?xml version="1.0" encoding="UTF-8"?>
<svg id="svg4478" xmlns="http://www.w3.org/2000/svg" xmlns:svg="http://www.w3.org/2000/svg" xmlns:rdf="http://www.w3.org/1999/02/22-rdf-syntax-ns#" xmlns:dc="http://purl.org/dc/elements/1.1/" xmlns:cc="http://creativecommons.org/ns#" version="1.1" viewBox="0 0 600 600">
  <!-- Generator: Adobe Illustrator 30.1.0, SVG Export Plug-In . SVG Version: 2.1.1 Build 136)  -->
  <path id="circle485" d="M300,300l212.13-212.13c56.24,56.24,87.87,132.6,87.87,212.13,0,164.58-135.42,300-300,300-79.53,0-155.89-31.63-212.13-87.87l212.13-212.13Z" fill="#c9c4be"/>
  <g id="layer11">
    <polygon id="polygon4891" points="338.15 533.9 361.53 522.64 373.46 522.49 379.94 511.27 406.9 549.24 433.85 511.27 440.33 522.49 452.26 522.63 475.65 533.9 477.59 508.01 483.43 497.6 476.96 486.39 523.31 482.02 503.91 439.7 516.87 439.7 522.95 429.44 544.39 414.81 522.95 400.18 516.87 389.92 503.91 389.92 523.31 347.6 476.96 343.24 483.43 332.02 477.59 321.62 475.64 295.73 452.26 306.99 440.33 307.13 433.85 318.35 406.89 280.38 379.94 318.35 373.46 307.13 361.53 306.99 338.14 295.73 336.2 321.62 330.36 332.02 336.83 343.24 290.48 347.6 309.88 389.92 296.92 389.92 290.84 400.19 269.39 414.81 290.84 429.44 296.92 439.7 309.88 439.7 290.48 482.02 336.83 486.39 330.36 497.6 336.2 508.01 338.15 533.9" fill="#0d0f0f"/>
    <polygon id="polygon4911" points="458.07 514.59 467.71 509.02 467.71 497.9 458.07 492.33 420.89 422.89 499.62 420.37 509.26 425.94 518.89 420.38 518.89 409.25 509.26 403.68 499.62 409.25 420.89 406.73 458.07 337.3 467.72 331.73 467.72 320.6 458.07 315.04 448.44 320.6 448.43 331.73 406.9 398.65 365.36 331.73 365.35 320.6 355.72 315.03 346.08 320.6 346.08 331.73 355.72 337.3 392.9 406.73 314.18 409.25 304.53 403.68 294.9 409.24 294.9 420.37 304.53 425.94 314.18 420.37 392.9 422.89 355.72 492.33 346.08 497.89 346.07 509.02 355.72 514.59 365.35 509.02 365.35 497.89 406.89 430.97 448.43 497.89 448.43 509.02 458.07 514.59" fill="#fff"/>
    <polygon id="polygon4931" points="426.28 338.89 406.9 372.68 387.51 338.89 406.9 305.1 426.28 338.89" fill="#fff"/>
    <polygon id="polygon4951" points="350.84 360.06 370.41 393.75 331.45 393.64 311.88 359.95 350.84 360.06" fill="#fff"/>
    <polygon id="polygon4971" points="331.45 435.98 370.41 435.87 350.84 469.56 311.88 469.67 331.45 435.98" fill="#fff"/>
    <polygon id="polygon4991" points="387.5 490.73 406.89 456.94 426.28 490.73 406.89 524.53 387.5 490.73" fill="#fff"/>
    <polygon id="polygon5011" points="462.95 469.56 443.38 435.88 482.34 435.98 501.91 469.67 462.95 469.56" fill="#fff"/>
    <polygon id="polygon5031" points="482.34 393.64 443.38 393.75 462.95 360.06 501.91 359.96 482.34 393.64" fill="#fff"/>
  </g>
</svg>