<?xml version="1.0" encoding="UTF-8"?>
<svg id="Layer_1" xmlns="http://www.w3.org/2000/svg" version="1.1" viewBox="0 0 600 600">
  <!-- Generator: Adobe Illustrator 30.1.0, SVG Export Plug-In . SVG Version: 2.1.1 Build 136)  -->
  <defs>
    <style>
      .st0 {
        fill: #061922;
      }

      .st1 {
        fill: #aae0fa;
      }
    </style>
  </defs>
  <path class="st1" d="M512.11,87.8c54.3,54.3,87.9,129.3,87.9,212.2,0,165.7-134.3,300-300,300-82.8,0-157.8-33.6-212.1-87.9"/>
  <path class="st0" d="M460.31,502.1c-16.2,16.4-36,24.7-59.7,24.7-26.5,0-47.6-9.1-63.1-27.2-14.7-17.3-22.1-39.3-22.1-66.2,0-28.8,12.5-61.7,37.6-98.6,20.5-30.3,44.5-56.8,72.2-79.6-4,18.5-6,31.6-6,39.4,0,17.9,5.6,35.3,16.9,52.3,13.8,20.2,24.4,35.2,31.6,45,11.2,17,16.9,33.6,16.9,49.7,0,23.9-8.1,44.1-24.2,60.6M460.01,409.9c-4.3-9.7-9.4-16.1-15.1-19.2.9,1.7,1.3,4.2,1.3,7.4,0,6.1-1.7,14.7-5.2,25.9l-5.6,17.3c0,10.1,5,15.1,15.1,15.1,10.7,0,16-7.1,16-21.2,0-7.2-2.2-15.6-6.5-25.3"/>
</svg>