<?xml version="1.0" encoding="UTF-8"?>
<svg id="Layer_1" xmlns="http://www.w3.org/2000/svg" version="1.1" viewBox="0 0 300 600">
  <!-- Generator: Adobe Illustrator 30.1.0, SVG Export Plug-In . SVG Version: 2.1.1 Build 136)  -->
  <path d="M300,300c0,164.58-135.42,300-300,300V0C164.58,0,300,135.43,300,300Z" fill="#aae0fa"/>
  <path d="M117.97,306.25c-12.83-17.41-31.53-44.09-56.14-79.97-20-30.25-29.98-61.26-29.98-93.05,0-13.84,3.58-37.16,10.76-69.97-14.78,12.16-28.99,24.93-42.61,38.3v444.59c41.5-.27,76.48-14.88,104.92-43.83,28.69-29.21,43.04-65.09,43.04-107.65,0-28.69-10-58.16-29.99-88.42ZM87.22,420.82c-17.95,0-26.9-8.98-26.9-26.92l9.98-30.76c6.16-19.99,9.23-35.36,9.23-46.13,0-5.64-.77-10-2.31-13.08,10.26,5.65,19.23,17.05,26.92,34.21,7.69,17.2,11.53,32.19,11.53,44.99,0,25.12-9.49,37.69-28.45,37.69h0Z" fill="#061922"/>
</svg>