<?xml version="1.0" encoding="UTF-8"?>
<svg id="Layer_1" xmlns="http://www.w3.org/2000/svg" version="1.1" viewBox="0 0 600 600">
  <!-- Generator: Adobe Illustrator 30.1.0, SVG Export Plug-In . SVG Version: 2.1.1 Build 136)  -->
  <path d="M300,300L40.19,150C93.72,57.29,192.95,0,300,0s206.28,57.29,259.81,150l-259.81,150Z" fill="#f2f75e"/>
  <path d="M402.85,118.75l-37.8,22.32c-.41.24-.24.88.24.88h21.27c.8,0,1.44.65,1.44,1.45v2.13c0,.52-.28,1-.73,1.26l-63.37,35.9c-.65.37-1.48.18-1.91-.44l-2.1-3.04c-.43-.63-.31-1.48.28-1.95l28.35-22.83c.35-.28.15-.86-.32-.85l-23.42.9c-.48.02-.94-.2-1.23-.59h0c-.46-.62-.35-1.49.25-1.98l24.72-20.21c.35-.29.14-.87-.32-.85l-36.7,1.63c-.9.04-1.75.33-2.49.84l-47.69,32.74c-.39.27-.2.87.27.87h57.26c.8,0,1.45.65,1.45,1.45v2.61c0,.5-.25.96-.68,1.23l-103.04,65.12c-.61.39-1.42.27-1.89-.29l-2.15-2.54c-.53-.63-.44-1.57.22-2.08l55.48-43.26c.36-.28.15-.87-.31-.85l-64.87,1.93c-.49.02-.96-.23-1.24-.63l-2-2.92c-.44-.64-.3-1.5.31-1.97l116.83-89.33c.37-.28.16-.86-.3-.85l-80.5,1.26c-.48,0-.94-.23-1.22-.63l-.84-1.2c-.5-.72-.35-1.69.31-2.23l71.13-58.57c.73-.6,2.09-1.09,3.03-1.09h48.83c.56,0,1.08.33,1.31.85l.65,1.42c.28.63.09,1.37-.46,1.77l-45.93,33.43c-.37.27-.18.86.28.86h78.71c.9,0,1.71.51,2.12,1.3l1.19,2.31c.56,1.08.22,2.41-.8,3.09l-53.13,35.13c-.4.27-.21.87.27.87h60.96c.8,0,1.45.65,1.45,1.45v2.15c0,.85-.44,1.63-1.18,2.06h0v-.03h.01Z"/>
  <path d="M300,300l259.81-150c26.33,45.6,40.19,97.34,40.19,150,0,164.58-135.42,300-300,300v-300Z" fill="#c777d6"/>
  <g>
    <path d="M548.42,383.39c-15.31-30.5-59.13-34.12-81.37-31.85-11.11,1.14-20.05,4.08-26.01,6.49,19.11-17.15,39.84-22.11,44.82-23.21,28.05-6.15,50.82,2.21,59.12,5.74-2.58-4.92-6.76-11.86-13.19-19.06-5.48-6.14-32.38-36.29-64.42-31.4-33.73,5.14-50.73,45.69-55.43,67.55-2.35,10.92-2.32,20.33-1.87,26.75-10.93-24.66-8.58-47.08-8-51.89,3.33-27.49,17.64-45.66,23.51-52.36-5.48.94-13.37,2.77-22.21,6.65-7.53,3.31-44.52,19.58-49.78,51.56-5.54,33.68,27.78,62.36,47.11,73.59,9.66,5.61,18.62,8.48,24.87,10.04h-.02c-26.81,2.77-47.39-6.38-51.81-8.43-25.11-11.66-37.97-30.89-42.54-38.54-.8,5.5-1.5,13.57-.53,23.17.82,8.18,4.86,48.39,33.65,63.27,30.32,15.67,67.9-7.15,84.55-22.07,8.32-7.45,13.82-15.08,17.23-20.54-5.66,26.37-20.73,43.13-24.03,46.67-18.85,20.28-41.12,26.57-49.79,28.55,4.98,2.46,12.44,5.62,21.88,7.67,8.03,1.75,47.52,10.33,70.58-12.46,24.27-23.99,14.18-66.78,5.14-87.23-4.52-10.22-10.07-17.81-14.21-22.74l.05.03c23.29,13.52,34.55,32.99,36.92,37.25,13.46,24.19,12.57,47.31,11.77,56.18,3.88-3.98,9.19-10.1,14.05-18.43,4.15-7.11,24.51-42.01,9.96-70.97h0v.02h0ZM468.16,403.42c-3.05,2.87-7.26,6.3-12.72,9.45s-10.53,5.08-14.55,6.29c-3.68-2.02-8.24-4.96-12.93-9.18-4.68-4.22-8.08-8.44-10.48-11.89.78-4.12,2.17-9.37,4.74-15.13,2.56-5.76,5.53-10.3,8.07-13.64,4.16-.53,9.58-.83,15.85-.17,6.27.66,11.51,2.08,15.47,3.46,1.79,3.79,3.75,8.86,5.06,15.02,1.31,6.17,1.58,11.59,1.49,15.78h0Z"/>
    <path d="M425.83,392.52c4.77-2.44,8.17-5.36,10.34-7.52s5.08-5.57,7.52-10.34c2.44,4.77,5.36,8.17,7.52,10.34s5.57,5.08,10.34,7.52c-4.77,2.44-8.17,5.36-10.34,7.52s-5.08,5.57-7.52,10.34c-2.44-4.77-5.36-8.17-7.52-10.34s-5.57-5.08-10.34-7.52Z"/>
  </g>
  <path d="M300,300v300C135.42,600,0,464.58,0,300c0-52.66,13.86-104.4,40.19-150l259.81,150Z" fill="#9bd3ae"/>
  <path d="M262.18,390.11c0,4.3-1.68,8.17-4.99,11.61-3.31,3.44-7.14,5.16-11.44,5.16-6.88,0-11.91-3.22-15.14-9.67l-15.14-.64c-3.22,0-9.59,1.42-19.01,4.21-10.1,2.79-15.91,5.03-17.41,6.75-2.36,2.58-4.3,8.6-5.8,18.06-1.29,7.74-1.93,13.42-1.93,17.07,0,5.8.9,10.06,2.75,12.73s5.59,4.94,11.27,6.75,9.2,2.84,10.49,3.05c.86,0,2.24-.09,4.21-.3h3.87c2.79,0,5.68.43,8.69,1.29,4.3,1.29,6.15,3.01,5.5,5.16-3.01-.43-8.26.21-15.78,1.93l9.03,4.51c0,2.58-3.65,3.87-10.96,3.87-1.93,0-4.56-.43-7.91-1.29-3.31-.86-5.55-1.29-6.62-1.29h-4.17c-.21,2.15-.86,5.37-1.93,9.67-3.65-.21-7.95-2.36-12.9-6.45s-8.04-6.11-9.33-6.11-3.14,2.06-5.46,6.11c-2.36,4.08-3.53,6.88-3.53,8.38-2.79-1.5-5.16-4.3-7.09-8.38-.86-2.79-1.81-5.59-2.88-8.38-2.15.21-6.11,4.73-11.91,13.54h-1.63c-.43-.64-2.06-5.16-4.82-13.54-6.66-2.15-12.9-3.22-18.7-3.22-2.79,0-7.09.64-12.9,1.93l-9.03-.64c1.29-1.29,5.03-3.74,11.27-7.4,7.31-4.3,12.9-6.45,16.77-6.45.64,0,1.5.13,2.58.34s1.93.34,2.58.34c1.5,0,3.91-.82,7.27-2.41,3.31-1.59,5.25-3.05,5.8-4.34s.82-4.64.82-9.98c0-12.25-3.22-21.37-9.67-27.39-5.59-5.37-14.83-9.24-27.73-11.61-3.44,12.25-13.11,18.36-28.98,18.36-5.16,0-10.32-3.1-15.48-9.33-5.29-6.36-7.87-12.04-7.87-17.2,0-7.95,3.31-14.49,9.98-19.65-5.37-5.59-8.04-11.27-8.04-17.07,0-5.37,1.68-10.1,4.99-14.19,3.31-4.08,7.7-6.45,13.07-7.09-.43-6.88,1.81-11.61,6.75-14.19-2.36-2.36-3.53-6.54-3.53-12.56,0-7.09,2.36-12.99,7.09-17.72s10.62-7.09,17.72-7.09c7.74,0,14.06,2.71,19.01,8.08,6.23-21.28,19.65-31.91,40.29-31.91,10.75,0,20.21,4.3,28.38,12.9,3.01,3.22,4.51,4.94,4.51,5.16-2.58,0-1.29-.47,3.87-1.46,5.16-.95,8.9-1.46,11.27-1.46,8.38,0,15.78,3.1,22.23,9.33,5.59,5.59,9.46,12.68,11.61,21.28,1.5.21,3.87.86,7.09,1.93,4.73,2.36,7.09,6.45,7.09,12.25,0,1.07-.86,3.14-2.58,6.11,13.76,7.74,20.64,18.49,20.64,32.25,0,3.87-1.5,9.24-4.51,16.12,5.59,3.22,8.38,7.95,8.38,14.19M129.44,404.35v-4.17c0-4.94-2.41-9.46-7.27-13.54-4.82-4.08-9.72-6.11-14.66-6.11-6.02,0-11.61,1.38-16.77,4.17,11.39-.64,24.29,5.93,38.66,19.65M123.6,364.4c-3.22-3.65-6.02-7.4-8.38-11.27-9.03,2.36-13.54,5.03-13.54,8.04,2.58-.21,6.32.26,11.27,1.46,4.94,1.2,8.47,1.76,10.66,1.76M143.25,354.42v-14.19c-5.16-.86-8.3-1.29-9.33-1.29v4.82l9.33,10.62M185.13,345.35c-2.58-1.07-7.4-3.22-14.49-6.45v27.73c10.1-5.8,14.92-12.9,14.49-21.28M202.84,383.4l-7.09-8.69c-4.3,3.01-8.64,6.06-13.07,9.2-4.43,3.1-8.21,6.62-11.44,10.49,9.67-5.16,20.21-8.81,31.56-10.96" fill="#00160b"/>
</svg>