<?xml version="1.0" encoding="UTF-8"?>
<svg id="svg3156" xmlns="http://www.w3.org/2000/svg" xmlns:svg="http://www.w3.org/2000/svg" xmlns:rdf="http://www.w3.org/1999/02/22-rdf-syntax-ns#" xmlns:inkscape="http://www.inkscape.org/namespaces/inkscape" xmlns:dc="http://purl.org/dc/elements/1.1/" xmlns:cc="http://creativecommons.org/ns#" version="1.1" viewBox="0 0 570 570">
  <!-- Generator: Adobe Illustrator 30.1.0, SVG Export Plug-In . SVG Version: 2.1.1 Build 136)  -->
  <circle cx="285" cy="285" r="285" isolation="isolate" opacity=".2"/>
  <path d="M285,285l194.86-112.5c19.75,34.2,30.14,73.01,30.14,112.5,0,123.43-101.57,225-225,225v-225Z" fill="#3277a7"/>
  <path d="M285,285l-194.86-112.5c40.15-69.53,114.58-112.5,194.86-112.5s154.71,42.97,194.86,112.5l-194.86,112.5h0Z" fill="#38614c"/>
  <path d="M285,285v225c-123.43,0-225-101.57-225-225,0-39.49,10.4-78.3,30.14-112.5l194.86,112.5Z" fill="#393736"/>
  <path d="M285,60c-124.26,0-225,100.74-225,225s100.74,225,225,225,225-100.74,225-225S409.26,60,285,60ZM285,480c-107.7,0-195-87.3-195-195s87.3-195,195-195,195,87.3,195,195-87.3,195-195,195Z" fill="#333"/>
</svg>