<?xml version="1.0" encoding="UTF-8"?>
<svg id="Layer_1" xmlns="http://www.w3.org/2000/svg" version="1.1" viewBox="0 0 300 600">
  <!-- Generator: Adobe Illustrator 30.1.0, SVG Export Plug-In . SVG Version: 2.1.1 Build 136)  -->
  <path d="M300,300c0,164.58-135.42,300-300,300V0C164.58,0,300,135.43,300,300Z" fill="#9bd3ae"/>
  <path d="M243.2,304.5c7-16,10.5-28.5,10.5-37.5,0-32-16-57-48-75,4-6.9,6-11.7,6-14.2,0-13.5-5.5-23-16.5-28.5-7.5-2.5-13-4-16.5-4.5-5-20-14-36.5-27-49.5-15-14.5-32.2-21.7-51.7-21.7-5.5,0-14.2,1.2-26.2,3.4-4.62.88-7.9,1.59-9.85,2.12-1.43-1.79-4.65-5.36-9.65-10.72C38.32,51.58,20.22,41.83,0,39.16v525.48c1.34-3.39,3.51-7.67,6.5-12.84,5.4-9.4,9.7-14.2,12.7-14.2s10.2,4.7,21.7,14.2,21.5,14.5,30,15c2.5-10,4-17.5,4.5-22.5h9.7c2.5,0,7.7,1,15.4,3,7.8,2,13.9,3,18.4,3,17,0,25.5-3,25.5-9l-21-10.5c17.5-4,29.7-5.5,36.7-4.5,1.5-5-2.8-9-12.8-12-7-2-13.7-3-20.2-3h-9c-4.6.5-7.8.7-9.8.7-3-.5-11.2-2.9-24.4-7.1-13.2-4.2-21.9-9.5-26.2-15.7s-6.4-16.1-6.4-29.6c0-8.5,1.5-21.7,4.5-39.7,3.5-22,8-36,13.5-42,3.5-4,17-9.2,40.5-15.7,21.9-6.5,36.7-9.8,44.2-9.8l35.2,1.5c7.5,15,19.2,22.5,35.2,22.5,10,0,18.9-4,26.6-12,7.7-8,11.6-17,11.6-27l.1.1c0-14.5-6.5-25.5-19.5-33h0ZM49.7,218.3c16.5,7.5,27.7,12.5,33.7,15,1,19.5-10.2,36-33.7,49.5v-64.5h0ZM124.5,321.9c-26.4,5-50.9,13.5-73.4,25.5,7.5-9,16.3-17.2,26.6-24.4,10.3-7.3,20.4-14.4,30.4-21.4l16.5,20.2-.1.1h0Z" fill="#00160b"/>
</svg>