<?xml version="1.0" encoding="UTF-8"?>
<svg id="Layer_1" xmlns="http://www.w3.org/2000/svg" version="1.1" viewBox="0 0 300 600">
  <!-- Generator: Adobe Illustrator 30.1.0, SVG Export Plug-In . SVG Version: 2.1.1 Build 136)  -->
  <path id="Shape" d="M0,0v600c165.68,0,300-134.32,300-300S165.68,0,0,0Z" fill="#f9aa8f"/>
  <path d="M208.12,408.87c-8.67,4.08-27,9.94-55.01,17.57,7.64-11.77,21.89-28.38,42.77-49.88,20.86-21.49,35.15-39.14,42.77-52.96,11.69-20.45,17.58-43.22,17.58-68.29,0-47.58-20.9-97.99-62.65-151.19,6.61,16.51,11.46,28.91,14.53,37.16,8.13,21.16,12.21,38.72,12.21,52.66,0,10.83-2.81,18.59-8.41,23.23C181.13,105.96,110.65,47.38.64,41.32v27.47c18.1,5.95,27.23,13.38,27.23,22.35,0,4.01-9.19,8.3-27.23,12.86v22.99l.52.06c11.69,0,24.68-3.83,38.95-11.46,14.23-7.64,24.91-11.46,32.06-11.46,15.26,0,27.75,7.9,37.43,23.68,8.65,13.24,12.98,28.01,12.98,44.3,0,12.73-3.07,19.09-9.16,19.09-4.6,0-11.2-6.37-19.88-19.09-6.12-9.67-10.69-16.81-13.73-21.38-1.03,3.59-1.52,7.13-1.52,10.7,0,21.38,9.8,41.23,29.39,59.57,19.59,18.35,40.1,28.01,61.5,29.04-1.03,13.75-4.6,28.01-10.69,42.76-7.15,19.36-15.31,30.82-24.44,34.37-6.12-6.11-9.16-14.75-9.16-25.96,0-5.09,1.64-13,4.94-23.68,3.33-10.69,4.97-18.34,4.97-22.91-5.09,2.04-10.83,7.51-17.18,16.43-6.38,8.9-10.06,16.4-11.06,22.52-3.56,21.38-4.6,39.71-3.07,54.98,1.52,13.25-4.08,28.01-16.81,44.31-12.73,16.29-25.71,24.43-38.95,24.43-8.67,0-16.55-1.78-23.67-5.35-9.16-4.58-13.76-10.7-13.76-18.34,0-12.21,10.94-24.68,32.84-37.42,30.56-18.33,48.4-54.22,53.48-107.69,1.52,0-11.72,7.77-39.73,23.3-21.44,11.9-40.17,19.19-56.25,21.98v260.21c63.4-4.12,111.23-15.54,143.32-34.35-7.64,0-26.48-.38-56.53-1.15-30.02-.76-38.69-1.15-25.94-1.15-2.56,0-5.63-1.64-9.16-4.96-3.59-3.32-5.35-6.23-5.35-8.78,0-8.14,10.69-14.53,32.06-19.12,14.25-3.05,27.52-4.57,39.73-4.57,66.7,0,111.23-26.73,133.66-80.2,5.6-13.23,8.39-23.17,8.39-29.79-15.8,17.29-33.35,30.28-52.69,38.93h0ZM38.18,191.58c9.42-5.85,14.13-13.12,14.13-21.77,0-17.81-8.41-26.73-25.22-26.73-7.13,0-13.62,3.56-19.48,10.69-2.69,3.28-4.99,5.72-6.98,7.5v37.48c3.14,1.02,6.35,1.63,9.65,1.63,9.17,0,18.47-2.93,27.89-8.78Z" fill="#0d0f0f"/>
</svg>