<?xml version="1.0" encoding="UTF-8"?>
<svg id="Layer_1" xmlns="http://www.w3.org/2000/svg" version="1.1" viewBox="0 0 300 600">
  <!-- Generator: Adobe Illustrator 30.1.0, SVG Export Plug-In . SVG Version: 2.1.1 Build 136)  -->
  <path id="Shape" d="M0,0v600c165.68,0,300-134.32,300-300.01S165.68,0,0,0Z" fill="#fffbd5"/>
  <path d="M107.99,298.48c0-28.76-10.73-53.74-32.18-74.93-21.08-20.84-45.95-31.37-74.57-31.73v213.34c30.1-.33,55.35-10.37,75.7-30.22,20.69-20.16,31.04-45.67,31.04-76.46ZM242.73,278.05c-17.15-25.24-32.57-37.87-46.18-37.87-11.1,0-19.18,5.3-24.22,15.91-5.05,10.6-10.6,15.88-16.65,15.88-8.59,0-15.4-3.05-20.44-9.1-2.03-2-6.06-8.57-12.12-19.67l25.75-18.16c9.08-6.07,13.63-12.62,13.63-19.66,0-4.06-1.28-10.36-3.8-18.94-2.53-8.58-3.79-14.63-3.79-18.16,0-7.57,10.1-14.39,30.29-20.44,22.19-6.07,38.85-10.6,49.96-13.63-50.99-9.08-84.54-13.62-100.69-13.62-25.73,0-39.62,3.54-41.63,10.6-.49,1.03-.13,5.58,1.15,13.64,1.25,8.06,1.88,12.86,1.88,14.37,0,15.14-7.34,22.71-21.95,22.71-7.08,0-17.41-4.78-31.04-14.38,6.05-20.17,6.55-36.07,1.51-47.68-1.51-4.03-7.57-10.85-18.16-20.44-8.59-8.08-12.87-15.64-12.87-22.71,0-13.63,10.85-35.08,32.56-64.35-7.29,3.19-22.23,13.21-44.67,29.92v136.69c31.65.38,59.17,12.16,82.51,35.51,23.72,23.72,35.59,51.74,35.59,84.02.49,34.33-10.73,62.72-33.7,85.16-22.62,22.13-50.77,33.31-84.4,33.63v135.83c37.22-26.84,56.03-46.9,56.03-60.07,0-2.52-4.69-6.83-14-12.88-9.35-6.06-14.02-14.12-14.02-24.22,0-20.18,11.62-32.05,34.83-35.59,11.62,26.77,24.73,40.13,39.37,40.13,3.02,0,7.69-1.52,14-4.54,6.31-3.04,10.46-4.56,12.49-4.56,14.63,0,28.5,25.76,41.63,77.23,10.1-44.9,15.14-78.22,15.14-99.91s-3.08-34.08-9.28-34.08c-2.06,0-6.2.77-12.38,2.27-6.2,1.51-11.09,2.27-14.69,2.27-5.68,0-12.64-3.77-20.89-11.36s-12.38-14.13-12.38-19.69c0-4.03,4.81-13.35,14.39-28.01,17.15,4.04,28.51,6.06,34.07,6.06,13.63,0,22.7-6.15,27.25-18.55,4.56-12.35,10.87-18.55,18.92-18.55,11.1,0,36.34,11.11,75.7,33.31-20.21-28.76-35.1-50.21-44.68-64.33Z" fill="#0d0f0f"/>
</svg>