<?xml version="1.0" encoding="UTF-8"?>
<svg id="Layer_1" xmlns="http://www.w3.org/2000/svg" version="1.1" viewBox="0 0 650 652">
  <!-- Generator: Adobe Illustrator 30.1.0, SVG Export Plug-In . SVG Version: 2.1.1 Build 136)  -->
  <polygon points="43.54 163.5 43.54 488.5 325 651 606.46 488.5 606.46 163.5 325 1 43.54 163.5" fill="#fff"/>
  <polygon points="414.2 70 235.8 70 325 18.5 414.2 70"/>
  <path d="M582.9,167.4l-257.9,148.9-56.04-32.36c9.28-1.41,19.2-2.57,29.71-3.36,9.38-.69,18.33-1.02,26.77-1.07,33.35-67.66,66.71-135.32,100.06-202.99l157.4,90.88Z"/>
  <polygon points="314 335.35 314 633.15 258 600.82 258 484.81 112 400.51 112 516.52 56.1 484.25 56.1 186.45 112 218.72 112 334.28 258 418.58 258 303.02 314 335.35"/>
  <polygon points="392 367.68 392 535.01 593.9 418.44 593.9 484.25 336 633.15 336 335.35 593.9 186.45 593.9 251.11 392 367.68"/>
  <polygon points="414 497 414 380.38 593.9 276.52 593.9 393.14 414 497"/>
  <polygon points="236 290.32 236 381.45 134 322.56 134 231.43 236 290.32"/>
  <polygon points="236 496.86 236 588.12 134 529.23 134 437.97 236 496.86"/>
  <path d="M283.98,101.69c-12.14,0-25.4,3.15-38.22,12.62-11.32,8.36-17.54,19.11-20.91,26.76-.28.63-1.21.43-1.21-.25-.1-20.89-.21-41.79-.31-62.68,0-.49-.53-.79-.95-.54-51.44,29.75-102.88,59.5-154.33,89.26-.42.24-.42.85,0,1.1,63.29,36.54,126.58,73.08,189.86,109.62.29.16.65.08.84-.19l120.49-174.69c.29-.42-.01-.99-.52-.99h-94.74Z"/>
  <path d="M379.92,101.69" fill="none"/>
</svg>