<?xml version="1.0" encoding="UTF-8"?>
<svg id="Layer_1" xmlns="http://www.w3.org/2000/svg" version="1.1" viewBox="0 0 477 554.79">
  <!-- Generator: Adobe Illustrator 30.1.0, SVG Export Plug-In . SVG Version: 2.1.1 Build 136)  -->
  <polygon points="0 139.7 0 415.09 238.5 552.79 477 415.09 477 139.7 238.5 2 0 139.7" fill="none"/>
  <polygon points="0 139.7 0 415.09 238.5 552.79 477 415.09 477 139.7 238.5 2 0 139.7" fill="#fff"/>
  <polygon points="232.61 281.89 232.61 539.29 180.75 509.34 180.75 421.2 61.49 352.34 61.49 440.48 9.71 410.59 9.71 153.2 61.49 183.09 61.49 271.05 180.75 339.91 180.75 251.95 232.61 281.89"/>
  <polygon points="300.53 315.75 300.53 441.29 466.38 345.53 466.38 411.5 243.47 540.2 243.47 282.81 466.38 154.11 466.38 220 300.53 315.75"/>
  <polygon points="313.05 419.68 313.05 322.98 466.38 234.46 466.38 331.16 313.05 419.68"/>
  <polygon points="168.66 244.97 168.66 318.82 73.57 263.92 73.57 190.07 168.66 244.97"/>
  <polygon points="168.66 428.62 168.66 502.37 73.57 447.47 73.57 373.72 168.66 428.62"/>
  <polygon points="128.81 141.3 71.66 174.3 14.5 141.3 71.66 108.3 128.81 141.3"/>
  <polygon points="294.79 101.8 238.5 134.3 182.21 101.8 238.5 69.3 294.79 101.8"/>
  <polygon points="238.5 148.3 182.21 180.8 238.5 213.3 294.79 180.8 238.5 148.3"/>
  <polygon points="238.5 148.3 182.21 180.8 238.5 213.3 294.79 180.8 238.5 148.3"/>
  <polygon points="405.34 108.3 348.19 141.3 405.34 174.3 462.5 141.3 405.34 108.3"/>
  <path d="M332.94,136.1l60.28-34.8L238.5,11.97,83.78,101.3l60.28,34.8c4,2.31,4,8.09,0,10.4l-60.28,34.8,154.72,89.33,154.72-89.33-60.28-34.8c-4-2.31-4-8.09,0-10.4ZM310.04,175.6c4,2.31,4,8.09,0,10.4l-68.54,39.57c-1.86,1.07-4.14,1.07-6,0l-68.54-39.57c-4-2.31-4-8.09,0-10.4l59.42-34.3-59.42-34.3c-4-2.31-4-8.09,0-10.4l68.54-39.57c1.86-1.07,4.14-1.07,6,0l68.54,39.57c4,2.31,4,8.09,0,10.4l-59.42,34.3,59.42,34.3Z"/>
  <polygon points="238.5 148.3 294.79 180.8 238.5 213.3 182.21 180.8 238.5 148.3"/>
  <polygon points="238.5 134.3 182.21 101.8 238.5 69.3 294.79 101.8 238.5 134.3"/>
  <polygon points="294.79 180.8 238.5 213.3 182.21 180.8 238.5 148.3 294.79 180.8"/>
  <polygon points="294.79 180.8 238.5 213.3 182.21 180.8 238.5 148.3 294.79 180.8" fill="none"/>
  <polygon points="294.79 101.8 238.5 134.3 182.21 101.8 238.5 69.3 294.79 101.8" fill="none"/>
  <polygon points="294.79 180.8 238.5 213.3 182.21 180.8 238.5 148.3 294.79 180.8" fill="none"/>
  <polygon points="294.79 101.8 238.5 134.3 182.21 101.8 238.5 69.3 294.79 101.8" fill="none"/>
  <polygon points="128.81 141.3 71.66 174.3 14.5 141.3 71.66 108.3 128.81 141.3" fill="none"/>
  <polygon points="128.81 141.3 71.66 174.3 14.5 141.3 71.66 108.3 128.81 141.3" fill="none"/>
  <polygon points="462.5 141.3 405.34 174.3 348.19 141.3 405.34 108.3 462.5 141.3" fill="none"/>
  <polygon points="462.5 141.3 405.34 174.3 348.19 141.3 405.34 108.3 462.5 141.3" fill="none"/>
</svg>