<?xml version="1.0" encoding="UTF-8"?>
<svg id="svg2" xmlns="http://www.w3.org/2000/svg" viewBox="0 0 1355.46 612.86">
  <defs>
    <style>
      .cls-1, .cls-2 {
        fill: #fff;
      }

      .cls-2 {
        fill-rule: evenodd;
      }
    </style>
  </defs>
  <path class="cls-1" d="M1281.89,0H70S0,160.35,0,306.43s70,306.43,70,306.43h1211.89s73.57-160.35,73.57-306.43S1281.89,0,1281.89,0ZM1259.68,576.79H93.84s-58.78-123.92-58.78-270S93.84,36.07,93.84,36.07h1165.84s60.72,124.64,60.72,270.72-60.72,270-60.72,270Z"/>
  <path d="M1259.68,36.07H93.84s-58.78,124.64-58.78,270.72,58.78,270,58.78,270h1165.84s60.72-123.92,60.72-270-60.72-270.72-60.72-270.72Z"/>
  <path class="cls-1" d="M1127.77,151.38c-79.05,0-105.31,70.57-105.31,106.69s21.42,105.22,109.19,97.72l28.75-11.62c-11.89,77.54-56.27,99.25-114.97,99.25v29.66c167.73,0,197-117.26,197-187.97s-35.61-133.72-114.66-133.72ZM1163.36,321.97c-29.96,0-41.56-1.25-51.12-12.69-9.56-11.44-15.28-42.37-15.28-68.37,0-22.78,6.75-55.31,29.53-55.31,42.15,0,36.88,82.26,36.88,136.37Z"/>
  <path class="cls-2" d="M804.73,506.99c5.68-5.04-5.38-18.02-9.72-23.56-13.66-16.57-43.39-36.62-62.85-48.81-12.03-9.74-13.38-29.43-15.96-43.67-1.62-7.83-2.98-15.28-4.74-23.39-5.39-36.32-19.62-70.44-36.63-103.11-12.37-25.1-20.67-52.09-25.92-79.14-1.88-12.94-5.07-30.66,2.88-41.83,5.12-6.84,15.53-11.83,18.81-18.91,4.11-8.54-1.93-19.28-10.92-17.95-8.34,1.62-18.52,3.11-27.18,4.06-9.51,1.45-22.01-.7-30.63-.96-9.67.99-18.67,5.16-28.74,4.78-11.67-.08-20.93-1.1-31.73-2.79-9.56-1.82-15.27-3.35-25.01-2.41-11.55.78-26.4,1.67-34.68,11.55-14.96,19.41,3.73,27.23,18.17,33.64,13.18,6.64,29.75,18.64,35.7,29.85,2.73,6.94-2.32,13.5-5.45,19.67-7.42,14.69-31.19,41.81-20.32,57.33,7.6,10.17,37.35,14.33,12,26.56-18.52,10.16-40.89.91-57.73-4.81-8.49-2.07-16.43-.03-25.53,2.84-26,9.89-35.91,20.14-63.69,8.8-11.34-2.75-21.64-5.35-33.57-5.67-8.96-.88-20.38-.75-27.22-6.95-12.57-13.72,3.52-32.48,9.17-47.64,4.69-11.86,10.67-21.97,18.93-32.36,17.78-22.37,5.61-33.62,26.59-49.08,10.62-7.86,31.17-13.26,43.92-15.84,5.29-1.73,24.86.57,26.59-5.14,1.2-7.05,2.4-11.75-3.61-15.75-21.45-14.11-46.68-30.16-71.17-17.11l-.87.41c-8.03,4.15-15.25,7.36-22.72,4.15-5.26-1.98-11.26-5.8-17-6.59-8.8-1.39-16.9,3.88-25.57,4.91-14.21,1.83-23.75-1.46-39.98-1.11-37.49.63-77.37-.44-113.3,10.97-17.45,9.71,3.05,26.68,14.15,35.51,6.77,5.86,13.67,9.24,22.62,10.18,16.94,1.68,38.47,3.98,53.54,8.81,14.99,2.45,33.16,11.47,39.17,27.57,3.32,14.29-6.11,31.99-9.5,45.82-6.24,21.81-13.89,41.46-26.59,63.17-11.63,18.33-22.76,36.94-24.39,59.44-2.02,32.33-19.61,57.71-36.19,83.62-12.27,23.32-74.15,48.77-35.15,76.61,20.51,12.16,49.22-8.7,69.33-17.57,16.68-8.33,27.67-10.86,47.71-8.87,18.48,1.02,44.06,7.14,60.52.73,11.18-9.89-11.81-22.97-21.86-27.42-20.28-6.97-19.57-30.49-22.82-48.96-1.64-19.6-6.86-39.58,7.87-55.6,11.05-12.29,25.61-23.27,41.56-25.29,12.96-4.53,25.02-3.11,42.38,2.17,17.34,6.06,34.94,13.63,53.2,6.45,30.24-13.38,32.38-19.52,64.71-7.67,24.08,4.32,38.48,26.44,60.1,36.62,13.97,6.07,29.37-1.75,43.48,1.61,6.21,3.96,7.59,17.77,9.63,25.71,1.67,9.25,3.8,20.02,0,30.18-6.69,15.63-25.8,21.49-40.9,27.32-10.19,3.19-18.11,4.52-26.05,11.75-38.04,39.26,2.49,32.78,31.09,35.32,20.3,1.28,42.27,6.52,66.22,5.62,17.18-.65,34.15-3.75,51.38-5.67,26.87-3,52.89-3.12,79.15-3.05,13.2.24,21.18,1.29,31.47,2.42,4.71.39,10.17.95,13.83-1.46Z"/>
  <path class="cls-2" d="M851.15,171.34c-20.07,10.69-57.05,33.19-77.31,47.11-4.76,5.46.06,20.58-.14,27.27,2.97,28.09,4.35,57.6,6.77,86.37,5.89,62.76,29.64,126.33,46.5,131.32,33.67,9.96,35.23,11.96,80.97,13.46,21.89.72,73.66-2.62,77.87-3.9,2.05-.77,11.19-6.21,11.97-13.38.58-17.12,2.43-55-10.54-58.86-25.31-8.26-51.49,21.56-79.21,16.62-5.12-.9-15.67-35.76-16.45-39.32-1.29-7.06-4.51-31.35-5.92-40.7-1.7-12.32-3.54-24.2-4.7-37.33-1.38-11.73-.88-29.54,5.85-32,5.79-3.7,24.11-8.81,34.4-7.67,9.42,1.04,13.19,5.71,19.16,10.36,26.07,20.32,7.32,61.75,16.29,54.31,18.55-15.37,25.31-35.09,30.5-54.53,4.14-20.85,2.67-23.62-6.02-38.77-2-3.48-6.68-9.06-13.75-13.48-2.61-1.66-5.53-4.01-8.47-6.66-30.52-31.22-75.92-54-106.64-40.75"/>
</svg>