<?xml version="1.0" encoding="UTF-8"?>
<svg id="Layer_1" xmlns="http://www.w3.org/2000/svg" version="1.1" viewBox="0 0 650 650">
  <!-- Generator: Adobe Illustrator 30.1.0, SVG Export Plug-In . SVG Version: 2.1.1 Build 136)  -->
  <path d="M325,23.55c-23.96,0-41.59,2.72-62.23,6-20.08,3.19-46.91,8.49-78.21,17.8-2.22,13.47-10.35,51.89-43.72,84.99-37.09,36.79-80.95,42.83-93.83,44.13,2.39,30.25,7.7,72.19,20.42,120.87,9.81,37.55,24.7,92.89,62.47,155.76,15.53,25.85,38.18,62.91,79.8,100.74,43.02,39.1,86.29,60.82,115.31,72.74,29.01-11.91,72.29-33.64,115.31-72.74,41.62-37.83,64.27-74.89,79.8-100.74,37.77-62.86,52.66-118.21,62.47-155.76,12.72-48.69,18.03-90.62,20.42-120.87-12.87-1.3-56.74-7.34-93.83-44.13-33.37-33.11-41.5-71.52-43.72-84.99-31.3-9.31-58.14-14.61-78.21-17.8-20.64-3.27-38.28-6-62.23-6h-.02Z" fill="#fff"/>
  <path d="M485.71,138.65c-24.61-28.25-34.07-57.8-37.94-73.86-31.63-8.44-58.13-13.33-77.68-16.3-22.21-3.37-34.28-4.07-45.09-4.07s-22.88.7-45.09,4.07c-19.55,2.97-46.05,7.86-77.68,16.3-3.87,16.06-13.33,45.61-37.94,73.86-34.96,40.12-78.29,52.16-94.23,55.77,2.23,19.48,5.9,44.24,12.22,72.58,10.85,48.64,24.14,83.81,27.6,92.79,8.35,21.69,20.25,52.17,42.49,88.36,12.23,19.9,31.33,50.53,64.15,82.11,20.25,19.48,54.65,47.91,105.45,70.32,1.93.85,4.13.85,6.06,0,50.8-22.41,85.2-50.84,105.45-70.32,32.82-31.58,51.92-62.21,64.15-82.11,22.24-36.19,34.14-66.67,42.49-88.36,3.46-8.98,16.75-44.15,27.6-92.79,6.32-28.34,9.99-53.1,12.22-72.58-15.94-3.61-59.27-15.65-94.23-55.77h0ZM160.5,264l40.59,24.6-2.25,44.01-40.59-24.61,2.25-44ZM235.25,450.32c-19.47-4.33-38.95-8.66-58.41-13-.09-19.51.09-39.35,0-58.86,19.48,4.57,38.95,9.15,58.41,13.72v58.14ZM214.59,342.15l2.25-44,40.45,24.53-2.25,44-40.45-24.53h0ZM310.5,467.06c-19.75-4.39-39.5-8.79-59.25-13.18v-57.94c10.89,2.56,21.79,5.13,32.68,7.68l26.57,16.11v47.33ZM311.25,400.75l-40.78-24.72,2.25-44,40.78,24.72-2.25,44ZM388.93,484.52c-20.72-4.62-41.45-9.24-62.18-13.85v-51l8.32-4.02c17.95,4.21,35.9,8.43,53.86,12.65v56.22ZM327.25,401.5l2.25-44,42.93-20.74-2.24,44h-.01l-42.93,20.74ZM426.25,450.64c-7.09,7.74-14.16,15.45-21.19,23.12.04-16.1-.04-32.29,0-48.39,7.05-6.65,14.11-13.29,21.19-19.93v45.2ZM429.53,352.1l-42.75,20.65,2.24-44,42.76-20.66-2.25,44.01ZM327.03,313.36c-2.05.95-4.44.82-6.38-.34-36.61-22-73.22-44-109.83-66,1.09-1.97,2.92-5.22,5.33-9.16,4.68-7.67,6.99-10.55,9.41-16.42,3.06-7.43,2.53-10.48,1.89-12.29-.87-2.46-2.49-4.13-3.71-5.15,2.76.45,5.72,1.15,8.81,2.22,14.31,4.96,23.2,14.99,27.7,21.12,3.06-1.93,7.25-4.97,11.47-9.5,1.08-1.17,3.27-3.54,5.26-6.61,2.9-4.44,4.7-9.28,6.39-18.19,2.85-15.11.48-16.05,3.5-25.98,2.78-9.14,6.44-13.79,7.37-14.93,3.59-4.42,7.61-7.21,9.91-8.81,4.1-2.85,7.76-4.56,10.17-5.67,3.11-1.44,5.65-2.37,8.3-3.29,4.65-1.61,11.48-3.82,20.42-6.19-2.08,3.59-4.95,9.54-6.15,17.38-.58,3.81-1.28,8.37,0,14,2.15,9.42,8.38,15.42,11.48,18.4,1.78,1.71.99.67,10.55,8.46,3.72,3.03,6.59,5.43,9.17,7.6,6.74,5.63,10.11,8.45,11.48,9.72,0,0,7.45,6.91,13.23,15.82,8,12.33,10.75,25.42,11.71,34.46,4.11-.58,7.01-1.94,8.74-2.93,8.28-4.74,11.37-13.37,12.98-17.86,1.24-3.45,1.81-6.42,2.1-8.37,2.7,4.18,5.49,8.98,8.15,14.41,3.47,7.11,5.97,13.78,7.8,19.67-39.09,18.14-78.17,36.28-117.25,54.43h0ZM457.5,416.51c-6.75,7.36-13.5,14.74-20.25,22.11v-43.49c6.75-6.32,13.5-12.65,20.25-18.97v40.35ZM483.32,388.33c-4.93,5.37-9.87,10.76-14.82,16.17v-38.67c4.95-4.64,9.89-9.29,14.82-13.94-.11,12.35.11,24.08,0,36.44h0ZM489.25,323.25l-43.07,20.8,2.25-44,43.07-20.8-2.25,44Z"/>
</svg>