<?xml version="1.0" encoding="UTF-8"?>
<svg id="Layer_1" xmlns="http://www.w3.org/2000/svg" version="1.1" viewBox="0 0 1773.42 961.26">
  <!-- Generator: Adobe Illustrator 30.1.0, SVG Export Plug-In . SVG Version: 2.1.1 Build 136)  -->
  <path d="M1381.55,396.26c30.12-1.82,75.83-4.14,132.46-5.18-74.78,33.28-136.71,58.94-179.63,76.29-111.72,45.16-170.43,64.67-271.41,110.63-47.37,21.57-85.58,40.54-110.4,53.18,15.4,1.86,39.39,4.47,68.87,6.38,49.17,3.19,82.03,2.39,146.43,2.37,25.33-.01,62.46.1,108,.69-33.84,16.17-87.98,41.36-156.29,69.95-44.82,18.76-72.59,29.29-142.87,57.04-41.41,16.35-102.97,40.8-179,71.58h0c-26.03,22.96-54.6,43.14-85.22,60.05-68.34,37.75-146.93,59.24-230.53,59.24C218.25,958.48,4.45,744.7,4.45,480.98S218.25,3.48,481.96,3.48c39.6,0,78.07,4.82,114.86,13.91h.01c21.38,5.28,42.2,12.01,62.34,20.06,29.53.25,77.82.16,137.66-2.43,57.61-2.49,95.7-5.95,194.22-13.82,37.81-3.02,93.02-7.35,160.64-12.35-94.83,63.3-189.67,126.61-284.51,189.91,3.29,4.49,6.5,9.03,9.63,13.63,114.97-6.61,209.2-12.51,274.88-16.74,143.09-9.21,223.4-15.15,347.05-20.53,69.61-3.03,126.79-4.74,164.63-5.72-38.23,14.95-98.91,38.57-174.09,67.27-119.97,45.8-162.3,60.84-227.64,88.93-41.78,17.96-103.32,45.72-177.13,84.12,18.21.38,47.95.73,84.65-.11,82.6-1.89,125.64-8.12,212.39-13.35Z" fill="#fff"/>
  <g>
    <path d="M887.48,479.98c0,54.86-11.06,107.19-31.1,154.92-4.74,11.3-9.99,22.34-15.71,33.1-37.59,70.67-95.7,129.1-166.55,167.61-59.04,32.1-126.94,50.37-199.16,50.37-227.83,0-412.53-181.77-412.53-406S247.13,73.98,474.96,73.98c34.21,0,67.45,4.1,99.23,11.83h.01c80.44,19.55,151.58,62.32,205.66,120.68,14.06,15.18,26.97,31.41,38.59,48.57,43.61,64.38,69.03,141.73,69.03,224.92Z" fill="none" stroke="#000" stroke-width="60"/>
    <path d="M728.05,424.38c-4.78,2.91-11.78,9.78-4.94,22.89,4.8,9.2-.32,50.83-5.74,91.09-1.21,9.16-2.23,16.44-2.32,18.7-.41,9.21-.53,9.55-8.18,17.76l-2.48,2.65c-2.49,2.69-5.42,6.23-8.54,10-9.67,11.74-21.93,26.52-32.73,30.7-13.19,5.09-20.3,5.02-26.17-.36-4.45-.83-31.19,27.12-37.63,38.57-4.78,8.45-4.56,11.32-3.72,22.19.2,2.45.43,5.26.62,8.56l.13,1.99c.86,14.15,1.33,22.07-2.29,24.09-2.45,1.34-5.28-.84-7.25-2.62-2.41-2.23-4.88-5.24-7.26-8.16-4.3-5.22-8.71-10.62-12.41-10.9-1.28-.11-2.49.45-3.72,1.73-8.24,8.7-13.99,23.93-18.14,48.44-4.64,27.46-10.16,42.82-17.76,49.17-2.54,2.12-3.86,4.91-5.35,8.12-2.36,5.11-5.07,10.91-13.52,14.3-3.39,1.32-7.01,1.45-10.74.62-10.95-2.42-22.52-12.91-30.67-24.51-4.01-5.72-7.77-8.63-10.78-10.98-4.14-3.22-7.73-6.02-8.51-13.77-.22-2.13-.33-4.52-.4-7.04-.26-6.83-.57-14.48-3.65-16.83-1.54-1.17-3.9-1.09-7.1.25-3.86,1.66-6.9,2.75-9.45,3.69-7.29,2.7-10.32,3.81-18.97,11.95-6.94,6.56-15.02,13.12-21.83,11.61h-.04c-3.73-.88-6.76-4.06-8.95-9.47-5.3-13.14-23.32-15.32-30.74-11.46-13.28,6.85-29.46,9.33-34.59-4.26-5.24-13.93-8.91-22.36-18.49-22.28-10.87.13-30.9.32-35.72-19.83-1.2-5.09-1.74-9.92-2.23-14.57-1.28-12.24-2.31-21.74-15.26-27.2-10.42-4.4-19.12-3.03-26.1-1.94-5.3.84-9.51,1.48-12.57-.75l-14.16-3.41c-1.25.17-4.45.26-6.52-2.36-2.49-3.11-2.36-8.78.36-16.77.72-3.32-60.19-100.56-18.62-232.64,43.89-139.43,86.16-149.04,86.26-149.6.51-.57,10.5-10.32,10.98-11.05,1.37-2.13,13,3.08,22.49,3.57h.03l131.96,8.91c.16-.03,8.93-.4,15.73,7.02,7.08,7.71,19.03,16.39,28.41,17l3.06.16c10.17.59,22.78,1.33,29.05,9.63,6.39,8.5,14.31,16.26,28.51,15.01,5.13-.46,12.27-2.04,19.76-3.73,14.35-3.19,30.48-6.76,39.52-3.97,13.14,4.11,21.29,3.36,25.54-2.33,4.86-6.51,38.32-31.4,49.78-31.91,10.63-.46,5.48-6.92,15.32-9.5,13.48-3.53,23.65,12.12,28.41,15.98,7.75,6.3,19.37,17.59,22.27,29.86,5.43,22.93,9.13,106.91,9.33,108.14.13.8.49,1.92.91,3.24,1.61,5.05,4.12,12.77-2.2,16.65v-.03Z"/>
    <path d="M778.93,559.29c14.88.82,33.44,3.08,35.92,23.11-7.1,32.08-28.28,79-56.5,85.17-30.29,5.35-31.35-40.74-18.3-77.74,9.79-18.13,26.34-28.68,38.88-30.54Z" fill="#010101"/>
    <path d="M524.18,254.2c-20.17-1.81-32.61-18.91-41.23-32.85-10.15-16.15-1.08-31.78-5.55-48.11-.96-8.33-6.73-20.08,3.7-24.24,23.9-10.62,55.59-6,84.13-.38,26.56,6.42,54.19,15.24,76.45,31.31,11.05,8.56,11.74,21.33,6.02,29.88-8.34,22.79-32.87,37.82-61.92,40.68-20.2,2.19-39.7,7.79-61.61,3.72Z" fill="#010101"/>
    <path d="M638.87,697.01c6.06-15.07,17.84-31.99,29.42-37.55,16.01-8.35,32.58-16.84,46.64-18.08,9.36.76,4.23,18.58,6.21,27.99,1.01,14.52,10.99,18.46,16.84,27.18,3.47,4.03.66,15.72-6.75,23.15-18.04,21.28-37.97,36.52-56.83,48.61-12.9,7.58-26.23,15.94-37.91,18.22,2.67-16.64,6.46-34.25,4.06-47.36-.26-14.24-6.89-24.02-1.7-42.16h.01Z" fill="#010101"/>
    <path d="M409.96,225.27c-12.35-.87-25.11-3.07-37.14-8.31-13.93-9.26-25.21-22.64-33.27-36.8,7.48-17.17,26.71-24.59,44.42-29.88,12.78-3.27,26.44-4.72,40.48-3.32,11.15,19.54,6.57,39.59,5.31,58.67-.43,10.58-8.08,20.48-19.78,19.65h-.01Z" fill="#010101"/>
    <path d="M998.13,62.25l-218.27,144.24c-54.08-58.36-125.22-101.13-205.66-120.68l423.93-23.56Z"/>
    <path d="M1135.28,449.83c48.1-1.22,95.48-2.92,142.14-5.05-61.71,22.47-126.48,48.29-193.59,78-82.44,36.51-158.28,74.42-227.45,112.12,20.04-47.73,31.1-100.06,31.1-154.92,0-83.19-25.42-160.54-69.03-224.92,197.15-10.76,394.3-21.52,591.45-32.28-32.85,12.39-82.42,31.57-142.23,56.68-57.14,24-100.39,43.58-148.94,65.71-14.41,6.57-30.52,13.93-48.24,22.03-43.23,19.77-28.45,84.54,19.08,83.64,15.17-.29,30.4-.62,45.71-1.01Z"/>
    <path d="M1085.51,678.83c-72.01,30.75-147.38,61.14-226.08,90.75-63.13,23.76-124.96,45.72-185.31,66.03,70.85-38.51,128.96-96.94,166.55-167.61,81.61,3.61,163.22,7.22,244.84,10.83Z" fill="#010101"/>
  </g>
</svg>