<?xml version="1.0" encoding="UTF-8"?>
<svg id="Layer_1" xmlns="http://www.w3.org/2000/svg" version="1.1" viewBox="0 0 650 652">
  <!-- Generator: Adobe Illustrator 30.1.0, SVG Export Plug-In . SVG Version: 2.1.1 Build 136)  -->
  <polygon points="43.54 163.5 43.54 488.5 325 651 606.46 488.5 606.46 163.5 325 1 43.54 163.5" fill="#fff"/>
  <polygon points="582.9 167.4 325 316.3 67.1 167.4 325 18.5 582.9 167.4"/>
  <polygon points="314 335.35 314 633.15 258 600.82 258 484.81 112 400.51 112 516.52 56.1 484.25 56.1 186.45 112 218.72 112 334.28 258 418.58 258 303.02 314 335.35"/>
  <polygon points="392 367.68 392 535.01 593.9 418.44 593.9 484.25 336 633.15 336 335.35 593.9 186.45 593.9 251.11 392 367.68"/>
  <polygon points="414 497 414 380.38 593.9 276.52 593.9 393.14 414 497"/>
  <polygon points="236 290.32 236 381.45 134 322.56 134 231.43 236 290.32"/>
  <polygon points="236 496.86 236 588.12 134 529.23 134 437.97 236 496.86"/>
</svg>