<?xml version="1.0" encoding="UTF-8"?>
<svg id="svg" xmlns="http://www.w3.org/2000/svg" version="1.1" viewBox="0 0 978.9 1070.38">
  <!-- Generator: Adobe Illustrator 30.1.0, SVG Export Plug-In . SVG Version: 2.1.1 Build 136)  -->
  <path d="M772.43,258.93c-23.36-45.77-56.98-84.77-97.24-112.77l-53.77-37.4,23.71,61.06c12.44,32.03,14.09,70.6,5.89,103.33-17.31-29.75-40.64-53.57-62.01-75.39-46.62-47.61-83.44-85.21-58.32-165.74L540.68-.01l-32.93,6.45c-29.91,5.85-59.88,18.89-86.68,37.7-27.23,19.11-49.91,43.33-65.58,70.03-25.6,43.63-31.33,90.54-16.57,135.66l.19.58.22.57c7.1,17.93,7.48,34.72,1.09,48.55-.15.31-.29.62-.44.92-.21-9.56-1.83-19.23-4.89-28.84-10.6-33.29-36.94-60.18-70.45-71.91l-27.1-9.49.5,28.71c.04,2.23.05,2.76.09,4.06.04,1.42.11,3.81.28,10.86l.02.27v.27c1.6,31.55-11.23,52.87-27.48,79.86-6.22,10.33-12.65,21.01-18.6,32.94l-.16.32-.15.33c-17.23,37.88-22.76,74.18-16.45,107.89,5.65,30.17,20.25,57.88,44.63,84.73,42.48,46.78,108.42,82.48,166.6,113.98,32.54,17.62,63.29,34.27,87.21,51.14h0s10.46,7.36,10.46,7.36l11.08-6.4c62.81-36.29,135.49-81.72,199.49-124.7,67.69-39.28,106.76-103.5,110.04-180.93,1.99-47.06-9.31-96.15-32.68-141.97Z" fill="#020202"/>
  <path d="M663.75,162.58c19.65,50.62,15.8,117.96-12.82,160.79-33.99-120.17-186.78-145.31-139.36-297.3-93.78,18.36-187.12,115.24-153.66,217.55,18.21,46,.29,88.09-46.68,104.11-7.65,2.72-7.8,2.73-6.25.59,34.55-48.65,5.2-111.48-46.95-129.74.08,4.55.06,1.6.37,14.79,2.6,51.23-27.04,80.42-48.15,122.75-84.28,185.27,162.46,253.52,275.31,333.1,64.25-37.13,136.73-82.6,198.9-124.36,160.02-92.27,111.85-310.09-20.7-402.28h0ZM691.99,491.38c-3.31,21.46-14.8,45.71-27.74,58.58-3.15,3.13-18.85,13.49-44.85,29.59-22,13.63-42.03,26.07-44.5,27.66-2.47,1.59-14.85,9.31-27.5,17.16s-31.13,19.37-41.06,25.6-18.71,11.55-19.5,11.82c-.79.28-4.45-1.39-8.14-3.71s-10.66-6.64-15.5-9.6c-17.49-10.71-26.86-16.49-30.3-18.66-1.92-1.22-10.7-6.63-19.5-12.02-50.43-30.9-52.29-32.08-60.06-37.9-15.52-11.63-34.06-32.6-44.31-50.09-5.42-9.26-10.53-22.05-13.84-34.72-2.4-9.15-2.68-12.05-2.73-27.72-.04-13.57.36-19.26,1.78-25.31l1.83-7.82,3.17,2.6c17.44,14.32,34.47,25.29,51.87,33.43,12.68,5.92,27.59,11.64,28.36,10.87.32-.32-.31-2.3-1.38-4.42-4.67-9.19-6.65-19.14-6.65-33.35,0-15.55,1.94-23.99,8.53-37.11,7.99-15.91,19.65-28.8,37.94-41.92,25.37-18.2,42.65-35.55,57.77-57.97,6.34-9.41,15.29-27.31,18.25-36.5,1.24-3.85,2.45-7.34,2.68-7.75.69-1.21,10.91,8.06,18.93,17.16,13.21,15,22.68,31.78,28.01,49.6,2.48,8.31,2.69,10.42,2.75,27.5.06,17.22-.13,19.17-2.67,28.16-2.97,10.49-7.51,21.87-11.43,28.59-3.07,5.27-2.53,5.34,9.38,1.13,25.87-9.13,47.01-24.6,59.27-43.38,2.86-4.39,5.33-8.1,5.48-8.25.15-.15,2.34,2.83,4.86,6.62,24.77,37.26,27.44,79.54,7.51,118.99l-4.73,9.36,4.67-.7c23.53-3.53,49.71-16.76,65-32.86,5.68-5.98,7.27-7.17,7.8-5.83,1.34,3.34,1.73,25.73.58,33.17h-.03Z" fill="#fff"/>
  <g>
    <path d="M150.99,579.63c16.31,9.57,323.78,193.47,336.46,200.96,6.51-3.53,324.33-192.52,332.3-196.92.21,0,159.14,186.01,159.14,186.01l-493.93,300.71L0,771.36s138.54-177.31,150.99-191.73Z" fill="#020202"/>
    <path d="M487.64,803.45c5.91-3.21,319.73-190.58,326.97-194.58.19,0,.34.05.44.11,2.54,1.68,134.91,153.43,134.91,153.43l-461.47,285.82L28.94,767.05s116.61-148.75,127.93-161.86c14.82,8.7,319.24,191.44,330.77,198.25h0Z" fill="#fff"/>
    <path d="M511.57,848.22l293.71-176.28,76.05,84.43s-366.35,225.21-369.78,227.26v-135.42h.02Z" fill="#020202"/>
  </g>
</svg>