<?xml version="1.0" encoding="UTF-8"?>
<svg id="Layer_1" xmlns="http://www.w3.org/2000/svg" version="1.1" viewBox="0 0 600 600">
  <!-- Generator: Adobe Illustrator 30.1.0, SVG Export Plug-In . SVG Version: 2.1.1 Build 136)  -->
  <path d="M300,300L123.66,57.29C174.91,20.06,236.66,0,300,0s125.09,20.06,176.34,57.29l-176.34,242.71Z" fill="#fffbd5"/>
  <path d="M300,300L14.68,392.71c-19.57-60.24-19.57-125.17,0-185.41,19.57-60.24,57.74-112.77,108.98-150l176.34,242.71h0Z" fill="#9bd3ae"/>
  <path d="M300,300v300c-63.34,0-125.09-20.06-176.34-57.29-51.25-37.23-89.41-89.76-108.98-150l285.32-92.71h0Z" fill="#f9aa8f"/>
  <path d="M300,300l285.32,92.71c-19.57,60.24-57.74,112.77-108.98,150-51.25,37.23-112.99,57.29-176.34,57.29v-300h0Z" fill="#cbc2bf"/>
  <path d="M300,300L476.34,57.29c51.25,37.23,89.41,89.76,108.98,150,19.57,60.24,19.57,125.17,0,185.41l-285.32-92.71h0Z" fill="#aae0fa"/>
  <path d="M405.22,125.88c-14.21-8-23.29-12.01-27.29-12.01-2.92,0-5.19,2.24-6.81,6.71s-4.9,6.67-9.81,6.67c-2.02,0-6.09-.72-12.3-2.16-3.46,5.26-5.19,8.65-5.19,10.1,0,2.02,1.48,4.36,4.47,7.1s5.48,4.07,7.54,4.07c1.3,0,3.06-.25,5.3-.83,2.24-.54,3.71-.83,4.47-.83,2.24,0,3.35,4.11,3.35,12.3s-1.8,19.83-5.44,36.02c-4.72-18.57-9.74-27.84-15-27.84-.72,0-2.24.54-4.51,1.66-2.27,1.08-3.97,1.62-5.05,1.62-5.26,0-9.99-4.83-14.21-14.46-8.37,1.26-12.55,5.55-12.55,12.84,0,3.64,1.69,6.56,5.05,8.73,3.35,2.2,5.05,3.75,5.05,4.65,0,4.9-7.18,12.48-21.56,22.64-7.64,5.44-12.91,9.27-15.83,11.47,2.52-3.28,5.08-7.54,7.64-12.84,2.92-5.99,4.36-10.64,4.36-13.92,0-1.8-2.09-4.36-6.27-7.64s-6.27-6.74-6.27-10.38c0-3.1,1.08-6.92,3.28-11.47-2.38-2.74-5.19-4.11-8.47-4.11-7.28,0-10.93,2.38-10.93,7.1,0-3.28,0-.83,0,7.36.18,6.02-4.36,9.01-13.67,9.01-7.1,0-19-1.66-35.77-4.9,18.93-4.72,28.38-10.2,28.38-16.37,0,.72-.36-1.44-1.08-6.56-.72-5.62,3.28-10.74,12.01-15.29-1.62-8.37-5.99-12.55-13.09-12.55-1.08,0-3.1,1.91-5.99,5.73-2.92,3.82-5.62,5.73-8.18,5.73-4.36,0-10.02-4.72-16.91-14.21-3.28-4.72-8.29-11.72-15-21.02,4.18,2.2,8.37,4.36,12.55,6.56,5.44,2.56,9.84,3.82,13.09,3.82,2.56,0,5.05-2.24,7.5-6.71s5.7-6.71,9.7-6.71c.54,0,4.18,1.08,10.93,3.28,3.46-5.26,5.19-9.19,5.19-11.75,0-2.2-1.33-4.69-3.97-7.5s-5.05-4.22-7.25-4.22c-.9,0-2.31.29-4.22.83s-3.32.83-4.22.83c-3.28,0-4.9-4.11-4.9-12.3,0-2.2,2.09-14.64,6.27-37.39-.18,2.74,1.01,7.82,3.53,15.29,3.1,9.09,6.74,13.67,10.93,13.67.72,0,2.2-.54,4.36-1.62,2.2-1.08,3.89-1.62,5.19-1.62,4.18,0,7.64,2.38,10.38,7.1l4.11,7.36c3.82,0,6.99-1.37,9.55-4.07,2.56-2.74,3.82-6.02,3.82-9.84s-1.69-7.07-5.05-9.16c-3.39-2.09-5.05-3.68-5.05-4.76,0-3.82,6.02-10.28,18.03-19.36,9.63-7.28,15.94-11.54,18.82-12.84-7.82,10.56-11.75,18.28-11.75,23.18,0,2.56,1.55,5.26,4.65,8.18,3.82,3.46,6.02,5.91,6.56,7.36,1.8,4.18,1.62,9.92-.54,17.2,4.9,3.46,8.65,5.19,11.18,5.19,5.26,0,7.9-2.74,7.9-8.18,0-.54-.22-2.27-.69-5.19-.47-2.92-.58-4.54-.4-4.9.72-2.56,5.73-3.82,15-3.82,5.84,0,17.92,1.62,36.31,4.9-4,1.08-10.02,2.74-18.03,4.9-7.28,2.2-10.93,4.65-10.93,7.36,0,1.26.47,3.46,1.37,6.56s1.37,5.37,1.37,6.81c0,2.56-1.62,4.9-4.9,7.1l-9.27,6.56c2.2,4,3.64,6.38,4.36,7.1,1.8,2.2,4.29,3.28,7.36,3.28,2.2,0,4.18-1.91,6.02-5.73,1.8-3.82,4.72-5.73,8.73-5.73,4.9,0,10.46,4.54,16.66,13.67,3.46,5.12,8.83,12.84,16.08,23.22M344.72,110.08c0-11.65-4.29-21.74-12.84-30.29s-18.64-12.84-30.29-12.84-22.03,4.22-30.58,12.69-12.91,18.61-13.09,30.43c-.18,11.65,4.15,21.71,12.98,30.14,8.83,8.47,19.07,12.69,30.72,12.69,12.37,0,22.72-4.04,30.97-12.15,8.29-8.08,12.33-18.32,12.15-30.68M340.65,110.08c0,11.11-3.71,20.3-11.18,27.55-7.46,7.28-16.73,10.93-27.84,10.93s-19.94-3.71-27.55-11.18c-7.64-7.46-11.47-16.55-11.47-27.29s3.86-19.61,11.61-27.15,16.87-11.32,27.44-11.32,19.69,3.82,27.44,11.47c7.72,7.64,11.61,16.66,11.61,27.01"/>
  <path d="M525.14,312.94c-13.42,13.66-29.95,20.48-49.59,20.48-22.04,0-39.52-7.54-52.45-22.63-12.22-14.37-18.32-32.69-18.32-54.96,0-23.95,10.42-51.26,31.26-81.92,17-25.14,37-47.18,59.99-66.1-3.35,15.33-5.03,26.22-5.03,32.69,0,14.85,4.66,29.34,14.01,43.47,11.5,16.76,20.23,29.23,26.23,37.36,9.34,14.14,14.01,27.91,14.01,41.31,0,19.88-6.7,36.65-20.11,50.3M524.77,236.24c-3.59-8.02-7.78-13.35-12.58-15.99.72,1.44,1.08,3.48,1.08,6.11,0,5.03-1.43,12.21-4.31,21.55l-4.66,14.37c0,8.38,4.18,12.58,12.57,12.58,8.86,0,13.29-5.87,13.29-17.61,0-5.98-1.79-12.98-5.39-21.02"/>
  <path d="M505.38,450.38c0,13.25-4.8,22.3-14.45,27.1-2.8,1.4-11.65,3.32-26.5,5.72-9.65,1.6-14.45,5.32-14.45,11.13v24.38c0,1,.32,4.12.92,9.33l.92,9.65c0,3-.72,7.93-2.12,14.77-3.8.8-8.25,1.72-13.25,2.72-1.6-6.04-2.4-10.13-2.4-12.37,0-1,.24-2.52.76-4.52.48-2,.76-3.52.76-4.52,0-1.4-1.24-5.32-3.76-11.73h-4.68c-.6,1-.84,2.32-.64,3.92.8,3.4,1.12,6.32.92,8.73-3.4,2.4-8.13,5.64-14.17,9.65-1.4-.4-1.92-.6-1.52-.6v-21.38c-.4-1-1.4-1.4-3-1.2h-3.6l-3.6,28.3c-2.8.2-6.24.2-10.25,0-1.4-6.61-3.92-16.45-7.53-29.5h-2.4c-2.2,7.05-3.4,10.85-3.6,11.45,0,.8.24,2.36.76,4.68.48,2.32.76,3.88.76,4.68,0,.6-.2,2.12-.6,4.52l-.92,7.25c-.4.4-.92.6-1.52.6-6,0-10.05-1.52-12.05-4.52s-2.8-7.25-2.4-12.65l2.4-36.15c0-.6.2-1.4.6-2.4s.6-1.72.6-2.12c0-1.6-1.72-4.8-5.12-9.65-.6-.2-3.72-.92-9.33-2.12-3.4-.8-10.13-2.2-20.18-4.2-13.85-2.6-20.78-13.73-20.78-33.43,0-29.3,12.05-53.72,36.15-73.18,1,5.4,2.72,12.65,5.12,21.7,1.8.4,5.72,1.32,11.73,2.72,1.2.4,7.33,2.6,18.37,6.65-5.64-3.4-12.97-8.93-21.98-16.57-3.4-4-5.12-10.73-5.12-20.18,0-2.2,3.8-4.8,11.45-7.85,6.81-2.8,11.97-4.4,15.37-4.8,10.85-1.4,19.17-2.12,25.02-2.12,25.1,0,45.39,6.44,60.85,19.29-5,5.84-13.65,12.05-25.9,18.65,4.84.2,11.85-1.68,21.1-5.72,9.25-4,13.17-6,11.73-6,1.6,0,4.84,3.2,9.65,9.65,3.6,4.8,6.53,9.13,8.73,12.97,6.4,11.45,10.73,23.82,12.97,37.07,0,4.64.08,7.93.32,9.93v2.4h0l-.12-.12h-.02ZM390.01,455.79c0-8.65-3.76-16.81-11.29-24.54s-15.61-11.61-24.26-11.61c-7.65,0-14.37,3.24-20.18,9.69-5.84,6.48-8.73,13.65-8.73,21.54,0,6.89,3.32,11.33,9.93,13.33,4.2,1.2,10.13,1.92,17.77,2.12h16.57c13.45.2,20.18-3.32,20.18-10.53M422.84,493.14v-9.33c-1.4-2.6-2.8-5.32-4.2-8.13-1.2-4-3.4-9.65-6.65-16.85l-3.32,35.23c0,2.8-.6,4.2-1.8,4.2-.8,0-1.4-.2-1.8-.6-1.4-21.3-2.12-30.5-2.12-27.7v-10.53c-.4-.6-.88-.92-1.48-.92-6.85,7.05-10.25,18.37-10.25,34.03,0,8.65.8,13.97,2.4,15.97,1.6-.4,3.4-1.12,5.4-2.12.8-.4,3.12-.6,6.93-.6s8.45,1.2,13.85,3.6c2,0,3-5.4,3-16.25M490.89,451.18c0-8.09-3-15.29-9.05-21.66-6.04-6.36-12.97-9.53-20.78-9.53-8.45,0-16.33,3.84-23.66,11.61-7.33,7.73-11.01,15.81-11.01,24.26,0,7.05,3.4,10.53,10.25,10.53h34.63c13.05-.2,19.58-5.24,19.58-15.17"/>
  <path d="M282.52,490.78c-7.91,18.88-23.65,28.31-47.15,28.31-4.31,0-9,.53-14.01,1.62-7.55,1.62-11.33,3.88-11.33,6.74,0,.88.64,1.94,1.87,3.11,1.27,1.16,2.33,1.76,3.25,1.76-4.48,0-1.45.14,9.18.39,10.62.28,17.26.39,19.94.39-15.64,9.18-41.79,13.38-78.46,12.67-12.04-.18-22.38-5.47-30.99-15.92-8.47-9.88-12.67-20.93-12.67-33.14,0-12.92,4.34-23.93,13.09-33.04,8.72-9.07,19.55-13.62,32.47-13.62,2.86,0,6.71.64,11.47,1.87,4.76,1.27,7.94,1.87,9.57,1.87,6.64,0,14.93-2.75,24.81-8.22s14.58-8.22,14.01-8.22c-1.8,18.88-8.08,31.55-18.88,38.01-7.73,4.48-11.58,8.89-11.58,13.2,0,2.68,1.62,4.87,4.84,6.46,2.51,1.27,5.29,1.91,8.37,1.91,4.66,0,9.25-2.86,13.77-8.61,4.48-5.75,6.46-10.98,5.93-15.64-.53-5.4-.18-11.86,1.09-19.41.35-2.15,1.66-4.8,3.92-7.94s4.27-5.08,6.07-5.79c0,1.62-.56,4.31-1.76,8.08-1.16,3.78-1.76,6.56-1.76,8.37,0,3.95,1.06,7.02,3.25,9.18,3.25-1.27,6.11-5.29,8.61-12.14,2.15-5.22,3.42-10.24,3.78-15.11-7.55-.35-14.79-3.78-21.71-10.24-6.92-6.46-10.38-13.48-10.38-21.04,0-1.27.18-2.51.53-3.78,1.06,1.62,2.68,4.13,4.84,7.55,3.07,4.48,5.4,6.74,7.02,6.74,2.15,0,3.25-2.26,3.25-6.74,0-5.75-1.52-10.98-4.59-15.64-3.42-5.58-7.84-8.37-13.2-8.37-2.51,0-6.28,1.34-11.33,4.06-5.05,2.68-9.64,4.06-13.77,4.06-1.27,0-6.85-1.62-16.73-4.87,17.44-2.86,26.15-5.47,26.15-7.8,0-6.11-11.97-10.24-35.86-12.39-2.33-.18-6.64-.53-12.95-1.09.71-.88,5.82-1.87,15.35-2.96,8.08-.88,13.77-1.34,16.98-1.34,42.78,0,69.92,20.75,81.43,62.3,1.98-1.62,2.96-4.38,2.96-8.19,0-4.91-1.45-11.12-4.31-18.6-1.09-2.89-2.79-7.27-5.12-13.13,14.72,18.78,22.09,36.57,22.09,53.37,0,8.86-2.08,16.87-6.21,24.11-2.68,4.87-7.73,11.12-15.11,18.71-7.38,7.59-12.39,13.45-15.11,17.61,9.88-2.68,16.38-4.76,19.41-6.21,6.81-3.04,13.02-7.62,18.6-13.77,0,2.33-.99,5.86-2.96,10.52M164.99,384.82c0,3.25-1.8,5.29-5.4,6.21l-7.02,1.09c-2.51,1.27-6.21,6.21-11.05,14.82-.53-2.68-1.34-6.46-2.44-11.33-1.62.18-4.31,1.62-8.08,4.31-1.62,1.27-4.24,3.14-7.84,5.65,1.09-6.46,4.66-13.02,10.8-19.69,6.46-7.38,12.78-11.05,18.88-11.05,8.08,0,12.14,3.32,12.14,9.99M211.9,409.64c0,3.07-1.66,5.61-4.98,7.69-3.32,2.08-6.6,3.11-9.85,3.11-4.31,0-8.19-2.44-11.58-7.27-4.13-5.93-8.37-9.78-12.67-11.61.88-.88,1.98-1.34,3.25-1.34,1.62,0,4.34,1.27,8.22,3.78,3.85,2.51,6.32,3.78,7.41,3.78.88,0,2.36-1.27,4.45-3.78,2.08-2.51,4.34-3.78,6.88-3.78,5.93,0,8.89,3.14,8.89,9.42"/>
  <path d="M209.76,253.93c0,3.62-1.41,6.87-4.2,9.77-2.79,2.89-6,4.34-9.62,4.34-5.79,0-10.02-2.71-12.73-8.14l-12.73-.54c-2.71,0-8.07,1.19-15.99,3.54-8.5,2.35-13.38,4.23-14.65,5.68-1.99,2.17-3.62,7.23-4.88,15.19-1.09,6.51-1.63,11.28-1.63,14.36,0,4.88.76,8.46,2.31,10.71s4.7,4.16,9.48,5.68c4.77,1.52,7.74,2.39,8.83,2.57.72,0,1.88-.07,3.54-.25h3.26c2.35,0,4.77.36,7.31,1.09,3.62,1.09,5.17,2.53,4.63,4.34-2.53-.36-6.94.18-13.27,1.63l7.6,3.8c0,2.17-3.07,3.26-9.22,3.26-1.63,0-3.83-.36-6.66-1.09-2.79-.72-4.67-1.09-5.57-1.09h-3.51c-.18,1.81-.72,4.52-1.63,8.14-3.07-.18-6.69-1.99-10.85-5.43s-6.76-5.14-7.85-5.14-2.64,1.74-4.59,5.14c-1.99,3.44-2.97,5.79-2.97,7.05-2.35-1.27-4.34-3.62-5.97-7.05-.72-2.35-1.52-4.7-2.42-7.05-1.81.18-5.14,3.98-10.02,11.39h-1.37c-.36-.54-1.74-4.34-4.05-11.39-5.61-1.81-10.85-2.71-15.73-2.71-2.35,0-5.97.54-10.85,1.63l-7.6-.54c1.09-1.09,4.23-3.15,9.48-6.22,6.15-3.62,10.85-5.43,14.11-5.43.54,0,1.27.11,2.17.29s1.63.29,2.17.29c1.27,0,3.29-.69,6.11-2.03,2.79-1.34,4.41-2.57,4.88-3.65s.69-3.91.69-8.39c0-10.31-2.71-17.98-8.14-23.04-4.7-4.52-12.48-7.78-23.33-9.77-2.89,10.31-11.03,15.44-24.38,15.44-4.34,0-8.68-2.6-13.02-7.85-4.45-5.35-6.62-10.13-6.62-14.47,0-6.69,2.79-12.19,8.39-16.53-4.52-4.7-6.76-9.48-6.76-14.36,0-4.52,1.41-8.5,4.2-11.94s6.47-5.43,11-5.97c-.36-5.79,1.52-9.77,5.68-11.94-1.99-1.99-2.97-5.5-2.97-10.56,0-5.97,1.99-10.92,5.97-14.9s8.93-5.97,14.9-5.97c6.51,0,11.83,2.28,15.99,6.8,5.24-17.9,16.53-26.84,33.89-26.84,9.04,0,17,3.62,23.87,10.85,2.53,2.71,3.8,4.16,3.8,4.34-2.17,0-1.09-.4,3.26-1.23,4.34-.8,7.49-1.23,9.48-1.23,7.05,0,13.27,2.6,18.7,7.85,4.7,4.7,7.96,10.67,9.77,17.9,1.27.18,3.26.72,5.97,1.63,3.98,1.99,5.97,5.43,5.97,10.31,0,.9-.72,2.64-2.17,5.14,11.57,6.51,17.36,15.55,17.36,27.13,0,3.26-1.27,7.78-3.8,13.56,4.7,2.71,7.05,6.69,7.05,11.94M98.1,265.9v-3.51c0-4.16-2.03-7.96-6.11-11.39-4.05-3.44-8.17-5.14-12.33-5.14-5.06,0-9.77,1.16-14.11,3.51,9.58-.54,20.44,4.99,32.52,16.53M93.18,232.3c-2.71-3.07-5.06-6.22-7.05-9.48-7.6,1.99-11.39,4.23-11.39,6.76,2.17-.18,5.32.22,9.48,1.23s7.13,1.48,8.97,1.48M109.71,223.91v-11.94c-4.34-.72-6.98-1.09-7.85-1.09v4.05l7.85,8.93M144.94,216.28c-2.17-.9-6.22-2.71-12.19-5.43v23.33c8.5-4.88,12.55-10.85,12.19-17.9M159.85,248.29l-5.97-7.31c-3.62,2.53-7.27,5.1-11,7.74-3.73,2.6-6.91,5.57-9.62,8.83,8.14-4.34,17-7.41,26.55-9.22"/>
</svg>