<?xml version="1.0" encoding="UTF-8"?>
<svg id="Layer_1" xmlns="http://www.w3.org/2000/svg" version="1.1" viewBox="0 0 600 600">
  <!-- Generator: Adobe Illustrator 30.1.0, SVG Export Plug-In . SVG Version: 2.1.1 Build 136)  -->
  <path d="M300,300L40.19,150c26.33-45.6,64.21-83.48,109.81-109.81S247.34,0,300,0v300Z" fill="#fffbd5"/>
  <path d="M300,300L40.19,450C13.86,404.4,0,352.66,0,300c0-52.66,13.86-104.4,40.19-150l259.81,150Z" fill="#9bd3ae"/>
  <path d="M300,300v300c-52.66,0-104.4-13.86-150-40.19-45.6-26.33-83.48-64.21-109.81-109.81l259.81-150Z" fill="#f9aa8f"/>
  <path d="M300,300l259.81,150c-26.33,45.6-64.21,83.48-109.81,109.81s-97.34,40.19-150,40.19v-300Z" fill="#cbc2bf"/>
  <path d="M300,300l259.81-150c26.33,45.6,40.19,97.34,40.19,150,0,52.66-13.86,104.4-40.19,150l-259.81-150Z" fill="#c777d6"/>
  <path d="M300,300V0c52.66,0,104.4,13.86,150,40.19,45.6,26.33,83.48,64.21,109.81,109.81l-259.81,150Z" fill="#aae0fa"/>
  <path d="M295.74,142.49c-12.61-7.1-20.67-10.66-24.22-10.66-2.59,0-4.61,1.98-6.05,5.95s-4.35,5.92-8.7,5.92c-1.79,0-5.41-.64-10.91-1.92-3.07,4.67-4.61,7.68-4.61,8.96,0,1.79,1.31,3.87,3.97,6.3s4.86,3.62,6.69,3.62c1.15,0,2.72-.22,4.7-.74,1.98-.48,3.3-.74,3.97-.74,1.98,0,2.98,3.65,2.98,10.91s-1.6,17.6-4.83,31.97c-4.19-16.48-8.64-24.7-13.31-24.7-.64,0-1.98.48-4,1.47-2.02.96-3.52,1.44-4.48,1.44-4.67,0-8.86-4.29-12.61-12.83-7.42,1.12-11.14,4.93-11.14,11.39,0,3.23,1.5,5.82,4.48,7.74,2.98,1.95,4.48,3.33,4.48,4.13,0,4.35-6.37,11.07-19.14,20.1-6.78,4.83-11.46,8.22-14.05,10.18,2.24-2.91,4.51-6.69,6.78-11.39,2.59-5.31,3.87-9.44,3.87-12.35,0-1.6-1.86-3.87-5.57-6.78s-5.57-5.98-5.57-9.22c0-2.75.96-6.14,2.91-10.18-2.11-2.43-4.61-3.65-7.52-3.65-6.46,0-9.7,2.11-9.7,6.3,0-2.91,0-.74,0,6.53.16,5.34-3.87,8-12.13,8-6.3,0-16.86-1.47-31.74-4.35,16.8-4.19,25.18-9.06,25.18-14.53,0,.64-.32-1.28-.96-5.82-.64-4.99,2.91-9.54,10.66-13.57-1.44-7.42-5.31-11.14-11.62-11.14-.96,0-2.75,1.7-5.31,5.09-2.59,3.39-4.99,5.09-7.26,5.09-3.87,0-8.9-4.19-15.01-12.61-2.91-4.19-7.36-10.4-13.31-18.66,3.71,1.95,7.42,3.87,11.14,5.82,4.83,2.27,8.74,3.39,11.62,3.39,2.27,0,4.48-1.98,6.66-5.95,2.18-3.97,5.06-5.95,8.61-5.95.48,0,3.71.96,9.7,2.91,3.07-4.67,4.61-8.16,4.61-10.43,0-1.95-1.18-4.16-3.52-6.66s-4.48-3.74-6.43-3.74c-.8,0-2.05.26-3.74.74s-2.94.74-3.74.74c-2.91,0-4.35-3.65-4.35-10.91,0-1.95,1.86-12.99,5.57-33.18-.16,2.43.9,6.94,3.14,13.57,2.75,8.06,5.98,12.13,9.7,12.13.64,0,1.95-.48,3.87-1.44,1.95-.96,3.46-1.44,4.61-1.44,3.71,0,6.78,2.11,9.22,6.3l3.65,6.53c3.39,0,6.21-1.22,8.48-3.62,2.27-2.43,3.39-5.34,3.39-8.74s-1.5-6.27-4.48-8.13c-3.01-1.86-4.48-3.26-4.48-4.22,0-3.39,5.34-9.12,16-17.18,8.54-6.46,14.14-10.24,16.7-11.39-6.94,9.38-10.43,16.22-10.43,20.58,0,2.27,1.38,4.67,4.13,7.26,3.39,3.07,5.34,5.25,5.82,6.53,1.6,3.71,1.44,8.8-.48,15.26,4.35,3.07,7.68,4.61,9.92,4.61,4.67,0,7.01-2.43,7.01-7.26,0-.48-.19-2.02-.61-4.61-.42-2.59-.51-4.03-.35-4.35.64-2.27,5.09-3.39,13.31-3.39,5.18,0,15.9,1.44,32.22,4.35-3.55.96-8.9,2.43-16,4.35-6.46,1.95-9.7,4.13-9.7,6.53,0,1.12.42,3.07,1.22,5.82.8,2.75,1.22,4.77,1.22,6.05,0,2.27-1.44,4.35-4.35,6.3l-8.22,5.82c1.95,3.55,3.23,5.66,3.87,6.3,1.6,1.95,3.81,2.91,6.53,2.91,1.95,0,3.71-1.7,5.34-5.09,1.6-3.39,4.19-5.09,7.74-5.09,4.35,0,9.28,4.03,14.78,12.13,3.07,4.54,7.84,11.39,14.27,20.61M242.05,128.48c0-10.34-3.81-19.3-11.39-26.88-7.58-7.58-16.54-11.39-26.88-11.39s-19.55,3.74-27.14,11.26-11.46,16.51-11.62,27.01c-.16,10.34,3.68,19.26,11.52,26.75,7.84,7.52,16.93,11.26,27.26,11.26,10.98,0,20.16-3.58,27.49-10.78,7.36-7.17,10.94-16.26,10.78-27.23M238.43,128.48c0,9.86-3.3,18.02-9.92,24.45-6.62,6.46-14.85,9.7-24.7,9.7s-17.7-3.3-24.45-9.92c-6.78-6.62-10.18-14.69-10.18-24.22s3.42-17.41,10.3-24.1c6.88-6.69,14.98-10.05,24.35-10.05s17.47,3.39,24.35,10.18c6.85,6.78,10.3,14.78,10.3,23.97" fill="#0d0f0f"/>
  <path d="M427.26,191.52c-9.19,9.35-20.51,14.03-33.96,14.03-15.09,0-27.07-5.16-35.93-15.5-8.37-9.84-12.55-22.39-12.55-37.64,0-16.4,7.14-35.11,21.41-56.11,11.64-17.22,25.34-32.31,41.09-45.27-2.3,10.5-3.44,17.96-3.44,22.39,0,10.17,3.19,20.1,9.59,29.78,7.88,11.48,13.86,20.02,17.96,25.59,6.4,9.68,9.6,19.11,9.6,28.29,0,13.62-4.59,25.1-13.77,34.45M427.01,138.98c-2.46-5.49-5.33-9.14-8.61-10.95.49.99.74,2.38.74,4.19,0,3.45-.98,8.36-2.95,14.76l-3.19,9.84c0,5.74,2.86,8.61,8.61,8.61,6.07,0,9.1-4.02,9.1-12.06,0-4.1-1.23-8.89-3.69-14.4" fill="#0d0f0f"/>
  <path d="M577.35,293.36c-10.98-21.87-42.39-24.46-58.34-22.83-7.96.82-14.37,2.92-18.65,4.65,13.7-12.29,28.56-15.85,32.13-16.64,20.11-4.41,36.43,1.59,42.39,4.12-1.85-3.53-4.85-8.5-9.46-13.67-3.93-4.4-23.21-26.02-46.19-22.52-24.19,3.68-36.37,32.76-39.74,48.43-1.69,7.83-1.66,14.57-1.34,19.18-7.83-17.68-6.15-33.75-5.73-37.2,2.39-19.71,12.65-32.74,16.85-37.54-3.93.68-9.58,1.98-15.92,4.77-5.4,2.37-31.92,14.04-35.69,36.97-3.97,24.14,19.92,44.71,33.78,52.76,6.93,4.03,13.35,6.08,17.83,7.2h-.01c-19.22,1.99-33.98-4.57-37.14-6.04-18-8.36-27.23-22.14-30.5-27.63-.57,3.94-1.08,9.73-.38,16.61.59,5.87,3.48,34.69,24.13,45.36,21.73,11.24,48.68-5.13,60.62-15.82,5.96-5.34,9.91-10.81,12.36-14.72-4.05,18.91-14.86,30.92-17.23,33.46-13.52,14.54-29.48,19.05-35.7,20.47,3.57,1.76,8.92,4.03,15.68,5.5,5.76,1.25,34.07,7.4,50.6-8.93,17.4-17.2,10.17-47.88,3.68-62.54-3.24-7.33-7.22-12.77-10.19-16.3l.04.02c16.7,9.69,24.77,23.65,26.47,26.71,9.65,17.34,9.01,33.92,8.44,40.28,2.78-2.85,6.59-7.24,10.07-13.22,2.97-5.09,17.57-30.12,7.14-50.88h0ZM519.81,307.72c-2.19,2.06-5.21,4.52-9.12,6.78s-7.55,3.64-10.43,4.51c-2.64-1.45-5.91-3.56-9.27-6.58-3.36-3.02-5.8-6.05-7.51-8.52.56-2.95,1.56-6.72,3.4-10.84,1.84-4.13,3.97-7.39,5.79-9.78,2.98-.38,6.87-.6,11.36-.12,4.5.47,8.25,1.49,11.09,2.48,1.28,2.72,2.69,6.35,3.63,10.77.94,4.42,1.13,8.31,1.07,11.32h0ZM489.47,299.91c3.42-1.75,5.86-3.84,7.41-5.39s3.64-3.99,5.39-7.41c1.75,3.42,3.84,5.86,5.39,7.41s3.99,3.64,7.41,5.39c-3.42,1.75-5.86,3.84-7.41,5.39s-3.64,3.99-5.39,7.41c-1.75-3.42-3.84-5.86-5.39-7.41s-3.99-3.64-7.41-5.39Z" fill="#0d0f0f"/>
  <path d="M472.07,467.55c0,10.49-3.86,17.64-11.56,21.46-2.25,1.11-9.31,2.62-21.19,4.53-7.7,1.27-11.55,4.21-11.55,8.82v19.31c0,.8.24,3.26.72,7.39l.72,7.63c0,2.38-.56,6.28-1.69,11.68-3.05.63-6.58,1.35-10.59,2.15-1.29-4.77-1.93-8.03-1.93-9.78,0-.79.2-1.99.6-3.58.4-1.59.61-2.78.61-3.58,0-1.1-1-4.21-2.99-9.29h-3.73c-.5.79-.66,1.83-.5,3.1.64,2.7.88,5.01.72,6.91-3.74,2.59-7.51,5.13-11.32,7.63-1.13-.31-1.52-.47-1.21-.47v-16.93c-.31-.79-1.12-1.1-2.41-.95h-2.89l-2.89,22.41c-2.25.16-4.98.16-8.19,0-1.13-5.24-3.13-13.03-6.02-23.36h-1.93c-1.77,5.57-2.73,8.59-2.89,9.07,0,.63.2,1.86.6,3.69.4,1.83.6,3.06.6,3.69,0,.48-.16,1.67-.48,3.58l-.72,5.72c-.32.32-.75.49-1.2.48-4.82,0-8.03-1.19-9.63-3.57-1.61-2.39-2.25-5.73-1.93-10.02l1.93-28.6c0-.48.16-1.11.48-1.91.31-.79.48-1.35.48-1.67,0-1.27-1.37-3.82-4.09-7.63-.48-.15-2.97-.72-7.46-1.67-2.73-.63-8.11-1.75-16.13-3.34-11.08-2.06-16.62-10.88-16.62-26.46,0-23.21,9.63-42.51,28.9-57.93.79,4.29,2.16,10.01,4.09,17.16,1.45.32,4.58,1.04,9.39,2.14.97.32,5.86,2.07,14.69,5.25-4.5-2.7-10.35-7.07-17.58-13.11-2.73-3.18-4.1-8.5-4.1-15.97,0-1.75,3.05-3.82,9.15-6.21,5.45-2.23,9.55-3.49,12.28-3.81,8.67-1.11,15.33-1.67,19.99-1.67,20.06,0,36.27,5.09,48.63,15.26-4.01,4.61-10.91,9.53-20.7,14.78,3.86.16,9.47-1.34,16.86-4.53,7.38-3.17,10.51-4.77,9.39-4.77,1.28,0,3.86,2.55,7.71,7.63,2.89,3.81,5.21,7.24,6.98,10.25,5.13,9.06,8.58,18.84,10.35,29.33,0,3.66.08,6.28.24,7.87v1.91s0,0,0,0ZM379.85,471.84c0-6.83-3.01-13.31-9.03-19.43-6.02-6.12-12.48-9.17-19.38-9.17-6.1,0-11.48,2.56-16.13,7.68-4.66,5.12-6.98,10.8-6.98,17.04,0,5.43,2.65,8.96,7.95,10.56,3.37.96,8.1,1.52,14.2,1.68h13.24c10.75.16,16.13-2.62,16.13-8.34ZM406.09,501.41v-7.39c-1.16-2.13-2.28-4.28-3.37-6.44-.96-3.18-2.73-7.63-5.3-13.35l-2.65,27.9c0,2.23-.48,3.34-1.44,3.34-.64,0-1.12-.16-1.44-.47-1.13-16.85-1.69-24.16-1.69-21.94v-8.34c-.32-.48-.72-.72-1.2-.72-5.46,5.57-8.19,14.55-8.19,26.94,0,6.84.63,11.05,1.92,12.64,1.29-.31,2.73-.87,4.34-1.67.64-.32,2.49-.48,5.54-.48s6.74.95,11.07,2.86c1.61,0,2.41-4.29,2.41-12.87h0ZM460.51,468.19c0-6.4-2.41-12.12-7.22-17.16-4.82-5.03-10.36-7.56-16.61-7.56-6.74,0-13.05,3.05-18.9,9.17-5.86,6.12-8.79,12.52-8.79,19.19,0,5.57,2.73,8.34,8.19,8.34h27.69c10.43-.16,15.65-4.16,15.65-12Z" fill="#0d0f0f" fill-rule="evenodd"/>
  <path d="M283.05,502.66c-7.17,17.12-21.44,25.66-42.75,25.66-3.9,0-8.16.48-12.7,1.47-6.85,1.47-10.27,3.52-10.27,6.11,0,.8.58,1.76,1.7,2.82,1.15,1.06,2.11,1.6,2.94,1.6-4.06,0-1.31.13,8.32.35,9.63.26,15.65.35,18.08.35-14.18,8.32-37.89,12.13-71.14,11.49-10.91-.16-20.29-4.96-28.1-14.43-7.68-8.96-11.49-18.98-11.49-30.05,0-11.71,3.94-21.7,11.87-29.95,7.9-8.22,17.73-12.35,29.44-12.35,2.59,0,6.08.58,10.4,1.7,4.32,1.15,7.2,1.7,8.67,1.7,6.02,0,13.54-2.5,22.5-7.46,8.96-4.96,13.22-7.46,12.7-7.46-1.63,17.12-7.33,28.61-17.12,34.46-7.01,4.06-10.5,8.06-10.5,11.97,0,2.43,1.47,4.42,4.38,5.86,2.27,1.15,4.8,1.73,7.58,1.73,4.22,0,8.38-2.59,12.48-7.81,4.06-5.22,5.86-9.95,5.38-14.18-.48-4.9-.16-10.75.99-17.6.32-1.95,1.5-4.35,3.55-7.2s3.87-4.61,5.5-5.25c0,1.47-.51,3.9-1.6,7.33-1.06,3.42-1.6,5.95-1.6,7.58,0,3.58.96,6.37,2.94,8.32,2.94-1.15,5.54-4.8,7.81-11.01,1.95-4.74,3.1-9.28,3.42-13.7-6.85-.32-13.41-3.42-19.68-9.28-6.27-5.86-9.41-12.22-9.41-19.07,0-1.15.16-2.27.48-3.42.96,1.47,2.43,3.74,4.38,6.85,2.78,4.06,4.9,6.11,6.37,6.11,1.95,0,2.94-2.05,2.94-6.11,0-5.22-1.38-9.95-4.16-14.18-3.1-5.06-7.1-7.58-11.97-7.58-2.27,0-5.7,1.22-10.27,3.68-4.58,2.43-8.74,3.68-12.48,3.68-1.15,0-6.21-1.47-15.17-4.42,15.81-2.59,23.71-4.96,23.71-7.07,0-5.54-10.85-9.28-32.51-11.23-2.11-.16-6.02-.48-11.74-.99.64-.8,5.28-1.7,13.92-2.69,7.33-.8,12.48-1.22,15.39-1.22,38.78,0,63.39,18.82,73.82,56.48,1.79-1.47,2.69-3.97,2.69-7.42,0-4.45-1.31-10.08-3.9-16.86-.99-2.62-2.53-6.59-4.64-11.9,13.34,17.02,20.03,33.15,20.03,48.38,0,8.03-1.89,15.3-5.63,21.86-2.43,4.42-7.01,10.08-13.7,16.96-6.69,6.88-11.23,12.19-13.7,15.97,8.96-2.43,14.85-4.32,17.6-5.63,6.18-2.75,11.81-6.91,16.86-12.48,0,2.11-.9,5.31-2.69,9.54M176.49,406.59c0,2.94-1.63,4.8-4.9,5.63l-6.37.99c-2.27,1.15-5.63,5.63-10.02,13.44-.48-2.43-1.22-5.86-2.21-10.27-1.47.16-3.9,1.47-7.33,3.9-1.47,1.15-3.84,2.85-7.1,5.12.99-5.86,4.22-11.81,9.79-17.86,5.86-6.69,11.58-10.02,17.12-10.02,7.33,0,11.01,3.01,11.01,9.06M219.02,429.09c0,2.78-1.5,5.09-4.51,6.98-3.01,1.89-5.98,2.82-8.93,2.82-3.9,0-7.42-2.21-10.5-6.59-3.74-5.38-7.58-8.86-11.49-10.53.8-.8,1.79-1.22,2.94-1.22,1.47,0,3.94,1.15,7.46,3.42,3.49,2.27,5.73,3.42,6.72,3.42.8,0,2.14-1.15,4.03-3.42,1.89-2.27,3.94-3.42,6.24-3.42,5.38,0,8.06,2.85,8.06,8.54" fill="#0d0f0f"/>
  <path d="M185.51,310.27c0,3.2-1.25,6.08-3.71,8.64-2.46,2.56-5.31,3.84-8.51,3.84-5.12,0-8.86-2.4-11.26-7.2l-11.26-.48c-2.4,0-7.14,1.06-14.14,3.14-7.52,2.08-11.84,3.74-12.96,5.02-1.76,1.92-3.2,6.4-4.32,13.44-.96,5.76-1.44,9.98-1.44,12.7,0,4.32.67,7.49,2.05,9.47s4.16,3.68,8.38,5.02c4.22,1.34,6.85,2.11,7.81,2.27.64,0,1.66-.06,3.14-.22h2.88c2.08,0,4.22.32,6.46.96,3.2.96,4.58,2.24,4.1,3.84-2.24-.32-6.14.16-11.74,1.44l6.72,3.36c0,1.92-2.72,2.88-8.16,2.88-1.44,0-3.39-.32-5.89-.96-2.46-.64-4.13-.96-4.93-.96h-3.1c-.16,1.6-.64,4-1.44,7.2-2.72-.16-5.92-1.76-9.6-4.8s-5.98-4.54-6.94-4.54-2.34,1.54-4.06,4.54c-1.76,3.04-2.62,5.12-2.62,6.24-2.08-1.12-3.84-3.2-5.28-6.24-.64-2.08-1.34-4.16-2.14-6.24-1.6.16-4.54,3.52-8.86,10.08h-1.22c-.32-.48-1.54-3.84-3.58-10.08-4.96-1.6-9.6-2.4-13.92-2.4-2.08,0-5.28.48-9.6,1.44l-6.72-.48c.96-.96,3.74-2.78,8.38-5.5,5.44-3.2,9.6-4.8,12.48-4.8.48,0,1.12.1,1.92.26s1.44.26,1.92.26c1.12,0,2.91-.61,5.41-1.79,2.46-1.18,3.9-2.27,4.32-3.23s.61-3.46.61-7.42c0-9.12-2.4-15.9-7.2-20.38-4.16-4-11.04-6.88-20.64-8.64-2.56,9.12-9.76,13.66-21.57,13.66-3.84,0-7.68-2.3-11.52-6.94-3.94-4.74-5.86-8.96-5.86-12.8,0-5.92,2.46-10.78,7.42-14.62-4-4.16-5.98-8.38-5.98-12.7,0-4,1.25-7.52,3.71-10.56s5.73-4.8,9.73-5.28c-.32-5.12,1.34-8.64,5.02-10.56-1.76-1.76-2.62-4.86-2.62-9.34,0-5.28,1.76-9.66,5.28-13.18s7.9-5.28,13.18-5.28c5.76,0,10.46,2.02,14.14,6.02,4.64-15.84,14.62-23.74,29.98-23.74,8,0,15.04,3.2,21.12,9.6,2.24,2.4,3.36,3.68,3.36,3.84-1.92,0-.96-.35,2.88-1.09,3.84-.7,6.62-1.09,8.38-1.09,6.24,0,11.74,2.3,16.54,6.94,4.16,4.16,7.04,9.44,8.64,15.84,1.12.16,2.88.64,5.28,1.44,3.52,1.76,5.28,4.8,5.28,9.12,0,.8-.64,2.34-1.92,4.54,10.24,5.76,15.36,13.76,15.36,24,0,2.88-1.12,6.88-3.36,12,4.16,2.4,6.24,5.92,6.24,10.56M86.72,320.86v-3.1c0-3.68-1.79-7.04-5.41-10.08-3.58-3.04-7.23-4.54-10.91-4.54-4.48,0-8.64,1.02-12.48,3.1,8.48-.48,18.08,4.42,28.77,14.62M82.37,291.13c-2.4-2.72-4.48-5.5-6.24-8.38-6.72,1.76-10.08,3.74-10.08,5.98,1.92-.16,4.7.19,8.38,1.09s6.3,1.31,7.94,1.31M97,283.71v-10.56c-3.84-.64-6.18-.96-6.94-.96v3.58l6.94,7.9M128.16,276.95c-1.92-.8-5.5-2.4-10.78-4.8v20.64c7.52-4.32,11.1-9.6,10.78-15.84M141.35,305.27l-5.28-6.46c-3.2,2.24-6.43,4.51-9.73,6.85-3.3,2.3-6.11,4.93-8.51,7.81,7.2-3.84,15.04-6.56,23.49-8.16" fill="#0d0f0f"/>
</svg>