<?xml version="1.0" encoding="UTF-8"?>
<svg id="svg3156" xmlns="http://www.w3.org/2000/svg" xmlns:svg="http://www.w3.org/2000/svg" xmlns:rdf="http://www.w3.org/1999/02/22-rdf-syntax-ns#" xmlns:inkscape="http://www.inkscape.org/namespaces/inkscape" xmlns:dc="http://purl.org/dc/elements/1.1/" xmlns:cc="http://creativecommons.org/ns#" version="1.1" viewBox="0 0 510 510">
  <!-- Generator: Adobe Illustrator 30.1.0, SVG Export Plug-In . SVG Version: 2.1.1 Build 136)  -->
  <circle cx="255" cy="255" r="255" isolation="isolate" opacity=".2"/>
  <path d="M255,255l-159.1,159.1c-42.18-42.18-65.9-99.45-65.9-159.1s23.72-116.92,65.9-159.1l159.1,159.1Z" fill="#38614c"/>
  <path d="M255,255l159.1,159.1c-42.18,42.18-99.45,65.9-159.1,65.9s-116.92-23.72-159.1-65.9l159.1-159.1Z" fill="#da3946"/>
  <path d="M255,255l159.1-159.1c42.18,42.18,65.9,99.45,65.9,159.1s-23.72,116.92-65.9,159.1l-159.1-159.1Z" fill="#393736"/>
  <path d="M255,255L95.9,95.9C138.08,53.72,195.35,30,255,30s116.92,23.72,159.1,65.9l-159.1,159.1Z" fill="#3277a7"/>
  <path d="M255,30c-124.26,0-225,100.74-225,225s100.74,225,225,225,225-100.74,225-225S379.26,30,255,30ZM255,465c-115.98,0-210-94.02-210-210S139.02,45,255,45s210,94.02,210,210-94.02,210-210,210Z" fill="#333"/>
</svg>