<?xml version="1.0" encoding="UTF-8"?>
<svg id="Layer_1" xmlns="http://www.w3.org/2000/svg" version="1.1" viewBox="0 0 600 600">
  <!-- Generator: Adobe Illustrator 30.1.0, SVG Export Plug-In . SVG Version: 2.1.1 Build 136)  -->
  <path d="M300,300l-212.13,212.13C31.63,455.89,0,379.53,0,300,0,135.42,135.42,0,300,0,379.53,0,455.89,31.63,512.13,87.87l-212.13,212.13Z" fill="#c777d6"/>
  <g>
    <path d="M308.45,184.2c-16.45-32.77-63.53-36.66-87.43-34.22-11.94,1.22-21.54,4.38-27.95,6.97,20.53-18.42,42.8-23.76,48.15-24.93,30.14-6.6,54.6,2.38,63.52,6.17-2.78-5.29-7.27-12.74-14.17-20.48-5.88-6.59-34.79-38.99-69.21-33.74-36.24,5.52-54.5,49.09-59.56,72.58-2.53,11.73-2.49,21.84-2.01,28.74-11.74-26.5-9.22-50.58-8.59-55.75,3.58-29.54,18.96-49.06,25.26-56.26-5.89,1.01-14.36,2.97-23.86,7.15-8.09,3.56-47.83,21.03-53.48,55.4-5.95,36.18,29.85,67,50.62,79.07,10.38,6.03,20.01,9.12,26.72,10.79h-.02c-28.81,2.98-50.92-6.85-55.66-9.05-26.98-12.53-40.8-33.18-45.71-41.4-.86,5.91-1.61,14.58-.57,24.9.88,8.79,5.22,51.99,36.16,67.98,32.57,16.84,72.95-7.68,90.84-23.71,8.94-8,14.85-16.2,18.52-22.06-6.08,28.33-22.27,46.33-25.81,50.15-20.26,21.79-44.18,28.55-53.5,30.67,5.35,2.64,13.37,6.04,23.5,8.24,8.63,1.88,51.06,11.1,75.83-13.38,26.08-25.77,15.24-71.75,5.52-93.72-4.85-10.98-10.82-19.14-15.27-24.43l.05.03c25.02,14.52,37.12,35.44,39.67,40.02,14.46,25.99,13.5,50.83,12.64,60.36,4.17-4.27,9.87-10.85,15.1-19.81,4.46-7.63,26.33-45.13,10.7-76.25h0v-.03h0ZM222.22,205.72c-3.28,3.08-7.8,6.77-13.67,10.16-5.86,3.39-11.32,5.46-15.63,6.76-3.95-2.17-8.85-5.33-13.89-9.86-5.03-4.53-8.68-9.07-11.26-12.78.84-4.43,2.33-10.07,5.09-16.25,2.75-6.19,5.95-11.07,8.67-14.66,4.47-.57,10.3-.89,17.03-.19,6.74.71,12.37,2.24,16.62,3.72,1.92,4.08,4.03,9.51,5.43,16.14,1.41,6.63,1.7,12.45,1.6,16.96h.01Z"/>
    <path d="M176.75,194.01c5.13-2.62,8.78-5.75,11.11-8.08s5.46-5.98,8.08-11.11c2.62,5.13,5.75,8.78,8.08,11.11s5.98,5.46,11.11,8.08c-5.13,2.62-8.78,5.75-11.11,8.08s-5.46,5.98-8.08,11.11c-2.62-5.13-5.75-8.78-8.08-11.11s-5.98-5.46-11.11-8.08Z"/>
  </g>
  <path d="M512.1,87.8c54.3,54.3,87.9,129.3,87.9,212.2,0,165.7-134.3,300-300,300-82.8,0-157.8-33.6-212.1-87.9" fill="#cbc2bf"/>
  <path d="M537.7,395.9c0,16.2-5.9,27.3-17.7,33.2-3.4,1.7-14.2,4.1-32.4,7-11.8,2-17.7,6.5-17.7,13.6v29.8c0,1.3.4,5.1,1.1,11.4l1.1,11.8c0,3.7-.9,9.7-2.6,18.1-4.7,1-10.1,2.1-16.2,3.3-2-7.4-2.9-12.4-2.9-15.1,0-1.2.3-3.1.9-5.5s.9-4.3.9-5.5c0-1.7-1.5-6.5-4.6-14.4h-5.7c-.8,1.2-1,2.8-.8,4.8,1,4.2,1.4,7.7,1.1,10.7-4.2,2.9-9.9,6.9-17.3,11.8-1.7-.5-2.3-.7-1.8-.7v-26.1c-.5-1.2-1.7-1.7-3.7-1.5h-4.4l-4.4,34.6c-3.4.2-7.6.2-12.5,0-1.7-8.1-4.8-20.1-9.2-36.1h-3c-2.7,8.6-4.2,13.3-4.4,14,0,1,.3,2.9.9,5.7.6,2.8.9,4.7.9,5.7,0,.7-.3,2.6-.7,5.5l-1.1,8.9c-.5.5-1.1.7-1.8.7-7.4,0-12.3-1.8-14.7-5.5-2.5-3.7-3.5-8.8-3-15.5l3-44.2c0-.7.2-1.7.7-3,.5-1.2.7-2.1.7-2.6,0-2-2.1-5.9-6.3-11.8-.7-.2-4.5-1.1-11.4-2.6-4.2-1-12.4-2.7-24.7-5.1-16.9-3.2-25.4-16.8-25.4-40.9,0-35.9,14.7-65.7,44.2-89.5,1.2,6.6,3.3,15.5,6.3,26.5,2.2.5,7,1.6,14.4,3.3,1.5.5,9,3.2,22.5,8.1-6.9-4.2-15.8-10.9-26.9-20.2-4.2-4.9-6.3-13.1-6.3-24.7,0-2.7,4.7-5.9,14-9.6,8.3-3.4,14.6-5.4,18.8-5.9,13.3-1.7,23.4-2.6,30.6-2.6,30.7,0,55.5,7.9,74.4,23.6-6.1,7.1-16.7,14.7-31.7,22.8,5.9.2,14.5-2.1,25.8-7s16.1-7.4,14.4-7.4c2,0,5.9,3.9,11.8,11.8,4.4,5.9,8,11.2,10.7,15.8,7.9,14,13.1,29.1,15.8,45.3,0,5.7.1,9.7.4,12.2v2.9l-.1.1h0ZM396.6,402.5c0-10.6-4.6-20.6-13.8-30-9.2-9.5-19.1-14.2-29.7-14.2-9.3,0-17.5,4-24.7,11.9-7.1,7.9-10.7,16.7-10.7,26.3,0,8.4,4.1,13.9,12.2,16.3,5.2,1.5,12.4,2.4,21.7,2.6h20.3c16.5.2,24.7-4.1,24.7-12.9M436.8,448.2v-11.4c-1.7-3.2-3.4-6.5-5.1-10-1.5-4.9-4.2-11.8-8.1-20.6l-4.1,43.1c0,3.5-.7,5.2-2.2,5.2-1,0-1.7-.2-2.2-.7-1.7-26-2.6-37.3-2.6-33.9v-12.9c-.5-.8-1.1-1.1-1.8-1.1-8.3,8.6-12.5,22.5-12.5,41.6,0,10.6,1,17.1,2.9,19.5,2-.5,4.2-1.4,6.6-2.6,1-.5,3.8-.7,8.5-.7s10.3,1.5,16.9,4.4c2.5,0,3.7-6.6,3.7-19.9M520.1,396.9c0-9.9-3.7-18.7-11-26.5-7.4-7.8-15.8-11.7-25.4-11.7-10.3,0-20,4.7-28.9,14.2-9,9.5-13.5,19.3-13.5,29.7,0,8.6,4.2,12.9,12.5,12.9h42.4c16-.2,24-6.4,24-18.5" fill="#130c0e"/>
</svg>