<?xml version="1.0" encoding="UTF-8"?>
<svg id="Layer_1" xmlns="http://www.w3.org/2000/svg" version="1.1" viewBox="0 0 600 600">
  <!-- Generator: Adobe Illustrator 30.1.0, SVG Export Plug-In . SVG Version: 2.1.1 Build 136)  -->
  <path d="M300,300l-212.13,212.13C31.63,455.89,0,379.53,0,300,0,135.42,135.42,0,300,0,379.53,0,455.89,31.63,512.13,87.87l-212.13,212.13Z" fill="#c777d6"/>
  <g>
    <path d="M308.45,184.2c-16.45-32.77-63.53-36.66-87.43-34.22-11.94,1.22-21.54,4.38-27.95,6.97,20.53-18.42,42.8-23.76,48.15-24.93,30.14-6.6,54.6,2.38,63.52,6.17-2.78-5.29-7.27-12.74-14.17-20.48-5.88-6.59-34.79-38.99-69.21-33.74-36.24,5.52-54.5,49.09-59.56,72.58-2.53,11.73-2.49,21.84-2.01,28.74-11.74-26.5-9.22-50.58-8.59-55.75,3.58-29.54,18.96-49.06,25.26-56.26-5.89,1.01-14.36,2.97-23.86,7.15-8.09,3.56-47.83,21.03-53.48,55.4-5.95,36.18,29.85,67,50.62,79.07,10.38,6.03,20.01,9.12,26.72,10.79h-.02c-28.81,2.98-50.92-6.85-55.66-9.05-26.98-12.53-40.8-33.18-45.71-41.4-.86,5.91-1.61,14.58-.57,24.9.88,8.79,5.22,51.99,36.16,67.98,32.57,16.84,72.95-7.68,90.84-23.71,8.94-8,14.85-16.2,18.52-22.06-6.08,28.33-22.27,46.33-25.81,50.15-20.26,21.79-44.18,28.55-53.5,30.67,5.35,2.64,13.37,6.04,23.5,8.24,8.63,1.88,51.06,11.1,75.83-13.38,26.08-25.77,15.24-71.75,5.52-93.72-4.85-10.98-10.82-19.14-15.27-24.43l.05.03c25.02,14.52,37.12,35.44,39.67,40.02,14.46,25.99,13.5,50.83,12.64,60.36,4.17-4.27,9.87-10.85,15.1-19.81,4.46-7.63,26.33-45.13,10.7-76.25h0v-.03h0ZM222.22,205.72c-3.28,3.08-7.8,6.77-13.67,10.16-5.86,3.39-11.32,5.46-15.63,6.76-3.95-2.17-8.85-5.33-13.89-9.86-5.03-4.53-8.68-9.07-11.26-12.78.84-4.43,2.33-10.07,5.09-16.25,2.75-6.19,5.95-11.07,8.67-14.66,4.47-.57,10.3-.89,17.03-.19,6.74.71,12.37,2.24,16.62,3.72,1.92,4.08,4.03,9.51,5.43,16.14,1.41,6.63,1.7,12.45,1.6,16.96h.01Z"/>
    <path d="M176.75,194.01c5.13-2.62,8.78-5.75,11.11-8.08s5.46-5.98,8.08-11.11c2.62,5.13,5.75,8.78,8.08,11.11s5.98,5.46,11.11,8.08c-5.13,2.62-8.78,5.75-11.11,8.08s-5.46,5.98-8.08,11.11c-2.62-5.13-5.75-8.78-8.08-11.11s-5.98-5.46-11.11-8.08Z"/>
  </g>
  <path d="M512.1,87.8c54.3,54.3,87.9,129.3,87.9,212.2,0,165.7-134.3,300-300,300-82.8,0-157.8-33.6-212.1-87.9" fill="#aae0fa"/>
  <path d="M460.3,502.1c-16.2,16.4-36,24.7-59.7,24.7-26.5,0-47.6-9.1-63.1-27.2-14.7-17.3-22.1-39.3-22.1-66.2,0-28.8,12.5-61.7,37.6-98.6,20.5-30.3,44.5-56.8,72.2-79.6-4,18.5-6,31.6-6,39.4,0,17.9,5.6,35.3,16.9,52.3,13.8,20.2,24.4,35.2,31.6,45,11.2,17,16.9,33.6,16.9,49.7,0,23.9-8.1,44.1-24.2,60.6M460,409.9c-4.3-9.7-9.4-16.1-15.1-19.2.9,1.7,1.3,4.2,1.3,7.4,0,6.1-1.7,14.7-5.2,25.9l-5.6,17.3c0,10.1,5,15.1,15.1,15.1,10.7,0,16-7.1,16-21.2,0-7.2-2.2-15.6-6.5-25.3" fill="#061922"/>
</svg>