<?xml version="1.0" encoding="UTF-8"?>
<svg id="Layer_1" xmlns="http://www.w3.org/2000/svg" version="1.1" viewBox="0 0 600 600">
  <!-- Generator: Adobe Illustrator 30.1.0, SVG Export Plug-In . SVG Version: 2.1.1 Build 136)  -->
  <path d="M300,300l-212.13,212.13C31.63,455.89,0,379.53,0,300,0,135.42,135.42,0,300,0,379.53,0,455.89,31.63,512.13,87.87l-212.13,212.13Z" fill="#f9aa8f"/>
  <path d="M311.64,228.44c-10.3,24.6-30.8,36.9-61.5,36.9-5.6,0-11.7.7-18.3,2.1-9.8,2.1-14.7,5.1-14.7,8.8,0,1.2.8,2.5,2.5,4,1.6,1.5,3,2.3,4.2,2.3-5.9,0-1.9.2,11.9.5,13.8.4,22.5.5,26,.5-20.4,11.9-54.4,17.4-102.2,16.5-15.7-.2-29.1-7.1-40.4-20.7-11-12.9-16.5-27.3-16.5-43.2,0-16.9,5.7-31.2,17-43,11.3-11.8,25.5-17.7,42.3-17.7,3.7,0,8.7.8,14.9,2.4,6.2,1.6,10.4,2.5,12.5,2.5,8.7,0,19.4-3.6,32.3-10.7s19-10.7,18.3-10.7c-2.3,24.6-10.5,41.1-24.6,49.5-10.1,5.9-15.1,11.6-15.1,17.2,0,3.5,2.1,6.3,6.3,8.4,3.3,1.6,6.9,2.4,10.9,2.4,6.1,0,12.1-3.7,17.9-11.2,5.8-7.5,8.4-14.3,7.7-20.4-.7-7-.2-15.5,1.4-25.3.5-2.8,2.2-6.3,5.1-10.4s5.6-6.6,7.9-7.6c0,2.1-.8,5.6-2.3,10.5s-2.3,8.6-2.3,10.9c0,5.2,1.4,9.1,4.2,11.9,4.2-1.6,8-6.9,11.2-15.8,2.8-6.8,4.4-13.3,4.9-19.7-9.8-.4-19.3-4.9-28.3-13.3-9-8.4-13.5-17.6-13.5-27.4,0-1.6.2-3.3.7-4.9,1.4,2.1,3.5,5.4,6.3,9.8,4,5.8,7,8.8,9.1,8.8,2.8,0,4.2-2.9,4.2-8.8,0-7.5-2-14.3-6-20.4-4.5-7.3-10.2-10.9-17.2-10.9-3.3,0-8.2,1.8-14.7,5.3-6.6,3.5-12.5,5.3-17.9,5.3-1.6,0-8.9-2.1-21.8-6.3,22.7-3.7,34.1-7.1,34.1-10.2,0-8-15.6-13.3-46.7-16.1-3-.2-8.7-.7-16.8-1.4.9-1.2,7.6-2.4,20-3.9,10.5-1.2,17.9-1.8,22.1-1.8,55.7,0,91.1,27.1,106,81.1,2.6-2.1,3.9-5.7,3.9-10.7,0-6.4-1.9-14.5-5.6-24.2-1.4-3.8-3.6-9.5-6.7-17.1,19.2,24.5,28.8,47.6,28.8,69.5,0,11.5-2.7,22-8.1,31.4-3.5,6.4-10.1,14.5-19.7,24.4s-16.1,17.5-19.7,22.9c12.9-3.5,21.3-6.2,25.3-8.1,8.9-4,17-10,24.2-17.9,0,3.1-1.3,7.6-3.9,13.7M158.14,90.14c0,4.2-2.3,6.9-7,8.1l-9.1,1.4c-3.3,1.6-8.1,8.1-14.4,19.3-.7-3.5-1.8-8.4-3.2-14.7-2.1.2-5.6,2.1-10.5,5.6-2.1,1.6-5.5,4.1-10.2,7.4,1.4-8.4,6.1-17,14.1-25.6,8.4-9.6,16.6-14.4,24.6-14.4,10.5,0,15.8,4.3,15.8,13M219.34,122.54c0,4-2.2,7.3-6.5,10s-8.6,4-12.8,4c-5.6,0-10.7-3.1-15.1-9.5-5.4-7.7-10.9-12.7-16.5-15.1,1.2-1.2,2.6-1.8,4.2-1.8,2.1,0,5.7,1.6,10.7,4.9s8.2,4.9,9.7,4.9c1.2,0,3.1-1.6,5.8-4.9s5.7-4.9,9-4.9c7.7,0,11.6,4.1,11.6,12.3" fill="#200000"/>
  <g id="layer1">
    <path id="path289" d="M512.09,87.82c54.31,54.31,87.91,129.31,87.91,212.16,0,165.7-134.32,300.02-300.01,300.02-82.84,0-157.83-33.58-212.12-87.88" fill="#cbc2bf"/>
    <path d="M406.5,264c29.43,62.66,79.84,113.07,142.5,142.5-62.66,29.43-113.07,79.84-142.5,142.5-29.43-62.66-79.84-113.07-142.5-142.5,62.66-29.43,113.07-79.84,142.5-142.5M406.5,317.44c-17.85,39.54-49.52,71.21-89.06,89.06,39.54,17.85,71.21,49.52,89.06,89.06,17.85-39.54,49.52-71.21,89.06-89.06-39.54-17.85-71.21-49.52-89.06-89.06" fill="#130c0e"/>
  </g>
</svg>