<?xml version="1.0" encoding="UTF-8"?>
<svg id="Layer_1" xmlns="http://www.w3.org/2000/svg" version="1.1" viewBox="0 0 600 600">
  <!-- Generator: Adobe Illustrator 30.1.0, SVG Export Plug-In . SVG Version: 2.1.1 Build 136)  -->
  <path d="M300,300l-212.13,212.13C31.63,455.89,0,379.53,0,300,0,135.42,135.42,0,300,0,379.53,0,455.89,31.63,512.13,87.87l-212.13,212.13Z" fill="#aae0fa"/>
  <path d="M246.65,288.99c-16.1,16.4-36,24.6-59.7,24.6-26.5,0-47.6-9.1-63.1-27.2-14.7-17.3-22.1-39.4-22.1-66.2,0-28.8,12.5-61.7,37.6-98.6,20.5-30.3,44.5-56.8,72.2-79.6-4,18.5-6,31.6-6,39.4,0,17.9,5.6,35.3,16.9,52.3,13.8,20.2,24.4,35.2,31.6,45,11.2,17,16.9,33.6,16.9,49.7,0,24-8.1,44.1-24.2,60.6M246.35,196.69c-4.3-9.7-9.4-16.1-15.1-19.3.9,1.7,1.3,4.2,1.3,7.4,0,6.1-1.7,14.7-5.2,25.9l-5.6,17.3c0,10.1,5.1,15.1,15.1,15.1,10.7,0,16-7.1,16-21.2,0-7.2-2.2-15.6-6.5-25.3" fill="#061922"/>
  <g id="layer1">
    <path id="path289" d="M512.09,87.82c54.31,54.31,87.91,129.31,87.91,212.16,0,165.7-134.32,300.02-300.01,300.02-82.84,0-157.83-33.58-212.12-87.88" fill="#cbc2bf"/>
    <path d="M406.5,264c29.43,62.66,79.84,113.07,142.5,142.5-62.66,29.43-113.07,79.84-142.5,142.5-29.43-62.66-79.84-113.07-142.5-142.5,62.66-29.43,113.07-79.84,142.5-142.5M406.5,317.44c-17.85,39.54-49.52,71.21-89.06,89.06,39.54,17.85,71.21,49.52,89.06,89.06,17.85-39.54,49.52-71.21,89.06-89.06-39.54-17.85-71.21-49.52-89.06-89.06" fill="#130c0e"/>
  </g>
</svg>