<?xml version="1.0" encoding="UTF-8"?>
<svg id="Layer_1" xmlns="http://www.w3.org/2000/svg" version="1.1" viewBox="0 0 600 600">
  <!-- Generator: Adobe Illustrator 30.1.0, SVG Export Plug-In . SVG Version: 2.1.1 Build 136)  -->
  <defs>
    <style>
      .st0 {
        fill: #c777d6;
      }
    </style>
  </defs>
  <circle class="st0" cx="300" cy="300" r="300"/>
  <g>
    <path d="M534.64,279.53c-34.31-68.33-132.48-76.45-182.31-71.35-24.89,2.55-44.91,9.14-58.28,14.53,42.82-38.42,89.26-49.54,100.41-51.99,62.85-13.77,113.85,4.96,132.46,12.87-5.79-11.03-15.15-26.57-29.55-42.71-12.27-13.75-72.54-81.3-144.33-70.36-75.58,11.51-113.65,102.37-124.19,151.34-5.27,24.46-5.19,45.54-4.19,59.93-24.48-55.25-19.22-105.47-17.92-116.26,7.47-61.59,39.53-102.3,52.67-117.32-12.28,2.11-29.95,6.2-49.75,14.91-16.87,7.42-99.74,43.86-111.52,115.52-12.41,75.45,62.24,139.72,105.55,164.88,21.65,12.58,41.72,19.01,55.72,22.5h-.04c-60.07,6.21-106.18-14.29-116.07-18.88-56.26-26.13-85.08-69.2-95.31-86.34-1.79,12.32-3.36,30.4-1.19,51.92,1.84,18.33,10.89,108.41,75.4,141.76,67.92,35.11,152.12-16.02,189.43-49.44,18.64-16.69,30.96-33.78,38.61-46.01-12.67,59.08-46.44,96.62-53.83,104.57-42.24,45.44-92.12,59.53-111.56,63.96,11.16,5.51,27.87,12.59,49.01,17.18,18,3.92,106.47,23.14,158.12-27.91,54.38-53.74,31.77-149.62,11.51-195.43-10.12-22.9-22.57-39.91-31.84-50.95l.11.06c52.18,30.28,77.41,73.91,82.72,83.46,30.16,54.2,28.16,105.99,26.36,125.87,8.69-8.91,20.58-22.62,31.48-41.3,9.29-15.92,54.91-94.11,22.32-159.01h0ZM354.82,324.41c-6.84,6.43-16.27,14.12-28.5,21.18s-23.6,11.38-32.59,14.09c-8.24-4.52-18.46-11.11-28.96-20.56-10.49-9.45-18.11-18.92-23.47-26.64,1.75-9.23,4.86-20.99,10.61-33.89,5.74-12.9,12.4-23.08,18.08-30.56,9.32-1.19,21.47-1.86,35.51-.39,14.05,1.48,25.79,4.67,34.66,7.76,4,8.5,8.4,19.84,11.33,33.65,2.94,13.82,3.54,25.97,3.33,35.36h0Z"/>
    <path d="M260,300c10.69-5.46,18.31-12,23.16-16.84s11.38-12.47,16.84-23.16c5.46,10.69,12,18.31,16.84,23.16s12.47,11.38,23.16,16.84c-10.69,5.46-18.31,12-23.16,16.84s-11.38,12.47-16.84,23.16c-5.46-10.69-12-18.31-16.84-23.16s-12.47-11.38-23.16-16.84Z"/>
  </g>
</svg>