<?xml version="1.0" encoding="UTF-8"?>
<svg id="Layer_1" xmlns="http://www.w3.org/2000/svg" version="1.1" viewBox="0 0 600 600">
  <!-- Generator: Adobe Illustrator 30.1.0, SVG Export Plug-In . SVG Version: 2.1.1 Build 136)  -->
  <defs>
    <style>
      .st0 {
        fill: #061922;
      }

      .st1 {
        fill: #aae0fa;
      }
    </style>
  </defs>
  <circle class="st1" cx="300" cy="300" r="300"/>
  <path class="st0" d="M404.92,502.32c-28.72,29.23-64.1,43.84-106.13,43.84-47.17,0-84.59-16.14-112.27-48.44-26.15-30.76-39.22-69.97-39.22-117.64,0-51.26,22.3-109.72,66.9-175.34,36.38-53.81,79.19-100.98,128.41-141.48-7.18,32.81-10.76,56.13-10.76,69.97,0,31.79,9.98,62.8,29.98,93.05,24.61,35.88,43.31,62.56,56.14,79.97,19.99,30.26,29.99,59.73,29.99,88.42,0,42.56-14.35,78.44-43.04,107.65M404.14,338.15c-7.69-17.17-16.66-28.57-26.92-34.22,1.54,3.08,2.31,7.44,2.31,13.08,0,10.77-3.07,26.14-9.23,46.13l-9.98,30.76c0,17.94,8.95,26.92,26.9,26.92,18.96,0,28.45-12.57,28.45-37.69,0-12.8-3.84-27.79-11.53-44.99"/>
</svg>