<?xml version="1.0" encoding="UTF-8"?>
<svg id="svg4977" xmlns="http://www.w3.org/2000/svg" xmlns:svg="http://www.w3.org/2000/svg" xmlns:sodipodi="http://sodipodi.sourceforge.net/DTD/sodipodi-0.dtd" xmlns:rdf="http://www.w3.org/1999/02/22-rdf-syntax-ns#" xmlns:inkscape="http://www.inkscape.org/namespaces/inkscape" xmlns:dc="http://purl.org/dc/elements/1.1/" xmlns:cc="http://creativecommons.org/ns#" version="1.1" viewBox="0 0 600 600">
  <!-- Generator: Adobe Illustrator 30.1.0, SVG Export Plug-In . SVG Version: 2.1.1 Build 136)  -->
  <sodipodi:namedview id="namedview12" bordercolor="#666666" borderopacity="1" gridtolerance="10" guidetolerance="10" inkscape:current-layer="svg4977" inkscape:cx="300" inkscape:cy="300" inkscape:pageopacity="0" inkscape:pageshadow="2" inkscape:window-height="480" inkscape:window-maximized="0" inkscape:window-width="732" inkscape:window-x="0" inkscape:window-y="0" inkscape:zoom="0.39333333" objecttolerance="10" pagecolor="#ffffff" showgrid="false"/>
  <circle id="circle5" cx="300" cy="300" r="300" fill="#cbc2bf"/>
  <path id="path6" d="M147.42,272.9h60.22c23.99,0,31.13-1.53,39.3-28.07l20.41-.51-18.37,63.28H103.53l-.51-17.35c109.21-106.66,111.25-122.48,112.27-138.3,2.55-34.7-22.45-45.93-35.72-45.93s-35.21,8.68-56.65,52.56l-18.88-8.17c28.58-80.12,76.55-76.55,91.86-76.04,37.76,1.02,62.26,36.74,61.24,66.85-1.02,40.83-18.88,46.95-109.72,131.66v.02h0Z" inkscape:connector-curvature="0"/>
  <g id="layer1">
    <path id="path289" d="M512.09,87.82c54.31,54.31,87.91,129.31,87.91,212.16,0,165.7-134.32,300.02-300.01,300.02-82.84,0-157.83-33.58-212.12-87.88" inkscape:connector-curvature="0" fill="#96908d"/>
    <path id="path295" d="M537.72,395.94c0,16.21-5.89,27.26-17.68,33.15-3.44,1.72-14.24,4.07-32.42,7-11.78,1.98-17.68,6.52-17.68,13.63v29.84c0,1.25.38,5.05,1.1,11.43l1.11,11.8c0,3.68-.86,9.7-2.59,18.05-4.66.98-10.07,2.09-16.21,3.33-1.97-7.38-2.95-12.41-2.95-15.12,0-1.22.3-3.07.92-5.53.61-2.45.92-4.3.92-5.53,0-1.7-1.52-6.5-4.57-14.36h-5.72c-.76,1.23-1,2.83-.76,4.78.98,4.18,1.35,7.73,1.11,10.69-4.18,2.95-9.94,6.88-17.31,11.79-1.73-.49-2.33-.74-1.85-.74v-26.15c-.49-1.22-1.71-1.71-3.68-1.48h-4.42l-4.42,34.63c-3.44.25-7.61.25-12.52,0-1.72-8.11-4.79-20.12-9.21-36.1h-2.96c-2.7,8.6-4.17,13.27-4.42,14,0,.98.31,2.87.93,5.71.61,2.83.92,4.72.92,5.71,0,.73-.25,2.58-.75,5.53l-1.1,8.85c-.5.47-1.1.72-1.84.72-7.37,0-12.29-1.84-14.73-5.51-2.47-3.69-3.46-8.85-2.96-15.48l2.96-44.19c0-.74.23-1.72.73-2.95.49-1.22.74-2.09.74-2.57,0-1.97-2.09-5.9-6.26-11.81-.74-.24-4.54-1.11-11.42-2.59-4.17-.97-12.4-2.69-24.67-5.14-16.95-3.19-25.43-16.82-25.43-40.88,0-35.87,14.74-65.69,44.2-89.52,1.22,6.64,3.32,15.47,6.27,26.52,2.21.5,7,1.61,14.36,3.32,1.48.49,8.96,3.19,22.47,8.11-6.87-4.17-15.84-10.91-26.88-20.25-4.18-4.91-6.28-13.15-6.28-24.68,0-2.72,4.67-5.89,14.01-9.6,8.35-3.43,14.6-5.38,18.79-5.88,13.25-1.71,23.45-2.58,30.58-2.58,30.69,0,55.5,7.87,74.41,23.59-6.13,7.13-16.7,14.72-31.67,22.84,5.89.25,14.49-2.08,25.79-7.01,11.29-4.89,16.08-7.37,14.36-7.37,1.96,0,5.9,3.94,11.79,11.79,4.41,5.89,7.97,11.18,10.68,15.84,7.86,14,13.14,29.12,15.85,45.31,0,5.65.12,9.7.37,12.15v2.94h0v-.03h0ZM396.62,402.59c0-10.57-4.6-20.57-13.81-30.04-9.22-9.46-19.11-14.18-29.66-14.18-9.33,0-17.55,3.96-24.68,11.87-7.12,7.91-10.68,16.69-10.68,26.34,0,8.4,4.05,13.85,12.16,16.31,5.16,1.49,12.4,2.35,21.73,2.6h20.26c16.46.21,24.68-4.09,24.68-12.91h0ZM436.78,448.26v-11.41c-1.72-3.2-3.44-6.53-5.15-9.96-1.48-4.9-4.18-11.78-8.11-20.63l-4.06,43.1c0,3.46-.73,5.17-2.21,5.17-.98,0-1.72-.24-2.21-.74-1.72-26.03-2.57-37.33-2.57-33.88v-12.89c-.5-.76-1.11-1.13-1.85-1.13-8.35,8.62-12.52,22.49-12.52,41.63,0,10.57.98,17.07,2.94,19.54,1.97-.5,4.17-1.36,6.64-2.59.98-.5,3.8-.74,8.47-.74s10.32,1.47,16.94,4.41c2.46-.02,3.68-6.63,3.68-19.9h0v.02h0ZM520.04,396.92c0-9.88-3.68-18.71-11.05-26.51-7.37-7.78-15.84-11.67-25.4-11.67-10.32,0-19.97,4.72-28.93,14.17-8.97,9.46-13.45,19.34-13.45,29.67,0,8.59,4.18,12.88,12.53,12.88h42.35c15.97-.24,23.95-6.41,23.95-18.54h0Z" inkscape:connector-curvature="0"/>
  </g>
</svg>