<?xml version="1.0" encoding="UTF-8"?>
<svg id="svg4977" xmlns="http://www.w3.org/2000/svg" xmlns:svg="http://www.w3.org/2000/svg" xmlns:sodipodi="http://sodipodi.sourceforge.net/DTD/sodipodi-0.dtd" xmlns:rdf="http://www.w3.org/1999/02/22-rdf-syntax-ns#" xmlns:inkscape="http://www.inkscape.org/namespaces/inkscape" xmlns:dc="http://purl.org/dc/elements/1.1/" xmlns:cc="http://creativecommons.org/ns#" version="1.1" viewBox="0 0 600 600">
  <!-- Generator: Adobe Illustrator 30.1.0, SVG Export Plug-In . SVG Version: 2.1.1 Build 136)  -->
  <sodipodi:namedview id="namedview12" bordercolor="#666666" borderopacity="1" gridtolerance="10" guidetolerance="10" inkscape:current-layer="svg4977" inkscape:cx="300" inkscape:cy="300" inkscape:pageopacity="0" inkscape:pageshadow="2" inkscape:window-height="480" inkscape:window-maximized="0" inkscape:window-width="732" inkscape:window-x="0" inkscape:window-y="0" inkscape:zoom="0.39333333" objecttolerance="10" pagecolor="#ffffff" showgrid="false"/>
  <path id="circle5" d="M300,300l-212.13,212.13C31.63,455.89,0,379.53,0,300,0,135.42,135.42,0,300,0,379.53,0,455.89,31.63,512.13,87.87l-212.13,212.13Z" fill="#cbc2bf"/>
  <path d="M266.18,221.9c-.51,64.39-66.43,89.43-102.71,88.92-40.37-.51-59.28-17.89-59.28-17.89l11.75-15.84s19.42,12.78,47.01,12.78c15.84,0,63.88-14.82,63.88-63.37,0-26.06-23.51-35.77-35.26-36.28-10.22,0-21.46,5.62-37.3,14.82l-8.69-18.91c56.21-34.24,64.9-44.46,64.9-60.3,0-14.82-13.29-24.53-25.04-24.53s-28.62,3.07-59.79,36.79l-16.35-13.29c40.37-56.72,76.14-54.17,86.87-53.66,24.02,1.02,52.63,13.8,53.15,44.46,0,12.26-4.09,26.57-31.68,47.52,23.51,2.56,49.06,23.51,48.55,58.77h-.01Z" fill="#130c0e"/>
  <g id="layer1">
    <path id="path289" d="M512.09,87.82c54.31,54.31,87.91,129.31,87.91,212.16,0,165.7-134.32,300.02-300.01,300.02-82.84,0-157.83-33.58-212.12-87.88" inkscape:connector-curvature="0" fill="#c777d6"/>
    <g>
      <path d="M520.45,396.25c-16.45-32.77-63.53-36.66-87.43-34.22-11.94,1.22-21.54,4.38-27.95,6.97,20.53-18.42,42.8-23.76,48.15-24.93,30.14-6.6,54.6,2.38,63.52,6.17-2.78-5.29-7.27-12.74-14.17-20.48-5.88-6.59-34.79-38.99-69.21-33.74-36.24,5.52-54.5,49.09-59.56,72.58-2.53,11.73-2.49,21.84-2.01,28.74-11.74-26.5-9.22-50.58-8.59-55.75,3.58-29.54,18.96-49.06,25.26-56.26-5.89,1.01-14.36,2.97-23.86,7.15-8.09,3.56-47.83,21.03-53.48,55.4-5.95,36.18,29.85,67,50.62,79.07,10.38,6.03,20.01,9.12,26.72,10.79h-.02c-28.81,2.98-50.92-6.85-55.66-9.05-26.98-12.53-40.8-33.18-45.71-41.4-.86,5.91-1.61,14.58-.57,24.9.88,8.79,5.22,51.99,36.16,67.98,32.57,16.84,72.95-7.68,90.84-23.71,8.94-8,14.85-16.2,18.52-22.06-6.08,28.33-22.27,46.33-25.81,50.15-20.26,21.79-44.18,28.55-53.5,30.67,5.35,2.64,13.37,6.04,23.5,8.24,8.63,1.88,51.06,11.1,75.83-13.38,26.08-25.77,15.24-71.75,5.52-93.72-4.85-10.98-10.82-19.14-15.27-24.43l.05.03c25.02,14.52,37.12,35.44,39.67,40.02,14.46,25.99,13.5,50.83,12.64,60.36,4.17-4.27,9.87-10.85,15.1-19.81,4.46-7.63,26.33-45.13,10.7-76.25h0v-.03h0ZM434.22,417.77c-3.28,3.08-7.8,6.77-13.67,10.16-5.86,3.39-11.32,5.46-15.63,6.76-3.95-2.17-8.85-5.33-13.89-9.86-5.03-4.53-8.68-9.07-11.26-12.78.84-4.43,2.33-10.07,5.09-16.25,2.75-6.19,5.95-11.07,8.67-14.66,4.47-.57,10.3-.89,17.03-.19,6.74.71,12.37,2.24,16.62,3.72,1.92,4.08,4.03,9.51,5.43,16.14,1.41,6.63,1.7,12.45,1.6,16.96h.01Z"/>
      <path d="M388.75,406.06c5.13-2.62,8.78-5.75,11.11-8.08s5.46-5.98,8.08-11.11c2.62,5.13,5.75,8.78,8.08,11.11s5.98,5.46,11.11,8.08c-5.13,2.62-8.78,5.75-11.11,8.08s-5.46,5.98-8.08,11.11c-2.62-5.13-5.75-8.78-8.08-11.11s-5.98-5.46-11.11-8.08Z"/>
    </g>
  </g>
</svg>