<?xml version="1.0" encoding="UTF-8"?>
<svg id="svg4977" xmlns="http://www.w3.org/2000/svg" xmlns:svg="http://www.w3.org/2000/svg" xmlns:sodipodi="http://sodipodi.sourceforge.net/DTD/sodipodi-0.dtd" xmlns:rdf="http://www.w3.org/1999/02/22-rdf-syntax-ns#" xmlns:inkscape="http://www.inkscape.org/namespaces/inkscape" xmlns:dc="http://purl.org/dc/elements/1.1/" xmlns:cc="http://creativecommons.org/ns#" version="1.1" viewBox="0 0 600 600">
  <!-- Generator: Adobe Illustrator 30.1.0, SVG Export Plug-In . SVG Version: 2.1.1 Build 136)  -->
  <sodipodi:namedview id="namedview12" bordercolor="#666666" borderopacity="1" gridtolerance="10" guidetolerance="10" inkscape:current-layer="svg4977" inkscape:cx="300" inkscape:cy="300" inkscape:pageopacity="0" inkscape:pageshadow="2" inkscape:window-height="480" inkscape:window-maximized="0" inkscape:window-width="732" inkscape:window-x="0" inkscape:window-y="0" inkscape:zoom="0.39333333" objecttolerance="10" pagecolor="#ffffff" showgrid="false"/>
  <path id="circle5" d="M300,300l-212.13,212.13C31.63,455.89,0,379.53,0,300,0,135.42,135.42,0,300,0,379.53,0,455.89,31.63,512.13,87.87l-212.13,212.13Z" fill="#cbc2bf"/>
  <path d="M260.67,219.97c-.51,64.26-56.61,90.27-100.98,90.27-25.5,0-51-9.18-51-9.18l7.65-18.36s17.85,6.12,36.72,6.12c20.91,0,66.81-15.3,66.81-62.22,0-26.01-17.34-52.53-53.55-52.53-18.87,0-35.7,11.22-40.8,16.32l-13.26-2.55,26.52-112.2h90.27c12.24,0,13.26-1.53,14.28-4.08h18.36l-8.67,39.27h-102.51l-7.65,35.7s14.28-6.63,34.68-6.12c64.26.51,82.62,56.1,82.62,80.07l.51-.51h0Z" fill="#130c0e"/>
  <path d="M300,300l212.13-212.13c56.24,56.24,87.87,132.6,87.87,212.13,0,164.58-135.42,300-300,300-79.53,0-155.89-31.63-212.13-87.87l212.13-212.13Z" fill="#96908d"/>
  <path d="M380.11,374.4c-9.79-59.11.46-103.84,30.74-134.12,20.19-20.19,42.53-30.15,66.84-29.84,24.36.29,46.64,10.53,66.85,30.74,20.21,20.21,30.67,42.72,31.41,67.52.78,24.78-8.84,47.17-28.74,67.07-29.7,29.7-74.57,40.11-134.56,31.18,8.32,60.61-1.8,105.18-30.3,133.69-20.2,20.2-42.64,30.03-67.27,29.41-24.69-.61-47.12-11.01-67.3-31.19-20.18-20.18-30.53-42.56-30.96-67.07-.46-24.48,9.42-46.87,29.62-67.07,29.11-29.13,73.66-39.2,133.68-30.31h0ZM383.7,403.82c-54.97-8.61-94.22-1.16-117.68,22.3-13.96,13.96-20.71,29.49-20.26,46.55.42,17.1,7.66,32.6,21.62,46.56,13.97,13.97,29.61,21.34,47.01,22.07,17.38.76,33.02-5.87,46.99-19.83,22.3-22.3,29.73-61.51,22.32-117.65ZM409.09,378.43c55.87,7.69,95.35-.02,118.54-23.2,13.63-13.63,20.21-28.94,19.59-45.88-.6-16.92-7.87-32.38-21.84-46.35-13.97-13.97-30.32-22.12-47.23-22.72-16.91-.59-32.54,6.25-46.79,20.5-14.25,14.25-22.58,32.7-24.95,55.27-1.49,13.96-.58,34.75,2.68,62.38h0Z" fill="#0d0f0f"/>
</svg>