<?xml version="1.0" encoding="UTF-8"?>
<svg id="Layer_1" xmlns="http://www.w3.org/2000/svg" version="1.1" viewBox="0 0 600 600">
  <!-- Generator: Adobe Illustrator 30.1.0, SVG Export Plug-In . SVG Version: 2.1.1 Build 136)  -->
  <circle cx="300" cy="300" r="300" fill="#cac5c0"/>
  <path d="M87.8,351.4l28.2-200.8,46.4,79.1c59.9-38.5,115.2-57.8,165.9-57.8,41.5,0,74.9,12.3,100,36.9,25.1,24.6,37.6,57.7,37.6,99.3,0,69.4-36.3,148.3-108.8,236.5l-62.3-63.1c54.8-60.4,82.2-117.2,82.2-170.4,0-19.2-3.6-32.5-10.7-39.9-7-7.3-20.2-11-39.5-11-38.5,0-72.5,11.7-101.9,35l79.1,56.3H88" fill="#0d0f0f"/>
</svg>