<?xml version="1.0" encoding="UTF-8"?>
<svg id="Layer_1" xmlns="http://www.w3.org/2000/svg" version="1.1" viewBox="0 0 600 600">
  <!-- Generator: Adobe Illustrator 30.1.0, SVG Export Plug-In . SVG Version: 2.1.1 Build 136)  -->
  <circle cx="300" cy="299.99" r="300" fill="#cac5c0"/>
  <path d="M124.23,214v158.81c0,18.86,7.94,28.28,23.84,28.28h4.04v10.92h-84.85v-10.92h5.65c15.9,0,23.84-9.42,23.84-28.28v-104.26c0-19.12-6.74-28.69-20.21-28.69h-8.48v-10.9h3.24c16.43,0,31.37-4.98,44.85-14.96,0,0,8.08,0,8.08,0Z" fill="#0d0f0f"/>
  <path d="M374.59,239.7c-12.49-18.47-29.46-27.7-50.91-27.7-17.65,0-32.46,7.74-44.4,23.22-10.59,14.39-15.88,30.68-15.88,48.88,0,16.84,4.48,31.1,13.45,42.76,10.05,13.31,23.22,19.97,39.52,19.97,14.93,0,29.86-7.06,44.8-21.18-5.44,38.55-24.29,62.72-56.62,72.5-5.7,1.62-13.44,2.72-23.22,3.26v10.59c31.78-.27,58.18-11.34,79.23-33.2,21.04-21.86,31.56-48.81,31.56-80.86,0-22.26-5.85-41.67-17.52-58.24ZM363.2,305.68c-10.6,17.12-23.22,25.67-37.89,25.67-12.21,0-21.18-6.66-26.89-19.98-4.34-10.02-6.52-21.99-6.52-35.83,0-12.76,2.31-23.9,6.93-33.4,5.42-11.69,13.99-17.52,25.65-17.52,13.32,0,23.64,8.56,30.97,25.66,5.44,13.04,8.15,27.43,8.15,43.18,0,3.81-.15,7.89-.41,12.21Z" fill="#0d0f0f"/>
  <path d="M516.27,240.7c-12.49-18.47-29.46-27.7-50.91-27.7-17.65,0-32.46,7.74-44.4,23.22-10.59,14.39-15.88,30.68-15.88,48.88,0,16.84,4.48,31.1,13.45,42.76,10.05,13.31,23.22,19.97,39.52,19.97,14.93,0,29.86-7.06,44.8-21.18-5.44,38.55-24.29,62.72-56.62,72.5-5.7,1.62-13.44,2.72-23.22,3.26v10.59c31.78-.27,58.18-11.34,79.23-33.2,21.04-21.86,31.56-48.81,31.56-80.86,0-22.26-5.85-41.67-17.52-58.24ZM504.88,306.68c-10.6,17.12-23.22,25.67-37.89,25.67-12.21,0-21.18-6.66-26.89-19.98-4.34-10.02-6.52-21.99-6.52-35.83,0-12.76,2.31-23.9,6.93-33.4,5.42-11.69,13.99-17.52,25.65-17.52,13.32,0,23.64,8.56,30.97,25.66,5.44,13.04,8.15,27.43,8.15,43.18,0,3.81-.15,7.89-.41,12.21Z" fill="#0d0f0f"/>
  <circle cx="218.54" cy="392" r="20" fill="#0d0f0f"/>
</svg>