<?xml version="1.0" encoding="UTF-8"?>
<svg id="Layer_1" xmlns="http://www.w3.org/2000/svg" version="1.1" viewBox="0 0 600 600">
  <!-- Generator: Adobe Illustrator 30.1.0, SVG Export Plug-In . SVG Version: 2.1.1 Build 136)  -->
  <circle cx="300" cy="300" r="300" fill="#cac5c0"/>
  <path d="M313.84,37.51v163.48c0,19.56,8.23,29.33,24.7,29.33h4.29v11.19h-86.98v-11.19h5.46c15.94,0,23.88-9.77,23.88-29.33v-107.24c0-19.78-6.87-29.68-20.6-29.68h-8.74v-10.83h3.14c16.99,0,32.37-5.25,46.13-15.73,0,0,8.72,0,8.72,0ZM369.32,483.04l-15.02,50.73h-124.92v-10.85c6.07-6.76,19.36-20.4,39.89-40.93,12.38-12.38,24.61-25.43,36.73-39.19,6.07-6.77,10.73-12.61,13.99-17.51,7.24-10.48,10.85-21.21,10.85-32.18s-3.33-20.18-9.96-28.34c-6.63-8.18-15.19-12.27-25.71-12.27-22.64,0-40.36,15.31-53.18,45.86l-11.2-4.21c15.16-42.9,39.05-64.37,71.72-64.37,16.1,0,29.79,5.47,41.13,16.43,11.32,10.97,16.97,24.49,16.97,40.61,0,20.53-11.79,40.6-35.35,60.17l-24.49,20.27c-15.63,13.1-28.6,25.35-38.84,36.77-.7.68-2.11,2.35-4.19,4.88h65.09c10.01,0,17.6-1.98,22.73-5.95,4.4-3.49,8.74-10.13,12.94-19.92h10.83s0-.01,0-.01ZM124.39,296.74v-17.46h349.97v17.46s-349.97,0-349.97,0Z" fill="#0d0f0f"/>
</svg>