<?xml version="1.0" encoding="UTF-8"?>
<svg id="Layer_1" xmlns="http://www.w3.org/2000/svg" version="1.1" viewBox="0 0 600 600">
  <!-- Generator: Adobe Illustrator 30.1.0, SVG Export Plug-In . SVG Version: 2.1.1 Build 136)  -->
  <circle cx="300" cy="300" r="300" fill="#cbc2bf"/>
  <path d="M299.62,271.55c43.13-60.26,91.21-90.41,144.17-90.41,35.32,0,63.56,10.82,84.55,32.36,21.05,21.56,31.58,50,31.58,85.35s-10.54,64.18-31.58,86.52c-20.99,22.35-48.98,33.52-83.79,33.52-51.95,0-100.29-30.13-144.94-90.41-45.73,60.28-93.55,90.41-143.41,90.41-35.33,0-63.55-11.03-84.55-33.11-21.06-22.12-31.58-50.83-31.58-86.13s10.52-63.91,31.58-85.73c21-21.81,49.22-32.75,84.55-32.75,50.93-.02,98.7,30.13,143.41,90.39ZM277.03,300.42c-40.54-55.6-81.38-83.41-122.41-83.41-24.42,0-43.9,7.67-58.43,22.99-14.58,15.32-21.81,35.2-21.81,59.63s7.23,44.56,21.81,60.41c14.53,15.86,34.01,23.75,58.43,23.75,39.01,0,79.79-27.79,122.41-83.37ZM321.43,300.42c42.13,55.58,83.4,83.37,123.95,83.37,23.84,0,42.98-7.64,57.26-22.99,14.27-15.32,21.44-35.2,21.44-59.63s-7.17-45.86-21.44-61.17-33.92-22.99-58.85-22.99-48.34,8.85-70.15,26.51c-13.51,10.91-30.89,29.88-52.21,56.9Z" fill="#0d0f0f"/>
</svg>