<?xml version="1.0" encoding="UTF-8"?>
<svg id="Layer_1" xmlns="http://www.w3.org/2000/svg" version="1.1" viewBox="0 0 600 600">
  <!-- Generator: Adobe Illustrator 30.1.0, SVG Export Plug-In . SVG Version: 2.1.1 Build 136)  -->
  <circle cx="300" cy="300" r="300" fill="#cbc2bf"/>
  <path d="M230.02,206.36c-26.87-32.48-53.73-64.95-80.6-97.43,17.99-15.81,63.36-51.05,129.71-56.45,28.97-2.36,93.04-7.57,137.77,39.36,30.46,31.96,44.12,79.86,34.1,122.46-8.6,36.58-32.34,59.43-49.9,76.32-26.71,25.71-54.59,39.08-72.4,45.97-11.83,21.59-23.66,43.17-35.5,64.76-12.94-26.94-25.88-53.88-38.82-80.82,4.12-2.55,10.14-6.42,17.16-11.46,21.35-15.33,42.03-30.18,55.78-52.41,17.25-27.87,16.74-56.28,16.28-81.79-.4-22.3-1.01-41.87-14.26-60.81-4.82-6.89-17.39-24.85-39.36-27.66-28.19-3.61-48.19,20.75-50.09,23.14-12.59,15.83-13.24,33.7-14.01,54.68-.64,17.58,1.78,32.15,4.12,42.13Z"/>
  <path d="M324,453c18.22,18.77,29.56,25.64,39,28-23.68,24.33-45.32,47.2-69,71.53-23.03-23.79-45.97-47.74-69-71.53,10.95-5.84,24.61-14.49,39-28,13.87-13.02,23.54-26.27,30-36.55,3.15,8.55,17.3,23.47,30,36.55Z"/>
</svg>