<?xml version="1.0" encoding="UTF-8"?>
<svg id="svg4977" xmlns="http://www.w3.org/2000/svg" xmlns:svg="http://www.w3.org/2000/svg" xmlns:sodipodi="http://sodipodi.sourceforge.net/DTD/sodipodi-0.dtd" xmlns:rdf="http://www.w3.org/1999/02/22-rdf-syntax-ns#" xmlns:inkscape="http://www.inkscape.org/namespaces/inkscape" xmlns:dc="http://purl.org/dc/elements/1.1/" xmlns:cc="http://creativecommons.org/ns#" version="1.1" viewBox="0 0 600 600">
  <!-- Generator: Adobe Illustrator 30.1.0, SVG Export Plug-In . SVG Version: 2.1.1 Build 136)  -->
  <sodipodi:namedview id="namedview12" bordercolor="#666666" borderopacity="1" gridtolerance="10" guidetolerance="10" inkscape:current-layer="svg4977" inkscape:cx="300" inkscape:cy="300" inkscape:pageopacity="0" inkscape:pageshadow="2" inkscape:window-height="480" inkscape:window-maximized="0" inkscape:window-width="732" inkscape:window-x="0" inkscape:window-y="0" inkscape:zoom="0.39333333" objecttolerance="10" pagecolor="#ffffff" showgrid="false"/>
  <path id="circle5" d="M300,300l-212.13,212.13C31.63,455.89,0,379.53,0,300,0,135.42,135.42,0,300,0,379.53,0,455.89,31.63,512.13,87.87l-212.13,212.13Z" fill="#cbc2bf"/>
  <path id="path6" d="M147.42,272.9h60.22c23.99,0,31.13-1.53,39.3-28.07l20.41-.51-18.37,63.28H103.53l-.51-17.35c109.21-106.66,111.25-122.48,112.27-138.3,2.55-34.7-22.45-45.93-35.72-45.93s-35.21,8.68-56.65,52.56l-18.88-8.17c28.58-80.12,76.55-76.55,91.86-76.04,37.76,1.02,62.26,36.74,61.24,66.85-1.02,40.83-18.88,46.95-109.72,131.66v.02h0Z" inkscape:connector-curvature="0"/>
  <path d="M300,300l212.13-212.13c56.24,56.24,87.87,132.6,87.87,212.13,0,164.58-135.42,300-300,300-79.53,0-155.89-31.63-212.13-87.87l212.13-212.13Z" fill="#ffb579"/>
  <path d="M386.52,270.99c11.06-.8,19.88,9.98,26.21,17.94,20.53,25.81,30.8,38.71,40.1,52.11,7.86,11.34,49.03,70.66,76.22,63.18,9.47-2.6,13.92-12.41,17.08-10.6,4.35,2.48-.56,23.04-9.82,40.06-14.63,26.91-37.97,41.06-56.16,52.09-12.07,7.32-23.5,12.02-46.35,21.43-41.19,16.96-45.67,13.71-46.96,12.22-4.58-5.29,6.81-16.01,12.64-46.39,3.75-19.58,1.6-28.6.47-32.45-3.64-12.35-11.26-20.47-14.98-24.34-13.65-14.23-22.74-11.8-30.42-23.71-5.99-9.29-5.87-19.13-5.77-27.46.12-9.67,2.26-18.54,13.38-43.51,12.24-27.45,18.55-36.68,17.34-37.51-2.33-1.61-29.77,30.06-52.45,70-20.23,35.6-23.49,54.55-24.56,64.99-1.21,11.78-2.6,27.11,4.51,43.6,9.58,22.22,27.64,30.4,25.38,34.13-2.72,4.48-29.09-6.72-47.84-18.44-15.15-9.47-18.99-15.34-21.01-20.05-4.79-11.15-2.09-22.16-.56-27,3.43-5.94,8.62-14.87,15.08-25.63,21.1-35.11,34.9-58.08,54.34-82.73,8.82-11.19,21.99-26.76,39.91-44.13,3.02-3.24,7.89-7.34,14.23-7.79h-.01Z"/>
</svg>