<?xml version="1.0" encoding="UTF-8"?>
<svg id="Layer_1" xmlns="http://www.w3.org/2000/svg" version="1.1" viewBox="0 0 1200 600">
  <!-- Generator: Adobe Illustrator 30.1.0, SVG Export Plug-In . SVG Version: 2.1.1 Build 136)  -->
  <path d="M1200,300c0,164.58-135.42,300-300,300H300L900,0C1064.58,0,1200,135.43,1200,300Z" fill="#c777d6"/>
  <path d="M900,0L300,600C135.42,600,0,464.58,0,300S135.42,0,300,0h600Z" fill="#cbc2bf"/>
  <path d="M331.82,357.08c0,19.51-7.07,32.84-21.28,39.91-4.13,2.06-17.16,4.89-39.03,8.43-14.21,2.36-21.28,7.84-21.28,16.39v35.9c0,1.47.47,6.07,1.36,13.74l1.36,14.21c0,4.42-1.06,11.67-3.12,21.75-5.6,1.18-12.14,2.54-19.51,4.01-2.36-8.9-3.54-14.92-3.54-18.22,0-1.47.35-3.71,1.12-6.66.71-2.95,1.12-5.19,1.12-6.66,0-2.06-1.83-7.84-5.54-17.27h-6.9c-.88,1.47-1.24,3.42-.94,5.78,1.18,5.01,1.65,9.32,1.36,12.85-5.01,3.54-11.97,8.31-20.87,14.21-2.06-.59-2.83-.88-2.24-.88v-31.48c-.59-1.47-2.06-2.06-4.42-1.77h-5.31l-5.31,41.68c-4.13.29-9.2.29-15.09,0-2.06-9.73-5.78-24.23-11.08-43.45h-3.54c-3.24,10.38-5.01,15.98-5.31,16.86,0,1.18.35,3.48,1.12,6.9.71,3.42,1.12,5.72,1.12,6.9,0,.88-.29,3.12-.88,6.66l-1.36,10.67c-.59.59-1.36.88-2.24.88-8.84,0-14.8-2.24-17.75-6.66s-4.13-10.67-3.54-18.63l3.54-53.24c0-.88.29-2.06.88-3.54s.88-2.54.88-3.12c0-2.36-2.54-7.07-7.55-14.21-.88-.29-5.48-1.36-13.74-3.12-5.01-1.18-14.92-3.24-29.71-6.19-20.4-3.83-30.6-20.22-30.6-49.23,0-43.16,17.75-79.12,53.24-107.77,1.47,7.96,4.01,18.63,7.55,31.95,2.65.59,8.43,1.95,17.27,4.01,1.77.59,10.79,3.83,27.06,9.79-8.31-5.01-19.1-13.15-32.37-24.41-5.01-5.9-7.55-15.8-7.55-29.71,0-3.24,5.6-7.07,16.86-11.56,10.02-4.13,17.63-6.49,22.64-7.07,15.98-2.06,28.24-3.12,36.85-3.12,36.97,0,66.86,9.49,89.61,28.42-7.37,8.61-20.1,17.75-38.14,27.47,7.13.29,17.45-2.48,31.07-8.43,13.62-5.9,19.4-8.84,17.27-8.84,2.36,0,7.13,4.72,14.21,14.21,5.31,7.07,9.61,13.44,12.85,19.1,9.43,16.86,15.8,35.08,19.1,54.59,0,6.84.12,11.67.47,14.62v3.54h0l-.18-.18ZM161.91,365.04c0-12.73-5.54-24.76-16.63-36.14s-22.99-17.1-35.73-17.1c-11.26,0-21.17,4.78-29.71,14.27-8.61,9.55-12.85,20.1-12.85,31.72,0,10.14,4.89,16.68,14.62,19.63,6.19,1.77,14.92,2.83,26.18,3.12h24.41c19.81.29,29.71-4.89,29.71-15.51M210.26,420.04v-13.74c-2.06-3.83-4.13-7.84-6.19-11.97-1.77-5.9-5.01-14.21-9.79-24.82l-4.89,51.88c0,4.13-.88,6.19-2.65,6.19-1.18,0-2.06-.29-2.65-.88-2.06-31.36-3.12-44.92-3.12-40.8v-15.51c-.59-.88-1.3-1.36-2.18-1.36-10.08,10.38-15.09,27.06-15.09,50.11,0,12.73,1.18,20.58,3.54,23.52,2.36-.59,5.01-1.65,7.96-3.12,1.18-.59,4.6-.88,10.2-.88s12.44,1.77,20.4,5.31c2.95,0,4.42-7.96,4.42-23.94M310.48,358.26c0-11.91-4.42-22.52-13.32-31.9-8.9-9.37-19.1-14.03-30.6-14.03-12.44,0-24.05,5.66-34.84,17.1-10.79,11.38-16.21,23.29-16.21,35.73,0,10.38,5.01,15.51,15.09,15.51h51c19.22-.29,28.83-7.72,28.83-22.34" fill="#130c0e"/>
  <path d="M599.82,184.5c0,19.51-7.07,32.84-21.28,39.91-4.13,2.06-17.16,4.89-39.03,8.43-14.21,2.36-21.28,7.84-21.28,16.39v35.9c0,1.47.47,6.07,1.36,13.74l1.36,14.21c0,4.42-1.06,11.67-3.12,21.75-5.6,1.18-12.14,2.54-19.51,4.01-2.36-8.9-3.54-14.92-3.54-18.22,0-1.47.35-3.71,1.12-6.66.71-2.95,1.12-5.19,1.12-6.66,0-2.06-1.83-7.84-5.54-17.27h-6.9c-.88,1.47-1.24,3.42-.94,5.78,1.18,5.01,1.65,9.32,1.36,12.85-5.01,3.54-11.97,8.31-20.87,14.21-2.06-.59-2.83-.88-2.24-.88v-31.48c-.59-1.47-2.06-2.06-4.42-1.77h-5.31l-5.31,41.68c-4.13.29-9.2.29-15.09,0-2.06-9.73-5.78-24.23-11.08-43.45h-3.54c-3.24,10.38-5.01,15.98-5.31,16.86,0,1.18.35,3.48,1.12,6.9.71,3.42,1.12,5.72,1.12,6.9,0,.88-.29,3.12-.88,6.66l-1.36,10.67c-.59.59-1.36.88-2.24.88-8.84,0-14.8-2.24-17.75-6.66-2.95-4.42-4.13-10.67-3.54-18.63l3.54-53.24c0-.88.29-2.06.88-3.54s.88-2.54.88-3.12c0-2.36-2.54-7.07-7.55-14.21-.88-.29-5.48-1.36-13.74-3.12-5.01-1.18-14.92-3.24-29.71-6.19-20.4-3.83-30.6-20.22-30.6-49.23,0-43.16,17.75-79.12,53.24-107.77,1.47,7.96,4.01,18.63,7.55,31.95,2.65.59,8.43,1.95,17.27,4.01,1.77.59,10.79,3.83,27.06,9.79-8.31-5.01-19.1-13.15-32.37-24.41-5.01-5.9-7.55-15.8-7.55-29.71,0-3.24,5.6-7.07,16.86-11.56,10.02-4.13,17.63-6.49,22.64-7.07,15.98-2.06,28.24-3.12,36.85-3.12,36.97,0,66.86,9.49,89.61,28.42-7.37,8.61-20.1,17.75-38.14,27.47,7.13.29,17.45-2.48,31.07-8.43,13.62-5.9,19.4-8.84,17.27-8.84,2.36,0,7.13,4.72,14.21,14.21,5.31,7.07,9.61,13.44,12.85,19.1,9.43,16.86,15.8,35.08,19.1,54.59,0,6.84.12,11.67.47,14.62v3.54h0l-.18-.18ZM429.91,192.46c0-12.73-5.54-24.76-16.63-36.14s-22.99-17.1-35.73-17.1c-11.26,0-21.17,4.78-29.71,14.27-8.61,9.55-12.85,20.1-12.85,31.72,0,10.14,4.89,16.68,14.62,19.63,6.19,1.77,14.92,2.83,26.18,3.12h24.41c19.81.29,29.71-4.89,29.71-15.51M478.26,247.47v-13.74c-2.06-3.83-4.13-7.84-6.19-11.97-1.77-5.9-5.01-14.21-9.79-24.82l-4.89,51.88c0,4.13-.88,6.19-2.65,6.19-1.18,0-2.06-.29-2.65-.88-2.06-31.36-3.12-44.92-3.12-40.8v-15.51c-.59-.88-1.3-1.36-2.18-1.36-10.08,10.38-15.09,27.06-15.09,50.11,0,12.73,1.18,20.58,3.54,23.52,2.36-.59,5.01-1.65,7.96-3.12,1.18-.59,4.6-.88,10.2-.88s12.44,1.77,20.4,5.31c2.95,0,4.42-7.96,4.42-23.94M578.48,185.68c0-11.91-4.42-22.52-13.32-31.9-8.9-9.37-19.1-14.03-30.6-14.03-12.44,0-24.05,5.66-34.84,17.1-10.79,11.38-16.21,23.29-16.21,35.73,0,10.38,5.01,15.51,15.09,15.51h51c19.22-.29,28.83-7.72,28.83-22.34" fill="#130c0e"/>
  <g>
    <path d="M1136.19,315.85c-29.73-59.2-114.79-66.24-157.96-61.82-21.57,2.21-38.91,7.92-50.5,12.59,37.1-33.29,77.34-42.92,87-45.05,54.46-11.93,98.65,4.3,114.77,11.15-5.02-9.56-13.13-23.02-25.6-37.01-10.63-11.91-62.85-70.44-125.06-60.96-65.49,9.97-98.47,88.7-107.6,131.13-4.57,21.19-4.5,39.46-3.63,51.93-21.21-47.87-16.65-91.38-15.53-100.73,6.47-53.36,34.25-88.64,45.64-101.65-10.64,1.83-25.95,5.37-43.11,12.92-14.62,6.43-86.42,38-96.63,100.09-10.75,65.37,53.93,121.06,91.45,142.86,18.76,10.9,36.15,16.47,48.28,19.5h-.03c-52.05,5.38-92-12.38-100.57-16.36-48.75-22.64-73.72-59.96-82.58-74.81-1.55,10.67-2.91,26.34-1.03,44.99,1.59,15.88,9.44,93.93,65.33,122.83,58.85,30.42,131.8-13.88,164.13-42.84,16.15-14.46,26.83-29.27,33.45-39.87-10.98,51.19-40.24,83.72-46.64,90.61-36.6,39.37-79.82,51.58-96.66,55.42,9.67,4.77,24.15,10.91,42.46,14.89,15.6,3.4,92.25,20.05,137-24.18,47.12-46.56,27.53-129.64,9.97-169.33-8.77-19.84-19.56-34.58-27.59-44.15l.1.05c45.21,26.24,67.07,64.04,71.67,72.31,26.13,46.96,24.4,91.84,22.84,109.06,7.53-7.72,17.83-19.6,27.28-35.78,8.05-13.79,47.58-81.54,19.34-137.77h0ZM980.38,354.74c-5.93,5.57-14.1,12.23-24.69,18.35s-20.45,9.86-28.24,12.21c-7.14-3.92-15.99-9.63-25.09-17.81-9.09-8.19-15.69-16.39-20.34-23.08,1.52-8,4.21-18.19,9.19-29.36,4.97-11.18,10.74-20,15.67-26.48,8.08-1.03,18.6-1.61,30.77-.34,12.17,1.28,22.35,4.05,30.03,6.72,3.47,7.36,7.28,17.19,9.82,29.16,2.55,11.97,3.07,22.5,2.89,30.64h0Z"/>
    <path d="M898.22,333.59c9.26-4.73,15.86-10.4,20.07-14.59s9.86-10.8,14.59-20.07c4.73,9.26,10.4,15.86,14.59,20.07s10.8,9.86,20.07,14.59c-9.26,4.73-15.86,10.4-20.07,14.59s-9.86,10.8-14.59,20.07c-4.73-9.26-10.4-15.86-14.59-20.07s-10.8-9.86-20.07-14.59Z"/>
  </g>
</svg>