<?xml version="1.0" encoding="UTF-8"?>
<svg id="Layer_1" xmlns="http://www.w3.org/2000/svg" version="1.1" viewBox="0 0 2658.46 600">
  <!-- Generator: Adobe Illustrator 30.1.0, SVG Export Plug-In . SVG Version: 2.1.1 Build 136)  -->
  <path d="M1953.46,0h405c164.58,0,300,135.43,300,300s-135.42,300-300,300h-759.65" fill="#f9aa8f"/>
  <path d="M1953.46,0l-354.65,600H300C135.42,600,0,464.58,0,300S135.42,0,300,0h1653.46Z" fill="#cbc2bf"/>
  <path d="M2525.74,289.57c-14.65,34.99-43.82,52.45-87.37,52.45-7.98,0-16.68.98-25.96,3.01-14,3.01-20.99,7.19-20.99,12.49,0,1.63,1.18,3.6,3.47,5.76,2.35,2.16,4.32,3.27,6.02,3.27-8.31,0-2.68.26,17,.72,19.68.52,31.98.72,36.95.72-28.97,17-77.43,24.79-145.38,23.48-22.3-.33-41.46-10.14-57.42-29.49-15.7-18.31-23.48-38.78-23.48-61.41,0-23.94,8.04-44.34,24.26-61.21,16.15-16.81,36.23-25.24,60.17-25.24,5.3,0,12.43,1.18,21.25,3.47,8.83,2.35,14.71,3.47,17.72,3.47,12.29,0,27.66-5.1,45.98-15.24,18.31-10.14,27.01-15.24,25.96-15.24-3.34,34.99-14.98,58.47-34.99,70.43-14.32,8.31-21.45,16.48-21.45,24.46,0,4.97,3.01,9.02,8.96,11.97,4.64,2.35,9.81,3.53,15.5,3.53,8.63,0,17.13-5.3,25.51-15.96,8.31-10.66,11.97-20.34,10.99-28.97-.98-10.01-.33-21.97,2.03-35.97.65-3.99,3.07-8.89,7.26-14.71,4.19-5.82,7.91-9.42,11.25-10.73,0,3.01-1.05,7.98-3.27,14.98-2.16,7-3.27,12.16-3.27,15.5,0,7.32,1.96,13.01,6.02,17,6.02-2.35,11.31-9.81,15.96-22.5,3.99-9.68,6.34-18.97,7-27.99-14-.65-27.4-7-40.22-18.97s-19.23-24.98-19.23-38.98c0-2.35.33-4.64.98-7,1.96,3.01,4.97,7.65,8.96,14,5.69,8.31,10.01,12.49,13.01,12.49,3.99,0,6.02-4.19,6.02-12.49,0-10.66-2.81-20.34-8.5-28.97-6.34-10.33-14.52-15.5-24.46-15.5-4.64,0-11.64,2.49-20.99,7.52-9.35,4.97-17.85,7.52-25.51,7.52-2.35,0-12.69-3.01-31-9.02,32.31-5.3,48.46-10.14,48.46-14.45,0-11.31-22.17-18.97-66.44-22.95-4.32-.33-12.29-.98-24-2.03,1.31-1.63,10.79-3.47,28.45-5.49,14.98-1.63,25.51-2.49,31.46-2.49,79.26,0,129.55,38.45,150.87,115.43,3.66-3.01,5.49-8.11,5.49-15.17,0-9.09-2.68-20.6-7.98-34.46-2.03-5.36-5.17-13.47-9.48-24.33,27.27,34.79,40.94,67.75,40.94,98.88,0,16.41-3.86,31.26-11.51,44.67-4.97,9.02-14.32,20.6-27.99,34.66-13.67,14.06-22.95,24.92-27.99,32.63,18.31-4.97,30.34-8.83,35.97-11.51,12.62-5.62,24.13-14.13,34.46-25.51,0,4.32-1.83,10.86-5.49,19.49M2307.96,93.25c0,6.02-3.34,9.81-10.01,11.51l-13.01,2.03c-4.64,2.35-11.51,11.51-20.47,27.47-.98-4.97-2.49-11.97-4.51-20.99-3.01.33-7.98,3.01-14.98,7.98-3.01,2.35-7.85,5.82-14.52,10.46,2.03-11.97,8.63-24.13,20.01-36.49,11.97-13.67,23.67-20.47,34.99-20.47,14.98,0,22.5,6.15,22.5,18.51M2394.88,139.22c0,5.69-3.07,10.4-9.22,14.26-6.15,3.86-12.23,5.76-18.25,5.76-7.98,0-15.17-4.51-21.45-13.47-7.65-10.99-15.5-18.12-23.48-21.52,1.63-1.63,3.66-2.49,6.02-2.49,3.01,0,8.04,2.35,15.24,7,7.13,4.64,11.71,7,13.73,7,1.63,0,4.38-2.35,8.24-7,3.86-4.64,8.04-7,12.75-7,10.99,0,16.48,5.82,16.48,17.46" fill="#200000"/>
  <path d="M2132.04,457.98c-14.65,34.99-43.82,52.45-87.37,52.45-7.98,0-16.68.98-25.96,3.01-14,3.01-20.99,7.19-20.99,12.49,0,1.63,1.18,3.6,3.47,5.76,2.35,2.16,4.32,3.27,6.02,3.27-8.31,0-2.68.26,17,.72,19.68.52,31.98.72,36.95.72-28.97,17-77.43,24.79-145.38,23.48-22.3-.33-41.46-10.14-57.42-29.49-15.7-18.31-23.48-38.78-23.48-61.41,0-23.94,8.04-44.34,24.26-61.21,16.15-16.81,36.23-25.24,60.17-25.24,5.3,0,12.43,1.18,21.25,3.47,8.83,2.35,14.71,3.47,17.72,3.47,12.29,0,27.66-5.1,45.98-15.24,18.31-10.14,27.01-15.24,25.96-15.24-3.34,34.99-14.98,58.47-34.99,70.43-14.32,8.31-21.45,16.48-21.45,24.46,0,4.97,3.01,9.02,8.96,11.97,4.64,2.35,9.81,3.53,15.5,3.53,8.63,0,17.13-5.3,25.51-15.96,8.31-10.66,11.97-20.34,10.99-28.97-.98-10.01-.33-21.97,2.03-35.97.65-3.99,3.07-8.89,7.26-14.71,4.19-5.82,7.91-9.42,11.25-10.73,0,3.01-1.05,7.98-3.27,14.98-2.16,7-3.27,12.16-3.27,15.5,0,7.32,1.96,13.01,6.02,17,6.02-2.35,11.31-9.81,15.96-22.5,3.99-9.68,6.34-18.97,7-27.99-14-.65-27.4-7-40.22-18.97-12.82-11.97-19.23-24.98-19.23-38.98,0-2.35.33-4.64.98-7,1.96,3.01,4.97,7.65,8.96,14,5.69,8.31,10.01,12.49,13.01,12.49,3.99,0,6.02-4.19,6.02-12.49,0-10.66-2.81-20.34-8.5-28.97-6.34-10.33-14.52-15.5-24.46-15.5-4.64,0-11.64,2.49-20.99,7.52-9.35,4.97-17.85,7.52-25.51,7.52-2.35,0-12.69-3.01-31-9.02,32.31-5.3,48.46-10.14,48.46-14.45,0-11.31-22.17-18.97-66.44-22.95-4.32-.33-12.29-.98-24-2.03,1.31-1.63,10.79-3.47,28.45-5.49,14.98-1.63,25.51-2.49,31.46-2.49,79.26,0,129.55,38.45,150.87,115.43,3.66-3.01,5.49-8.11,5.49-15.17,0-9.09-2.68-20.6-7.98-34.46-2.03-5.36-5.17-13.47-9.48-24.33,27.27,34.79,40.94,67.75,40.94,98.88,0,16.41-3.86,31.26-11.51,44.67-4.97,9.02-14.32,20.6-27.99,34.66-13.67,14.06-22.95,24.92-27.99,32.63,18.31-4.97,30.34-8.83,35.97-11.51,12.62-5.62,24.13-14.13,34.46-25.51,0,4.32-1.83,10.86-5.49,19.49M1914.27,261.65c0,6.02-3.34,9.81-10.01,11.51l-13.01,2.03c-4.64,2.35-11.51,11.51-20.47,27.47-.98-4.97-2.49-11.97-4.51-20.99-3.01.33-7.98,3.01-14.98,7.98-3.01,2.35-7.85,5.82-14.52,10.46,2.03-11.97,8.63-24.13,20.01-36.49,11.97-13.67,23.67-20.47,34.99-20.47,14.98,0,22.5,6.15,22.5,18.51M2001.18,307.63c0,5.69-3.07,10.4-9.22,14.26-6.15,3.86-12.23,5.76-18.25,5.76-7.98,0-15.17-4.51-21.45-13.47-7.65-10.99-15.5-18.12-23.48-21.52,1.63-1.63,3.66-2.49,6.02-2.49,3.01,0,8.04,2.35,15.24,7,7.13,4.64,11.71,7,13.73,7,1.63,0,4.38-2.35,8.24-7,3.86-4.64,8.04-7,12.75-7,10.99,0,16.48,5.82,16.48,17.46" fill="#200000"/>
  <text transform="translate(200.35 243.14)" font-family="TimesNewRomanPSMT, &apos;Times New Roman&apos;" font-size="288"><tspan letter-spacing=".02em"><tspan x="0" y="0">Discard your</tspan></tspan><tspan letter-spacing=".02em"><tspan x="449.72" y="259">hand </tspan></tspan></text>
</svg>