<?xml version="1.0" encoding="UTF-8"?>
<svg id="Layer_1" xmlns="http://www.w3.org/2000/svg" version="1.1" viewBox="0 0 1200 600">
  <!-- Generator: Adobe Illustrator 30.1.0, SVG Export Plug-In . SVG Version: 2.1.1 Build 136)  -->
  <path d="M1200,300c0,164.58-135.42,300-300,300H300L900,0C1064.58,0,1200,135.43,1200,300Z" fill="#c777d6"/>
  <path d="M900,0L300,600C135.42,600,0,464.58,0,300S135.42,0,300,0h600Z" fill="#aae0fa"/>
  <g>
    <path d="M1136.19,315.85c-29.73-59.2-114.79-66.24-157.96-61.82-21.57,2.21-38.91,7.92-50.5,12.59,37.1-33.29,77.34-42.92,87-45.05,54.46-11.93,98.65,4.3,114.77,11.15-5.02-9.56-13.13-23.02-25.6-37.01-10.63-11.91-62.85-70.44-125.06-60.96-65.49,9.97-98.47,88.7-107.6,131.13-4.57,21.19-4.5,39.46-3.63,51.93-21.21-47.87-16.65-91.38-15.53-100.73,6.47-53.36,34.25-88.64,45.64-101.65-10.64,1.83-25.95,5.37-43.11,12.92-14.62,6.43-86.42,38-96.63,100.09-10.75,65.37,53.93,121.06,91.45,142.86,18.76,10.9,36.15,16.47,48.28,19.5h-.03c-52.05,5.38-92-12.38-100.57-16.36-48.75-22.64-73.72-59.96-82.58-74.81-1.55,10.67-2.91,26.34-1.03,44.99,1.59,15.88,9.44,93.93,65.33,122.83,58.85,30.42,131.8-13.88,164.13-42.84,16.15-14.46,26.83-29.27,33.45-39.87-10.98,51.19-40.24,83.72-46.64,90.61-36.6,39.37-79.82,51.58-96.66,55.42,9.67,4.77,24.15,10.91,42.46,14.89,15.6,3.4,92.25,20.05,137-24.18,47.12-46.56,27.53-129.64,9.97-169.33-8.77-19.84-19.56-34.58-27.59-44.15l.1.05c45.21,26.24,67.07,64.04,71.67,72.31,26.13,46.96,24.4,91.84,22.84,109.06,7.53-7.72,17.83-19.6,27.28-35.78,8.05-13.79,47.58-81.54,19.34-137.77h0v-.02ZM980.38,354.74c-5.93,5.57-14.1,12.23-24.69,18.35s-20.45,9.86-28.24,12.21c-7.14-3.92-15.99-9.63-25.09-17.81-9.09-8.19-15.69-16.39-20.34-23.08,1.52-8,4.21-18.19,9.19-29.36,4.97-11.18,10.74-20,15.67-26.48,8.08-1.03,18.6-1.61,30.77-.34,12.17,1.28,22.35,4.05,30.03,6.72,3.47,7.36,7.28,17.19,9.82,29.16,2.55,11.97,3.07,22.5,2.89,30.64h-.01Z"/>
    <path d="M898.22,333.59c9.26-4.73,15.86-10.4,20.07-14.59s9.86-10.8,14.59-20.07c4.73,9.26,10.4,15.86,14.59,20.07s10.8,9.86,20.07,14.59c-9.26,4.73-15.86,10.4-20.07,14.59s-9.86,10.8-14.59,20.07c-4.73-9.26-10.4-15.86-14.59-20.07s-10.8-9.86-20.07-14.59Z"/>
  </g>
  <path d="M257.76,490.5c-18.67,19.01-41.68,28.51-69.01,28.51-30.67,0-55-10.49-73-31.5-17-20-25.5-45.5-25.5-76.49,0-33.33,14.5-71.34,43.5-114.01,23.66-34.99,51.49-65.66,83.5-92-4.67,21.33-7,36.5-7,45.5,0,20.67,6.49,40.83,19.49,60.5,16,23.33,28.16,40.68,36.5,52,13,19.68,19.5,38.84,19.5,57.49,0,27.67-9.33,51-27.99,70M257.25,383.75c-5-11.16-10.83-18.58-17.5-22.25,1,2,1.5,4.84,1.5,8.51,0,7-2,17-6,30l-6.49,20c0,11.67,5.82,17.5,17.49,17.5,12.33,0,18.5-8.17,18.5-24.51,0-8.32-2.5-18.07-7.5-29.25" fill="#061922"/>
  <path d="M525.76,317.92c-18.67,19.01-41.68,28.51-69.01,28.51-30.67,0-55-10.49-73-31.5-17-20-25.5-45.5-25.5-76.49,0-33.33,14.5-71.34,43.5-114.01,23.66-34.99,51.49-65.66,83.5-92-4.67,21.33-7,36.5-7,45.5,0,20.67,6.49,40.83,19.49,60.5,16,23.33,28.16,40.68,36.5,52,13,19.68,19.5,38.84,19.5,57.49,0,27.67-9.33,51-27.99,70M525.25,211.17c-5-11.16-10.83-18.58-17.5-22.25,1,2,1.5,4.84,1.5,8.51,0,7-2,17-6,30l-6.49,20c0,11.67,5.82,17.5,17.49,17.5,12.33,0,18.5-8.17,18.5-24.51,0-8.32-2.5-18.07-7.5-29.25" fill="#061922"/>
</svg>