<?xml version="1.0" encoding="UTF-8"?>
<svg id="svg4977" xmlns="http://www.w3.org/2000/svg" xmlns:svg="http://www.w3.org/2000/svg" xmlns:sodipodi="http://sodipodi.sourceforge.net/DTD/sodipodi-0.dtd" xmlns:rdf="http://www.w3.org/1999/02/22-rdf-syntax-ns#" xmlns:inkscape="http://www.inkscape.org/namespaces/inkscape" xmlns:dc="http://purl.org/dc/elements/1.1/" xmlns:cc="http://creativecommons.org/ns#" version="1.1" viewBox="0 0 600 600">
  <!-- Generator: Adobe Illustrator 30.1.0, SVG Export Plug-In . SVG Version: 2.1.1 Build 136)  -->
  <sodipodi:namedview id="namedview12" bordercolor="#666666" borderopacity="1" gridtolerance="10" guidetolerance="10" inkscape:current-layer="svg4977" inkscape:cx="300" inkscape:cy="300" inkscape:pageopacity="0" inkscape:pageshadow="2" inkscape:window-height="480" inkscape:window-maximized="0" inkscape:window-width="732" inkscape:window-x="0" inkscape:window-y="0" inkscape:zoom="0.39333333" objecttolerance="10" pagecolor="#ffffff" showgrid="false"/>
  <g id="layer1">
    <path id="path289" d="M512.09,87.82c54.31,54.31,87.91,129.31,87.91,212.16,0,165.7-134.32,300.02-300.01,300.02-82.84,0-157.83-33.58-212.12-87.88" inkscape:connector-curvature="0" fill="#cbc2bf"/>
    <path d="M406.5,264c29.43,62.66,79.84,113.07,142.5,142.5-62.66,29.43-113.07,79.84-142.5,142.5-29.43-62.66-79.84-113.07-142.5-142.5,62.66-29.43,113.07-79.84,142.5-142.5M406.5,317.44c-17.85,39.54-49.52,71.21-89.06,89.06,39.54,17.85,71.21,49.52,89.06,89.06,17.85-39.54,49.52-71.21,89.06-89.06-39.54-17.85-71.21-49.52-89.06-89.06" fill="#130c0e"/>
  </g>
</svg>