<?xml version="1.0" encoding="UTF-8"?>
<svg id="Layer_1" xmlns="http://www.w3.org/2000/svg" version="1.1" viewBox="0 0 600 600">
  <!-- Generator: Adobe Illustrator 30.1.0, SVG Export Plug-In . SVG Version: 2.1.1 Build 136)  -->
  <path d="M512.08,87.82c54.3,54.3,87.9,129.3,87.9,212.2,0,165.7-134.3,300-300,300-82.8,0-157.8-33.6-212.1-87.9"/>
  <path d="M367.17,291.39c-.6-4.8,19.02,12.75,74.8-1.66,0,0-40.28,33.71-44.79,88.54,0,0,43.58,9.78,84.1-3.08,0,0-60.63,78.14-76.24,148.11,0,0-16.99-38.47.58-103.34,0,0-20.88-14.33-95.31,4.5,0,0,64.15-74.46,56.86-133.07h0Z" fill="#fff" stroke="#fff" stroke-width="5.88"/>
</svg>