<?xml version="1.0" encoding="UTF-8"?>
<svg id="Layer_1" xmlns="http://www.w3.org/2000/svg" version="1.1" viewBox="0 0 600 600">
  <!-- Generator: Adobe Illustrator 30.1.0, SVG Export Plug-In . SVG Version: 2.1.1 Build 136)  -->
  <path d="M300,300l212.13-212.13c56.24,56.24,87.87,132.6,87.87,212.13,0,164.58-135.42,300-300,300-79.53,0-155.89-31.63-212.13-87.87l212.13-212.13Z" fill="#f19dc4"/>
  <path d="M441.99,282.59c2.33,3.91,6.17,9.78,11.86,16.15,7.92,8.87,12.68,11.15,18.09,18.75,2.89,4.05,6.51,10.41,8.72,19.77,2.28-14.84,6.53-25.8,9.82-32.78,3.17-6.72,5.75-10.42,6.83-11.91,2.23-3.06,7.92-10.76,17.37-16.38,13.74-8.17,27.88-7.48,33.65-6.87-2.53,5.39-5.79,13.63-7.42,24.04-2.83,17.97,1.14,29.83,6.09,53.47,5.79,27.65,8.69,41.48,8.5,56.38-.23,17.76-.49,38.18-14.39,54.97-12.04,14.54-29.16,20.15-43.64,24.9-12.57,4.12-23.47,5.65-30.88,6.29-1.64,5.77-4.98,13.78-8.45,24.38-8.26,25.23-11.72,38.59-16.13,38.5-3.62-.08-5.54-7.48-16.13-38.5-3.62-10.6-6.61-19.15-8.45-24.38-7.42-.64-18.32-2.17-30.88-6.29-14.48-4.74-31.6-10.36-43.64-24.9-13.9-16.79-14.17-37.2-14.39-54.97-.19-14.91,2.7-28.73,8.5-56.38,4.95-23.64,8.93-35.51,6.09-53.47-1.64-10.4-4.9-18.65-7.42-24.04,5.77-.62,19.91-1.31,33.65,6.87,9.45,5.62,15.14,13.32,17.37,16.38,1.08,1.49,3.66,5.18,6.83,11.91,3.29,6.98,7.54,17.94,9.82,32.78,2.2-9.36,5.82-15.71,8.72-19.77,5.4-7.59,10.16-9.87,18.09-18.75,5.68-6.37,9.53-12.24,11.86-16.15h-.04Z"/>
</svg>