<?xml version="1.0" encoding="UTF-8"?>
<svg id="svg4977" xmlns="http://www.w3.org/2000/svg" xmlns:svg="http://www.w3.org/2000/svg" xmlns:sodipodi="http://sodipodi.sourceforge.net/DTD/sodipodi-0.dtd" xmlns:rdf="http://www.w3.org/1999/02/22-rdf-syntax-ns#" xmlns:inkscape="http://www.inkscape.org/namespaces/inkscape" xmlns:dc="http://purl.org/dc/elements/1.1/" xmlns:cc="http://creativecommons.org/ns#" version="1.1" viewBox="0 0 600 600">
  <!-- Generator: Adobe Illustrator 30.1.0, SVG Export Plug-In . SVG Version: 2.1.1 Build 136)  -->
  <sodipodi:namedview id="namedview12" bordercolor="#666666" borderopacity="1" gridtolerance="10" guidetolerance="10" inkscape:current-layer="svg4977" inkscape:cx="300" inkscape:cy="300" inkscape:pageopacity="0" inkscape:pageshadow="2" inkscape:window-height="480" inkscape:window-maximized="0" inkscape:window-width="732" inkscape:window-x="0" inkscape:window-y="0" inkscape:zoom="0.39333333" objecttolerance="10" pagecolor="#ffffff" showgrid="false"/>
  <path id="circle51" d="M300,300l212.13-212.13c56.24,56.24,87.87,132.6,87.87,212.13,0,164.58-135.42,300-300,300-79.53,0-155.89-31.63-212.13-87.87l212.13-212.13Z" fill="#cbc2bf"/>
  <path d="M558.17,417.18h-156.05l57.15-40.67c-21.24-16.83-45.8-25.29-73.62-25.29-13.94,0-23.48,2.67-28.54,7.95-5.13,5.35-7.73,14.95-7.73,28.83,0,38.43,19.8,79.47,59.39,123.11l-45.01,45.59c-52.38-63.72-78.6-120.72-78.6-170.86,0-30.05,9.03-53.97,27.16-71.74s42.26-26.66,72.25-26.66c36.63,0,76.58,13.94,119.86,41.76l33.52-57.15,20.37,145.07" fill="#130c0e"/>
</svg>