<?xml version="1.0" encoding="UTF-8"?>
<svg id="svg4977" xmlns="http://www.w3.org/2000/svg" xmlns:svg="http://www.w3.org/2000/svg" xmlns:sodipodi="http://sodipodi.sourceforge.net/DTD/sodipodi-0.dtd" xmlns:rdf="http://www.w3.org/1999/02/22-rdf-syntax-ns#" xmlns:inkscape="http://www.inkscape.org/namespaces/inkscape" xmlns:dc="http://purl.org/dc/elements/1.1/" xmlns:cc="http://creativecommons.org/ns#" version="1.1" viewBox="0 0 600 600">
  <!-- Generator: Adobe Illustrator 30.1.0, SVG Export Plug-In . SVG Version: 2.1.1 Build 136)  -->
  <sodipodi:namedview id="namedview12" bordercolor="#666666" borderopacity="1" gridtolerance="10" guidetolerance="10" inkscape:current-layer="svg4977" inkscape:cx="300" inkscape:cy="300" inkscape:pageopacity="0" inkscape:pageshadow="2" inkscape:window-height="480" inkscape:window-maximized="0" inkscape:window-width="732" inkscape:window-x="0" inkscape:window-y="0" inkscape:zoom="0.39333333" objecttolerance="10" pagecolor="#ffffff" showgrid="false"/>
  <path id="circle5" d="M300,300l-212.13,212.13C31.63,455.89,0,379.53,0,300,0,135.42,135.42,0,300,0,379.53,0,455.89,31.63,512.13,87.87l-212.13,212.13Z" fill="#cbc2bf"/>
  <path d="M189.1,220.51l.51-99.54-67.38,99.54M96.2,244.5l-.51-23.99,101.07-147.01h33.69v147.01c9.7,0,15.82-15.31,16.84-22.46h19.4l-6.64,45.94h-29.1v22.46c0,13.78,5.61,21.95,18.89,21.95h10.21v19.91h-100.56l.51-19.91h12.25c8.68,0,18.38-5.61,17.87-22.97v-21.95" fill="#130c0e"/>
</svg>