<?xml version="1.0" encoding="UTF-8"?>
<svg id="Layer_1" xmlns="http://www.w3.org/2000/svg" version="1.1" viewBox="0 0 600 600">
  <!-- Generator: Adobe Illustrator 30.1.0, SVG Export Plug-In . SVG Version: 2.1.1 Build 136)  -->
  <path d="M300,300l-212.16,212.16C31.62,455.88,0,379.56,0,300,0,135.42,135.42,0,300,0,379.56,0,455.88,31.62,512.16,87.84l-212.16,212.16h0Z" fill="#cbc2bf" fill-rule="evenodd"/>
  <path d="M198,48c9.48,18.78,21.06,37.08,34.8,54.78,6.36,8.04,13.08,15.84,20.1,23.28,7.8,8.4,16.08,16.44,24.66,24,9.36,8.16,19.26,15.72,29.64,22.5,11.1,7.32,22.74,13.8,34.8,19.44-18.3,9.66-36.36,21.42-54.42,35.4-8.16,6.36-15.96,13.08-23.52,20.16-8.4,7.86-16.44,16.2-23.94,24.9-8.1,9.42-15.6,19.32-22.56,29.64-7.32,10.86-13.86,22.14-19.56,33.9-9.18-17.82-20.58-35.4-34.26-52.86-11.76-14.88-26.64-30.48-44.58-47.04-17.94-16.5-39.66-31.2-65.1-44.1,18.3-9.42,36.42-21.06,54.42-34.92,15.36-12,31.14-26.94,47.46-44.88s30.36-39.3,42.12-64.26l-.06.06h0ZM176.46,249.06c8.64,10.86,15.72,21.84,21.3,32.94,7.32-15.48,16.02-28.68,26.28-39.84,10.26-11.22,20.22-20.52,29.82-28.08,10.74-8.34,22.2-15.78,34.2-22.14-15.9-7.14-29.4-15.84-40.44-26.04-11.1-10.14-20.46-19.98-28.02-29.52-8.52-10.62-15.84-22.14-21.84-34.38-7.26,15.72-15.96,29.16-26.04,40.32-10.08,11.16-19.92,20.46-29.52,28.08-10.68,8.34-22.14,15.54-34.2,21.6,15.9,8.16,29.4,17.4,40.62,27.54s20.52,20.04,27.78,29.52h.06,0Z" fill-rule="evenodd"/>
</svg>