<?xml version="1.0" encoding="UTF-8"?>
<svg id="Layer_1" xmlns="http://www.w3.org/2000/svg" version="1.1" viewBox="0 0 600 600">
  <!-- Generator: Adobe Illustrator 30.1.0, SVG Export Plug-In . SVG Version: 2.1.1 Build 136)  -->
  <path d="M300,300l-212.13,212.13C31.63,455.89,0,379.53,0,300,0,135.42,135.42,0,300,0,379.53,0,455.89,31.63,512.13,87.87l-212.13,212.13Z" fill="#cbc2bf"/>
  <path d="M287.26,194.82l-.02.09c-.45-12.46-3.25-24.33-7.98-35.16l35.31-28.16-31.33-39.3-35.32,28.17.04.05c-9.61-7.11-20.58-12.49-32.45-15.66v-45.17h-50.26v45.17c-11.87,3.18-22.84,8.55-32.45,15.66l.04-.05-35.32-28.17-31.33,39.3,35.31,28.16c-4.73,10.83-7.53,22.7-7.98,35.16l-.02-.09-44.04,10.05,11.18,48.99,44.04-10.05c5.7,10.75,13.35,20.29,22.5,28.16l-.07-.03-19.6,40.7,45.28,21.81,19.6-40.7-.04-.02c5.84,1.1,11.86,1.68,18.02,1.68s12.18-.57,18.02-1.68l-.04.02,19.6,40.7,45.28-21.81-19.6-40.7-.07.03c9.14-7.87,16.8-17.41,22.5-28.16l44.04,10.05,11.18-48.99-44.04-10.05h.02ZM190.38,244.85c-25.61,0-46.37-20.76-46.37-46.37s20.76-46.37,46.37-46.37,46.37,20.76,46.37,46.37-20.76,46.37-46.37,46.37Z"/>
</svg>