<?xml version="1.0" encoding="UTF-8"?>
<svg id="Layer_1" xmlns="http://www.w3.org/2000/svg" version="1.1" viewBox="0 0 600 600">
  <!-- Generator: Adobe Illustrator 30.1.0, SVG Export Plug-In . SVG Version: 2.1.1 Build 136)  -->
  <path d="M300,300l-212.13,212.13C31.63,455.89,0,379.53,0,300,0,135.42,135.42,0,300,0,379.53,0,455.89,31.63,512.13,87.87l-212.13,212.13Z" fill="#fffbd5"/>
  <path d="M327.98,229.62c-14.6-13.6-24.3-21-29.1-22.1-3.5-.8-6.8,1.2-10,6s-7.8,6.6-13.6,5.1c-2.4-.6-7-2.6-14-6.1-5.6,5.3-8.6,8.8-9.1,10.5-.6,2.4.5,5.6,3.3,9.7s5.4,6.4,7.8,7c1.5.4,3.7.6,6.5.5,2.8,0,4.7.1,5.6.3,2.7.6,2.8,5.8.5,15.6-2.2,9.3-7.8,23.1-16.8,41.4-.3-23.4-3.7-35.9-9.9-37.4-.9-.2-2.8,0-5.8.7-3,.6-5.2.8-6.5.5-6.3-1.5-10.5-8.6-12.8-21.3-10.3-.9-16.5,3-18.6,11.7-1,4.4.1,8.3,3.5,11.9s4.9,5.9,4.7,7c-1.4,5.9-12.1,12.8-32.1,20.8-10.7,4.3-18,7.4-22.1,9.1,4-3.2,8.2-7.5,12.8-13.1,5.2-6.3,8.2-11.4,9.2-15.3.5-2.1-1.2-5.8-5.3-10.9s-5.6-9.8-4.5-14.1c.9-3.7,3.3-7.9,7.2-12.7-2-3.9-5-6.4-8.9-7.3-8.7-2.1-13.7-.3-15,5.3.9-3.9.2-1-2.1,8.8-1.5,7.2-7.8,9.5-18.8,6.8-8.5-2-22.2-7.4-41.2-16,23.9-.2,36.7-4,38.5-11.4-.2.9,0-1.8.6-8.1.7-6.9,7-11.9,18.6-14.8.4-10.4-3.6-16.6-12-18.7-1.3-.3-4.2,1.4-8.8,5.1-4.6,3.7-8.4,5.2-11.4,4.5-5.2-1.2-10.6-8.5-16.1-21.7-2.6-6.6-6.5-16.3-11.9-29.3,4.4,3.8,8.7,7.6,13.1,11.4,5.8,4.6,10.6,7.4,14.5,8.3,3,.7,6.6-1.2,10.8-5.8,4.2-4.6,8.7-6.3,13.4-5.2.7.2,4.7,2.5,12.1,7,5.6-5.3,8.8-9.5,9.5-12.5.6-2.6-.2-5.9-2.6-10.1-2.3-4.1-4.8-6.5-7.4-7.1-1.1-.3-2.8-.3-5.3-.2-2.4.1-4.2,0-5.3-.2-3.9-.9-4.7-6.3-2.4-16,.6-2.6,6.7-16.9,18.1-42.7-1,3.2-1,9.6-.1,19.2,1.1,11.7,4.1,18.1,9.1,19.4.9.2,2.8,0,5.7-.7s5.1-.8,6.6-.5c5,1.2,8.4,5,10.3,11.4l2.8,9.9c4.5,1.1,8.7.4,12.5-2.1s6.3-6.1,7.4-10.6c1.1-4.8,0-8.9-3.4-12.3s-5-5.8-4.6-7.1c1.1-4.5,10.1-10.5,27-17.9,13.6-5.9,22.3-9.2,26.1-9.9-12.3,10.4-19.2,18.4-20.6,24.3-.7,3,.3,6.7,3.2,11.1,3.6,5.2,5.5,8.8,5.7,10.6,1,5.5-.9,12.3-5.5,20.3,4.9,5.5,8.8,8.6,11.9,9.4,6.3,1.5,10.2-1,11.7-7.5.2-.6.4-2.8.7-6.4.3-3.6.6-5.6.9-6,1.6-2.8,7.9-2.9,19-.3,6.9,1.7,20.9,7.1,41.8,16.2-5.1.2-12.7.4-22.9.7-9.3.5-14.3,2.4-15.1,5.7-.4,1.5-.4,4.2-.2,8.2.2,3.9.1,6.8-.3,8.5-.7,3-3.3,5.4-7.9,7.1l-12.9,5.2c1.5,5.4,2.5,8.6,3.2,9.7,1.6,3.1,4.2,5.1,7.8,6,2.6.6,5.5-1.1,8.8-5.1s7.3-5.5,12-4.3c5.9,1.4,11.2,8.4,15.9,21,2.6,7.1,6.8,17.8,12.6,32.2l-.1-.3h0ZM260.38,193.52c3.3-13.9,1.1-27.1-6.6-39.7-7.8-12.6-18.6-20.6-32.4-23.9-14.1-3.4-27.4-1.3-40,6.4-12.6,7.6-20.7,18.5-24.3,32.5-3.5,13.8-1.3,27,6.8,39.6s19.1,20.5,33,23.9c14.7,3.5,28.2,1.6,40.4-5.6,12.2-7.3,19.9-18.3,23.2-33.1M255.58,192.42c-3.2,13.2-10.2,23.1-21.2,29.6-11,6.6-23.1,8.2-36.3,5.1-12.8-3.1-22.7-10.1-29.6-21.2-7-11.1-8.9-23-5.9-35.8,3-12.6,10.2-22.2,21.6-29s23.3-8.7,35.9-5.7,22.4,10.2,29.4,21.5,9.1,23.1,6.1,35.5" fill="#211d15"/>
</svg>