<?xml version="1.0" encoding="UTF-8"?>
<svg id="Layer_1" xmlns="http://www.w3.org/2000/svg" version="1.1" viewBox="0 0 600 600">
  <!-- Generator: Adobe Illustrator 30.1.0, SVG Export Plug-In . SVG Version: 2.1.1 Build 136)  -->
  <circle cx="300" cy="300" r="300" fill="#96908d"/>
  <path d="M403.96,148.8c0,13.94-5.05,23.45-15.2,28.5-2.95,1.47-12.25,3.49-27.87,6.02-10.15,1.68-15.2,5.6-15.2,11.7v25.64c0,1.05.34,4.34.97,9.81l.97,10.15c0,3.16-.76,8.34-2.23,15.54-4,.84-8.67,1.81-13.94,2.86-1.68-6.36-2.53-10.65-2.53-13.01,0-1.05.25-2.65.8-4.76.51-2.11.8-3.71.8-4.76,0-1.47-1.31-5.6-3.96-12.34h-4.93c-.63,1.05-.88,2.44-.67,4.13.84,3.58,1.18,6.65.97,9.18-3.58,2.53-8.55,5.94-14.9,10.15-1.47-.42-2.02-.63-1.6-.63v-22.48c-.42-1.05-1.47-1.47-3.16-1.26h-3.79l-3.79,29.77c-2.95.21-6.57.21-10.78,0-1.47-6.95-4.13-17.3-7.92-31.03h-2.53c-2.32,7.41-3.58,11.41-3.79,12.04,0,.84.25,2.48.8,4.93.51,2.44.8,4.08.8,4.93,0,.63-.21,2.23-.63,4.76l-.97,7.62c-.42.42-.97.63-1.6.63-6.32,0-10.57-1.6-12.67-4.76s-2.95-7.62-2.53-13.3l2.53-38.02c0-.63.21-1.47.63-2.53s.63-1.81.63-2.23c0-1.68-1.81-5.05-5.39-10.15-.63-.21-3.92-.97-9.81-2.23-3.58-.84-10.65-2.32-21.22-4.42-14.57-2.74-21.85-14.44-21.85-35.16,0-30.82,12.67-56.5,38.02-76.97,1.05,5.68,2.86,13.3,5.39,22.82,1.89.42,6.02,1.39,12.34,2.86,1.26.42,7.7,2.74,19.33,6.99-5.94-3.58-13.64-9.39-23.11-17.43-3.58-4.21-5.39-11.28-5.39-21.22,0-2.32,4-5.05,12.04-8.25,7.16-2.95,12.59-4.63,16.17-5.05,11.41-1.47,20.17-2.23,26.31-2.23,26.4,0,47.75,6.78,64,20.29-5.26,6.15-14.36,12.67-27.24,19.62,5.09.21,12.46-1.77,22.19-6.02,9.73-4.21,13.85-6.32,12.34-6.32,1.68,0,5.09,3.37,10.15,10.15,3.79,5.05,6.86,9.6,9.18,13.64,6.74,12.04,11.28,25.05,13.64,38.99,0,4.88.08,8.34.34,10.44v2.53h0l-.13-.13h0ZM282.62,154.48c0-9.09-3.96-17.68-11.87-25.81s-16.42-12.21-25.51-12.21c-8.04,0-15.12,3.41-21.22,10.19-6.15,6.82-9.18,14.36-9.18,22.65,0,7.24,3.49,11.92,10.44,14.02,4.42,1.26,10.65,2.02,18.69,2.23h17.43c14.15.21,21.22-3.49,21.22-11.07M317.14,193.76v-9.81c-1.47-2.74-2.95-5.6-4.42-8.55-1.26-4.21-3.58-10.15-6.99-17.73l-3.49,37.05c0,2.95-.63,4.42-1.89,4.42-.84,0-1.47-.21-1.89-.63-1.47-22.4-2.23-32.08-2.23-29.14v-11.07c-.42-.63-.93-.97-1.56-.97-7.2,7.41-10.78,19.33-10.78,35.79,0,9.09.84,14.69,2.53,16.8,1.68-.42,3.58-1.18,5.68-2.23.84-.42,3.28-.63,7.28-.63s8.88,1.26,14.57,3.79c2.11,0,3.16-5.68,3.16-17.09M388.72,149.64c0-8.5-3.16-16.08-9.52-22.78-6.36-6.69-13.64-10.02-21.85-10.02-8.88,0-17.18,4.04-24.88,12.21-7.7,8.13-11.58,16.63-11.58,25.51,0,7.41,3.58,11.07,10.78,11.07h36.42c13.73-.21,20.59-5.52,20.59-15.96" fill="#130c0e"/>
  <path d="M555.03,372.47c0,13.94-5.05,23.45-15.2,28.5-2.95,1.47-12.25,3.49-27.87,6.02-10.15,1.68-15.2,5.6-15.2,11.7v25.64c0,1.05.34,4.34.97,9.81l.97,10.15c0,3.16-.76,8.34-2.23,15.54-4,.84-8.67,1.81-13.94,2.86-1.68-6.36-2.53-10.65-2.53-13.01,0-1.05.25-2.65.8-4.76.51-2.11.8-3.71.8-4.76,0-1.47-1.31-5.6-3.96-12.34h-4.93c-.63,1.05-.88,2.44-.67,4.13.84,3.58,1.18,6.65.97,9.18-3.58,2.53-8.55,5.94-14.9,10.15-1.47-.42-2.02-.63-1.6-.63v-22.48c-.42-1.05-1.47-1.47-3.16-1.26h-3.79l-3.79,29.77c-2.95.21-6.57.21-10.78,0-1.47-6.95-4.13-17.3-7.92-31.03h-2.53c-2.32,7.41-3.58,11.41-3.79,12.04,0,.84.25,2.48.8,4.93.51,2.44.8,4.08.8,4.93,0,.63-.21,2.23-.63,4.76l-.97,7.62c-.42.42-.97.63-1.6.63-6.32,0-10.57-1.6-12.67-4.76s-2.95-7.62-2.53-13.3l2.53-38.02c0-.63.21-1.47.63-2.53s.63-1.81.63-2.23c0-1.68-1.81-5.05-5.39-10.15-.63-.21-3.92-.97-9.81-2.23-3.58-.84-10.65-2.32-21.22-4.42-14.57-2.74-21.85-14.44-21.85-35.16,0-30.82,12.67-56.5,38.02-76.97,1.05,5.68,2.86,13.3,5.39,22.82,1.89.42,6.02,1.39,12.34,2.86,1.26.42,7.7,2.74,19.33,6.99-5.94-3.58-13.64-9.39-23.11-17.43-3.58-4.21-5.39-11.28-5.39-21.22,0-2.32,4-5.05,12.04-8.25,7.16-2.95,12.59-4.63,16.17-5.05,11.41-1.47,20.17-2.23,26.31-2.23,26.4,0,47.75,6.78,64,20.29-5.26,6.15-14.36,12.67-27.24,19.62,5.09.21,12.46-1.77,22.19-6.02,9.73-4.21,13.85-6.32,12.34-6.32,1.68,0,5.09,3.37,10.15,10.15,3.79,5.05,6.86,9.6,9.18,13.64,6.74,12.04,11.28,25.05,13.64,38.99,0,4.88.08,8.34.34,10.44v2.53h0l-.13-.13h0ZM433.69,378.15c0-9.09-3.96-17.68-11.87-25.81-7.92-8.13-16.42-12.21-25.51-12.21-8.04,0-15.12,3.41-21.22,10.19-6.15,6.82-9.18,14.36-9.18,22.65,0,7.24,3.49,11.92,10.44,14.02,4.42,1.26,10.65,2.02,18.69,2.23h17.43c14.15.21,21.22-3.49,21.22-11.07M468.21,417.43v-9.81c-1.47-2.74-2.95-5.6-4.42-8.55-1.26-4.21-3.58-10.15-6.99-17.73l-3.49,37.05c0,2.95-.63,4.42-1.89,4.42-.84,0-1.47-.21-1.89-.63-1.47-22.4-2.23-32.08-2.23-29.14v-11.07c-.42-.63-.93-.97-1.56-.97-7.2,7.41-10.78,19.33-10.78,35.79,0,9.09.84,14.69,2.53,16.8,1.68-.42,3.58-1.18,5.68-2.23.84-.42,3.28-.63,7.28-.63s8.88,1.26,14.57,3.79c2.11,0,3.16-5.68,3.16-17.09M539.79,373.31c0-8.5-3.16-16.08-9.52-22.78-6.36-6.69-13.64-10.02-21.85-10.02-8.88,0-17.18,4.04-24.88,12.21-7.7,8.13-11.58,16.63-11.58,25.51,0,7.41,3.58,11.07,10.78,11.07h36.42c13.73-.21,20.59-5.52,20.59-15.96" fill="#130c0e"/>
  <path d="M254.78,372.47c0,13.94-5.05,23.45-15.2,28.5-2.95,1.47-12.25,3.49-27.87,6.02-10.15,1.68-15.2,5.6-15.2,11.7v25.64c0,1.05.34,4.34.97,9.81l.97,10.15c0,3.16-.76,8.34-2.23,15.54-4,.84-8.67,1.81-13.94,2.86-1.68-6.36-2.53-10.65-2.53-13.01,0-1.05.25-2.65.8-4.76.51-2.11.8-3.71.8-4.76,0-1.47-1.31-5.6-3.96-12.34h-4.93c-.63,1.05-.88,2.44-.67,4.13.84,3.58,1.18,6.65.97,9.18-3.58,2.53-8.55,5.94-14.9,10.15-1.47-.42-2.02-.63-1.6-.63v-22.48c-.42-1.05-1.47-1.47-3.16-1.26h-3.79l-3.79,29.77c-2.95.21-6.57.21-10.78,0-1.47-6.95-4.13-17.3-7.92-31.03h-2.53c-2.32,7.41-3.58,11.41-3.79,12.04,0,.84.25,2.48.8,4.93.51,2.44.8,4.08.8,4.93,0,.63-.21,2.23-.63,4.76l-.97,7.62c-.42.42-.97.63-1.6.63-6.32,0-10.57-1.6-12.67-4.76s-2.95-7.62-2.53-13.3l2.53-38.02c0-.63.21-1.47.63-2.53s.63-1.81.63-2.23c0-1.68-1.81-5.05-5.39-10.15-.63-.21-3.92-.97-9.81-2.23-3.58-.84-10.65-2.32-21.22-4.42-14.57-2.74-21.85-14.44-21.85-35.16,0-30.82,12.67-56.5,38.02-76.97,1.05,5.68,2.86,13.3,5.39,22.82,1.89.42,6.02,1.39,12.34,2.86,1.26.42,7.7,2.74,19.33,6.99-5.94-3.58-13.64-9.39-23.11-17.43-3.58-4.21-5.39-11.28-5.39-21.22,0-2.32,4-5.05,12.04-8.25,7.16-2.95,12.59-4.63,16.17-5.05,11.41-1.47,20.17-2.23,26.31-2.23,26.4,0,47.75,6.78,64,20.29-5.26,6.15-14.36,12.67-27.24,19.62,5.09.21,12.46-1.77,22.19-6.02,9.73-4.21,13.85-6.32,12.34-6.32,1.68,0,5.09,3.37,10.15,10.15,3.79,5.05,6.86,9.6,9.18,13.64,6.74,12.04,11.28,25.05,13.64,38.99,0,4.88.08,8.34.34,10.44v2.53h0l-.13-.13h-.01ZM133.44,378.15c0-9.09-3.96-17.68-11.87-25.81-7.92-8.13-16.42-12.21-25.51-12.21-8.04,0-15.12,3.41-21.22,10.19-6.15,6.82-9.18,14.36-9.18,22.65,0,7.24,3.49,11.92,10.44,14.02,4.42,1.26,10.65,2.02,18.69,2.23h17.43c14.15.21,21.22-3.49,21.22-11.07M167.96,417.43v-9.81c-1.47-2.74-2.95-5.6-4.42-8.55-1.26-4.21-3.58-10.15-6.99-17.73l-3.49,37.05c0,2.95-.63,4.42-1.89,4.42-.84,0-1.47-.21-1.89-.63-1.47-22.4-2.23-32.08-2.23-29.14v-11.07c-.42-.63-.93-.97-1.56-.97-7.2,7.41-10.78,19.33-10.78,35.79,0,9.09.84,14.69,2.53,16.8,1.68-.42,3.58-1.18,5.68-2.23.84-.42,3.28-.63,7.28-.63s8.88,1.26,14.57,3.79c2.11,0,3.16-5.68,3.16-17.09M239.54,373.31c0-8.5-3.16-16.08-9.52-22.78-6.36-6.69-13.64-10.02-21.85-10.02-8.88,0-17.18,4.04-24.88,12.21-7.7,8.13-11.58,16.63-11.58,25.51,0,7.41,3.58,11.07,10.78,11.07h36.42c13.73-.21,20.59-5.52,20.59-15.96" fill="#130c0e"/>
</svg>