<?xml version="1.0" encoding="UTF-8"?>
<svg id="Layer_1" xmlns="http://www.w3.org/2000/svg" version="1.1" viewBox="0 0 600 600">
  <!-- Generator: Adobe Illustrator 30.1.0, SVG Export Plug-In . SVG Version: 2.1.1 Build 136)  -->
  <circle cx="300" cy="300" r="300" fill="#bfab90"/>
  <path d="M424.94,124.61c-.17-1.05-.46-1.85-.64-2.31-8.74-21.47-21.36-38.13-21.36-38.13-5.41-7.14-10.91-14.33-19.75-22.81-6.79-6.51-13.31-11.62-18.89-15.56-1.59-1.12-3.49-1.72-5.43-1.72h-57.3c-.66,0-1.12.67-.88,1.28l12.85,33.76c.33.85-.04,1.8-.84,2.23l-19.91,10.41c-1,.52-1.28,1.82-.58,2.7l12.5,15.91c1.28,1.63-.62,3.84-2.42,2.81l-25.56-14.56c-.87-.5-1.17-1.62-.65-2.49l16.57-27.58c.44-.74.3-1.7-.36-2.27l-24.73-21.62c-.43-.38-.98-.59-1.55-.59h-24.86c-1.94,0-3.84.6-5.43,1.72-5.58,3.94-12.11,9.05-18.89,15.56-8.84,8.48-14.34,15.67-19.75,22.81,0,0-12.62,16.66-21.36,38.13-.18.46-.48,1.26-.64,2.31-.32,2.03-.04,4.12.84,6.02,4.69,10.14,13.71,24.33,13.71,24.33,2,2.9,3,4.32,3.01,4.35,18.71,26.72,29.14,39.51,29.14,39.51,11.94,14.92,22.45,24.81,36.02,37.95,1.42,1.37,6.58,6.36,13.74,12.46,5.43,4.63,8.87,7.54,13.86,10.78,2.4,1.56,4.71,3.22,6.84,4.73,4.66,3.31,10.9,3.31,15.55,0,2.13-1.51,4.44-3.17,6.84-4.73,4.99-3.24,8.43-6.15,13.86-10.78,7.16-6.1,12.32-11.08,13.74-12.46,13.57-13.14,24.08-23.03,36.02-37.95,0,0,10.42-12.79,29.12-39.49,0,0,0,0,.02-.03.02-.03,1.02-1.45,3.01-4.35,0,0,9.02-14.18,13.71-24.33.88-1.9,1.16-4,.84-6.02h0ZM291.9,257.76l-88.2-131.74c-.21-.31,0-.72.36-.74,5.93-.3,41.79-2.14,45.79-2.35.21,0,.41.12.47.33l42.42,134.09c.17.52-.54.86-.84.41ZM396.3,126.02l-88.2,131.74c-.3.45-1.01.11-.84-.41l42.42-134.09c.07-.21.26-.34.47-.33,4.01.21,39.86,2.05,45.79,2.35.37.02.57.43.36.74h0Z"/>
  <path d="M285.53,350.75c-.17-1.05-.46-1.85-.64-2.31-8.74-21.47-21.36-38.13-21.36-38.13-5.41-7.14-10.91-14.33-19.75-22.81-6.79-6.51-13.31-11.62-18.89-15.56-1.59-1.12-3.49-1.72-5.43-1.72h-57.3c-.66,0-1.12.67-.88,1.28l12.85,33.76c.33.85-.04,1.8-.84,2.23l-19.91,10.41c-1,.52-1.28,1.82-.58,2.7l12.5,15.91c1.28,1.63-.62,3.84-2.42,2.81l-25.56-14.56c-.87-.5-1.17-1.62-.65-2.49l16.57-27.58c.44-.74.3-1.7-.36-2.27l-24.73-21.62c-.43-.38-.98-.59-1.55-.59h-24.86c-1.94,0-3.84.6-5.43,1.72-5.58,3.94-12.11,9.05-18.89,15.56-8.84,8.48-14.34,15.67-19.75,22.81,0,0-12.62,16.66-21.36,38.13-.18.46-.48,1.26-.64,2.31-.32,2.03-.04,4.12.84,6.02,4.69,10.14,13.71,24.33,13.71,24.33,2,2.9,3,4.32,3.01,4.35,18.71,26.72,29.14,39.51,29.14,39.51,11.94,14.92,22.45,24.81,36.02,37.95,1.42,1.37,6.58,6.36,13.74,12.46,5.43,4.63,8.87,7.54,13.86,10.78,2.4,1.56,4.71,3.22,6.84,4.73,4.66,3.31,10.9,3.31,15.55,0,2.13-1.51,4.44-3.17,6.84-4.73,4.99-3.24,8.43-6.15,13.86-10.78,7.16-6.1,12.32-11.08,13.74-12.46,13.57-13.14,24.08-23.03,36.02-37.95,0,0,10.42-12.79,29.12-39.49,0,0,0,0,.02-.03.02-.03,1.02-1.45,3.01-4.35,0,0,9.02-14.18,13.71-24.33.88-1.9,1.16-4,.84-6.02h0ZM152.49,483.9l-88.2-131.74c-.21-.31,0-.72.36-.74,5.93-.3,41.79-2.14,45.79-2.35.21,0,.41.12.47.33l42.42,134.09c.17.52-.54.86-.84.41ZM256.89,352.16l-88.2,131.74c-.3.45-1.01.11-.84-.41l42.42-134.09c.07-.21.26-.34.47-.33,4.01.21,39.86,2.05,45.79,2.35.37.02.57.43.36.74h0Z"/>
  <path d="M564.35,350.75c-.17-1.05-.46-1.85-.64-2.31-8.74-21.47-21.36-38.13-21.36-38.13-5.41-7.14-10.91-14.33-19.75-22.81-6.79-6.51-13.31-11.62-18.89-15.56-1.59-1.12-3.49-1.72-5.43-1.72h-57.3c-.66,0-1.12.67-.88,1.28l12.85,33.76c.33.85-.04,1.8-.84,2.23l-19.91,10.41c-1,.52-1.28,1.82-.58,2.7l12.5,15.91c1.28,1.63-.62,3.84-2.42,2.81l-25.56-14.56c-.87-.5-1.17-1.62-.65-2.49l16.57-27.58c.44-.74.3-1.7-.36-2.27l-24.73-21.62c-.43-.38-.98-.59-1.55-.59h-24.86c-1.94,0-3.84.6-5.43,1.72-5.58,3.94-12.11,9.05-18.89,15.56-8.84,8.48-14.34,15.67-19.75,22.81,0,0-12.62,16.66-21.36,38.13-.18.46-.48,1.26-.64,2.31-.32,2.03-.04,4.12.84,6.02,4.69,10.14,13.71,24.33,13.71,24.33,2,2.9,3,4.32,3.01,4.35,18.71,26.72,29.14,39.51,29.14,39.51,11.94,14.92,22.45,24.81,36.02,37.95,1.42,1.37,6.58,6.36,13.74,12.46,5.43,4.63,8.87,7.54,13.86,10.78,2.4,1.56,4.71,3.22,6.84,4.73,4.66,3.31,10.9,3.31,15.55,0,2.13-1.51,4.44-3.17,6.84-4.73,4.99-3.24,8.43-6.15,13.86-10.78,7.16-6.1,12.32-11.08,13.74-12.46,13.57-13.14,24.08-23.03,36.02-37.95,0,0,10.42-12.79,29.12-39.49,0,0,0,0,.02-.03.02-.03,1.02-1.45,3.01-4.35,0,0,9.02-14.18,13.71-24.33.88-1.9,1.16-4,.84-6.02h0ZM431.31,483.9l-88.2-131.74c-.21-.31,0-.72.36-.74,5.93-.3,41.79-2.14,45.79-2.35.21,0,.41.12.47.33l42.42,134.09c.17.52-.54.86-.84.41ZM535.71,352.16l-88.2,131.74c-.3.45-1.01.11-.84-.41l42.42-134.09c.07-.21.26-.34.47-.33,4.01.21,39.86,2.05,45.79,2.35.37.02.57.43.36.74h0Z"/>
</svg>