<?xml version="1.0" encoding="UTF-8"?>
<svg id="Layer_1" xmlns="http://www.w3.org/2000/svg" version="1.1" viewBox="0 0 600 600">
  <!-- Generator: Adobe Illustrator 30.1.0, SVG Export Plug-In . SVG Version: 2.1.1 Build 136)  -->
  <circle cx="300" cy="300" r="300" fill="#9bd3ae"/>
  <path d="M562.6,337.4c0,10-3.9,19-11.6,27-7.7,8-16.6,12-26.6,12-16,0-27.7-7.5-35.2-22.5l-35.2-1.5c-7.5,0-22.3,3.3-44.2,9.8-23.5,6.5-37,11.7-40.5,15.7-5.5,6-10,20-13.5,42-3,18-4.5,31.2-4.5,39.7,0,13.5,2.1,23.4,6.4,29.6s13,11.5,26.2,15.7,21.4,6.6,24.4,7.1c2,0,5.2-.2,9.8-.7h9c6.5,0,13.2,1,20.2,3,10,3,14.3,7,12.8,12-7-1-19.2.5-36.7,4.5l21,10.5c0,6-8.5,9-25.5,9-4.5,0-10.6-1-18.4-3-7.7-2-12.9-3-15.4-3h-9.7c-.5,5-2,12.5-4.5,22.5-8.5-.5-18.5-5.5-30-15s-18.7-14.2-21.7-14.2-7.3,4.8-12.7,14.2c-5.5,9.5-8.2,16-8.2,19.5-6.5-3.5-12-10-16.5-19.5-2-6.5-4.2-13-6.7-19.5-5,.5-14.2,11-27.7,31.5h-3.8c-1-1.5-4.8-12-11.2-31.5-15.5-5-30-7.5-43.5-7.5-6.5,0-16.5,1.5-30,4.5l-21-1.5c3-3,11.7-8.7,26.2-17.2,17-10,30-15,39-15,1.5,0,3.5.3,6,.8s4.5.8,6,.8c3.5,0,9.1-1.9,16.9-5.6,7.7-3.7,12.2-7.1,13.5-10.1s1.9-10.8,1.9-23.2c0-28.5-7.5-49.7-22.5-63.7-13-12.5-34.5-21.5-64.5-27-8,28.5-30.5,42.7-67.4,42.7-12,0-24-7.2-36-21.7-12.3-14.8-18.3-28-18.3-40,0-18.5,7.7-33.7,23.2-45.7-12.5-13-18.7-26.2-18.7-39.7,0-12.5,3.9-23.5,11.6-33s17.9-15,30.4-16.5c-1-16,4.2-27,15.7-33-5.5-5.5-8.2-15.2-8.2-29.2,0-16.5,5.5-30.2,16.5-41.2s24.7-16.5,41.2-16.5c18,0,32.7,6.3,44.2,18.8,14.5-49.5,45.7-74.2,93.7-74.2,25,0,47,10,66,30,7,7.5,10.5,11.5,10.5,12-6,0-3-1.1,9-3.4,12-2.2,20.7-3.4,26.2-3.4,19.5,0,36.7,7.2,51.7,21.7,13,13,22,29.5,27,49.5,3.5.5,9,2,16.5,4.5,11,5.5,16.5,15,16.5,28.5,0,2.5-2,7.3-6,14.2,32,18,48,43,48,75,0,9-3.5,21.5-10.5,37.5,13,7.5,19.5,18.5,19.5,33M253.9,370.5v-9.7c0-11.5-5.6-22-16.9-31.5-11.2-9.5-22.6-14.2-34.1-14.2-14,0-27,3.2-39,9.7,26.5-1.5,56.5,13.8,89.9,45.7M240.3,277.6c-7.5-8.5-14-17.2-19.5-26.2-21,5.5-31.5,11.7-31.5,18.7,6-.5,14.7.6,26.2,3.4s19.7,4.1,24.8,4.1M286,254.4v-33c-12-2-19.3-3-21.7-3v11.2l21.7,24.7M383.4,233.3c-6-2.5-17.2-7.5-33.7-15v64.5c23.5-13.5,34.7-30,33.7-49.5M424.6,321.8l-16.5-20.2c-10,7-20.1,14.1-30.4,21.4-10.3,7.2-19.1,15.4-26.6,24.4,22.5-12,47-20.5,73.4-25.5" fill="#658060"/>
  <g id="g163">
    <path id="path165" d="M339.85,480v-19.78c28.22-3.13,42.35-11.32,42.35-24.49,0-9.49-3.77-18.98-11.3-28.48l-78.05-96.06-61.64,72.67c-15.42,17.84-23.18,32.59-23.18,44.12,0,17.86,14.12,28.63,42.42,32.32v19.7H100.15v-19.72c19.03-3.65,35.2-10.51,48.61-20.5,9.23-7.34,21.82-20.23,37.71-38.63l92.69-107.49-107.2-129.96c-13.89-16.78-24.73-27.8-32.41-33.06-10.34-7.35-24.73-12.07-43.22-14.17v-20.48h177.23v19.71c-26.72,5.26-40.06,13.4-40.06,24.44,0,7.38,3.56,15.52,10.76,24.43l70.9,85.93,57.05-70.15c10.27-12.62,15.42-23.65,15.42-33.12,0-15.77-12.63-26.04-37.81-30.77v-20.48h141.07v19.75c-12.33,2.63-20.84,5-25.38,7.13-15.42,7.37-38.98,29.21-70.78,65.52-5.11,5.81-26.72,32.36-64.73,79.71l113.86,140.18c24.68,30.47,49.83,47.83,75.52,52v19.72h-179.54,0Z" fill="#0d0f0f"/>
  </g>
</svg>