<?xml version="1.0" encoding="UTF-8"?>
<svg id="Layer_1" xmlns="http://www.w3.org/2000/svg" version="1.1" viewBox="0 0 600 600">
  <!-- Generator: Adobe Illustrator 30.1.0, SVG Export Plug-In . SVG Version: 2.1.1 Build 136)  -->
  <path id="Shape" d="M600,299.99c0,165.68-134.3,300.01-300,300.01S0,465.68,0,299.99,134.32,0,300,0s300,134.3,300,299.99Z" fill="#cbc2bf"/>
  <path d="M329.46,394.17c0,23.93,3.92,40.76,11.78,50.48,7.85,9.73,21.13,14.59,39.83,14.59l4.49-.57v21.33h-172.78v-21.32h5.6c18.7.38,31.98-4.3,39.83-14.03,7.85-9.71,11.78-26.36,11.78-49.91v-75.18l-109.95-161-11.78-15.71c-3.37-4.49-6.55-8.03-9.53-10.66-4.87-4.12-10.01-7.01-15.43-8.7-5.42-1.69-12.44-3.08-21.04-4.21v-21.88h167.73v21.32c-16.83,1.5-28.25,3.84-34.22,7.01-5.99,3.18-8.98,9.07-8.98,17.67,0,3.74.74,7.49,2.24,11.22,1.49,3.74,3.55,7.67,6.17,11.78l85.27,123.41,62.27-91.44c5.98-8.23,10.28-15.33,12.9-21.32,2.61-5.98,4.29-11.59,5.05-16.82v-4.49c0-11.59-3.18-20.2-9.53-25.8-6.36-5.62-17.39-9.16-33.1-10.66v-21.88h138.56v21.32c-4.49.75-8.61,1.78-12.34,3.08-3.74,1.31-7.3,3.09-10.66,5.33-5.99,3.37-12.16,8.69-18.51,15.99-6.37,7.29-14.02,17.49-23,30.58l-102.66,145.85v74.62h0s0,0,0,0Z" fill="#0d0f0f"/>
</svg>