<?xml version="1.0" encoding="UTF-8"?>
<svg id="Layer_1" xmlns="http://www.w3.org/2000/svg" version="1.1" viewBox="0 0 600 600">
  <!-- Generator: Adobe Illustrator 30.1.0, SVG Export Plug-In . SVG Version: 2.1.1 Build 136)  -->
  <path id="Shape" d="M600,299.99c0,165.69-134.3,300.01-300,300.01S0,465.68,0,299.99,134.32,0,300,0s300,134.31,300,299.99Z" fill="#cbc2bf"/>
  <path d="M446.13,479.99H123.57v-16.27L379.38,120.41h-113.87c-18.71.38-33.1,2.35-43.2,5.89-10.1,3.56-19.45,10.38-28.05,20.48-.75.76-1.4,1.5-1.96,2.24-.56.76-1.22,1.5-1.96,2.24-1.5,2.25-2.9,4.21-4.21,5.89s-2.52,3.46-3.64,5.33c-.38,1.13-.94,2.24-1.68,3.37l-2.24,3.37c-.76,2.24-1.69,4.59-2.8,7.01-1.13,2.44-2.44,5.33-3.92,8.69l-20.2-.56v-86.95h306.29v15.14L199.88,456.99h111.63c16.83.38,30.2,0,40.11-1.13,9.9-1.12,19.16-3.54,27.77-7.28l3.08-1.13,2.53-1.13c5.24-2.62,10.28-5.61,15.14-8.98,4.85-3.37,9.72-7.29,14.59-11.78,3.37-3.37,6.73-7.01,10.1-10.93,3.37-3.93,6.92-8.33,10.66-13.18l14.59-20.77h21.31s-25.25,99.3-25.25,99.3Z" fill="#0d0f0f"/>
</svg>