<?xml version="1.0" encoding="UTF-8"?>
<svg id="Layer_1" xmlns="http://www.w3.org/2000/svg" version="1.1" viewBox="0 0 600 600">
  <!-- Generator: Adobe Illustrator 30.1.0, SVG Export Plug-In . SVG Version: 2.1.1 Build 136)  -->
  <circle cx="300" cy="300" r="300" fill="#b89370"/>
  <path d="M151.1,377.97c35.77,23.34,71.53,46.69,107.3,70.03,4.77,3.12,7.99,8.12,8.84,13.76,2.4,15.87,4.8,31.74,7.2,47.61.59,3.92-4.26,6.22-6.92,3.28-39.66-43.89-79.33-87.77-118.99-131.66-1.57-1.74.61-4.3,2.58-3.02ZM536.27,302.52c-13.76,61.88-27.51,123.76-41.26,185.64-1.76,7.93-8.14,14.01-16.15,15.38l-133.12,22.78c-9.76,1.67-19.28-4.07-22.37-13.48-18.8-57.27-37.6-114.54-56.4-171.81-1.26-3.87-6.82-3.59-7.7.38-4.1,18.48-8.19,36.95-12.29,55.43-.85,3.82-5.57,5.23-8.38,2.49-44.31-43.29-88.63-86.59-132.94-129.88-1.94-1.9-2.02-4.99-.18-6.98,7.49-8.08,14.98-16.17,22.46-24.25,1.9-2.05,5.12-2.15,7.14-.2,8.19,7.89,16.38,15.77,24.57,23.66,3.6,3.47,9.5.09,8.33-4.77-5.36-22.18-10.73-44.37-16.09-66.55-.75-3.13-4.24-4.74-7.11-3.29l-44.83,22.66c-3.06,1.55-6.51-1.2-5.69-4.52l22.74-92.37c1.68-6.82,6.81-12.26,13.52-14.33,48.01-14.82,96.01-29.64,144.02-44.46,5.19-1.6,10.81-1.02,15.56,1.61l150.68,83.19c6.34,3.5,11.62,8.66,15.26,14.93,26,44.79,52,89.57,78,134.36,2.52,4.34,3.31,9.48,2.23,14.38ZM217.96,104.2c-16.21,6.75-32.43,13.5-48.64,20.25-2.37.99-3.61,3.61-2.87,6.06,8.28,27.42,16.56,54.83,24.84,82.24.65,2.18,3.86,1.74,3.91-.53.54-23.02,1.07-46.04,1.6-69.07.06-2.36.95-4.62,2.51-6.39l23.18-26.22c2.82-3.18-.61-7.97-4.53-6.34ZM453.48,384.88c-29.19-9.73-58.38-19.46-87.57-29.2-3.89-1.29-7.3-3.76-9.74-7.06-35.73-48.21-71.46-96.42-107.19-144.62-2.29-3.1-7.21-1.48-7.21,2.38v44.5c0,4.8,1.73,9.44,4.87,13.07,35.06,40.57,70.13,81.14,105.19,121.7,1.86,2.15,4.55,3.41,7.39,3.46,31.09.54,62.17,1.08,93.25,1.62,3.44.06,4.26-4.76,1.01-5.85Z"/>
</svg>