<?xml version="1.0" encoding="UTF-8"?>
<svg id="Layer_1" xmlns="http://www.w3.org/2000/svg" version="1.1" viewBox="0 0 600 600">
  <!-- Generator: Adobe Illustrator 30.1.0, SVG Export Plug-In . SVG Version: 2.1.1 Build 136)  -->
  <circle cx="300" cy="300" r="300" fill="#bfab90"/>
  <path d="M564.44,255.39c-.35-2.22-.97-3.92-1.36-4.89-18.5-45.44-45.21-80.7-45.21-80.7-11.46-15.11-23.09-30.33-41.8-48.27-14.37-13.77-28.17-24.6-39.99-32.93-3.37-2.37-7.38-3.63-11.49-3.63h-121.28c-1.4,0-2.37,1.41-1.87,2.71l27.2,71.46c.69,1.8-.08,3.82-1.78,4.71l-42.13,22.03c-2.11,1.1-2.7,3.85-1.23,5.71l26.45,33.68c2.71,3.45-1.32,8.12-5.13,5.95l-54.1-30.81c-1.85-1.06-2.47-3.43-1.38-5.26l35.07-58.37c.94-1.57.63-3.6-.76-4.81l-52.33-45.76c-.91-.8-2.08-1.24-3.29-1.24h-52.62c-4.11,0-8.12,1.26-11.49,3.63-11.82,8.33-25.62,19.16-39.99,32.93-18.71,17.94-30.34,33.16-41.8,48.27,0,0-26.71,35.26-45.21,80.7-.39.97-1.01,2.67-1.36,4.89-.68,4.29-.08,8.73,1.78,12.75,9.93,21.47,29.02,51.49,29.02,51.49,4.23,6.14,6.34,9.15,6.38,9.21,39.59,56.55,61.67,83.63,61.67,83.63,25.26,31.57,47.52,52.5,76.23,80.32,3,2.91,13.92,13.46,29.08,26.37,11.49,9.79,18.78,15.96,29.34,22.81,5.09,3.31,9.97,6.81,14.48,10.01,9.86,7,23.06,7,32.92,0,4.51-3.2,9.39-6.7,14.48-10.01,10.56-6.85,17.85-13.02,29.34-22.81,15.16-12.91,26.08-23.46,29.08-26.37,28.71-27.82,50.97-48.75,76.23-80.32,0,0,22.06-27.06,61.63-83.57,0,0,.01-.01.04-.06.04-.06,2.15-3.07,6.38-9.21,0,0,19.09-30.02,29.02-51.49,1.86-4.02,2.46-8.46,1.78-12.75ZM282.86,537.19L96.18,258.37c-.44-.65-.01-1.52.77-1.56,12.55-.64,88.44-4.53,96.92-4.97.45-.02.86.26,1,.7l89.77,283.79c.35,1.1-1.14,1.82-1.78.86ZM503.82,258.37l-186.68,278.82c-.64.96-2.13.24-1.78-.86l89.77-283.79c.14-.44.55-.72,1-.7,8.48.44,84.37,4.33,96.92,4.97.78.04,1.21.91.77,1.56Z"/>
</svg>