<?xml version="1.0" encoding="UTF-8"?>
<svg id="Layer_1" xmlns="http://www.w3.org/2000/svg" version="1.1" viewBox="0 0 600 600">
  <!-- Generator: Adobe Illustrator 30.1.0, SVG Export Plug-In . SVG Version: 2.1.1 Build 136)  -->
  <circle cx="300" cy="300" r="300" fill="#ffb579"/>
  <path d="M48.77,171.27c.05,9.57,11.51,12.99,20.84,23.32,15.8,17.47,10.32,37.93,14.14,65.73,4.09,29.75,17.57,61.28,34.98,79.05,35.67,36.41,92.54,31.45,111.01,28.76,2.66-.39,5.15,1.42,5.59,4.08,1.72,10.52,3.05,22.52,3.44,35.78.41,13.73-.26,26.18-1.42,37.04-.26,2.43-1.4,4.68-3.23,6.31s-4.14,3.46-6.96,5.22c-12.12,7.54-21.58,6.11-23.93,12.33-1.25,3.32-.13,7.89,2.36,9.61,3.36,2.33,8.07-1.35,11.24,1.27,1.94,1.6,1.08,3.69,2.21,6.04,3.6,7.5,22.4,7.09,35.43,3.8,3.68-.93,8.63-2.52,14.22-5.41,1.8-.93,2.89-2.82,2.75-4.84-.52-7.33-.65-17.21.86-28.68,1.63-12.39,4.35-20.23,9.98-38.55,2.9-9.43,6.97-22.95,11.73-39.65.66-2.33,2.14-4.35,4.16-5.69,16.43-10.93,30.61-20.23,43.1-23.95,13.59-4.05,31.98-9.97,56.32-19.06,1.53-.57,3.24-.37,4.58.55,4.22,2.88,8.43,5.77,12.65,8.65,3.88,2.65,7.76,5.31,11.65,7.96,2.3,1.57,3.84,4.03,4.25,6.78,1.57,10.55,3.14,21.11,4.71,31.66l3.21,21.59c.36,2.4-.17,4.84-1.48,6.88-5.13,7.98-10.25,15.95-15.38,23.93l-14.84,23.08c-.97,1.51-2.68,2.37-4.48,2.29-4.43-.2-13.01.41-19.7,7.04-3.86,3.83-5.63,8.21-6.45,11.36-.44,1.66.88,3.26,2.6,3.14,12.23-.88,24.46-1.76,36.69-2.64,3.3-.24,6.27-2.09,7.93-4.95,11.79-20.3,23.58-40.59,35.37-60.89.94-1.63,2.34-2.93,3.99-3.83,9.35-5.06,14.38-11.78,13.1-16.58-.2-.74-.62-1.72-1.6-2.76s-1.5-2.47-1.37-3.9c1.28-14.24,2.56-28.48,3.84-42.72.22-2.49,3.56-3.15,4.71-.93,9.75,18.76,19.49,37.52,29.24,56.29.9,1.74,1.27,3.7,1.07,5.64-2.13,20.53-4.27,41.06-6.4,61.59-.25,2.44-2.25,4.34-4.7,4.47-14.53.78-23.97,5.97-24.48,11.37-.44,4.62,5.7,9.04,9.1,11.13,1.11.68,2.44.91,3.71.63,12.95-2.87,25.89-5.73,38.84-8.6,1.14-.25,1.96-1.27,1.96-2.44v-58.61c0-1.86.51-3.68,1.49-5.25s1.98-3.33,2.98-5.46c2.34-4.94,5.72-12.11,4.81-19.76-.75-6.25-3.4-4.68-8.62-17.83,0,0-2.47-6.23-4.73-15.2-.37-1.47-.57-2.98-.6-4.5-.6-31.49-1.2-62.97-1.79-94.46-.05-2.46-1.04-4.8-2.73-6.59-4.02-4.26-8.71-10.32-12.14-18.36-4.18-9.81-1.97-11.95-5.62-21.11-4.99-12.51-13.82-20.29-25.19-30.3-10.89-9.59-11.48-7.58-19.36-15.17-11.97-11.53-12.02-17.51-21.76-29.26-7.35-8.86-18.99-22.84-36.21-25.95-21.58-3.91-40.49,11.33-44.7,14.73-21.33,17.19-24.71,40.64-32,39.32-6.63-1.21-2.73-20.42-17.7-36.59-2.92-3.15-11.86-12.81-24.17-12.91-9.91-.08-16.96,6.08-29.27,16.82-9.43,8.23-14.15,12.35-15.31,18.41-1.29,6.72,1.43,12.77-2.88,20.54-1.51,2.72-1.92,2.11-3.58,5.01-4.92,8.58-1.07,13.4-4.48,19.7-2.8,5.18-5.95,2.92-16.12,11.1-7.87,6.34-8.93,10.06-12.41,9.73-3.9-.37-6.24-5.39-10.52-14.56-4.51-9.67-6.77-14.51-5.91-20.06,1.3-8.45,7.85-11.8,5.98-15.81-1.49-3.17-5.84-1.6-10.45-5.32-5.41-4.37-3.1-9.51-7.16-15.76-6.6-10.15-22.1-10.99-25.54-11.18-7.09-.38-4.93,1.65-21.83,3.81-9.7,1.24-15.08,1.17-17.57,5.06-2.35,3.67.59,6.63-1.34,9.18-4.34,5.73-20.87-7.05-36.94-1.78-9.17,3.01-17.77,11.76-17.73,20.07Z"/>
</svg>