<?xml version="1.0" encoding="UTF-8"?>
<svg id="Layer_1" xmlns="http://www.w3.org/2000/svg" version="1.1" viewBox="0 0 600 600">
  <!-- Generator: Adobe Illustrator 30.1.0, SVG Export Plug-In . SVG Version: 2.1.1 Build 136)  -->
  <circle cx="300" cy="300" r="300" fill="#fadf7a"/>
  <path d="M188.46,225.73c2.64-12.28,6.57-31.24,10.82-54.76,4.55-25.19,4.98-30.76,8.6-41.08,2.05-5.84,12.59-35.87,34.43-52.1,22.17-16.48,50.18-14.44,85.28-8.72,41.43,6.75,100.17,19.82,170.67,47.35-43.17-3.67-79.54-4.87-107.2-5.17-30.46-.32-46.69.49-66.45,5.75-27.86,7.41-47,19.47-57.5,26.2-40.13,25.72-64.7,59.05-78.65,82.53ZM140.71,282.83c-3.16-12.07-8.7-34-7.14-62.78,1.11-20.41,5.34-36.1,15.07-64.97,8.83-26.21,21.21-60.43,38.04-100.36-47.97,58.54-78.56,110.37-97.77,147.69-16.28,31.62-26.88,57.63-18.06,83.81,8.69,25.78,33.99,45.09,38.91,48.84,8.69,6.63,13.86,8.76,36.41,20.87,21.05,11.31,37.87,20.9,48.74,27.21-18.03-20.52-42.13-54.19-54.19-100.3ZM234.45,446.19c-12.45-.73-35.02-2.23-61.92-12.61-19.07-7.36-32.69-16.24-57.14-34.41-22.2-16.49-50.92-38.85-83.69-67.19,40.86,63.71,80.7,108.82,110.24,138.62,25.04,25.26,46.5,43.38,74.12,43.07,27.2-.3,53.39-18.4,58.48-21.91,8.99-6.21,12.62-10.47,31.1-28.17,17.26-16.53,31.58-29.56,40.94-37.95-25.09,10.8-64.55,23.32-112.14,20.54ZM418.77,407.52c-4.54,11.62-12.94,32.62-31.12,54.99-12.89,15.87-25.54,26.07-50.38,43.71-22.55,16.02-52.68,36.42-89.76,58.83,73.22-19.17,128.43-43.12,165.91-62.01,31.76-16.01,55.62-30.82,63.87-57.19,8.12-25.97-1-56.46-2.77-62.39-3.13-10.47-6.06-15.24-17.18-38.29-10.39-21.52-18.35-39.17-23.44-50.66,2.52,27.2,2.23,68.6-15.12,113ZM438.96,220.27c9.65,7.91,27.02,22.39,42.68,46.59,11.1,17.17,16.9,32.35,26,61.42,8.27,26.39,18.36,61.36,28.21,103.55,4.39-75.56-1.32-135.47-7.71-176.95-5.41-35.15-12.13-62.43-34.65-78.42-22.19-15.75-54-16.5-60.19-16.64-10.92-.26-16.36,1.06-41.72,4.51-23.68,3.23-42.93,5.35-55.43,6.63,26.64,6.01,65.94,19.07,102.8,49.29Z"/>
</svg>