<?xml version="1.0" encoding="UTF-8"?>
<svg id="Layer_1" xmlns="http://www.w3.org/2000/svg" version="1.1" viewBox="0 0 600 600">
  <!-- Generator: Adobe Illustrator 30.1.0, SVG Export Plug-In . SVG Version: 2.1.1 Build 136)  -->
  <circle cx="300" cy="300" r="300" fill="#ffb579"/>
  <path d="M281.14,56.34c20.89-1.51,37.54,18.84,49.5,33.89,38.78,48.74,58.17,73.11,75.73,98.42,14.85,21.41,92.6,133.46,143.95,119.32,17.89-4.92,26.29-23.43,32.25-20.02,8.21,4.69-1.06,43.51-18.54,75.66-27.63,50.83-71.71,77.55-106.07,98.38-22.8,13.82-44.38,22.7-87.55,40.48-77.8,32.04-86.25,25.9-88.69,23.08-8.65-10,12.87-30.23,23.87-87.61,7.09-36.99,3.03-54.02.88-61.29-6.88-23.33-21.27-38.66-28.29-45.97-25.79-26.88-42.94-22.28-57.46-44.79-11.31-17.54-11.09-36.13-10.9-51.86.22-18.26,4.26-35.02,25.28-82.17,23.12-51.85,35.03-69.28,32.75-70.85-4.4-3.04-56.22,56.78-99.07,132.2-38.2,67.23-44.36,103.02-46.38,122.74-2.28,22.24-4.92,51.2,8.52,82.35,18.1,41.96,52.21,57.41,47.94,64.46-5.13,8.46-54.95-12.69-90.36-34.83-28.62-17.89-35.87-28.98-39.69-37.87-9.04-21.06-3.95-41.85-1.06-50.99,6.47-11.22,16.28-28.09,28.49-48.41,39.85-66.31,65.92-109.69,102.64-156.26,16.66-21.13,41.54-50.55,75.37-83.34,5.7-6.12,14.91-13.86,26.88-14.72Z"/>
</svg>