<?xml version="1.0" encoding="UTF-8"?>
<svg id="Layer_1" xmlns="http://www.w3.org/2000/svg" version="1.1" viewBox="0 0 600 600">
  <!-- Generator: Adobe Illustrator 30.1.0, SVG Export Plug-In . SVG Version: 2.1.1 Build 136)  -->
  <circle cx="300" cy="300" r="300" fill="#f2f75e"/>
  <path d="M529.9,264.4l-79.22,46.79c-.87.51-.51,1.85.5,1.85,10.69,0,36.27,0,44.57-.01,1.68,0,3.03,1.36,3.03,3.04v4.47c0,1.09-.59,2.1-1.54,2.64l-132.82,75.25c-1.37.78-3.11.38-4-.92l-4.4-6.38c-.9-1.31-.64-3.09.6-4.09l59.41-47.85c.75-.6.3-1.81-.67-1.78l-49.09,1.87c-1.01.04-1.97-.43-2.57-1.24h0c-.96-1.3-.72-3.13.53-4.15l51.81-42.36c.74-.61.28-1.82-.68-1.77l-76.93,3.42c-1.87.08-3.67.69-5.22,1.75l-99.96,68.63c-.81.56-.42,1.82.57,1.82h120.01c1.68,0,3.04,1.36,3.04,3.04v5.47c0,1.04-.53,2.01-1.42,2.57l-215.98,136.49c-1.28.81-2.97.55-3.95-.61l-4.5-5.33c-1.11-1.32-.91-3.3.45-4.36l116.29-90.66c.76-.59.32-1.82-.64-1.79l-135.97,4.04c-1.03.03-2.01-.47-2.6-1.32l-4.19-6.12c-.91-1.33-.62-3.15.66-4.13l244.89-187.25c.77-.59.34-1.81-.62-1.79l-168.74,2.64c-1.01.02-1.97-.48-2.55-1.31l-1.75-2.52c-1.04-1.5-.75-3.54.65-4.69l149.09-122.76c1.52-1.25,4.38-2.28,6.36-2.28h102.34c1.19,0,2.27.7,2.76,1.78l1.36,2.97c.6,1.31.19,2.87-.97,3.72l-96.27,70.06c-.78.57-.38,1.81.59,1.81h164.97c1.87.01,3.58,1.06,4.44,2.72l2.51,4.85c1.17,2.27.45,5.06-1.68,6.47l-111.37,73.63c-.83.55-.44,1.83.55,1.83h127.76c1.68,0,3.04,1.36,3.04,3.04v4.5c0,1.77-.93,3.41-2.46,4.31Z"/>
</svg>