<?xml version="1.0" encoding="UTF-8"?>
<svg id="svg3156" xmlns="http://www.w3.org/2000/svg" xmlns:svg="http://www.w3.org/2000/svg" xmlns:rdf="http://www.w3.org/1999/02/22-rdf-syntax-ns#" xmlns:inkscape="http://www.inkscape.org/namespaces/inkscape" xmlns:dc="http://purl.org/dc/elements/1.1/" xmlns:cc="http://creativecommons.org/ns#" version="1.1" viewBox="0 0 570 570">
  <!-- Generator: Adobe Illustrator 30.1.0, SVG Export Plug-In . SVG Version: 2.1.1 Build 136)  -->
  <circle cx="285" cy="285" r="285" isolation="isolate" opacity=".2"/>
  <g>
    <path d="M338.2,66.34L66.34,338.2c-17.85-73.73,1.99-154.73,59.56-212.29,57.57-57.57,138.56-77.41,212.29-59.56Z" fill="#fffa70"/>
    <path d="M414.14,100.71L100.71,414.14c-16.42-23.38-27.88-49.18-34.37-75.94L338.2,66.34c26.76,6.48,52.57,17.95,75.94,34.37Z" fill="#f19dc4"/>
    <path d="M469.29,155.86L155.86,469.29c-10.53-7.39-20.56-15.79-29.96-25.19s-17.8-19.43-25.19-29.96L414.14,100.71c10.53,7.39,20.56,15.79,29.96,25.19s17.8,19.43,25.19,29.96Z" fill="#bfab90"/>
    <path d="M503.66,231.8L231.8,503.66c-26.76-6.48-52.57-17.95-75.94-34.37L469.29,155.86c16.42,23.38,27.88,49.18,34.37,75.94Z" fill="#ccafcd"/>
    <path d="M444.1,444.1c-57.57,57.57-138.56,77.41-212.29,59.56L503.66,231.8c17.85,73.73-1.99,154.73-59.56,212.29Z" fill="#38614c"/>
  </g>
  <path d="M285,60c-124.26,0-225,100.74-225,225s100.74,225,225,225,225-100.74,225-225S409.26,60,285,60ZM285,480c-107.7,0-195-87.3-195-195s87.3-195,195-195,195,87.3,195,195-87.3,195-195,195Z" fill="#333"/>
</svg>