<?xml version="1.0" encoding="UTF-8"?>
<svg id="svg3156" xmlns="http://www.w3.org/2000/svg" xmlns:svg="http://www.w3.org/2000/svg" xmlns:rdf="http://www.w3.org/1999/02/22-rdf-syntax-ns#" xmlns:inkscape="http://www.inkscape.org/namespaces/inkscape" xmlns:dc="http://purl.org/dc/elements/1.1/" xmlns:cc="http://creativecommons.org/ns#" version="1.1" viewBox="0 0 570 570">
  <!-- Generator: Adobe Illustrator 30.1.0, SVG Export Plug-In . SVG Version: 2.1.1 Build 136)  -->
  <circle cx="285" cy="285" r="285" isolation="isolate" opacity=".2"/>
  <path d="M285,285H60c0-59.65,23.72-116.92,65.9-159.1,42.18-42.18,99.45-65.9,159.1-65.9v225Z" fill="#38614c"/>
  <path d="M285,285v225c-59.65,0-116.92-23.72-159.1-65.9-42.18-42.18-65.9-99.45-65.9-159.1h225Z" fill="#fffa70"/>
  <path d="M285,285h225c0,59.65-23.72,116.92-65.9,159.1s-99.45,65.9-159.1,65.9v-225Z" fill="#ccafcd"/>
  <path d="M285,285V60c59.65,0,116.92,23.72,159.1,65.9s65.9,99.45,65.9,159.1h-225Z" fill="#3277a7"/>
  <path d="M444.1,125.9c-87.87-87.87-230.33-87.87-318.2,0-87.87,87.87-87.87,230.33,0,318.2,87.87,87.87,230.33,87.87,318.2,0s87.87-230.33,0-318.2ZM147.11,422.89c-76.16-76.16-76.16-199.62,0-275.77,76.16-76.16,199.62-76.16,275.77,0,76.16,76.16,76.16,199.62,0,275.77-76.16,76.16-199.62,76.16-275.77,0Z" fill="#333"/>
</svg>