<?xml version="1.0" encoding="UTF-8"?>
<svg id="Layer_1" xmlns="http://www.w3.org/2000/svg" version="1.1" viewBox="0 0 600 600">
  <!-- Generator: Adobe Illustrator 30.1.0, SVG Export Plug-In . SVG Version: 2.1.1 Build 136)  -->
  <path d="M300,300l-212.16,212.16C31.62,455.88,0,379.56,0,300,0,135.42,135.42,0,300,0c79.56,0,155.88,31.62,212.16,87.84l-212.16,212.16h0Z" fill="#cac5c0" fill-rule="evenodd"/>
  <g>
    <path id="Shape" d="M159.68,292.88l6.48-11.22,26.96,37.96,26.95-37.96,6.48,11.22,11.93.14,23.39,11.26,1.94-25.88,5.84-10.41-6.47-11.22,46.35-4.37-19.4-42.32h12.96l6.09-10.26,21.44-14.63-21.44-14.63-6.09-10.26h-12.96l19.4-42.33-46.35-4.36,6.47-11.22-5.85-10.4-1.94-25.88-23.38,11.26-11.93.14-6.48,11.22-26.96-37.96-26.95,37.96-6.48-11.22-11.93-.14-23.39-11.26-1.94,25.88-5.84,10.4,6.48,11.22-46.36,4.36,19.4,42.32h-12.96l-6.09,10.26-21.43,14.63,21.44,14.63,6.09,10.26h12.96l-19.4,42.33,46.35,4.36-6.48,11.22,5.84,10.4,1.95,25.89,23.38-11.26,11.93-.14h0Z" fill="#0d0f0f"/>
    <path d="M151.57,268.27l41.54-66.93,41.54,66.93v11.13l9.63,5.56,9.64-5.56v-11.13l-9.64-5.56-37.18-69.44,78.73-2.52,9.64,5.57,9.63-5.56v-11.13l-9.63-5.56-9.64,5.56-78.73-2.51,37.19-69.44,9.64-5.56v-11.13l-9.64-5.56-9.63,5.56v11.13l-41.54,66.93-41.54-66.93v-11.13l-9.63-5.56-9.64,5.57v11.13l9.64,5.56,37.18,69.44-78.73,2.51-9.64-5.56-9.63,5.56v11.13l9.63,5.56,9.64-5.56,78.73,2.52-37.19,69.44-9.64,5.56v11.13l9.64,5.56,9.64-5.56v-11.13h0v-.02ZM212.5,109.27l-19.39,33.79-19.39-33.79,19.39-33.79,19.39,33.79h0ZM137.06,130.44l19.57,33.69-38.96-.11-19.57-33.68,38.96.11h0ZM117.67,206.36l38.96-.11-19.57,33.68-38.96.11,19.57-33.69h0ZM173.72,261.11l19.39-33.79,19.39,33.79-19.39,33.79-19.39-33.79h0ZM249.17,239.94l-19.57-33.69,38.96.11,19.57,33.68-38.96-.1h0ZM268.56,164.03l-38.96.11,19.57-33.68,38.96-.11-19.57,33.69h0Z" fill="#fff"/>
  </g>
  <path d="M300,300l212.16-212.16c56.22,56.28,87.84,132.6,87.84,212.16,0,164.58-135.42,300-300,300-79.56,0-155.88-31.62-212.16-87.84l212.16-212.16h0Z" fill="#cac5c0" fill-rule="evenodd"/>
  <g>
    <path id="Shape1" data-name="Shape" d="M373.45,522.5l6.48-11.22,26.96,37.96,26.95-37.96,6.48,11.22,11.93.14,23.39,11.26,1.94-25.88,5.84-10.41-6.47-11.22,46.35-4.37-19.4-42.32h12.96l6.09-10.26,21.44-14.63-21.44-14.63-6.09-10.26h-12.96l19.4-42.33-46.35-4.36,6.47-11.22-5.85-10.4-1.94-25.88-23.38,11.26-11.93.14-6.48,11.22-26.96-37.96-26.95,37.96-6.48-11.22-11.93-.14-23.39-11.26-1.94,25.88-5.84,10.4,6.48,11.22-46.36,4.36,19.4,42.32h-12.96l-6.09,10.26-21.43,14.63,21.44,14.63,6.09,10.26h12.96l-19.4,42.33,46.35,4.36-6.48,11.22,5.84,10.4,1.95,25.89,23.38-11.26,11.93-.14h0Z" fill="#0d0f0f"/>
    <path d="M365.35,497.89l41.54-66.93,41.54,66.93v11.13l9.63,5.56,9.64-5.56v-11.13l-9.64-5.56-37.18-69.44,78.73-2.52,9.64,5.57,9.63-5.56v-11.13l-9.63-5.56-9.64,5.56-78.73-2.51,37.19-69.44,9.64-5.56v-11.13l-9.64-5.56-9.63,5.56v11.13l-41.54,66.93-41.54-66.93v-11.13l-9.63-5.56-9.64,5.57v11.13l9.64,5.56,37.18,69.44-78.73,2.51-9.64-5.56-9.63,5.56v11.13l9.63,5.56,9.64-5.56,78.73,2.52-37.19,69.44-9.64,5.56v11.13l9.64,5.56,9.64-5.56v-11.13h0v-.02ZM426.28,338.89l-19.39,33.79-19.39-33.79,19.39-33.79,19.39,33.79h0ZM350.84,360.06l19.57,33.69-38.96-.11-19.57-33.68,38.96.11h0ZM331.45,435.98l38.96-.11-19.57,33.68-38.96.11,19.57-33.69h0ZM387.5,490.73l19.39-33.79,19.39,33.79-19.39,33.79-19.39-33.79h0ZM462.94,469.56l-19.57-33.69,38.96.11,19.57,33.68-38.96-.1h0ZM482.34,393.64l-38.96.11,19.57-33.68,38.96-.11-19.57,33.69h0Z" fill="#fff"/>
  </g>
</svg>