<?xml version="1.0" encoding="UTF-8"?>
<svg id="Layer_1" xmlns="http://www.w3.org/2000/svg" version="1.1" viewBox="0 0 600 600">
  <!-- Generator: Adobe Illustrator 30.1.0, SVG Export Plug-In . SVG Version: 2.1.1 Build 136)  -->
  <path d="M300,300L40.19,150C93.72,57.29,192.95,0,300,0s206.28,57.29,259.81,150l-259.81,150Z" fill="#cbc2bf"/>
  <path d="M300,49.11c20.84,44.37,56.52,80.05,100.89,100.89-44.37,20.84-80.05,56.52-100.89,100.89-20.84-44.37-56.52-80.05-100.89-100.89,44.37-20.84,80.05-56.52,100.89-100.89M300,86.94c-12.64,28-35.06,50.42-63.06,63.06,28,12.64,50.42,35.06,63.06,63.06,12.64-28,35.06-50.42,63.06-63.06-28-12.64-50.42-35.06-63.06-63.06" fill="#130c0e"/>
</svg>