<?xml version="1.0" encoding="UTF-8"?>
<svg id="Layer_1" xmlns="http://www.w3.org/2000/svg" version="1.1" viewBox="0 0 600 600">
  <!-- Generator: Adobe Illustrator 30.1.0, SVG Export Plug-In . SVG Version: 2.1.1 Build 136)  -->
  <circle cx="300" cy="300" r="300" fill="#cac5c0"/>
  <path d="M544.17,288.84c0,32.78-12.05,55.13-36.12,67.05-7.03,3.48-29.1,8.19-66.22,14.16-24.07,3.98-36.11,13.16-36.11,27.55v60.35c0,2.51.75,10.19,2.25,23.1l2.26,23.85c0,7.45-1.76,19.64-5.27,36.51-9.53,1.98-20.57,4.21-33.11,6.72-4.02-14.92-6.02-25.09-6.02-30.57,0-2.47.63-6.2,1.88-11.18,1.24-4.96,1.9-8.68,1.9-11.18,0-3.45-3.12-13.15-9.35-29.03h-11.67c-1.55,2.48-2.06,5.71-1.56,9.68,2,8.45,2.75,15.64,2.26,21.6-11.69,8.1-23.48,16.04-35.37,23.84-3.52-.98-4.76-1.48-3.77-1.48v-52.9c-.98-2.47-3.5-3.45-7.52-2.98h-9.02l-9.02,70.02c-7.04.5-15.55.5-25.58,0-3.53-16.38-9.79-40.71-18.81-73h-6.02c-5.53,17.4-8.53,26.84-9.04,28.33,0,1.98.62,5.82,1.88,11.53,1.24,5.72,1.88,9.56,1.88,11.54,0,1.49-.5,5.21-1.5,11.17l-2.26,17.88c-1,.99-2.36,1.52-3.76,1.49-15.05,0-25.09-3.72-30.1-11.16-5.02-7.46-7.03-17.89-6.02-31.31l6.02-89.39c0-1.5.49-3.48,1.5-5.96.98-2.48,1.5-4.22,1.5-5.21,0-3.98-4.27-11.93-12.79-23.85-1.49-.48-9.29-2.24-23.32-5.22-8.54-1.98-25.35-5.45-50.41-10.43-34.63-6.44-51.92-34.01-51.92-82.69,0-72.52,30.11-132.86,90.31-181.04,2.48,13.42,6.76,31.28,12.77,53.64,4.52,1.01,14.31,3.24,29.35,6.7,3.02,1,18.32,6.47,45.91,16.4-14.06-8.45-32.36-22.09-54.94-40.98-8.53-9.93-12.8-26.56-12.8-49.9,0-5.47,9.54-11.93,28.61-19.39,17.04-6.95,29.85-10.91,38.38-11.92,27.08-3.46,47.9-5.22,62.46-5.22,62.69,0,113.35,15.9,151.97,47.69-12.53,14.41-34.1,29.78-64.7,46.18,12.05.5,29.6-4.2,52.67-14.16,23.06-9.92,32.85-14.9,29.35-14.9,4.01,0,12.05,7.96,24.08,23.85,9.02,11.92,16.29,22.61,21.82,32.02,16.04,28.33,26.83,58.86,32.36,91.64,0,11.44.25,19.63.75,24.59v5.96s.01,0,.01,0ZM255.98,302.25c0-21.35-9.41-41.59-28.22-60.73-18.82-19.12-39.01-28.67-60.58-28.67-19.07,0-35.86,8.01-50.41,24-14.56,16-21.82,33.75-21.82,53.24,0,16.98,8.27,28,24.83,32.99,10.54,3,25.31,4.76,44.39,5.24h41.39c33.59.5,50.42-8.2,50.42-26.08ZM337.99,394.65v-23.11c-3.61-6.65-7.12-13.36-10.52-20.12-3.01-9.94-8.53-23.84-16.56-41.73l-8.29,87.17c0,6.96-1.5,10.43-4.51,10.43-2,0-3.5-.49-4.51-1.47-3.52-52.66-5.27-75.5-5.27-68.56v-26.06c-1.01-1.51-2.25-2.25-3.75-2.25-17.06,17.41-25.58,45.46-25.58,84.19,0,21.36,1.98,34.52,6.01,39.49,4.02-.98,8.53-2.73,13.55-5.21,2-1,7.77-1.5,17.32-1.5s21.06,2.98,34.6,8.94c5.02,0,7.52-13.4,7.52-40.22h0ZM508.06,290.83c0-20-7.52-37.87-22.57-53.61-15.06-15.73-32.37-23.62-51.91-23.62-21.07,0-40.77,9.55-59.08,28.67-18.32,19.12-27.47,39.11-27.47,59.98,0,17.4,8.52,26.08,25.58,26.08h86.53c32.6-.49,48.91-12.99,48.91-37.49Z" fill="#0d0f0f" fill-rule="evenodd"/>
</svg>