<?xml version="1.0" encoding="UTF-8"?>
<svg id="Layer_1" xmlns="http://www.w3.org/2000/svg" version="1.1" viewBox="0 0 600 600">
  <!-- Generator: Adobe Illustrator 30.1.0, SVG Export Plug-In . SVG Version: 2.1.1 Build 136)  -->
  <circle cx="300" cy="300" r="300" fill="#cac5c0"/>
  <g>
    <path id="Shape" d="M227.05,534.95l14.13-24.48,58.82,82.82,58.81-82.82,14.13,24.48,26.03.31,51.03,24.57,4.24-56.47,12.75-22.72-14.12-24.47,101.13-9.53-42.33-92.33h28.27l13.28-22.39,46.78-31.91-46.78-31.91-13.28-22.39h-28.27l42.32-92.35-101.12-9.52,14.12-24.48-12.76-22.69-4.24-56.47-51.02,24.56-26.03.31-14.13,24.47L299.98,6.71l-58.81,82.82-14.13-24.47-26.03-.31-51.03-24.56-4.24,56.47-12.75,22.69,14.13,24.48-101.14,9.52,42.33,92.34h-28.27l-13.28,22.39L0,300l46.78,31.91,13.28,22.39h28.27l-42.32,92.35,101.13,9.52-14.13,24.47,12.75,22.7,4.25,56.48,51.02-24.56,26.03-.31h0Z" fill="#0d0f0f"/>
    <path d="M209.37,481.27l90.63-146.02,90.63,146.02v24.29l21.02,12.14,21.04-12.14v-24.28l-21.04-12.14-81.13-151.5,171.77-5.49,21.04,12.15,21.02-12.14v-24.29l-21.02-12.14-21.04,12.14-171.77-5.48,81.14-151.5,21.04-12.14v-24.28l-21.04-12.14-21.02,12.14v24.28l-90.64,146.02-90.63-146.02v-24.29l-21.02-12.14-21.04,12.15v24.28l21.04,12.14,81.13,151.5-171.77,5.48-21.04-12.14-21.02,12.13v24.29l21.02,12.14,21.04-12.14,171.77,5.49-81.14,151.5-21.03,12.14v24.28l21.03,12.14,21.03-12.14v-24.28h0ZM342.31,134.36l-42.3,73.73-42.3-73.73,42.3-73.73,42.3,73.73h0ZM177.7,180.54l42.7,73.5-85-.23-42.7-73.49,85,.23h0ZM135.4,346.18l85-.23-42.7,73.49-85,.23,42.7-73.5h0ZM257.69,465.64l42.31-73.73,42.3,73.73-42.3,73.73-42.31-73.73h0ZM422.3,419.46l-42.7-73.5,85,.23,42.7,73.49-85-.22ZM464.62,253.82l-85.01.23,42.7-73.49,85-.23-42.69,73.5h0Z" fill="#fff"/>
  </g>
</svg>