<?xml version="1.0" encoding="UTF-8"?>
<svg id="Layer_1" xmlns="http://www.w3.org/2000/svg" version="1.1" viewBox="0 0 600 600">
  <!-- Generator: Adobe Illustrator 30.1.0, SVG Export Plug-In . SVG Version: 2.1.1 Build 136)  -->
  <circle cx="300" cy="300" r="300" fill="#cbc2bf"/>
  <path d="M512.09,87.82c54.31,54.31,87.91,129.31,87.91,212.16,0,165.7-134.32,300.02-300.01,300.02-82.84,0-157.83-33.58-212.12-87.88" fill="#aae0fa" fill-rule="evenodd"/>
  <path d="M460.33,502.05c-16.15,16.43-36.05,24.65-59.68,24.65-26.53,0-47.57-9.08-63.14-27.24-14.71-17.3-22.06-39.35-22.06-66.17,0-28.82,12.54-61.69,37.63-98.6,20.46-30.28,44.54-56.8,72.22-79.58-4.04,18.46-6.06,31.57-6.06,39.37,0,17.88,5.62,35.32,16.87,52.33,13.84,20.19,24.37,35.18,31.57,44.98,11.24,17.01,16.87,33.6,16.87,49.73,0,23.94-8.06,44.12-24.21,60.55v-.02h-.01ZM459.9,409.72c-4.33-9.65-9.37-16.08-15.14-19.25.87,1.73,1.29,4.19,1.29,7.36,0,6.06-1.72,14.72-5.18,25.94l-5.63,17.31c0,10.08,5.03,15.13,15.13,15.13,10.66,0,16.01-7.06,16.01-21.19,0-7.21-2.16-15.65-6.49-25.3h0Z" fill="#0d0f0f" fill-rule="evenodd"/>
  <path d="M198,48c9.46,18.8,21.05,37.07,34.79,54.8,6.36,8.05,13.06,15.81,20.09,23.27,7.82,8.41,16.05,16.43,24.67,24.02,9.36,8.18,19.27,15.7,29.66,22.52,11.11,7.31,22.73,13.8,34.79,19.42-18.28,9.67-36.39,21.44-54.4,35.38-8.13,6.37-15.98,13.09-23.51,20.16-8.41,7.88-16.41,16.19-23.96,24.9-8.08,9.43-15.61,19.33-22.55,29.63-7.3,10.83-13.84,22.16-19.58,33.89-9.16-17.8-20.57-35.38-34.27-52.84-11.76-14.88-26.62-30.51-44.6-47.02-17.94-16.51-39.67-31.19-65.13-44.11,18.32-9.41,36.43-21.04,54.4-34.91,15.34-11.98,31.16-26.93,47.46-44.86,16.34-17.93,30.35-39.31,42.14-64.27v.02h0ZM176.43,249.05c8.62,10.85,15.71,21.83,21.31,32.95,7.3-15.45,16.05-28.7,26.26-39.82,10.24-11.19,20.2-20.53,29.79-28.08,10.74-8.36,22.19-15.78,34.21-22.17-15.88-7.14-29.37-15.86-40.41-26.02-11.1-10.16-20.44-19.98-28.02-29.52-8.53-10.62-15.85-22.16-21.83-34.39-7.27,15.72-15.98,29.18-26.02,40.3-10.1,11.19-19.93,20.46-29.51,28.08-10.66,8.32-22.12,15.56-34.21,21.62,15.88,8.17,29.4,17.37,40.65,27.53,11.24,10.16,20.52,20.05,27.78,29.52h0Z" fill-rule="evenodd"/>
</svg>