<?xml version="1.0" encoding="UTF-8"?>
<svg id="Layer_1" xmlns="http://www.w3.org/2000/svg" version="1.1" viewBox="0 0 600 600">
  <!-- Generator: Adobe Illustrator 30.1.0, SVG Export Plug-In . SVG Version: 2.1.1 Build 136)  -->
  <path d="M300,300l-212.13,212.13C31.63,455.89,0,379.53,0,300,0,135.42,135.42,0,300,0,379.53,0,455.89,31.63,512.13,87.87l-212.13,212.13Z" fill="#9bd3ae"/>
  <path d="M309.89,205.69c0,4.5-1.8,8.6-5.3,12.3-3.5,3.6-7.6,5.4-12.1,5.4-7.2,0-12.6-3.4-16-10.2l-16-.7c-3.4,0-10.1,1.5-20.1,4.4-10.7,2.9-16.8,5.3-18.4,7.1-2.5,2.7-4.5,9.1-6.1,19.1-1.4,8.2-2,14.2-2,18.1,0,6.1,1,10.6,2.9,13.4s5.9,5.2,11.9,7.1,9.7,3,11.1,3.2c.9,0,2.4-.1,4.4-.3h4.1c2.9,0,6,.5,9.2,1.4,4.5,1.4,6.5,3.2,5.8,5.4-3.2-.4-8.7.2-16.7,2l9.5,4.8c0,2.7-3.9,4.1-11.6,4.1-2.1,0-4.8-.4-8.3-1.4-3.5-.9-5.8-1.4-7-1.4h-4.4c-.2,2.3-.9,5.7-2,10.2-3.9-.2-8.4-2.5-13.6-6.8-5.2-4.3-8.5-6.5-9.9-6.5s-3.3,2.2-5.8,6.5-3.7,7.2-3.7,8.9c-2.9-1.6-5.4-4.5-7.5-8.8-.9-3-1.9-5.9-3.1-8.9-2.3.2-6.5,5-12.6,14.3h-1.7c-.5-.7-2.2-5.4-5.1-14.3-7-2.3-13.6-3.4-19.7-3.4-2.9,0-7.5.7-13.6,2l-9.5-.7c1.4-1.4,5.3-4,11.9-7.8,7.7-4.5,13.6-6.8,17.7-6.8.7,0,1.6.1,2.7.3s2,.4,2.7.4c1.6,0,4.1-.9,7.7-2.6,3.5-1.7,5.6-3.2,6.1-4.6.6-1.4.9-4.9.9-10.6,0-12.9-3.4-22.6-10.2-28.9-5.9-5.7-15.6-9.7-29.3-12.3-3.6,12.9-13.8,19.4-30.6,19.4-5.5,0-10.9-3.3-16.3-9.9-5.4-6.6-8.2-12.6-8.2-18,0-8.4,3.5-15.3,10.5-20.8-5.7-5.9-8.5-11.9-8.5-18,0-5.7,1.8-10.7,5.3-15s8.1-6.8,13.8-7.5c-.4-7.2,1.9-12.3,7.1-15-2.5-2.5-3.7-6.9-3.7-13.3,0-7.5,2.5-13.7,7.5-18.7s11.2-7.5,18.7-7.5c8.2,0,14.9,2.9,20.1,8.5,6.6-22.5,20.8-33.7,42.5-33.7,11.3,0,21.3,4.5,29.9,13.6,3.2,3.4,4.8,5.2,4.8,5.4-2.7,0-1.3-.5,4.1-1.5,5.5-1,9.4-1.5,11.9-1.5,8.8,0,16.7,3.3,23.5,9.9,5.9,5.9,10,13.4,12.3,22.5,1.6.2,4.1.9,7.5,2,5,2.5,7.5,6.8,7.5,12.9,0,1.1-.9,3.3-2.7,6.5,14.5,8.2,21.8,19.5,21.8,34,0,4.1-1.6,9.8-4.8,17,5.9,3.4,8.9,8.4,8.9,15M169.89,220.39v-4.4c0-5.2-2.5-10-7.7-14.3-5.1-4.3-10.3-6.5-15.5-6.5-6.4,0-12.3,1.5-17.7,4.4,12-.7,25.6,6.2,40.8,20.8M163.69,178.19c-3.4-3.9-6.3-7.8-8.8-11.9-9.5,2.5-14.3,5.3-14.3,8.5,2.7-.2,6.7.3,11.9,1.5,5.2,1.3,9,1.9,11.2,1.9M184.49,167.59v-15c-5.5-.9-8.8-1.4-9.9-1.4v5.1l9.9,11.2M228.69,157.99c-2.7-1.1-7.8-3.4-15.3-6.8v29.3c10.7-6.1,15.8-13.6,15.3-22.5M247.39,198.19l-7.5-9.2c-4.5,3.2-9.1,6.4-13.8,9.7-4.6,3.3-8.7,7-12.1,11.1,10.2-5.5,21.3-9.3,33.3-11.6" fill="#00160b"/>
  <g id="layer1">
    <path id="path309" d="M512.09,87.82c54.31,54.31,87.91,129.31,87.91,212.16,0,165.7-134.32,300.02-300,300.02-82.84,0-157.83-33.58-212.12-87.88" fill="#9bd3ae"/>
    <path id="path315" d="M537.11,405.71c0,4.55-1.76,8.62-5.27,12.26-3.52,3.62-7.54,5.43-12.09,5.43-7.25,0-12.59-3.4-15.98-10.21l-16-.67c-3.41,0-10.1,1.48-20.08,4.42-10.66,2.94-16.79,5.33-18.38,7.13-2.49,2.73-4.53,9.08-6.13,19.07-1.37,8.17-2.03,14.18-2.03,18.04,0,6.12.96,10.61,2.89,13.44,1.93,2.84,5.9,5.21,11.9,7.13,6,1.91,9.7,3.01,11.06,3.23.91,0,2.38-.11,4.42-.34h4.09c2.95,0,6.01.46,9.2,1.36,4.53,1.36,6.47,3.16,5.79,5.44-3.19-.44-8.74.23-16.67,2.04l9.52,4.77c0,2.72-3.85,4.07-11.57,4.07-2.05,0-4.83-.43-8.33-1.35-3.52-.92-5.85-1.37-6.98-1.37h-4.42c-.23,2.27-.91,5.66-2.04,10.21-3.87-.22-8.4-2.5-13.62-6.8-5.22-4.32-8.51-6.47-9.86-6.47s-3.3,2.15-5.79,6.47c-2.5,4.3-3.75,7.24-3.75,8.85-2.95-1.61-5.43-4.55-7.49-8.85-.91-2.97-1.93-5.92-3.05-8.87-2.27.23-6.46,5.02-12.59,14.31h-1.7c-.46-.68-2.17-5.44-5.12-14.31-7.03-2.25-13.6-3.38-19.73-3.38-2.95,0-7.49.67-13.63,2.05l-9.52-.68c1.35-1.37,5.33-3.97,11.9-7.83,7.71-4.55,13.61-6.82,17.69-6.82.67,0,1.58.13,2.72.35,1.13.23,2.04.35,2.72.35,1.57,0,4.14-.85,7.66-2.56,3.52-1.7,5.56-3.23,6.11-4.6.59-1.37.87-4.88.87-10.55,0-12.92-3.41-22.58-10.22-28.91-5.9-5.67-15.65-9.75-29.26-12.26-3.63,12.92-13.84,19.4-30.62,19.4-5.45,0-10.89-3.29-16.34-9.88-5.43-6.59-8.17-12.59-8.17-18.04,0-8.4,3.52-15.31,10.55-20.76-5.66-5.89-8.5-11.9-8.5-18.04,0-5.66,1.75-10.66,5.27-14.98,3.52-4.3,8.12-6.8,13.78-7.49-.44-7.25,1.93-12.25,7.15-14.97-2.5-2.48-3.74-6.9-3.74-13.27,0-7.48,2.49-13.72,7.49-18.71,4.98-4.98,11.23-7.49,18.7-7.49,8.18,0,14.87,2.85,20.08,8.51,6.59-22.45,20.75-33.68,42.53-33.68,11.34,0,21.32,4.54,29.95,13.62,3.18,3.39,4.76,5.21,4.76,5.43-2.72,0-1.35-.52,4.09-1.52,5.45-1.03,9.41-1.54,11.91-1.54,8.84,0,16.67,3.3,23.49,9.88,5.9,5.9,9.98,13.37,12.25,22.45,1.58.23,4.07.91,7.48,2.05,4.99,2.5,7.49,6.81,7.49,12.93,0,1.13-.91,3.29-2.72,6.47,14.51,8.17,21.77,19.51,21.77,34.02,0,4.09-1.59,9.76-4.76,17.02,5.92,3.41,8.86,8.41,8.86,14.99h.01ZM396.91,420.68v-4.42c0-5.21-2.55-9.98-7.65-14.29-5.11-4.32-10.26-6.46-15.49-6.46-6.36,0-12.25,1.48-17.69,4.4,12.02-.66,25.63,6.25,40.83,20.77h0ZM390.79,378.5c-3.4-3.88-6.35-7.84-8.84-11.91-9.53,2.48-14.29,5.33-14.29,8.5,2.72-.22,6.7.28,11.9,1.54,5.21,1.25,8.96,1.88,11.23,1.88h0ZM411.56,367.93v-14.97c-5.46-.89-8.75-1.36-9.88-1.36v5.11l9.88,11.22h0ZM455.79,358.41c-2.73-1.13-7.83-3.41-15.32-6.81v29.26c10.67-6.13,15.77-13.61,15.32-22.45h0ZM474.49,398.57l-7.48-9.17c-4.52,3.17-9.13,6.4-13.79,9.69-4.65,3.28-8.68,6.97-12.07,11.06,10.19-5.47,21.33-9.31,33.33-11.58h.01Z" fill="#00160b"/>
  </g>
</svg>