<?xml version="1.0" encoding="UTF-8"?>
<svg id="Layer_1" xmlns="http://www.w3.org/2000/svg" version="1.1" viewBox="0 0 100 100">
  <!-- Generator: Adobe Illustrator 30.1.0, SVG Export Plug-In . SVG Version: 2.1.1 Build 136)  -->
  <circle cx="50" cy="50" r="50" fill="#cac5c0"/>
  <path d="M53.24,63.27l-4.47,14.94H11.98v-3.07c1.79-2.04,5.75-6.09,11.88-12.13,3.58-3.66,7.15-7.5,10.73-11.5,1.87-2.04,3.24-3.79,4.09-5.24,2.21-3.07,3.32-6.26,3.32-9.58,0-3.07-1-5.81-3-8.24-2-2.43-4.54-3.64-7.6-3.64-6.64,0-11.84,4.51-15.59,13.54l-3.45-1.28c4.51-12.69,11.58-19.03,21.2-19.03,4.77,0,8.84,1.61,12.2,4.85,3.37,3.24,5.05,7.24,5.05,12.01,0,6.05-3.53,11.97-10.6,17.76l-7.15,6c-4.6,3.92-8.39,7.54-11.37,10.86-.26.17-.68.68-1.28,1.54h19.16c2.98,0,5.23-.64,6.77-1.92,1.28-1.02,2.56-2.98,3.83-5.88h3.07s0,0,0,0ZM52.73,49.85c0-7.41,1.53-14.26,4.6-20.56,4-7.83,9.41-11.75,16.22-11.75s11.79,3.36,15.71,10.09c3.06,5.45,4.59,11.75,4.59,18.9s-1.53,14.31-4.59,20.44c-4.01,7.66-9.37,11.49-16.1,11.49s-11.67-3.27-15.58-9.84c-3.24-5.53-4.85-11.79-4.85-18.78ZM61.42,46.4c0,6.39.68,12.1,2.04,17.12,2.04,7.84,5.45,11.75,10.22,11.75,7.75,0,11.63-8.05,11.63-24.15,0-19.93-4.22-29.89-12.65-29.89-7.5,0-11.24,7.75-11.24,23.25,0,0,0,1.92,0,1.92Z" fill="#0d0f0f"/>
</svg>