<?xml version="1.0" encoding="UTF-8"?>
<svg id="Layer_1" xmlns="http://www.w3.org/2000/svg" version="1.1" viewBox="0 0 600 600">
  <!-- Generator: Adobe Illustrator 30.1.0, SVG Export Plug-In . SVG Version: 2.1.1 Build 136)  -->
  <circle cx="300" cy="299.99" r="300" fill="#cac5c0"/>
  <path d="M374.92,131.91c-18.22,0-30.87-1.63-37.86-4.91h-12.62l-21.04,92.53h18.91c4.68-16.35,11.37-28.04,20-35.07,8.64-6.98,21.38-10.49,38.2-10.49h114.99l-2.84,4.91c-25.21,38.31-52.79,92.99-82.72,164.05-19.61,47.65-29.43,87.14-29.43,118.46v5.6h49.09c.45-43.9,10.72-97.2,30.82-159.84,13.56-42.05,28.49-78.95,44.87-110.75,8.42-17.29,15.43-29.89,21.03-37.85v-26.64h-151.41.01Z" fill="#0d0f0f"/>
  <path d="M286.18,382.55c-7.24,16.36-14.49,27.44-21.75,33.2-8.71,7.21-21.52,10.84-38.44,10.84h-108.84c3.4-4.82,5.81-7.7,7.27-8.67,16.91-18.76,38.43-39.2,64.55-61.35l40.62-33.94c40.15-32.72,60.22-66.15,60.22-100.34,0-26.94-9.54-49.55-28.67-67.85-19.09-18.3-42.18-27.43-69.28-27.43-54.64,0-94.79,35.85-120.42,107.56l19.58,7.22c21.28-51.02,50.8-76.53,88.52-76.53,17.38,0,31.79,6.85,43.16,20.57,11.36,13.7,17.02,29.23,17.02,46.56,0,18.76-6.28,36.8-18.83,54.12-4.83,8.2-12.6,18.07-23.22,29.61-20.31,22.62-40.62,44.3-60.93,64.98-34.83,34.16-57.32,57.02-67.49,68.56v17.34h208.94l25.38-84.46h-17.41.01Z" fill="#0d0f0f"/>
</svg>