<?xml version="1.0" encoding="UTF-8"?>
<svg id="Layer_1" xmlns="http://www.w3.org/2000/svg" version="1.1" viewBox="0 0 600 600">
  <!-- Generator: Adobe Illustrator 30.1.0, SVG Export Plug-In . SVG Version: 2.1.1 Build 136)  -->
  <circle cx="300" cy="300" r="300" fill="#cac5c0"/>
  <path d="M449,355c-1,126-111,177-198,177-50,0-100-18-100-18l15-36s35,12,72,12c41,0,131-30,131-122,0-51-34-103-105-103-37,0-70,22-80,32l-26-5,52-220h177c24,0,26-3,28-8h36l-17,77h-201l-15,70s28-13,68-12c126,1,162,110,162,157l1-1Z" fill="#0d0f0f"/>
</svg>