<?xml version="1.0" encoding="UTF-8"?>
<svg id="Layer_1" xmlns="http://www.w3.org/2000/svg" version="1.1" viewBox="0 0 600 600">
  <!-- Generator: Adobe Illustrator 30.1.0, SVG Export Plug-In . SVG Version: 2.1.1 Build 136)  -->
  <circle cx="300" cy="300" r="300" fill="#cac5c0"/>
  <path d="M309,492c27,0,66-20,66-110,0-70-26-119-68-119-34,0-65,27-79,55-6,98,31,173,80,173M309,533c-91,0-161-83-161-202,0-80,51-260,267-266v38c-160,6-178,147-178,147,0,0,38-36,94-36,34,0,124,25,124,150,0,118-83,169-145,169" fill="#0d0f0f"/>
</svg>