<?xml version="1.0" encoding="UTF-8"?>
<svg id="svg26" xmlns="http://www.w3.org/2000/svg" xmlns:svg="http://www.w3.org/2000/svg" xmlns:sodipodi="http://sodipodi.sourceforge.net/DTD/sodipodi-0.dtd" xmlns:rdf="http://www.w3.org/1999/02/22-rdf-syntax-ns#" xmlns:inkscape="http://www.inkscape.org/namespaces/inkscape" xmlns:dc="http://purl.org/dc/elements/1.1/" xmlns:cc="http://creativecommons.org/ns#" version="1.1" viewBox="0 0 600 600">
  <!-- Generator: Adobe Illustrator 30.1.0, SVG Export Plug-In . SVG Version: 2.1.1 Build 136)  -->
  <sodipodi:namedview id="namedview28" bordercolor="#666666" borderopacity="1" gridtolerance="10" guidetolerance="10" inkscape:current-layer="svg26" inkscape:cx="555.71211" inkscape:cy="357.74223" inkscape:pageopacity="0" inkscape:pageshadow="2" inkscape:window-height="1017" inkscape:window-maximized="1" inkscape:window-width="1920" inkscape:window-x="-8" inkscape:window-y="-8" inkscape:zoom="1.4433333" objecttolerance="10" pagecolor="#ffffff" showgrid="false"/>
  <circle id="circle22" cx="300" cy="300" r="300" fill="#cac5c0"/>
  <path id="path24" d="M308,493c27,0,85-18,85-71,0-36-26-70-118-108-47,30-61,62-61,89,0,62,49,90,93,90M379,179c0-36-30-73-80-73s-73,33-73,58c0,46,37,59,99,89,16-8,53.98-25.82,53.98-72.82l.02-1.18ZM309,533c-91,0-162-51-162-125s86-115,86-115c-21-13-76-45-76-106,0-99,99-124,150-124,108,0,138,88,138,111,0,50-45,85-75,98,0,0,84,33,84,129,0,87-83,132-145,132" inkscape:connector-curvature="0" sodipodi:nodetypes="cscsccssccccscssscsc" fill="#0d0f0f"/>
</svg>