<?xml version="1.0" encoding="UTF-8"?>
<svg id="Layer_1" xmlns="http://www.w3.org/2000/svg" version="1.1" viewBox="0 0 600 600">
  <!-- Generator: Adobe Illustrator 30.1.0, SVG Export Plug-In . SVG Version: 2.1.1 Build 136)  -->
  <circle cx="300" cy="300" r="300" fill="#cac5c0"/>
  <path d="M375,280c9-92-31-174-81-174-53,0-67,65-67,109,0,19,3,119,69,119,14,0,49-4,79-54ZM189,493c155,1,176-141,176-141,0,0-40,33-90,33-113,0-156-148-111-229,34-61,71-91,132-91,113,0,160,118,160,203,0,37-17,255-268,265" fill="#0d0f0f"/>
</svg>