<?xml version="1.0" encoding="UTF-8"?>
<svg id="svg2" xmlns="http://www.w3.org/2000/svg" xmlns:svg="http://www.w3.org/2000/svg" xmlns:rdf="http://www.w3.org/1999/02/22-rdf-syntax-ns#" xmlns:dc="http://purl.org/dc/elements/1.1/" xmlns:cc="http://creativecommons.org/ns#" version="1.1" viewBox="0 0 520 520">
  <!-- Generator: Adobe Illustrator 30.1.0, SVG Export Plug-In . SVG Version: 2.1.1 Build 136)  -->
  <path id="path3776" d="M520,260c0,143.59-116.41,260-260,260S0,403.59,0,260,116.41,0,260,0s260,116.41,260,260h0Z" fill="#fffbd5"/>
  <path d="M297.5,324.96c-11.03,6.38-23.84,10.04-37.5,10.04s-26.47-3.66-37.5-10.04l-87.02,150.71c36.63,21.2,79.16,33.33,124.52,33.33s87.89-12.13,124.52-33.33l-87.02-150.71h0ZM135.48,44.33C61.06,87.38,11,167.84,11,260h174c0-27.76,15.08-52,37.5-64.96L135.48,44.33ZM384.52,44.33l-87.02,150.71c22.42,12.96,37.5,37.2,37.5,64.96h174c0-92.16-50.06-172.62-124.48-215.67ZM310,260c0,18.5-10.05,34.66-25,43.3-7.35,4.26-15.89,6.7-25,6.7s-17.65-2.44-25-6.7c-14.95-8.64-25-24.8-25-43.3s10.05-34.66,25-43.3c7.35-4.26,15.89-6.7,25-6.7s17.65,2.44,25,6.7c14.95,8.64,25,24.8,25,43.3Z" fill="#0d0f0f"/>
</svg>