<?xml version="1.0" encoding="UTF-8"?>
<svg id="Layer_1" xmlns="http://www.w3.org/2000/svg" version="1.1" viewBox="0 0 600 600">
  <!-- Generator: Adobe Illustrator 30.1.0, SVG Export Plug-In . SVG Version: 2.1.1 Build 136)  -->
  <path d="M300,300v300C135.42,600,0,464.58,0,300c0-52.66,13.86-104.4,40.19-150l259.81,150Z" fill="#ffb579"/>
  <path d="M155.87,276.6c9.57-.69,17.19,8.63,22.67,15.52,17.76,22.32,26.64,33.48,34.68,45.07,6.8,9.8,42.4,61.11,65.91,54.64,8.19-2.25,12.04-10.73,14.77-9.17,3.76,2.15-.49,19.92-8.49,34.64-12.65,23.28-32.84,35.51-48.57,45.05-10.44,6.33-20.32,10.39-40.09,18.54-35.62,14.67-39.49,11.86-40.61,10.57-3.96-4.58,5.89-13.84,10.93-40.12,3.25-16.94,1.39-24.74.4-28.06-3.15-10.68-9.74-17.7-12.95-21.05-11.81-12.31-19.66-10.2-26.31-20.51-5.18-8.03-5.08-16.54-4.99-23.75.1-8.36,1.95-16.04,11.58-37.63,10.59-23.74,16.04-31.72,15-32.44-2.01-1.39-25.74,26-45.36,60.53-17.49,30.78-20.31,47.17-21.24,56.2-1.04,10.18-2.25,23.44,3.9,37.71,8.29,19.21,23.91,26.29,21.95,29.52-2.35,3.87-25.16-5.81-41.38-15.95-13.11-8.19-16.42-13.27-18.17-17.34-4.14-9.64-1.81-19.16-.49-23.35,2.96-5.14,7.45-12.86,13.05-22.17,18.25-30.36,30.18-50.23,47-71.55,7.63-9.68,19.02-23.15,34.51-38.16,2.61-2.8,6.83-6.35,12.31-6.74h0Z"/>
</svg>