<?xml version="1.0" encoding="UTF-8"?>
<svg id="Layer_1" xmlns="http://www.w3.org/2000/svg" version="1.1" viewBox="0 0 3040 600">
  <!-- Generator: Adobe Illustrator 30.1.0, SVG Export Plug-In . SVG Version: 2.1.1 Build 136)  -->
  <path d="M2740.8,0H299.2C133.96,0,0,134.32,0,300s133.96,300,299.2,300h2441.6c165.2,0,299.2-134.32,299.2-300S2906,0,2740.8,0Z" fill="#cac5c0" fill-rule="evenodd"/>
  <path d="M503.52,513.2v-15.72c41.2-4.52,61.8-19.64,61.8-45.4,0-15.28-5.8-23.32-17.44-24.24l-5.84-.44c-16.72-1.2-25.08-9.44-25.08-24.72,0-8.68,2.6-15.48,7.84-20.4,5.69-5.11,13.16-7.78,20.8-7.44,14.68,0,26.16,7.36,34.52,22,7.2,12.32,10.76,26.4,10.76,42.24,0,24.88-8.68,43.72-26,56.6-15.2,11.04-35.68,16.92-61.36,17.48v.04Z" fill="#0d0f0f" fill-rule="evenodd"/>
  <path d="M1715.16,513.2v-15.72c41.2-4.52,61.84-19.64,61.84-45.4,0-15.28-5.8-23.32-17.48-24.24l-5.8-.44c-16.72-1.2-25.12-9.44-25.12-24.72,0-8.68,2.64-15.48,7.84-20.4,5.7-5.12,13.19-7.79,20.84-7.44,14.64,0,26.16,7.36,34.52,22,7.16,12.32,10.72,26.4,10.72,42.24,0,24.88-8.64,43.72-25.96,56.6-15.24,11.04-35.68,16.92-61.4,17.48v.04Z" fill="#0d0f0f" fill-rule="evenodd"/>
  <path d="M2857.24,130.4c-29.04-50.92-69.36-76.4-121.04-76.4s-93.36,29.96-123.44,89.8c-24.24,48.32-36.4,101.16-36.4,158.4,0,53.08,12.68,101.12,38,144.2,29.56,50.4,69.36,75.6,119.44,75.6,52.76,0,93.88-29.4,123.44-88.24,24.24-46.72,36.4-98.96,36.4-156.8s-12.16-104.52-36.4-146.56ZM2737.76,496.8c-24.8,0-45.08-14.72-60.92-44.12-22.68-42.04-34-100.88-34-176.48v-14.96c0-118.72,29-178.08,87-178.08,39.08,0,66.72,30.72,83.12,92.16,9.48,37.32,14.2,83,14.2,137.08,0,122.96-29.8,184.4-89.4,184.4Z" fill="#0d0f0f" fill-rule="evenodd"/>
  <path d="M2492.2,130.4c-29.04-50.92-69.4-76.4-121.04-76.4s-93.4,29.96-123.4,89.8c-24.28,48.32-36.4,101.16-36.4,158.4h-.04c0,53.08,12.68,101.12,38,144.2,29.56,50.4,69.32,75.6,119.44,75.6,52.76,0,93.88-29.4,123.44-88.24,24.24-46.72,36.4-98.96,36.4-156.8s-12.16-104.52-36.4-146.56ZM2372.72,496.8c-24.76,0-45.08-14.72-60.88-44.12-22.72-42.04-34.08-100.88-34.08-176.48h.04v-14.96c0-118.72,28.96-178.08,87.04-178.08,39.04,0,66.72,30.72,83.08,92.16,9.48,37.32,14.2,83,14.2,137.08,0,122.96-29.8,184.4-89.4,184.4Z" fill="#0d0f0f" fill-rule="evenodd"/>
  <path d="M2125.28,130.4c-29.04-50.92-69.36-76.4-121.04-76.4s-93.4,29.96-123.4,89.8c-24.28,48.32-36.4,101.16-36.4,158.4h-.04c0,53.08,12.68,101.12,38,144.2,29.52,50.4,69.36,75.6,119.44,75.6,52.72,0,93.84-29.4,123.44-88.24,24.24-46.72,36.4-98.96,36.4-156.8s-12.16-104.52-36.4-146.56ZM2005.8,496.8c-24.8,0-45.08-14.72-60.88-44.12-22.72-42.04-34.08-100.88-34.08-176.48v-14.96c0-118.72,29.04-178.08,87.04-178.08,39.08,0,66.72,30.72,83.12,92.16,9.48,37.32,14.2,83,14.2,137.08,0,122.96-29.8,184.4-89.4,184.4Z" fill="#0d0f0f" fill-rule="evenodd"/>
  <path d="M1638.44,130.4c-29.04-50.92-69.36-76.4-121.04-76.4s-93.4,29.96-123.4,89.8c-24.28,48.32-36.4,101.16-36.4,158.4h-.04c0,53.08,12.72,101.12,38,144.2,29.56,50.4,69.36,75.6,119.44,75.6,52.76,0,93.88-29.4,123.44-88.24,24.24-46.72,36.4-98.96,36.4-156.8s-12.16-104.52-36.4-146.56ZM1519,496.8c-24.84,0-45.12-14.72-60.92-44.12-22.72-42.04-34.08-100.88-34.08-176.48h.04v-14.96c0-118.72,29-178.08,87-178.08,39.12,0,66.76,30.72,83.12,92.16,9.48,37.32,14.2,83,14.2,137.08,0,122.96-29.76,184.4-89.36,184.4Z" fill="#0d0f0f" fill-rule="evenodd"/>
  <path d="M1273.4,130.4c-29.04-50.92-69.36-76.4-121.04-76.4s-93.4,29.96-123.4,89.8c-24.28,48.32-36.4,101.16-36.4,158.4h-.04c0,53.08,12.68,101.12,38,144.2,29.56,50.4,69.36,75.6,119.44,75.6,52.76,0,93.88-29.4,123.44-88.24,24.24-46.72,36.4-98.96,36.4-156.8s-12.16-104.52-36.4-146.56ZM1153.92,496.8c-24.8,0-45.08-14.72-60.88-44.12-22.72-42.04-34.08-100.88-34.08-176.48h.04v-14.96c0-118.72,29-178.08,87-178.08,39.08,0,66.72,30.72,83.12,92.16,9.48,37.32,14.2,83,14.2,137.08,0,122.96-29.8,184.4-89.4,184.4Z" fill="#0d0f0f" fill-rule="evenodd"/>
  <path d="M906.48,130.4c-29.04-50.92-69.36-76.4-121.04-76.4s-93.4,29.96-123.4,89.8c-24.28,48.32-36.4,101.16-36.4,158.4h-.04c0,53.08,12.68,101.12,38,144.2,29.56,50.4,69.36,75.6,119.44,75.6,52.76,0,93.88-29.4,123.44-88.24,24.24-46.72,36.4-98.96,36.4-156.8s-12.16-104.52-36.4-146.56ZM787,496.8c-24.8,0-45.08-14.72-60.88-44.12-22.72-42.04-34.08-100.88-34.08-176.48h.04v-14.96c0-118.72,29-178.08,87-178.08,39.08,0,66.72,30.72,83.12,92.16,9.48,37.32,14.2,83,14.2,137.08,0,122.96-29.8,184.4-89.4,184.4Z" fill="#0d0f0f" fill-rule="evenodd"/>
  <path d="M369.84,54v375.04c0,44.88,19.28,67.28,57.96,67.28h10.08v25.68h-204.16v-25.68h12.8c37.36,0,56.04-22.4,56.04-67.28v-246c0-45.4-16.12-68.12-48.32-68.12h-20.52v-24.84h7.4c39.84,0,75.92-12.04,108.2-36.08h20.52Z" fill="#0d0f0f" fill-rule="evenodd"/>
</svg>