<?xml version="1.0" encoding="UTF-8"?>
<svg id="Layer_1" xmlns="http://www.w3.org/2000/svg" version="1.1" viewBox="0 0 2537.27 600">
  <!-- Generator: Adobe Illustrator 30.1.0, SVG Export Plug-In . SVG Version: 2.1.1 Build 136)  -->
  <path d="M2238.07,0H299.2C133.96,0,0,134.32,0,300s133.96,300,299.2,300h1938.87c165.2,0,299.2-134.32,299.2-300S2403.27,0,2238.07,0Z" fill="#cac5c0" fill-rule="evenodd"/>
  <path d="M1212.43,513.2v-15.72c41.2-4.52,61.84-19.64,61.84-45.4,0-15.28-5.8-23.32-17.48-24.24l-5.8-.44c-16.72-1.2-25.12-9.44-25.12-24.72,0-8.68,2.64-15.48,7.84-20.4,5.7-5.12,13.19-7.79,20.84-7.44,14.64,0,26.16,7.36,34.52,22,7.16,12.32,10.72,26.4,10.72,42.24,0,24.88-8.64,43.72-25.96,56.6-15.24,11.04-35.68,16.92-61.4,17.48v.04h0Z" fill-rule="evenodd"/>
  <path d="M2354.51,130.4c-29.04-50.92-69.36-76.4-121.04-76.4s-93.36,29.96-123.44,89.8c-24.24,48.32-36.4,101.16-36.4,158.4,0,53.08,12.68,101.12,38,144.2,29.56,50.4,69.36,75.6,119.44,75.6,52.76,0,93.88-29.4,123.44-88.24,24.24-46.72,36.4-98.96,36.4-156.8s-12.16-104.52-36.4-146.56h0ZM2235.03,496.8c-24.8,0-45.08-14.72-60.92-44.12-22.68-42.04-34-100.88-34-176.48v-14.96c0-118.72,29-178.08,87-178.08,39.08,0,66.72,30.72,83.12,92.16,9.48,37.32,14.2,83,14.2,137.08,0,122.96-29.8,184.4-89.4,184.4h0Z" fill-rule="evenodd"/>
  <path d="M1989.47,130.4c-29.04-50.92-69.4-76.4-121.04-76.4s-93.4,29.96-123.4,89.8c-24.28,48.32-36.4,101.16-36.4,158.4h-.04c0,53.08,12.68,101.12,38,144.2,29.56,50.4,69.32,75.6,119.44,75.6,52.76,0,93.88-29.4,123.44-88.24,24.24-46.72,36.4-98.96,36.4-156.8s-12.16-104.52-36.4-146.56h0ZM1869.99,496.8c-24.76,0-45.08-14.72-60.88-44.12-22.72-42.04-34.08-100.88-34.08-176.48h.04v-14.96c0-118.72,28.96-178.08,87.04-178.08,39.04,0,66.72,30.72,83.08,92.16,9.48,37.32,14.2,83,14.2,137.08,0,122.96-29.8,184.4-89.4,184.4h0Z" fill-rule="evenodd"/>
  <path d="M1622.55,130.4c-29.04-50.92-69.36-76.4-121.04-76.4s-93.4,29.96-123.4,89.8c-24.28,48.32-36.4,101.16-36.4,158.4h-.04c0,53.08,12.68,101.12,38,144.2,29.52,50.4,69.36,75.6,119.44,75.6,52.72,0,93.84-29.4,123.44-88.24,24.24-46.72,36.4-98.96,36.4-156.8s-12.16-104.52-36.4-146.56h0ZM1503.07,496.8c-24.8,0-45.08-14.72-60.88-44.12-22.72-42.04-34.08-100.88-34.08-176.48v-14.96c0-118.72,29.04-178.08,87.04-178.08,39.08,0,66.72,30.72,83.12,92.16,9.48,37.32,14.2,83,14.2,137.08,0,122.96-29.8,184.4-89.4,184.4h0Z" fill-rule="evenodd"/>
  <path d="M1135.71,130.4c-29.04-50.92-69.36-76.4-121.04-76.4s-93.4,29.96-123.4,89.8c-24.28,48.32-36.4,101.16-36.4,158.4h-.04c0,53.08,12.72,101.12,38,144.2,29.56,50.4,69.36,75.6,119.44,75.6,52.76,0,93.88-29.4,123.44-88.24,24.24-46.72,36.4-98.96,36.4-156.8s-12.16-104.52-36.4-146.56h0ZM1016.27,496.8c-24.84,0-45.12-14.72-60.92-44.12-22.72-42.04-34.08-100.88-34.08-176.48h.04v-14.96c0-118.72,29-178.08,87-178.08,39.12,0,66.76,30.72,83.12,92.16,9.48,37.32,14.2,83,14.2,137.08,0,122.96-29.76,184.4-89.36,184.4h0Z" fill-rule="evenodd"/>
  <path d="M770.67,130.4c-29.04-50.92-69.36-76.4-121.04-76.4s-93.4,29.96-123.4,89.8c-24.28,48.32-36.4,101.16-36.4,158.4h-.04c0,53.08,12.68,101.12,38,144.2,29.56,50.4,69.36,75.6,119.44,75.6,52.76,0,93.88-29.4,123.44-88.24,24.24-46.72,36.4-98.96,36.4-156.8s-12.16-104.52-36.4-146.56h0ZM651.19,496.8c-24.8,0-45.08-14.72-60.88-44.12-22.72-42.04-34.08-100.88-34.08-176.48h.04v-14.96c0-118.72,29-178.08,87-178.08,39.08,0,66.72,30.72,83.12,92.16,9.48,37.32,14.2,83,14.2,137.08,0,122.96-29.8,184.4-89.4,184.4h0Z" fill-rule="evenodd"/>
  <path d="M402.06,264.37c-23.48-30.32-54.1-45.55-92.07-45.55-35.52,0-70.59,16.5-105.37,49.34,5.65-37.97,17.02-70.22,34.18-96.83,33.51-51.2,84.49-78.47,152.78-81.59v-24.75c-32.25,0-62.64,5.42-91.1,16.2-51.27,19.62-92.07,52.69-122.46,99.2-30.39,46.52-45.55,97.64-45.55,153.3,0,51.87,13.3,96.82,39.83,134.8,30.39,43.03,70.3,64.5,119.64,64.5,41.76,0,76.54-17.98,104.4-54.1,25.27-32.25,37.97-69.92,37.97-112.95,0-39.83-10.77-73.71-32.25-101.58ZM351.75,463.74c-13.97,27.87-34.55,41.76-61.75,41.76-31.66,0-55.66-20.29-72.08-60.71-12.71-31.06-19.02-64.95-19.02-101.58,0-9.51.3-19.02.97-28.46,24.67-40.57,54.39-60.78,89.25-60.78,28.46,0,49.64,15.83,63.61,47.48,9.44,23.41,14.19,51.2,14.19,83.45s-5.05,57.29-15.16,78.84Z" fill="#0d0f0f"/>
</svg>