<?xml version="1.0" encoding="UTF-8"?>
<svg id="Layer_1" xmlns="http://www.w3.org/2000/svg" version="1.1" viewBox="0 0 600 600">
  <!-- Generator: Adobe Illustrator 30.1.0, SVG Export Plug-In . SVG Version: 2.1.1 Build 136)  -->
  <circle cx="300" cy="300" r="300" fill="#cbc2bf"/>
  <path d="M292.08,402.08l-38.31-83.58c20.43-8.36,36.68-17.88,48.76-28.56,12.07-10.68,21.36-22.17,27.86-34.48,6.5-12.31,10.68-25.08,12.54-38.31s2.79-26.82,2.79-40.75c0-27.4-4.99-49.34-14.98-65.82-9.98-16.48-25.42-24.73-46.32-24.73-10.22,0-19.15,2.21-26.82,6.62-7.66,4.41-13.93,10.22-18.81,17.41-4.88,7.2-8.59,15.44-11.14,24.73s-3.83,18.57-3.83,27.86c0,7.89.46,15.67,1.39,23.33.93,7.66,2.32,13.81,4.18,18.46l-2.09,2.09-77.32-98.21c16.72-15.32,37.38-28.67,61.99-40.05,24.61-11.38,52.24-17.07,82.89-17.07,23.68,0,45.27,3.02,64.78,9.05,19.5,6.04,36.22,14.51,50.15,25.42,13.93,10.91,24.73,24.03,32.39,39.35,7.66,15.32,11.49,32.5,11.49,51.54,0,38.54-11.96,71.51-35.87,98.91-23.91,27.4-56.07,49.69-96.47,66.87l-26.47,59.9h-2.79ZM294.87,552.53h-2.79l-66.87-65.47v-2.79c5.11-1.86,10.91-5.34,17.41-10.45s13.12-10.91,19.85-17.41c6.73-6.5,12.77-13.12,18.11-19.85,5.34-6.73,9.17-12.65,11.49-17.76h2.79c2.32,5.11,6.15,11.03,11.49,17.76,5.34,6.73,11.38,13.35,18.11,19.85s13.47,12.31,20.2,17.41c6.73,5.11,12.42,8.59,17.07,10.45v2.79l-66.87,65.47Z"/>
</svg>