<?xml version="1.0" encoding="UTF-8"?>
<svg id="Layer_1" xmlns="http://www.w3.org/2000/svg" version="1.1" viewBox="0 0 600 600">
  <!-- Generator: Adobe Illustrator 30.1.0, SVG Export Plug-In . SVG Version: 2.1.1 Build 136)  -->
  <circle cx="300" cy="300" r="300" fill="#cbc2bf"/>
  <path d="M461.92,293.88l-.03.15c-.75-20.83-5.44-40.66-13.34-58.77l59.02-47.07-52.37-65.68-59.03,47.08.07.09c-16.06-11.89-34.4-20.87-54.24-26.18v-75.5h-84v75.5c-19.84,5.31-38.18,14.29-54.24,26.18l.07-.09-59.03-47.08-52.37,65.68,59.02,47.07c-7.9,18.11-12.59,37.94-13.34,58.77l-.03-.15-73.61,16.8,18.69,81.89,73.61-16.8c9.52,17.96,22.32,33.91,37.6,47.06l-.11-.05-32.76,68.02,75.68,36.45,32.76-68.02-.06-.03c9.76,1.84,19.83,2.8,30.12,2.8s20.36-.96,30.12-2.8l-.06.03,32.76,68.02,75.68-36.45-32.76-68.02-.11.05c15.28-13.15,28.08-29.1,37.6-47.06l73.61,16.8,18.69-81.89-73.61-16.8h0ZM300,377.5c-42.8,0-77.5-34.7-77.5-77.5s34.7-77.5,77.5-77.5,77.5,34.7,77.5,77.5-34.7,77.5-77.5,77.5Z"/>
</svg>