<?xml version="1.0" encoding="UTF-8"?>
<svg id="Layer_1" xmlns="http://www.w3.org/2000/svg" version="1.1" viewBox="0 0 600 600">
  <!-- Generator: Adobe Illustrator 30.1.0, SVG Export Plug-In . SVG Version: 2.1.1 Build 136)  -->
  <circle cx="300" cy="300" r="300" fill="#f19dc4"/>
  <path d="M300,115.12c3.99,6.69,10.57,16.75,20.3,27.65,13.56,15.19,21.7,19.09,30.96,32.09,4.94,6.94,11.15,17.82,14.92,33.84,3.9-25.4,11.18-44.16,16.81-56.11,5.43-11.51,9.85-17.84,11.7-20.38,3.81-5.24,13.56-18.42,29.73-28.04,23.52-13.99,47.73-12.81,57.61-11.76-4.33,9.23-9.91,23.34-12.71,41.15-4.84,30.76,1.95,51.07,10.43,91.54,9.92,47.34,14.88,71.01,14.55,96.52-.39,30.41-.84,65.36-24.64,94.1-20.61,24.89-49.92,34.5-74.7,42.63-21.51,7.05-40.18,9.68-52.87,10.77-2.8,9.87-8.53,23.59-14.46,41.73-14.14,43.19-20.06,66.06-27.61,65.91-6.2-.13-9.48-12.81-27.61-65.91-6.2-18.15-11.32-32.79-14.46-41.73-12.7-1.09-31.37-3.72-52.87-10.77-24.78-8.12-54.1-17.74-74.7-42.63-23.8-28.74-24.25-63.69-24.64-94.1-.33-25.52,4.63-49.19,14.55-96.52,8.48-40.47,15.28-60.79,10.43-91.54-2.81-17.81-8.38-31.92-12.71-41.15,9.88-1.06,34.09-2.24,57.61,11.76,16.17,9.62,25.92,22.8,29.73,28.04,1.85,2.55,6.27,8.87,11.7,20.38,5.63,11.95,12.91,30.71,16.81,56.11,3.77-16.03,9.97-26.9,14.92-33.84,9.25-13,17.4-16.9,30.96-32.09,9.73-10.9,16.31-20.96,20.3-27.65Z"/>
</svg>