<?xml version="1.0" encoding="UTF-8"?>
<svg id="Layer_1" xmlns="http://www.w3.org/2000/svg" version="1.1" viewBox="0 0 600 600">
  <!-- Generator: Adobe Illustrator 30.1.0, SVG Export Plug-In . SVG Version: 2.1.1 Build 136)  -->
  <circle cx="300" cy="300" r="300" fill="#fadf7a"/>
  <path d="M351.88,369.65c1.11-5.15,2.76-13.11,4.54-22.98,1.91-10.57,2.09-12.91,3.61-17.24.86-2.45,5.28-15.05,14.45-21.86,9.3-6.92,21.06-6.06,35.79-3.66,17.39,2.83,42.04,8.32,71.62,19.87-18.12-1.54-33.38-2.04-44.99-2.17-12.78-.13-19.59.21-27.89,2.41-11.69,3.11-19.72,8.17-24.13,11-16.84,10.79-27.15,24.78-33.01,34.64h0ZM331.84,393.61c-1.33-5.07-3.65-14.27-3-26.35.47-8.57,2.24-15.15,6.32-27.27,3.71-11,8.9-25.36,15.96-42.12-20.13,24.57-32.97,46.32-41.03,61.98-6.83,13.27-11.28,24.19-7.58,35.17,3.65,10.82,14.26,18.92,16.33,20.5,3.65,2.78,5.82,3.68,15.28,8.76,8.83,4.75,15.89,8.77,20.45,11.42-7.57-8.61-17.68-22.74-22.74-42.09h0ZM371.18,462.17c-5.22-.31-14.7-.94-25.99-5.29-8-3.09-13.72-6.82-23.98-14.44-9.32-6.92-21.37-16.3-35.12-28.2,17.15,26.74,33.87,45.67,46.26,58.17,10.51,10.6,19.51,18.21,31.11,18.08,11.41-.13,22.41-7.72,24.54-9.19,3.77-2.61,5.3-4.39,13.05-11.82,7.24-6.94,13.25-12.41,17.18-15.93-10.53,4.53-27.09,9.79-47.06,8.62h0ZM448.53,445.94c-1.91,4.88-5.43,13.69-13.06,23.08-5.41,6.66-10.72,10.94-21.14,18.34-9.46,6.72-22.11,15.28-37.67,24.69,30.73-8.05,53.9-18.1,69.63-26.02,13.33-6.72,23.34-12.93,26.8-24,3.41-10.9-.42-23.69-1.16-26.18-1.31-4.39-2.54-6.4-7.21-16.07-4.36-9.03-7.7-16.44-9.84-21.26,1.06,11.41.94,28.79-6.35,47.42h0ZM457,367.36c4.05,3.32,11.34,9.4,17.91,19.55,4.66,7.21,7.09,13.58,10.91,25.78,3.47,11.08,7.71,25.75,11.84,43.46,1.84-31.71-.55-56.85-3.24-74.26-2.27-14.75-5.09-26.2-14.54-32.91-9.31-6.61-22.66-6.92-25.26-6.98-4.58-.11-6.87.44-17.51,1.89-9.94,1.36-18.02,2.25-23.26,2.78,11.18,2.52,27.67,8,43.14,20.69h0Z"/>
  <path d="M161.47,157.72c1.11-5.15,2.76-13.11,4.54-22.98,1.91-10.57,2.09-12.91,3.61-17.24.86-2.45,5.28-15.05,14.45-21.86,9.3-6.92,21.06-6.06,35.79-3.66,17.39,2.83,42.04,8.32,71.62,19.87-18.12-1.54-33.38-2.04-44.99-2.17-12.78-.13-19.59.21-27.89,2.41-11.69,3.11-19.72,8.17-24.13,11-16.84,10.79-27.15,24.78-33.01,34.64h0ZM141.43,181.68c-1.33-5.07-3.65-14.27-3-26.35.47-8.57,2.24-15.15,6.32-27.27,3.71-11,8.9-25.36,15.96-42.12-20.13,24.57-32.97,46.32-41.03,61.98-6.83,13.27-11.28,24.19-7.58,35.17,3.65,10.82,14.26,18.92,16.33,20.5,3.65,2.78,5.82,3.68,15.28,8.76,8.83,4.75,15.89,8.77,20.45,11.42-7.57-8.61-17.68-22.74-22.74-42.09h0ZM180.77,250.23c-5.22-.31-14.7-.94-25.99-5.29-8-3.09-13.72-6.82-23.98-14.44-9.32-6.92-21.37-16.3-35.12-28.2,17.15,26.74,33.87,45.67,46.26,58.17,10.51,10.6,19.51,18.21,31.11,18.08,11.41-.13,22.41-7.72,24.54-9.19,3.77-2.61,5.3-4.39,13.05-11.82,7.24-6.94,13.25-12.41,17.18-15.93-10.53,4.53-27.09,9.79-47.06,8.62h0ZM258.13,234.01c-1.91,4.88-5.43,13.69-13.06,23.08-5.41,6.66-10.72,10.94-21.14,18.34-9.46,6.72-22.11,15.28-37.67,24.69,30.73-8.05,53.9-18.1,69.63-26.02,13.33-6.72,23.34-12.93,26.8-24,3.41-10.9-.42-23.69-1.16-26.18-1.31-4.39-2.54-6.4-7.21-16.07-4.36-9.03-7.7-16.44-9.84-21.26,1.06,11.41.94,28.79-6.35,47.42h0ZM266.6,155.42c4.05,3.32,11.34,9.4,17.91,19.55,4.66,7.21,7.09,13.58,10.91,25.78,3.47,11.08,7.71,25.75,11.84,43.46,1.84-31.71-.55-56.85-3.24-74.26-2.27-14.75-5.09-26.2-14.54-32.91-9.31-6.61-22.66-6.92-25.26-6.98-4.58-.11-6.87.44-17.51,1.89-9.94,1.36-18.02,2.25-23.26,2.78,11.18,2.52,27.67,8,43.14,20.69h0Z"/>
</svg>