<?xml version="1.0" encoding="UTF-8"?>
<svg id="Layer_1" xmlns="http://www.w3.org/2000/svg" version="1.1" viewBox="0 0 600 600">
  <!-- Generator: Adobe Illustrator 30.1.0, SVG Export Plug-In . SVG Version: 2.1.1 Build 136)  -->
  <path d="M300,300l-212.13,212.13C31.63,455.89,0,379.53,0,300,0,135.42,135.42,0,300,0,379.53,0,455.89,31.63,512.13,87.87l-212.13,212.13Z" fill="#fffbd5"/>
  <path d="M327.98,229.62c-14.6-13.6-24.3-21-29.1-22.1-3.5-.8-6.8,1.2-10,6s-7.8,6.6-13.6,5.1c-2.4-.6-7-2.6-14-6.1-5.6,5.3-8.6,8.8-9.1,10.5-.6,2.4.5,5.6,3.3,9.7s5.4,6.4,7.8,7c1.5.4,3.7.6,6.5.5,2.8,0,4.7.1,5.6.3,2.7.6,2.8,5.8.5,15.6-2.2,9.3-7.8,23.1-16.8,41.4-.3-23.4-3.7-35.9-9.9-37.4-.9-.2-2.8,0-5.8.7-3,.6-5.2.8-6.5.5-6.3-1.5-10.5-8.6-12.8-21.3-10.3-.9-16.5,3-18.6,11.7-1,4.4.1,8.3,3.5,11.9s4.9,5.9,4.7,7c-1.4,5.9-12.1,12.8-32.1,20.8-10.7,4.3-18,7.4-22.1,9.1,4-3.2,8.2-7.5,12.8-13.1,5.2-6.3,8.2-11.4,9.2-15.3.5-2.1-1.2-5.8-5.3-10.9s-5.6-9.8-4.5-14.1c.9-3.7,3.3-7.9,7.2-12.7-2-3.9-5-6.4-8.9-7.3-8.7-2.1-13.7-.3-15,5.3.9-3.9.2-1-2.1,8.8-1.5,7.2-7.8,9.5-18.8,6.8-8.5-2-22.2-7.4-41.2-16,23.9-.2,36.7-4,38.5-11.4-.2.9,0-1.8.6-8.1.7-6.9,7-11.9,18.6-14.8.4-10.4-3.6-16.6-12-18.7-1.3-.3-4.2,1.4-8.8,5.1-4.6,3.7-8.4,5.2-11.4,4.5-5.2-1.2-10.6-8.5-16.1-21.7-2.6-6.6-6.5-16.3-11.9-29.3,4.4,3.8,8.7,7.6,13.1,11.4,5.8,4.6,10.6,7.4,14.5,8.3,3,.7,6.6-1.2,10.8-5.8,4.2-4.6,8.7-6.3,13.4-5.2.7.2,4.7,2.5,12.1,7,5.6-5.3,8.8-9.5,9.5-12.5.6-2.6-.2-5.9-2.6-10.1-2.3-4.1-4.8-6.5-7.4-7.1-1.1-.3-2.8-.3-5.3-.2-2.4.1-4.2,0-5.3-.2-3.9-.9-4.7-6.3-2.4-16,.6-2.6,6.7-16.9,18.1-42.7-1,3.2-1,9.6-.1,19.2,1.1,11.7,4.1,18.1,9.1,19.4.9.2,2.8,0,5.7-.7s5.1-.8,6.6-.5c5,1.2,8.4,5,10.3,11.4l2.8,9.9c4.5,1.1,8.7.4,12.5-2.1s6.3-6.1,7.4-10.6c1.1-4.8,0-8.9-3.4-12.3s-5-5.8-4.6-7.1c1.1-4.5,10.1-10.5,27-17.9,13.6-5.9,22.3-9.2,26.1-9.9-12.3,10.4-19.2,18.4-20.6,24.3-.7,3,.3,6.7,3.2,11.1,3.6,5.2,5.5,8.8,5.7,10.6,1,5.5-.9,12.3-5.5,20.3,4.9,5.5,8.8,8.6,11.9,9.4,6.3,1.5,10.2-1,11.7-7.5.2-.6.4-2.8.7-6.4.3-3.6.6-5.6.9-6,1.6-2.8,7.9-2.9,19-.3,6.9,1.7,20.9,7.1,41.8,16.2-5.1.2-12.7.4-22.9.7-9.3.5-14.3,2.4-15.1,5.7-.4,1.5-.4,4.2-.2,8.2.2,3.9.1,6.8-.3,8.5-.7,3-3.3,5.4-7.9,7.1l-12.9,5.2c1.5,5.4,2.5,8.6,3.2,9.7,1.6,3.1,4.2,5.1,7.8,6,2.6.6,5.5-1.1,8.8-5.1s7.3-5.5,12-4.3c5.9,1.4,11.2,8.4,15.9,21,2.6,7.1,6.8,17.8,12.6,32.2l-.1-.3h0ZM260.38,193.52c3.3-13.9,1.1-27.1-6.6-39.7-7.8-12.6-18.6-20.6-32.4-23.9-14.1-3.4-27.4-1.3-40,6.4-12.6,7.6-20.7,18.5-24.3,32.5-3.5,13.8-1.3,27,6.8,39.6s19.1,20.5,33,23.9c14.7,3.5,28.2,1.6,40.4-5.6,12.2-7.3,19.9-18.3,23.2-33.1M255.58,192.42c-3.2,13.2-10.2,23.1-21.2,29.6-11,6.6-23.1,8.2-36.3,5.1-12.8-3.1-22.7-10.1-29.6-21.2-7-11.1-8.9-23-5.9-35.8,3-12.6,10.2-22.2,21.6-29s23.3-8.7,35.9-5.7,22.4,10.2,29.4,21.5,9.1,23.1,6.1,35.5" fill="#211d15"/>
  <g id="layer1">
    <path id="path269" d="M512.09,87.82c54.31,54.31,87.91,129.31,87.91,212.16,0,165.7-134.32,300.02-300.01,300.02-82.84,0-157.83-33.58-212.12-87.88" fill="#fffbd5"/>
    <path id="path275" d="M528,438.66c-14.62-13.58-24.32-20.95-29.08-22.09-3.46-.83-6.81,1.19-10.03,6.04s-7.75,6.55-13.61,5.15c-2.38-.57-7.05-2.61-14-6.1-5.63,5.31-8.65,8.83-9.06,10.55-.57,2.39.53,5.63,3.3,9.73,2.76,4.1,5.36,6.43,7.8,7.02,1.55.37,3.73.55,6.55.53,2.8,0,4.66.1,5.56.31,2.66.62,2.81,5.83.47,15.59-2.22,9.31-7.81,23.11-16.76,41.35-.35-23.45-3.65-35.93-9.94-37.43-.87-.21-2.81.02-5.83.67-3.02.64-5.18.82-6.48.51-6.28-1.51-10.55-8.6-12.78-21.28-10.34-.87-16.54,3.04-18.62,11.69-1.04,4.36.14,8.3,3.53,11.86,3.38,3.55,4.94,5.87,4.7,6.96-1.4,5.87-12.13,12.8-32.13,20.84-10.66,4.33-18.04,7.37-22.13,9.13,3.95-3.17,8.21-7.54,12.76-13.09,5.18-6.34,8.23-11.44,9.17-15.35.52-2.15-1.25-5.8-5.3-10.88-4.06-5.09-5.56-9.8-4.52-14.13.88-3.68,3.26-7.91,7.16-12.72-2.04-3.92-5-6.36-8.92-7.29-8.66-2.08-13.67-.3-15.02,5.35.93-3.91.23-.98-2.09,8.77-1.5,7.2-7.78,9.48-18.83,6.85-8.45-2.03-22.18-7.37-41.18-16.04,23.89-.23,36.71-4.04,38.47-11.41-.19.88,0-1.85.58-8.12.74-6.92,6.96-11.86,18.65-14.79.43-10.43-3.56-16.66-12.02-18.68-1.3-.32-4.24,1.39-8.78,5.12-4.57,3.71-8.36,5.22-11.39,4.49-5.2-1.23-10.57-8.48-16.1-21.72-2.56-6.58-6.52-16.34-11.9-29.31,4.36,3.79,8.72,7.6,13.09,11.38,5.78,4.6,10.62,7.35,14.51,8.3,3.04.71,6.65-1.23,10.85-5.84,4.19-4.61,8.67-6.35,13.44-5.2.67.16,4.68,2.48,12.07,7.01,5.62-5.3,8.8-9.46,9.52-12.49.61-2.61-.24-5.96-2.58-10.07-2.33-4.12-4.81-6.47-7.42-7.11-1.08-.26-2.83-.34-5.26-.23-2.43.12-4.19.04-5.27-.22-3.89-.93-4.69-6.27-2.35-16.03.61-2.6,6.67-16.85,18.14-42.73-1,3.18-1.04,9.6-.12,19.21,1.08,11.72,4.12,18.16,9.11,19.37.86.2,2.75-.03,5.67-.71,2.9-.68,5.12-.84,6.62-.47,4.98,1.18,8.42,4.99,10.33,11.4l2.78,9.92c4.54,1.1,8.72.38,12.53-2.14,3.82-2.53,6.28-6.07,7.36-10.61,1.13-4.77,0-8.87-3.41-12.33-3.42-3.46-4.97-5.83-4.65-7.13,1.09-4.55,10.07-10.53,26.97-17.94,13.55-5.91,22.25-9.22,26.09-9.91-12.32,10.35-19.19,18.42-20.59,24.28-.73,3.04.33,6.73,3.19,11.09,3.57,5.2,5.47,8.75,5.7,10.63.97,5.52-.88,12.28-5.55,20.34,4.87,5.52,8.81,8.63,11.86,9.37,6.26,1.5,10.19-1.01,11.75-7.5.16-.65.38-2.78.67-6.38.28-3.6.59-5.59.91-5.97,1.6-2.83,7.92-2.92,18.97-.27,6.94,1.66,20.87,7.05,41.83,16.19-5.08.16-12.7.39-22.85.73-9.29.52-14.33,2.41-15.12,5.65-.35,1.52-.44,4.25-.24,8.18.2,3.94.11,6.79-.32,8.53-.72,3.04-3.35,5.38-7.87,7.05l-12.94,5.15c1.48,5.39,2.52,8.63,3.19,9.69,1.55,3.13,4.15,5.12,7.84,6.01,2.6.62,5.53-1.08,8.79-5.12,3.25-4.03,7.27-5.48,12.04-4.33,5.86,1.39,11.17,8.39,15.94,20.99,2.67,7.06,6.86,17.81,12.58,32.23h0v-.05h0ZM460.35,402.55c3.31-13.88,1.1-27.12-6.65-39.74s-18.56-20.6-32.42-23.92c-14.09-3.37-27.44-1.23-40.03,6.42-12.59,7.63-20.68,18.46-24.27,32.5-3.54,13.82-1.26,27.02,6.85,39.62,8.09,12.59,19.08,20.55,32.95,23.87,14.73,3.52,28.19,1.64,40.35-5.64,12.17-7.29,19.91-18.34,23.23-33.11h-.01ZM455.47,401.37c-3.16,13.22-10.22,23.11-21.19,29.63-10.96,6.54-23.05,8.24-36.26,5.08-12.79-3.06-22.67-10.12-29.65-21.19-6.98-11.06-8.93-22.98-5.87-35.77,3.02-12.58,10.19-22.25,21.56-29.05,11.38-6.78,23.33-8.67,35.89-5.66,12.56,3,22.37,10.16,29.39,21.46,7.04,11.32,9.08,23.15,6.13,35.5h0Z" fill="#211d15"/>
  </g>
</svg>