<?xml version="1.0" encoding="UTF-8"?>
<svg id="Layer_1" xmlns="http://www.w3.org/2000/svg" version="1.1" viewBox="0 0 600 600">
  <!-- Generator: Adobe Illustrator 30.1.0, SVG Export Plug-In . SVG Version: 2.1.1 Build 136)  -->
  <path d="M300,300v300C135.42,600,0,464.58,0,300c0-52.66,13.86-104.4,40.19-150l259.81,150Z" fill="#cbc2bf"/>
  <path d="M160.07,279.9c20.84,44.37,56.52,80.05,100.89,100.89-44.37,20.84-80.05,56.52-100.89,100.89-20.84-44.37-56.52-80.05-100.89-100.89,44.37-20.84,80.05-56.52,100.89-100.89M160.07,317.73c-12.64,28-35.06,50.42-63.06,63.06,28,12.64,50.42,35.06,63.06,63.06,12.64-28,35.06-50.42,63.06-63.06-28-12.64-50.42-35.06-63.06-63.06" fill="#130c0e"/>
</svg>