<?xml version="1.0" encoding="UTF-8"?>
<svg id="Layer_1" xmlns="http://www.w3.org/2000/svg" version="1.1" viewBox="0 0 600 600">
  <!-- Generator: Adobe Illustrator 30.1.0, SVG Export Plug-In . SVG Version: 2.1.1 Build 136)  -->
  <path d="M300,300l259.81-150c26.33,45.6,40.19,97.34,40.19,150,0,164.58-135.42,300-300,300v-300Z" fill="#c777d6"/>
  <g>
    <path d="M548.42,383.39c-15.31-30.5-59.13-34.12-81.37-31.85-11.11,1.14-20.05,4.08-26.01,6.49,19.11-17.15,39.84-22.11,44.82-23.21,28.05-6.15,50.82,2.21,59.12,5.74-2.58-4.92-6.76-11.86-13.19-19.06-5.48-6.14-32.38-36.29-64.42-31.4-33.73,5.14-50.73,45.69-55.43,67.55-2.35,10.92-2.32,20.33-1.87,26.75-10.93-24.66-8.58-47.08-8-51.89,3.33-27.49,17.64-45.66,23.51-52.36-5.48.94-13.37,2.77-22.21,6.65-7.53,3.31-44.52,19.58-49.78,51.56-5.54,33.68,27.78,62.36,47.11,73.59,9.66,5.61,18.62,8.48,24.87,10.04h-.02c-26.81,2.77-47.39-6.38-51.81-8.43-25.11-11.66-37.97-30.89-42.54-38.54-.8,5.5-1.5,13.57-.53,23.17.82,8.18,4.86,48.39,33.65,63.27,30.32,15.67,67.9-7.15,84.55-22.07,8.32-7.45,13.82-15.08,17.23-20.54-5.66,26.37-20.73,43.13-24.03,46.67-18.85,20.28-41.12,26.57-49.79,28.55,4.98,2.46,12.44,5.62,21.88,7.67,8.03,1.75,47.52,10.33,70.58-12.46,24.27-23.99,14.18-66.78,5.14-87.23-4.52-10.22-10.07-17.81-14.21-22.74l.05.03c23.29,13.52,34.55,32.99,36.92,37.25,13.46,24.19,12.57,47.31,11.77,56.18,3.88-3.98,9.19-10.1,14.05-18.43,4.15-7.11,24.51-42.01,9.96-70.97h0v.02h0ZM468.16,403.42c-3.05,2.87-7.26,6.3-12.72,9.45s-10.53,5.08-14.55,6.29c-3.68-2.02-8.24-4.96-12.93-9.18-4.68-4.22-8.08-8.44-10.48-11.89.78-4.12,2.17-9.37,4.74-15.13,2.56-5.76,5.53-10.3,8.07-13.64,4.16-.53,9.58-.83,15.85-.17,6.27.66,11.51,2.08,15.47,3.46,1.79,3.79,3.75,8.86,5.06,15.02,1.31,6.17,1.58,11.59,1.49,15.78h0Z"/>
    <path d="M425.83,392.52c4.77-2.44,8.17-5.36,10.34-7.52s5.08-5.57,7.52-10.34c2.44,4.77,5.36,8.17,7.52,10.34s5.57,5.08,10.34,7.52c-4.77,2.44-8.17,5.36-10.34,7.52s-5.08,5.57-7.52,10.34c-2.44-4.77-5.36-8.17-7.52-10.34s-5.57-5.08-10.34-7.52Z"/>
  </g>
</svg>