<?xml version="1.0" encoding="UTF-8"?>
<svg id="Layer_1" xmlns="http://www.w3.org/2000/svg" version="1.1" viewBox="0 0 600 600">
  <!-- Generator: Adobe Illustrator 30.1.0, SVG Export Plug-In . SVG Version: 2.1.1 Build 136)  -->
  <path d="M300,300l259.81-150c26.33,45.6,40.19,97.34,40.19,150,0,164.58-135.42,300-300,300v-300Z" fill="#f19dc4"/>
  <path d="M430.67,306.03c1.94,3.25,5.13,8.13,9.86,13.43,6.58,7.38,10.54,9.27,15.03,15.58,2.4,3.37,5.41,8.65,7.24,16.43,1.89-12.33,5.43-21.44,8.16-27.24,2.64-5.59,4.78-8.66,5.68-9.9,1.85-2.54,6.58-8.94,14.44-13.61,11.42-6.79,23.18-6.22,27.97-5.71-2.1,4.48-4.81,11.33-6.17,19.98-2.35,14.94.95,24.8,5.06,44.45,4.82,22.99,7.22,34.48,7.06,46.86-.19,14.77-.41,31.74-11.96,45.69-10.01,12.09-24.24,16.75-36.27,20.7-10.44,3.42-19.51,4.7-25.67,5.23-1.36,4.79-4.14,11.45-7.02,20.26-6.87,20.97-9.74,32.08-13.41,32-3.01-.06-4.6-6.22-13.41-32-3.01-8.81-5.5-15.92-7.02-20.26-6.17-.53-15.23-1.81-25.67-5.23-12.03-3.94-26.27-8.61-36.27-20.7-11.56-13.95-11.77-30.92-11.96-45.69-.16-12.39,2.25-23.88,7.06-46.86,4.12-19.65,7.42-29.52,5.06-44.45-1.36-8.65-4.07-15.5-6.17-19.98,4.8-.51,16.55-1.09,27.97,5.71,7.85,4.67,12.59,11.07,14.44,13.61.9,1.24,3.04,4.31,5.68,9.9,2.73,5.8,6.27,14.91,8.16,27.24,1.83-7.78,4.84-13.06,7.24-16.43,4.49-6.31,8.45-8.21,15.03-15.58,4.72-5.29,7.92-10.18,9.86-13.43h-.02.02Z"/>
</svg>