<?xml version="1.0" encoding="UTF-8"?>
<svg id="Layer_1" xmlns="http://www.w3.org/2000/svg" version="1.1" viewBox="0 0 600 600">
  <!-- Generator: Adobe Illustrator 30.1.0, SVG Export Plug-In . SVG Version: 2.1.1 Build 136)  -->
  <path d="M300,300l259.81-150c26.33,45.6,40.19,97.34,40.19,150,0,164.58-135.42,300-300,300v-300Z" fill="#f9aa8f"/>
  <path d="M547.14,418.62c-9.54,22.79-28.54,34.17-56.92,34.17-5.2,0-10.86.64-16.91,1.96-9.12,1.96-13.68,4.69-13.68,8.14,0,1.07.77,2.34,2.26,3.75,1.53,1.41,2.81,2.13,3.92,2.13-5.41,0-1.75.17,11.08.47,12.82.34,20.83.47,24.07.47-18.87,11.08-50.44,16.15-94.7,15.29-14.53-.21-27.01-6.6-37.4-19.21-10.22-11.93-15.29-25.26-15.29-40,0-15.59,5.24-28.88,15.81-39.88,10.52-10.95,23.6-16.44,39.19-16.44,3.45,0,8.09.77,13.85,2.26,5.75,1.53,9.59,2.26,11.55,2.26,8.01,0,18.02-3.32,29.95-9.93,11.93-6.6,17.59-9.93,16.91-9.93-2.17,22.79-9.76,38.09-22.79,45.88-9.33,5.41-13.97,10.74-13.97,15.93,0,3.24,1.96,5.88,5.84,7.8,3.02,1.53,6.39,2.3,10.1,2.3,5.62,0,11.16-3.45,16.61-10.39,5.41-6.94,7.8-13.25,7.16-18.87-.64-6.52-.21-14.31,1.32-23.43.43-2.6,2-5.79,4.73-9.59,2.73-3.79,5.15-6.13,7.33-6.99,0,1.96-.68,5.2-2.13,9.76-1.41,4.56-2.13,7.92-2.13,10.1,0,4.77,1.28,8.48,3.92,11.08,3.92-1.53,7.37-6.39,10.39-14.66,2.6-6.31,4.13-12.35,4.56-18.23-9.12-.43-17.85-4.56-26.2-12.35-8.35-7.8-12.53-16.27-12.53-25.39,0-1.53.21-3.02.64-4.56,1.28,1.96,3.24,4.98,5.84,9.12,3.71,5.41,6.52,8.14,8.48,8.14,2.6,0,3.92-2.73,3.92-8.14,0-6.94-1.83-13.25-5.54-18.87-4.13-6.73-9.46-10.1-15.93-10.1-3.02,0-7.58,1.62-13.68,4.9-6.09,3.24-11.63,4.9-16.61,4.9-1.53,0-8.26-1.96-20.19-5.88,21.05-3.45,31.57-6.6,31.57-9.42,0-7.37-14.44-12.35-43.28-14.95-2.81-.21-8.01-.64-15.63-1.32.85-1.07,7.03-2.26,18.53-3.58,9.76-1.07,16.61-1.62,20.49-1.62,51.63,0,84.39,25.05,98.28,75.19,2.39-1.96,3.58-5.28,3.58-9.88,0-5.92-1.75-13.42-5.2-22.45-1.32-3.49-3.37-8.78-6.18-15.85,17.77,22.66,26.67,44.14,26.67,64.41,0,10.69-2.51,20.36-7.5,29.1-3.24,5.88-9.33,13.42-18.23,22.58-8.9,9.16-14.95,16.23-18.23,21.26,11.93-3.24,19.77-5.75,23.43-7.5,8.22-3.66,15.72-9.2,22.45-16.61,0,2.81-1.19,7.07-3.58,12.7M405.27,290.73c0,3.92-2.17,6.39-6.52,7.5l-8.48,1.32c-3.02,1.53-7.5,7.5-13.33,17.89-.64-3.24-1.62-7.8-2.94-13.68-1.96.21-5.2,1.96-9.76,5.2-1.96,1.53-5.11,3.79-9.46,6.82,1.32-7.8,5.62-15.72,13.04-23.77,7.8-8.9,15.42-13.33,22.79-13.33,9.76,0,14.66,4,14.66,12.06M461.89,320.68c0,3.71-2,6.77-6.01,9.29-4,2.51-7.97,3.75-11.89,3.75-5.2,0-9.88-2.94-13.97-8.78-4.98-7.16-10.1-11.8-15.29-14.02,1.07-1.07,2.39-1.62,3.92-1.62,1.96,0,5.24,1.53,9.93,4.56,4.64,3.02,7.63,4.56,8.95,4.56,1.07,0,2.85-1.53,5.37-4.56,2.51-3.02,5.24-4.56,8.31-4.56,7.16,0,10.74,3.79,10.74,11.37" fill="#200000"/>
</svg>