<?xml version="1.0" encoding="UTF-8"?>
<svg id="Layer_1" xmlns="http://www.w3.org/2000/svg" version="1.1" viewBox="0 0 600 600">
  <!-- Generator: Adobe Illustrator 30.1.0, SVG Export Plug-In . SVG Version: 2.1.1 Build 136)  -->
  <path d="M300,300l259.81-150c26.33,45.6,40.19,97.34,40.19,150,0,164.58-135.42,300-300,300v-300Z" fill="#f2f75e"/>
  <path d="M545.05,379.95l-37.8,22.32c-.41.24-.24.88.24.88h21.27c.8,0,1.44.65,1.44,1.45v2.13c0,.52-.28,1-.73,1.26l-63.37,35.9c-.65.37-1.48.18-1.91-.44l-2.1-3.04c-.43-.63-.31-1.48.28-1.95l28.35-22.83c.35-.28.15-.86-.32-.85l-23.42.9c-.48.02-.94-.2-1.23-.59h0c-.46-.62-.35-1.49.25-1.98l24.72-20.21c.35-.29.14-.87-.32-.85l-36.7,1.63c-.9.04-1.75.33-2.49.84l-47.69,32.74c-.39.27-.2.87.27.87h57.26c.8,0,1.45.65,1.45,1.45v2.61c0,.5-.25.96-.68,1.23l-103.04,65.12c-.61.39-1.42.27-1.89-.29l-2.15-2.54c-.53-.63-.44-1.57.22-2.08l55.48-43.26c.36-.28.15-.87-.31-.85l-64.87,1.93c-.49.02-.96-.23-1.24-.63l-2-2.92c-.44-.64-.3-1.5.31-1.97l116.83-89.33c.37-.28.16-.86-.3-.85l-80.5,1.26c-.48,0-.94-.23-1.22-.63l-.84-1.2c-.5-.72-.35-1.69.31-2.23l71.13-58.57c.73-.6,2.09-1.09,3.03-1.09h48.83c.56,0,1.08.33,1.31.85l.65,1.42c.28.63.09,1.37-.46,1.77l-45.93,33.43c-.37.27-.18.86.28.86h78.71c.9,0,1.71.51,2.12,1.3l1.19,2.31c.56,1.08.22,2.41-.8,3.09l-53.13,35.13c-.4.27-.21.87.27.87h60.96c.8,0,1.45.65,1.45,1.45v2.15c0,.85-.44,1.63-1.18,2.06h0v-.03Z"/>
</svg>